<?xml version="1.0" standalone="no"?>
<!DOCTYPE svg PUBLIC "-//W3C//DTD SVG 1.1//EN" "http://www.w3.org/Graphics/SVG/1.1/DTD/svg11.dtd">
<svg xmlns="http://www.w3.org/2000/svg">
<metadata>Copyright (C) 2019 by original authors @ fontello.com</metadata>
<defs>
<font id="pltzriconfont" horiz-adv-x="1000" >
<font-face font-family="pltzriconfont" font-weight="400" font-stretch="normal" units-per-em="1000" ascent="850" descent="-150" />
<missing-glyph horiz-adv-x="1000" />
<glyph glyph-name="add" unicode="&#xe800;" d="M1000 405h-444v445h-111v-445h-445v-111h445v-445h111v445h444v111z" horiz-adv-x="1000" />

<glyph glyph-name="alert" unicode="&#xe801;" d="M984 372l-462 462c-12 12-32 12-44 0l-462-462c-13-12-13-32 0-44l462-462c12-13 32-13 44 0l462 462c12 12 12 32 0 44z m-427-247c0-17-15-31-32-31h-62c-18 0-32 14-32 31v63c0 17 14 31 32 31h62c17 0 32-14 32-31v-63z m0 188c0-18-15-32-32-32h-62c-18 0-32 14-32 32v250c0 17 14 31 32 31h62c17 0 32-14 32-31v-250z" horiz-adv-x="1000" />

<glyph glyph-name="answer" unicode="&#xe802;" d="M417 520v256l-414-426 414-426v256c0 0 580 85 580-170 0 425-497 510-580 510z" horiz-adv-x="1000" />

<glyph glyph-name="arbo" unicode="&#xe803;" d="M996 195v186h-248v62 62h-434v62h248v186h-558v-186h248v-62-62h434v-62h-248v-186h248v-62h-248v-186h558v186h-248v62h248z" horiz-adv-x="1000" />

<glyph glyph-name="arrow-down" unicode="&#xe804;" d="M440-50l-150 256c-33 57-87 150-121 208l-149 265c-33 57-7 113 60 113h841c66 0 93-56 59-113l-149-261c-33-57-88-153-121-210l-149-257c-34-57-88-58-121-1z" horiz-adv-x="1000" />

<glyph glyph-name="arrow-left" unicode="&#xe805;" d="M100 411l256 149c57 33 150 88 208 121l265 149c57 34 113 7 113-59v-841c0-66-56-93-113-60l-261 149c-57 34-153 88-210 121l-257 150c-57 33-58 87-1 121z" horiz-adv-x="1000" />

<glyph glyph-name="arrow-right" unicode="&#xe806;" d="M898 290l-257-150c-57-33-152-87-210-121l-260-149c-57-33-113-6-113 60v841c0 66 56 93 113 59l265-149c57-33 151-88 208-121l256-149c57-34 55-88-2-121z" horiz-adv-x="1000" />

<glyph glyph-name="arrow-up" unicode="&#xe807;" d="M561 749l149-257c33-57 88-153 121-210l149-261c34-57 7-113-59-113h-841c-67 0-93 56-60 113l149 265c34 58 88 151 121 208l150 256c33 57 87 56 121-1z" horiz-adv-x="1000" />

<glyph glyph-name="bold" unicode="&#xe808;" d="M82-50l97 27v742l-95 14v102h196c-2 1 4 2 17 3 13 0 29 1 50 2 21 0 45 1 71 2 27 1 54 1 80 2 58 2 109-2 152-13 44-10 81-25 110-45 30-21 52-45 67-75 15-29 22-62 22-99 0-25-3-50-10-74-7-23-17-45-30-65-14-20-31-37-51-52-21-15-45-26-73-33 31 0 60-7 88-19 28-12 52-29 73-50 21-22 38-47 51-75 12-28 18-59 18-91 0-48-7-91-23-128-16-37-41-68-76-93-35-25-81-44-138-57-56-13-126-20-207-20-19 0-37 1-55 1-17 1-36 2-55 3-19 1-39 2-62 2-22 1-47 1-76 1h-141v88z m317 15c11-5 27-10 51-12 23-3 49-5 78-5 31 0 56 7 76 19 20 13 36 29 47 49 12 19 20 40 24 63 5 23 7 44 7 64 0 22-3 43-7 64-5 20-14 39-26 55-12 17-29 30-50 39-21 10-48 15-80 15-19 0-38 0-59-1-20 0-40-2-61-6v-344z m1 450c7-2 17-3 29-4 13-1 30-1 53-1 25 0 47 3 64 9 17 6 32 14 43 24 12 10 21 22 27 35 6 13 11 27 13 40 3 14 5 28 5 41 1 14 1 27 1 38 0 20-2 39-7 57-5 19-13 35-26 49-12 14-30 25-51 33-22 8-49 12-83 12-5 0-10 0-16 0-6-1-13-1-19-2-6 0-12-1-18-3-5-1-10-2-13-4l-2-324z" horiz-adv-x="1000" />

<glyph glyph-name="bookmark" unicode="&#xe809;" d="M803 845v-990l-303 303-303-303v990h606z" horiz-adv-x="1000" />

<glyph glyph-name="calendar" unicode="&#xe80a;" d="M470 350h-123v123h123v-123z m184 123h-123v-123h123v123z m185 0h-123v-123h123v123z m-554-184h-123v-123h123v123z m185 0h-123v-123h123v123z m184 0h-123v-123h123v123z m185 0h-123v-123h123v123z m-554-185h-123v-123h123v123z m185 0h-123v-123h123v123z m184 0h-123v-123h123v123z m308 615v-861h-923v861h123v92c0 17 14 31 31 31h123c17 0 31-14 31-31v-92h307v92c0 17 14 31 31 31h123c17 0 31-14 31-31v-92h123z m-246-61h61v123h-61v-123z m-492 0h61v123h-61v-123z m676-123h-799v-616h799v616z" horiz-adv-x="1000" />

<glyph glyph-name="camera" unicode="&#xe80b;" d="M685 474h62v-62h-62v62z m-185 0c-68 0-124-56-124-124 0-68 56-124 124-124s124 56 124 124c0 68-56 124-124 124z m494-124c0-273-221-494-494-494-273 0-494 221-494 494 0 273 221 494 494 494 273 0 494-221 494-494z m-185 124c0 34-28 61-62 61h-123v31c0 17-14 31-31 31h-186c-17 0-31-14-31-31v-31h-123c-34 0-62-27-62-61v-309c0-34 28-62 62-62h494c34 0 62 28 62 62v309z" horiz-adv-x="1000" />

<glyph glyph-name="check-incircle" unicode="&#xe80c;" d="M998 350c0-275-223-499-498-499-275 0-498 224-498 499 0 275 223 499 498 499 275 0 498-224 498-499z m-74 0c0 234-190 424-424 424-234 0-424-190-424-424 0-234 190-424 424-424 234 0 424 190 424 424z m-257 151l-218-211-115 111-76-74 153-149 38-37 294 286-76 74z" horiz-adv-x="1000" />

<glyph glyph-name="check-insquare" unicode="&#xe80d;" d="M523 412l396 325 74-78-419-453-42-45-39 46-224 260 73 79 181-134z m319-402h-272l-7-9-10 9h-393v682h408l122 151h-682v-985h985v606l-151-188v-266z" horiz-adv-x="1000" />

<glyph glyph-name="check" unicode="&#xe80e;" d="M994 572l-599-600-78 78-311 311 155 156 234-233 444 444 155-156z" horiz-adv-x="1000" />

<glyph glyph-name="comment-full" unicode="&#xe80f;" d="M929 810h-858c-34 0-62-27-62-61v-614c0-33 28-61 62-61h184v-184l253 184h421c34 0 62 28 62 61v614c0 34-28 61-62 61z" horiz-adv-x="1000" />

<glyph glyph-name="comment" unicode="&#xe810;" d="M929 810h-858c-34 0-62-27-62-61v-614c0-33 28-61 62-61h184v-184l253 184h421c34 0 62 28 62 61v614c0 34-28 61-62 61z m-61-613h-736v490h736v-490z" horiz-adv-x="1000" />

<glyph glyph-name="copyright" unicode="&#xe811;" d="M7 350c0 272 221 493 493 493l0 0c272 0 493-221 493-493l0 0c0-272-221-493-493-493l0 0c-272 0-493 221-493 493l0 0z m86 0c0-225 182-407 407-407l0 0c225 0 407 182 407 407l0 0c0 225-182 407-407 407l0 0c-225 0-407-182-407-407l0 0z m445-257c0 0 0 0 0 0l0 0c65 0 131 25 181 75l-60 61 0 0 0 0c-34-34-77-51-121-51l0 0c-44 0-88 17-122 51l0 0c-33 33-50 77-50 121l0 0c0 44 17 88 50 121l0 0c34 34 78 51 122 51l0 0c44 0 87-17 121-51l60 61 0 0c-50 50-116 75-181 75l0 0c-66 0-132-25-182-75l0 0c-50-50-75-116-75-182l0 0c0-66 25-132 75-182l0 0c50-50 116-75 182-75l0 0z" horiz-adv-x="1000" />

<glyph glyph-name="cross-insquare" unicode="&#xe812;" d="M912 845h-824c-46 0-83-37-83-83v-824c0-45 37-83 83-83h824c45 0 83 38 83 83v824c0 46-38 83-83 83z m-82-708l-117-117-213 214-213-214-117 117 213 213-219 219 117 117 219-219 219 219 117-117-219-219 213-213z" horiz-adv-x="1000" />

<glyph glyph-name="cross" unicode="&#xe813;" d="M798-145l-297 297-298-297-198 198 297 298-297 297 198 198 297-297 297 297 198-199-296-296 297-298-198-198z" horiz-adv-x="1000" />

<glyph glyph-name="cup" unicode="&#xe814;" d="M809 685l62 124h-62-618-62l62-124h-186v-155c0-59 1-189 210-212 39-93 122-163 223-184 0-20 0-44 0-68 0-124-247-124-309-124 0-62 0-62 0-62h371 371c0 0 0 0 0 62-62 0-309 0-309 124 0 24 0 48 0 68 101 21 184 91 223 184 209 23 210 153 210 212v155h-186z m-618-302c-124 24-124 96-124 147v93h124v-240z m742 147c0-51 0-123-124-147v240h124v-93z" horiz-adv-x="1000" />

<glyph glyph-name="cursors" unicode="&#xe815;" d="M37 845c-19 0-34-15-34-33v-924c0-18 15-33 34-33h926c19 0 34 15 34 33v924c0 18-15 33-34 33h-926z m827-858h-728v726h728v-726z m-629 462h33v-330h67v330h33c18 0 33 15 33 33 0 18-15 33-33 33h-33v66h-67v-66h-33c-18 0-33-15-33-33 0-18 15-33 33-33z m199-198h33v-132h66v132h33c18 0 33 15 33 33 0 18-15 33-33 33h-33v264h-66v-264h-33c-18 0-33-15-33-33 0-18 15-33 33-33z m198 132h34v-264h66v264h33c18 0 33 15 33 33 0 18-15 33-33 33h-33v132h-66v-132h-34c-18 0-33-15-33-33 0-18 15-33 33-33z" horiz-adv-x="1000" />

<glyph glyph-name="dot" unicode="&#xe816;" d="M1000 350c0-276-224-500-500-500s-500 224-500 500 224 500 500 500 500-224 500-500z" horiz-adv-x="1000" />

<glyph glyph-name="draft" unicode="&#xe817;" d="M904 847h-744c-35 0-62-28-62-62v-124h93c17 0 31-14 31-31 0-17-14-31-31-31h-124c-18 0-31-14-31-31 0-17 13-31 31-31h31v-124h93c17 0 31-14 31-31 0-17-14-31-31-31h-124c-18 0-31-14-31-31 0-17 13-31 31-31h31v-124h93c17 0 31-14 31-31 0-17-14-31-31-31h-124c-18 0-31-14-31-31 0-17 13-31 31-31h31v-124c0-34 27-62 62-62h744c34 0 62 28 62 62v868c0 34-28 62-62 62z m-124-434h-372v248h372v-248z" horiz-adv-x="1000" />

<glyph glyph-name="duo" unicode="&#xe818;" d="M672 187c18-28 13-205 13-205h-679c0 0-5 177 13 205 20 32 89 52 157 80 68 28 84 38 84 38l0 65c0 0-25 20-33 81-16-5-32 24-33 38-1 15 2 55 21 51-4 30-7 57-5 71 5 52 56 108 135 108 80 0 131-56 136-108 2-14-1-41-5-71 19 4 22-36 21-51-1-14-17-43-33-38-8-61-33-81-33-81l0-65c0 0 16-10 84-38 68-28 137-48 157-80z m310-21c-18 29-18 46-79 72-61 25-75 34-75 34l-1 59c0 0 23 17 30 72 15-4 30 22 30 35 1 13-2 49-19 45 4 27 6 51 5 64-5 47-51 97-122 97-71 0-117-50-122-97-1-13 1-37 5-64-18 4-20-32-19-45 0-13 15-39 30-35 7-55 30-72 30-72l-20-16c57-27 119-65 119-104v-229h220c0 0 5 159-12 184z" horiz-adv-x="1000" />

<glyph glyph-name="duplicate" unicode="&#xe819;" d="M713 563v283h-709v-709h283v-283h709v709h-283z m212-638h-567v567h567v-567z" horiz-adv-x="1000" />

<glyph glyph-name="edit" unicode="&#xe81a;" d="M872 40l125-124-63-63-124 125-124-125-124 435 435-124-125-124z m-806 558h-62v-124h62v124z m744-124h62v124h-62v-124z m-744-124h-62v-124h62v124z m-62 497v-63-62h62v62h62v63h-62-62z m806-125h62v62 63h-62-62v-63h62v-62z m-558 62h124v63h-124v-63z m372 63h-124v-63h124v63z m-558-745h-62v-62-62h62 62v62h-62v62z m186-124h124v62h-124v-62z" horiz-adv-x="1000" />

<glyph glyph-name="gear" unicode="&#xe81b;" d="M935 445h-136c-8 27-20 51-34 74l91 91c21 21 21 56 0 77l-38 38c-22 21-56 21-78 0l-92-92c-24 15-51 25-80 33v119c0 30-24 55-54 55h-55c-30 0-54-25-54-55v-119c-31-8-61-21-88-37l-77 77c-21 21-56 21-77 0l-38-38c-21-22-21-56 0-77l78-79c-16-29-29-60-36-94h-102c-30 0-55-24-55-54v-55c0-30 25-54 55-54h109c10-33 25-63 44-91l-74-74c-21-21-21-55 0-77l38-38c22-21 56-21 78 0l82 83c28-14 58-24 90-29v-114c0-30 24-55 54-55h55c30 0 54 25 54 55v128c28 9 54 22 77 39l88-88c21-21 55-21 77 0l38 39c22 21 22 55 0 77l-96 96c12 24 21 49 27 76h129c30 0 55 24 55 55v54c0 30-25 54-55 54z m-449-231c-75 0-135 61-135 136 0 75 60 136 135 136 76 0 137-61 137-136 0-75-61-136-137-136z" horiz-adv-x="1000" />

<glyph glyph-name="geomark" unicode="&#xe81c;" d="M500 848c-165 0-298-134-298-299 0-165 298-697 298-697s299 532 299 697c0 165-134 299-299 299z m0-398c-55 0-99 44-99 99 0 55 44 100 99 100 55 0 100-45 100-100 0-55-45-99-100-99z" horiz-adv-x="1000" />

<glyph glyph-name="geooutsider" unicode="&#xe81d;" d="M683-117c-36 17-80 28-127 32v36c41 5 81 20 116 44 4 3 9 7 14 10l0 1 0 0 11 10-46 46-23-23 20-21c-50-34-112-45-172-29-73 20-130 77-150 150-17 64-2 132 38 184l23-23 23 23-46 47-23-23 0-1c-48-60-66-140-46-216 23-84 88-150 173-172 7-3 15-4 23-5v-38c-47-4-91-15-127-32-7-4-10-11-9-19 2-7 9-12 16-12h305c7 0 14 5 15 12 2 8-1 15-8 19z m-102 448c55 105 132 267 132 333 0 102-82 184-184 184-102 0-185-82-185-184 0-66 79-229 133-334-54-22-93-75-93-137 0-80 66-146 147-146 81 0 146 66 146 146 0 64-40 117-96 138z m-52 394c34 0 61-27 61-61 0-34-27-62-61-62-34 0-62 28-62 62 0 34 28 61 62 61z m2-637c-58 0-106 47-106 105 0 47 30 86 72 100 19-36 32-59 32-59s13 23 33 60c43-13 74-53 74-101 0-58-47-105-105-105z" horiz-adv-x="1000" />

<glyph glyph-name="goleft" unicode="&#xe81e;" d="M741 845l-578-495 578-495 96 111-448 384 448 384-96 111z" horiz-adv-x="1000" />

<glyph glyph-name="goright" unicode="&#xe81f;" d="M259-145l578 495-578 495-96-111 449-384-449-384 96-111z" horiz-adv-x="1000" />

<glyph glyph-name="goto" unicode="&#xe820;" d="M691 46v152c0 0-609 152-685-152 0 152 76 456 685 456v152l304-306-304-302z" horiz-adv-x="1000" />

<glyph glyph-name="graph" unicode="&#xe821;" d="M858 838h-718c-72 0-130-58-130-130v-718c0-72 58-130 130-130h718c72 0 130 58 130 130v718c0 72-58 130-130 130z m-585-795h-150v252c0 23 19 43 43 43h64c24 0 43-20 43-43v-252z m203 0h-149v357c0 24 19 43 43 43h63c24 0 43-19 43-43v-357z m204 0h-150v463c0 24 20 43 43 43h64c24 0 43-19 43-43v-463z m204 0h-150v569c0 24 19 43 43 43h64c23 0 43-19 43-43v-569h0z" horiz-adv-x="1000" />

<glyph glyph-name="grp" unicode="&#xe822;" d="M407 755c0 52 41 94 93 94s94-42 94-94c0-51-42-93-94-93s-93 42-93 93z m31-779h124l38 312h87v268c-37 22-88 36-146 41h-82c-58-5-109-19-146-41v-268h87l38-312z m208 180l-7-63c157-17 217-62 235-86-23-30-109-93-374-93s-351 63-374 93c18 24 78 69 236 86l-8 63c-204-20-352-79-352-149 0-86 223-156 498-156 275 0 499 70 499 156 0 70-149 129-353 149z" horiz-adv-x="1000" />

<glyph glyph-name="h1" unicode="&#xe823;" d="M232 436c0-3-2-5-6-5h-78v-220c0-3-2-5-5-5h-53c-3 0-5 2-5 5v220h-79c-3 0-5 2-5 5v46c0 3 2 5 5 5h220c4 0 6-2 6-5v-46z m110-225c0-3-2-5-6-5h-52c-3 0-5 2-5 5v134h-21c-3 0-5 2-5 6v44c0 4 2 6 5 6h78c4 0 6-2 6-6v-184z m-2 251c0-22-12-36-35-36-22 0-35 14-35 36 0 23 13 36 35 36 23 0 35-13 35-36z m169-61c3 0 5-2 5-6v-44c0-4-2-6-5-6h-45v-72c0-10 4-16 10-16 4 0 7 1 10 2 3 1 6 1 7-3l19-38c1-2 1-5-2-7-9-6-22-9-34-9-46 0-73 26-73 71v72h-20c-3 0-5 2-5 6v44c0 4 2 6 5 6h20v43c0 2 2 4 5 6l52 17c4 1 6 0 6-4v-62h45z m168-47c0-3-2-5-5-5-44-2-57-26-57-106v-32c0-3-2-5-6-5h-52c-3 0-5 2-5 5v184c0 4 2 6 5 6h28c3 0 5-2 6-4l10-16c4-5 5-6 10-1 17 18 33 24 61 25 3 0 5-2 5-5v-46z m185-94c-1 3-3 4-6 3l-24-5c-6-1-17-3-25-3-19 0-29 6-36 20l46 7c45 6 68 24 68 56 0 41-31 67-80 67-63 0-99-39-99-102 0-62 36-101 101-101 10 0 23 1 37 4l25 6c3 1 5 3 4 6l-11 42z m-60 91c16 0 24-4 24-14 0-9-6-14-18-15l-41-7c1 25 18 36 35 36z" horiz-adv-x="885" />

<glyph glyph-name="h2" unicode="&#xe824;" d="M29 173h-25v354h25v-354z m243 42c-7-1-14-3-22-4-8-1-17-2-27-2s-19 2-27 5c-8 3-16 7-22 12-6 5-12 11-16 18-5 7-9 14-12 23-6 16-9 33-9 50 0 18 2 33 4 46 3 13 7 25 13 37 5 11 12 22 20 31 7 9 16 17 25 23 20 13 41 20 63 20 21 0 41-3 60-8l7-2-12-62h-19l-4 44c-5 4-11 6-18 7-7 1-14 1-22 1-8 0-17-2-25-6-8-5-16-10-22-17-7-7-12-15-16-24-12-25-18-52-18-83 0-26 4-48 13-65 11-20 25-30 44-30 15 0 28 3 38 10 3 2 6 5 7 8l12 33 20 0-6-56c-3-1-7-2-12-4-5-2-11-3-17-5z m101-6c-14 0-21 6-21 19 0 8 1 23 5 46l16 104-25 9 3 13 51 9 8-4-23-161c-1-2-1-4-1-6 0-5 2-7 5-7 4 0 10 4 18 11l5-9c-6-9-15-16-27-21-5-2-9-3-14-3z m25 238c-3 0-6 1-9 2-7 3-11 9-11 18 0 6 3 12 8 17 5 5 10 8 15 8s7-1 10-2c8-3 12-9 12-17 0-7-3-13-8-18-5-5-11-8-17-8z m87-238c-21 0-31 10-31 30v2c0 3 0 10 2 20l15 123h-20l3 15 21 8c6 7 14 23 22 45h17l-6-44h44l-3-24h-44l-14-106c-2-14-3-23-3-28 0-4 0-8 1-10 0-2 1-4 2-5 2-2 4-3 8-3 4 0 8 1 11 2 3 1 6 2 9 3 6 3 12 6 16 9l3-13c-8-9-21-17-38-22-6-2-11-2-15-2z m239 30c-7-6-11-8-14-8-2 0-4 1-5 3-2 2-2 5-1 10l22 165-20-6c-12 4-24 6-35 6-11 0-21-2-31-6-29-11-50-33-65-65-8-19-13-38-13-56 0-22 5-40 14-53 10-14 24-20 42-20 20 0 37 8 52 26l0-4c0 0 0-1 0-2 0-14 7-20 21-20 8 0 17 3 27 10 5 4 9 7 11 11l-5 9z m-50 23c-3-3-6-6-9-10-13-13-26-19-41-19-8 0-15 4-20 14-2 4-4 10-5 17-1 6-2 15-2 27 0 12 2 25 7 40 3 7 6 15 10 22 3 6 8 13 13 18 5 5 11 9 18 13 6 3 14 4 23 4s16-2 21-5l-15-121z m125-53c-21 0-31 10-31 30v2c0 3 1 10 2 20l15 123h-20l3 15 21 8c7 7 14 23 23 45h16l-6-44h44l-3-24h-44l-14-106c-2-14-3-23-3-28 0-4 0-8 1-10 0-2 1-4 2-5 2-2 5-3 9-3 4 0 7 1 10 2 3 1 6 2 9 3 7 3 12 6 16 9l3-13c-8-9-20-17-38-22-5-2-10-2-15-2z m112 0c-14 0-21 6-21 19 0 8 2 23 6 46l15 104-25 9 3 13 51 9 9-4-24-161c0-2 0-4 0-6 0-5 1-7 4-7 4 0 10 4 18 11l5-9c-5-9-14-16-27-21-4-2-9-3-14-3z m25 238c-3 0-6 1-8 2-8 3-12 9-12 18 0 6 3 12 8 17 6 5 10 8 15 8 4 0 8-1 10-2 8-3 12-9 12-17 0-7-2-13-8-18-5-5-11-8-17-8z m191-58c-6 6-13 11-21 15-8 3-18 5-28 5-10 0-19-2-28-5-17-6-31-17-42-33-18-24-27-51-27-82 0-39 13-64 39-75 8-4 17-5 27-5 11 0 20 1 28 4 17 7 32 18 43 34 18 24 27 51 27 82 0 26-6 46-18 60z m-30-125c-3-7-7-13-11-18-4-5-9-9-14-12-5-3-11-5-18-5-6 0-11 2-16 4-14 8-22 27-22 56 0 24 5 46 13 65 3 7 7 13 11 18 4 5 8 9 14 12 5 3 11 4 17 4 6 0 12-1 17-4 14-8 21-26 21-56 0-24-4-45-12-64z m212-56c-14 0-21 8-20 23 0 7 1 15 2 22l3 19c1 4 2 12 4 23 2 11 4 20 5 26 2 15 3 26 3 33 0 7 0 13-1 16-1 4-2 7-4 8-2 3-6 4-12 4-6 0-11-1-16-3-5-2-10-5-15-9-11-8-21-18-29-30l-17-128h-33l22 163-17 10 3 15 41 9 8-4-3-36c15 18 32 31 50 37 6 2 12 3 19 3s11-1 16-3c4-1 9-4 12-8 7-9 10-22 10-40 0-10-1-21-4-34-2-13-4-23-5-29-6-34-8-54-7-61 1-2 2-3 5-3 2 0 7 2 13 7l6-8c-5-8-14-14-25-19-4-2-9-3-14-3z" horiz-adv-x="1353" />

<glyph glyph-name="info" unicode="&#xe825;" d="M850 700c-193 193-507 193-700 0-193-193-193-507 0-700s507-193 700 0c193 193 193 507 0 700z m-358 59c52 0 95-42 95-94 0-53-43-96-95-96-53 0-96 43-96 96 0 53 42 94 96 94z m152-697c0-19-9-29-29-29h-245c-20 0-29 10-29 29v63c0 20 9 29 29 29h46v263h-47c-20 0-29 10-29 30v62c0 20 9 30 29 30h171c20 0 30-10 30-30v-355h45c20 0 29-9 29-29v-63z" horiz-adv-x="1000" />

<glyph glyph-name="invisible" unicode="&#xe826;" d="M893 770l-201-201c-61 27-126 46-192 46-228 0-421-191-485-262-14-14-14-37 0-51 37-42 119-123 227-184l-130-130 58-58 781 782-58 58z m-377-378c-4 0-9 1-14 1-37 0-65-29-65-65 0-5 0-10 1-14l-98-98c-22 32-35 70-35 112 0 110 88 198 198 198 42 0 80-13 112-35l-99-99z m469-38c-30 31-88 87-160 137l-130-130c2-11 3-22 3-34 0-109-88-198-198-198-11 0-22 1-34 4l-76-77c35-9 72-14 110-14 227 0 420 186 485 258 14 16 14 39 0 54z" horiz-adv-x="1000" />

<glyph glyph-name="italic" unicode="&#xe827;" d="M228-65c8 24 18 52 30 87 13 34 27 73 42 116 16 43 33 90 52 141 19 50 38 104 59 160l-131 30 23 48 331 30 43-14-203-547c-11-30-5-45 18-45 10 0 22 2 35 7 14 5 33 14 57 26l20-37c-5-4-15-11-30-20-14-9-32-19-54-29-21-9-46-18-74-25-29-7-59-11-91-11-48 0-84 7-107 22-22 14-29 34-20 61z m375 729c-17 0-32 2-46 7-14 5-26 11-36 19-10 8-17 17-22 27-5 10-6 20-4 31 3 14 9 27 20 39 10 12 22 22 37 31 15 9 31 16 50 22 18 5 38 8 58 8 20 0 37-3 53-7 16-5 28-11 38-18 10-8 17-17 21-26 4-10 5-20 3-30-3-14-9-27-18-40-10-12-22-23-36-33-15-9-33-16-52-22-20-5-42-8-66-8z" horiz-adv-x="1000" />

<glyph glyph-name="like-no" unicode="&#xe828;" d="M881 719c-70 127-110 111-319 111s-303-133-303-133v-446l34-4c163-32 209-293 209-353 0-64 108 9 139 64 43 74 16 177 8 261 101-2 241 4 317 42 81 40-16 330-85 458z m-686-405v447c0 35-29 64-64 64h-127v-574h127c35 0 64 28 64 63z m-64 383h-64v64h64v-64z" horiz-adv-x="1000" />

<glyph glyph-name="like-yes" unicode="&#xe829;" d="M966 439c-76 38-216 44-317 42 8 84 35 188-8 261-31 55-139 128-139 64 0-60-46-321-209-353l-34-3v-447c0 0 94-133 303-133 209 0 249-16 319 111 69 128 166 418 85 458z m-835 11h-127v-575h127c35 0 64 29 64 64v447c0 35-29 64-64 64z m0-511h-64v64h64v-64z" horiz-adv-x="1000" />

<glyph glyph-name="link" unicode="&#xe82a;" d="M939 459l-282-281c-77-78-203-78-281 0l-41 42 96 91 39-39c26-26 68-26 94 0l281 281c26 26 26 68 0 94l-47 46c-26 26-68 26-94 0l-57-56c-54 30-119 34-175 11l139 139c77 78 203 78 281 0l47-47c77-77 77-203 0-281z m-586-395l-57-57c-26-26-68-26-94 0l-47 47c-26 25-26 67 0 93l281 281c26 26 68 26 94 0l39-39 97 91-42 42c-78 78-204 78-281 0l-282-281c-77-78-77-204 0-281l47-47c78-78 204-78 282 0l139 139c-57-23-122-19-176 12z" horiz-adv-x="1000" />

<glyph glyph-name="menu" unicode="&#xe82b;" d="M93 599h814c50 0 90 28 90 62s-40 62-90 62h-814c-49 0-90-28-90-62s41-62 90-62z m814-187h-814c-49 0-90-28-90-62s41-62 90-62h814c50 0 90 28 90 62s-40 62-90 62z m0-311h-814c-49 0-90-27-90-62s41-62 90-62h814c50 0 90 28 90 62s-40 62-90 62z" horiz-adv-x="1000" />

<glyph glyph-name="move" unicode="&#xe82c;" d="M750 163v125h-187v-188h127l-188-250-187 250h123v188h-188v-125l-250 187 250 187v-124h188v187h-123l187 250 188-250h-127v-187h187v124l250-187-250-187z" horiz-adv-x="1000" />

<glyph glyph-name="notif" unicode="&#xe82d;" d="M806 312c0 138 0 402-231 449 0 3 2 5 2 8 0 42-35 76-77 76-42 0-76-34-76-76 0-3 1-5 1-8-230-47-231-311-231-449 0-152-153-228-153-228v-77h918v77c0 0-153 76-153 228z m-382-457h153c42 0 76 34 76 76h-306c0-42 34-76 77-76z" horiz-adv-x="1000" />

<glyph glyph-name="plane" unicode="&#xe82e;" d="M5 290l309-61v-363l261 228 296-228 124 968-990-544z m391-244v182l495 464-20-76-475-570z" horiz-adv-x="1000" />

<glyph glyph-name="planeincircle" unicode="&#xe82f;" d="M649 483l-274-299v96l286 243-12-40z m-149 363c-271 0-491-222-491-496 0-274 220-496 491-496s490 222 490 496c0 274-219 496-490 496z m172-764l-185 130-164-130v207l-194 34 621 309-78-550z" horiz-adv-x="1000" />

<glyph glyph-name="play" unicode="&#xe830;" d="M853 702c-195 195-511 195-705 0-195-194-195-510 0-704 194-195 510-195 705 0 194 194 194 510 0 704z m-496-554v404l347-202-347-202z" horiz-adv-x="1000" />

<glyph glyph-name="pltzr-logo-alt" unicode="&#xe831;" d="M609 589h-348v-130h348v-44h-348v-130-44-130h130v130h-87v44h305 130v304h-130z m-479 131h740v-740h-740v740z m-130 130v-130-740-130h130 740 130v1000h-1000z" horiz-adv-x="1000" />

<glyph glyph-name="pltzr-logo" unicode="&#xe832;" d="M0 850v-1000h1000v1000h-1000z m738-392v-43-130h-130-303v-43h87v-130h-130v130 43 130h346v43h-346v130h346 130v-130z" horiz-adv-x="1000" />

<glyph glyph-name="prefs" unicode="&#xe833;" d="M401 252l99-99-296-296-197 197 99 99 98-99 197 198z m-197 394l-98 99-99-99 197-197 296 296-99 98-197-197z m395-99h394v99h-394v-99z m0-591h394v98h-394v-98z" horiz-adv-x="1000" />

<glyph glyph-name="profil-citoyen" unicode="&#xe834;" d="M121 14c0 1-1 1-1 2h0c0 0 0 0 0 0 0 0 0 0 0 0-1 1-2 3-1 10l0 0c1 9 2 41 3 67 3 54 6 96 12 105 13 20 43 36 80 52l0 0c29 12 63 24 96 38 9 4 17 7 24 11 55 23 68 32 68 32l1 72c-2 2-8 8-15 20-8 13-17 36-22 69-13-3-26 14-32 29-3 6-5 12-5 17-1 16 2 61 24 56-5 34-8 64-6 80 5 59 63 121 151 121 88 0 145-62 151-121 2-16-2-46-6-80 22 5 25-40 24-56 0-9-6-23-14-32-7-9-15-15-24-14-9-67-36-88-36-88l0-73c0 0 18-11 94-43 75-32 152-54 175-90l1-8c5-16 7-41 9-67 0 0 0 0-1-1l1 0c44 70 70 154 70 243 0 97-30 190-87 268-9 12-6 29 6 37 12 9 29 6 37-5 64-88 98-191 98-300 0-280-228-508-509-508-124 0-242 45-335 127l0 0c-3 2-24 20-31 30" horiz-adv-x="1000" />

<glyph glyph-name="profil-elu" unicode="&#xe835;" d="M996 365c0-280-228-508-509-508-135 0-263 53-359 149-3 3-5 6-6 10 0-1 0-2 0-3-4 7-4 15 0 22 0 0 0-1 0-1 1 3 3 6 6 9-1 0-1 0-1 0-2-3-4-5-5-8 1 71 5 148 15 165 3 4 7 9 11 13l300-301c13-1 26-2 39-2 23 0 46 2 67 5l-340 335c29 12 63 24 96 38 10 4 18 8 26 11l349-343c23 11 45 24 66 39l-348 340 1 68c0 0-28 22-37 89-18-5-36 27-37 43-1 16 2 61 24 56-5 33-8 63-6 79 5 58 62 119 150 119 87 0 144-61 149-119 2-16-1-46-6-79 22 5 25-40 24-56-1-16-19-48-37-43-8-67-37-89-37-89l1-72c0 0 18-11 93-43 75-31 151-53 173-88 8-13 12-44 14-77-20-31-43-59-68-84 85 82 138 198 138 326 0 97-30 190-87 268-9 12-6 29 6 37 12 9 29 6 37-5 64-88 98-191 98-300z" horiz-adv-x="1000" />

<glyph glyph-name="publish" unicode="&#xe836;" d="M452 61c64-64 0-128-64-128-64 0-129 128-129 192 0 18-5 41-12 65h160c6-54 21-105 45-129z m449 0c0 0-166 166-344 190l-105 3h-321c-71 0-128 72-128 160 0 89 57 161 128 161 0 0 186 0 321 0l105 3c178 24 344 189 344 189 129-192 129-513 0-706z m-385 450h-385c-46 0-54-65-59-65h444v65z m385-65c0 0 21 152-23 220 0 0-135-137-271-155h-27v-65h321z" horiz-adv-x="1000" />

<glyph glyph-name="pulse" unicode="&#xe837;" d="M961 345h-69l-94-94-22-22-212 424-204-409-193 289-125-188h-38v-100h91l66 100h12l29-44 170-254 192 384 185-369 184 183h63v100h-35z" horiz-adv-x="1000" />

<glyph glyph-name="question" unicode="&#xe838;" d="M850 700c-193 193-507 193-700 0-194-193-194-507 0-700 193-193 507-193 700 0 194 193 194 507 0 700z m-371-748c-54 0-97 43-97 97 0 54 42 97 97 97 54 0 97-44 97-97 0-53-44-97-97-97z m68 339v-54c0-26-10-36-36-36h-70c-26 0-36 10-36 36v120c0 31 31 40 58 48 7 2 14 4 20 6 36 13 58 29 58 68 0 13 0 52-64 52-39 0-74-15-96-24-12-5-18-7-24-7-12 0-23 9-25 20l-25 63c-3 8-3 13-3 18 0 47 146 73 195 73 122 0 204-79 204-196 0-126-95-166-156-187z" horiz-adv-x="1000" />

<glyph glyph-name="quote" unicode="&#xe839;" d="M996 600l-32 147c-229-11-388-190-388-471v-323h401v406h-152c0 90 56 227 171 241z m-572 0l-32 147c-229-11-388-190-388-471v-323h400v406h-151c0 90 56 227 171 241z" horiz-adv-x="1000" />

<glyph glyph-name="ranking" unicode="&#xe83a;" d="M500 279l-244-245-245 245h122v244h245v-244h122z m245 387l-245-244h122v-245h245v245h122l-244 244z" horiz-adv-x="1000" />

<glyph glyph-name="reaction" unicode="&#xe83b;" d="M376 721c0 68 56 123 124 123 68 0 124-55 124-123s-56-124-124-124c-68 0-124 56-124 124z m495-371h-742c-34 0-61-28-61-62 0-34 27-62 61-62h186l61-370h248l61 370h186c34 0 62 28 62 62 0 34-28 62-62 62z m-247 247h-62l-62-123-62 123h-62c-101 0-185-83-185-185h618c0 102-83 185-185 185z" horiz-adv-x="1000" />

<glyph glyph-name="remove" unicode="&#xe83c;" d="M893 35l-314 314 314 315-79 78-314-314-314 314-79-78 315-314-315-315 79-78 314 314 314-314 79 78z" horiz-adv-x="1000" />

<glyph glyph-name="search" unicode="&#xe83d;" d="M115 228c-69 70-103 161-103 254 0 193 164 357 357 357 195 0 359-161 359-355 0-84-29-167-86-235l163-66 165-167c13-16 20-37 20-58 0-51-44-98-97-98-21 0-40 7-58 20l-167 167-66 161c-67-57-149-86-233-86-91 0-183 36-254 106z m410 97c43 43 64 100 64 157 0 118-99 219-220 219-117 0-218-100-218-219 0-122 99-221 218-221 56 0 113 22 156 64z" horiz-adv-x="1000" />

<glyph glyph-name="secure-paiement" unicode="&#xe83e;" d="M871 226v31c0 51-24 95-62 123-25 20-57 32-92 32-35 0-67-12-93-32-38-28-62-72-62-123v-31h-62v-371h433v371h-62z m-123-247h-62v124h62v-124z m61 247h-185v31c0 51 41 93 93 93 51 0 92-42 92-93v-31z m62 619h-742c-68 0-124-56-124-124v-495c0-68 56-123 124-123h309v61h-309c-34 0-62 28-62 62v310h866v-248h62v433c0 68-56 124-124 124z m62-186h-866v62c0 34 28 62 62 62h742c35 0 62-28 62-62v-62z" horiz-adv-x="1000" />

<glyph glyph-name="settings" unicode="&#xe83f;" d="M962 843h-924c-18 0-33-15-33-33v-920c0-18 15-33 33-33h924c18 0 33 15 33 33v920c0 18-15 33-33 33z m-99-855h-726v724h726v-724z m-660 494c0 17 15 32 33 32h33v66h66v-66h33c18 0 33-15 33-32 0-19-15-33-33-33h-33v-329h-66v329h-33c-18 0-33 14-33 33z m231-231h33v-131h66v131h33c18 0 33 15 33 33 0 18-15 33-33 33h-33v263h-66v-263h-33c-18 0-33-15-33-33 0-18 15-33 33-33z m198 132h33v-263h66v263h33c18 0 33 15 33 33 0 18-15 33-33 33h-33v131h-66v-131h-33c-18 0-33-15-33-33 0-18 15-33 33-33z" horiz-adv-x="1000" />

<glyph glyph-name="snrgzr-logo" unicode="&#xe840;" d="M-1 850v-1001h1000v1001h-1000z m697-679l-193-68-254 91v113l394-143 49 18c3 1 6-1 7-4 2-3 0-6-3-7z m57 29l-504 183v116l504-184v-115z m0 193l-396 144-42-15c0 0 0-1-1-1-2 0-4 2-5 4-1 3 0 7 3 8l190 70 251-92v-118z" horiz-adv-x="1000" />

<glyph glyph-name="social-fb" unicode="&#xe841;" d="M996-91c0-30-24-54-54-54h-251v384h130l19 149h-149v95c0 43 11 73 73 73h78v135c-13 3-59 6-116 6-114 0-192-71-192-198v-111h-130v-149h130v-384h-476c-30 0-55 24-55 54v882c0 30 25 54 55 54h885c29 0 54-24 54-54v-882h-1z" horiz-adv-x="1000" />

<glyph glyph-name="social-gg" unicode="&#xe842;" d="M621 414c22-153-42-379-303-379-175 0-315 140-315 315 0 175 140 315 315 315 81 0 155-29 212-81-64-62-62-64-89-91-32 27-69 47-123 47-104 0-185-84-185-187 0-104 81-188 185-188 101 0 143 45 170 126-50 0-170 0-170 0v123h303z m266-5v111h-77v-111h-113v-76h113v-113h77v113h110v76h-110z" horiz-adv-x="1000" />

<glyph glyph-name="social-medium" unicode="&#xe843;" d="M776 847h-552c-121 0-221-100-221-221v-552c0-121 100-221 221-221h552c121 0 221 100 221 221v552c0 121-100 221-221 221z m-551-259l1 0-1 0c0 0 0 0 0 0z m155-457c0-17-12-24-27-17l-149 75c-9 4-16 16-16 26v367c0 13 9 19 21 13l170-85c1 0 1-1 1-2v-377z m11 158v215c0 1 0 2-1 2l0 0c1 0 1-1 1-1l192-312-192 96z m80 108l116 190c5 8 17 11 25 7l175-87c1-1 1-2 1-3l-192-311-125 204z m328-276c0-17-15-23-32-14l-161 80 192 311c0 0 0 2-1 2 1 0 2-2 2-3v-376z" horiz-adv-x="1000" />

<glyph glyph-name="social-rss" unicode="&#xe844;" d="M230 80c24-24 38-56 39-92-1-36-15-69-39-93l0 0c-24-23-57-38-93-38-36 0-69 15-93 38-23 24-38 57-38 93 0 36 15 68 38 92l0 0c24 24 57 39 93 39 36 0 69-15 93-39z m0 0l0 0h0 0z m-186-185v0l0 0v0z m-38 613v-189c123 0 240-48 327-135 87-87 135-204 136-328h0v0h189c0 180-73 342-191 461-118 118-281 191-461 191z m0 336v-188c441-1 799-359 799-800h189c0 272-111 519-290 698-179 179-425 290-698 290z" horiz-adv-x="1000" />

<glyph glyph-name="social-tw" unicode="&#xe845;" d="M878 628c39 2 79 15 116 31-27-42-61-79-101-108 0-8 0-18 0-26 0-275-205-591-577-591-116 0-221 34-311 92 16-2 32-2 47-2 95 0 182 34 251 89-90 3-164 64-190 145 11-2 24-2 37-2 18 0 37 2 53 8-95 18-164 102-164 203v2c29-15 58-26 92-26-52 40-89 103-89 174 0 39 8 74 26 105 100-123 248-208 417-216-3 16-6 32-6 48 0 116 93 208 203 208 58 0 111-26 148-66 48 8 90 26 129 50-15-50-47-90-81-118z" horiz-adv-x="1000" />

<glyph glyph-name="social-wa" unicode="&#xe846;" d="M997 375c-7 262-222 472-488 472-262 0-476-205-487-463-1-7-1-14-1-21 0-92 26-177 70-250l-88-260 270 86c70-39 151-61 236-61 270 0 488 217 488 485 0 4 0 8 0 12z m-488-419c-83 0-161 24-226 67l-157-50 51 151c-49 67-78 150-78 239 0 13 0 26 2 39 20 206 195 368 408 368 216 0 393-166 409-375 1-11 1-21 1-32 0-225-184-407-410-407z m224 309c-12 6-71 35-82 39-11 4-19 6-27-6-8-12-31-39-38-47-7-8-14-9-26-3-12 6-50 19-96 59-36 32-60 70-67 82-7 12 0 19 6 24 5 6 12 14 18 21 1 2 3 4 4 6 3 4 5 8 7 14 5 8 3 15 0 21-3 6-27 64-37 88-10 24-20 20-27 20-7 0-15 1-23 1-8 0-21-3-32-15-11-12-42-41-42-99 0-14 2-28 6-41 12-41 38-76 43-82 6-8 83-131 204-179 122-48 122-32 144-30 22 2 71 29 80 57 11 27 11 51 8 56-3 5-11 8-23 14z" horiz-adv-x="1000" />

<glyph glyph-name="stat" unicode="&#xe847;" d="M68 87h185v-185h-185v185z m247-185h185v308h-185v-308z m247 0h185v432h-185v-432z m247 0h185v555h-185v-555z m49 760h-183l-240-180-124 62-305-253v-81l313 261 123-61 253 190h188l111 111v87l-136-136z" horiz-adv-x="1000" />

<glyph glyph-name="switch-left" unicode="&#xe848;" d="M2 613v-527h996v527h-996z m116-117h355v-294h-355v294z" horiz-adv-x="1000" />

<glyph glyph-name="switch-right" unicode="&#xe849;" d="M2 613v-527h996v527h-996z m880-411h-355v294h355v-294z" horiz-adv-x="1000" />

<glyph glyph-name="time" unicode="&#xe84a;" d="M804 521l12 8 43 44c24 24 27 60 7 81-21 20-57 17-81-7l-44-43-11-16c-41 28-87 49-137 61v73h31c17 0 31 14 31 31v62c0 17-14 31-31 31h-247c-17 0-31-14-31-31v-62c0-17 14-31 31-31h31v-73c-47-11-91-30-130-56l-7 11-44 43c-24 24-60 27-81 7s-18-57 6-81l44-44 5-3c-64-72-103-165-103-268 0-223 180-403 403-403s402 180 402 403c0 100-37 192-99 263z m-303-604c-188 0-341 153-341 341 0 187 153 340 341 340s340-153 340-340c0-188-153-341-340-341z m0 557c-120 0-217-97-217-216 0-120 97-217 217-217 119 0 216 97 216 217 0 119-97 216-216 216z m31-247h-62v185h62v-185z" horiz-adv-x="1000" />

<glyph glyph-name="timeline" unicode="&#xe84b;" d="M189 661c0-52-42-94-93-94s-94 42-94 94 42 93 94 93 93-42 93-93z m187-94h560c34 0 62 28 62 63s-28 62-62 62h-560c-35 0-63-28-63-62s28-63 63-63z m-280-124c-52 0-94-42-94-93s42-94 94-94 93 42 93 94-42 93-93 93z m840-62h-560c-35 0-63-28-63-63s28-62 63-62h560c34 0 62 28 62 62s-28 63-62 63z m-840-249c-52 0-94-42-94-94s42-93 94-93 93 42 93 93-42 94-93 94z m840-62h-560c-35 0-63-28-63-63s28-62 63-62h560c34 0 62 28 62 62s-28 63-62 63z" horiz-adv-x="1000" />
</font>
</defs>
</svg>
