<svg version="1.1" xmlns="http://www.w3.org/2000/svg" xmlns:xlink="http://www.w3.org/1999/xlink" width="700px" height="670px">
<style type="text/css" >
  <![CDATA[
    path.mapZone:hover { fill: #e56c40; cursor: pointer;}
    path.selected { fill: #e56c40;}
    path.selected:hover { cursor: default;}
  ]]>
</style>
<g id="lands">
	<g>
		<polygon fill="#B3B4B7" points="348.244,1002.545 348.834,1002.875 353.996,999.725 353.32,999.346 352.896,999.725 
			352.18,998.791 309.121,1023.037 309.015,1026.629 310.914,1028.994 312.699,1028.074 312.968,1028.727 313.326,1028.898 
			314.167,1028.074 315.564,1029.498 315.124,1029.771 314.951,1030.211 316.2,1032.625 317.632,1032.443 324.713,1026.227 
			329.341,1029.02 329.937,1030.416 328.979,1033.162 329.74,1033.652 331.594,1038.99 342.324,1040.916 345.954,1046.195 
			356.863,1035.498 357.58,1036.012 364.051,1024.381 363.824,1022.26 367.271,1017.898 366.953,1017.049 367.617,1016.008 
			367.617,1013.689 361.35,1011.318 359.014,1013.311 351.297,1012.373 349.321,1009.516 349.398,1008.109 349.781,1007.578 
			352.583,1006.574 353.09,1004.754 353.611,1004.365 353.611,1003.941 347.74,1004.754 347.852,1002.545 		"/>
	</g>
	<g>
		<polygon fill="#B3B4B7" points="401.568,991.691 401.412,990.885 386.58,993.045 385.607,995.398 388.082,997.387 
			387.492,997.957 387.039,1000.645 411.641,1008.426 411.791,1003.941 413.219,1005.342 413.574,1005.342 411.533,1000.244 
			409.252,999.725 410.178,999.332 409.801,997.213 404.949,993.162 405.162,992.26 404.838,991.889 404.5,992.16 404.598,993.162 
			403.365,994.607 403.008,994.373 403.199,993.162 		"/>
	</g>
	<g>
		<polygon fill="#B3B4B7" points="258.797,1086.74 258.992,1087.143 261.966,1085.688 267.602,1087.812 268.87,1087.049 
			268.917,1085.59 264.927,1085.219 261.213,1080.203 260.997,1080.244 259.532,1082.707 259.287,1082.361 258.46,1083.145 
			259.03,1083.635 258.494,1085.219 258.815,1085.219 258.494,1085.715 		"/>
	</g>
	<g>
		<path fill="#B3B4B7" d="M611.74,947.146l0.635,0.201l1.734,2.146l0.693,0.041l0.279,0.199l-0.334,0.754l-0.135-0.008l-0.771,2.68
			l-1.74,1.117l1.107,4.23l0.777-2.949l0.877-0.746l1.201,0.359L615,957.52l1.064,0.506l3.943-1.697l2.109,5.818l1.773,1.275
			l1.064,9.621l1.17,0.957l0.385-0.512l3.166,3.635l-0.377,15.719l-4.795,1.926l0.146,0.244l0.754-0.404l0.658,0.949l-0.658,7.461
			l2.248,2.439l-0.461,0.764l0.357,0.51l0.863-2.369l0.604-0.42l-0.939,0.066l-0.168,0.357l-0.359-0.424l1.438-1.029l3.184,1.041
			l1.57,2.377l-1.865,6.896l1.07-1.395h0.361l-2.094,4.076l-2.398-2.553l-0.707-0.129l0.518,12.072l0.391,0.502l-4.061,7.529
			l0.809,3.594l-1.43,2.262l0.42,1.305l1.836,1.4l-0.08,1.023l0.871,1.477l-3.178,4.803l0.447,1.555l0.975,0.42l0.568,2.148
			l0.316,0.225l-0.156-0.654l0.336-0.107l0.859,0.762l0.359,3.221l0.627-0.455l1.488,2.994l1.137-0.711l0.715,0.5l-0.715,1.381
			l2.092,0.787l0.41-0.369h0.396l1.068,6.459l1.217-0.289l0.615,2.812l-0.791,1.141v0.459l2.234,0.613l-0.418,1.26l0.326,0.459
			l0.75-0.459l-0.184-1.367l2.25-2.264l2.348-0.361l3.463,3.037v-1.377l2.494,1.875l7.934-7.875l0.551,0.385l0.564-0.385h-0.391
			l0.416-11.416l2.764-3.172l0.041-0.83l-0.254-0.359l-1.896,0.125l-0.049,0.064l-0.881-0.891l0.25-1.051l-0.693-0.311l0.072-0.229
			l1.301,0.119l1.311,1.291l0.477-0.369l4.877,4.131l2.635-2.756l3.607,0.967l0.363-0.506l7.9,6.521l1.984-0.754l1.625,0.754
			l-0.25,0.871l0.604,0.467l0.223-1.373l1.844-0.988l1.158-3.203l-0.762-1.219l0.865-4.107l2.748-2.074v-0.412l-1.623-1.562
			l2.164-10.648l-0.861-1.211l3.586-24.15l-0.719-0.51v-0.42h0.355l0.363-3.256l0.924-0.338l0.068-1.062l-0.314-0.006l-0.678,0.439
			l1.859-10.225l-3.525-3.262l-1.6-10.307l4.082-5.74l1.941-0.748l4.039-10.445l-2.336-3.602l-1.066-0.361l-4.799-14.742
			l-0.066,0.766l-0.564-0.662l0.201-0.627l0.668-0.336l0.803,0.207l-0.461-1.301l2.248-1.041l-1.787-0.754l-0.355-0.662
			l-0.584,0.455l-0.457,0.039l-0.385-1.227l-2.178-1.201v-0.418l0.898-0.373l0.553-1.09l-1.023-0.213l-2.592,1.199l-1.779-0.986
			l-1.418,0.371l-0.395-0.809l0.428-0.068l-0.072-0.102l0.027-0.342l3.115-0.037l-0.25-0.955l1.104-3.256l0.879-0.467l2.459,0.795
			l0.598-0.795l-3.896-1.256l-0.799,0.781l-0.387-0.105l-0.318-0.371l-0.098,0.486l-0.254-0.01l0.07-1.744l-0.578-0.156
			l-0.969,0.443l0.396,0.98h-1.072l1.43-5.232l0.357,0.984l1.078-2.879l-0.184-0.133l-0.059,0.006l-0.119-0.344h-0.352l-0.357,0.354
			l-1.119-0.828l0.396-0.521l-0.436-0.646l-0.83,0.646l-2.049-0.395l-0.654,0.395l0.721,0.996l-1.434,2.365l-0.303-2.322
			l0.303-0.518l-1.785-1.891l0.705-0.998v-0.428l-1.787-0.469v0.469l-2.768-2.158l-0.121,1.689l-1.074-0.955l-1.434,0.436v-1.852
			h-0.352l-0.199,1.533l0.199,0.318l-0.57-0.488l-0.498-3.297l-1.041,0.053l-0.398-0.963l-3.125,1.377l-1.518,6.242l-0.34-0.51
			l-13.32,9.449l0.25,0.17l0.105,0.344l-6.473,7.086l-2.893-0.471l-10.91,6.637l-11.691-2.822l-2.547-3.883l0.369-2.299
			l-0.393-0.527l-0.855-0.07l-0.158-0.812h-0.383l-1.217,3.256l1.6,0.945v3.391L611.74,947.146z M632.93,1017.734l-1.525-1.621
			l2.98,1.279L632.93,1017.734z"/>
	</g>
	<g>
		<polygon fill="#B3B4B7" points="617.893,925.414 622.158,923.955 622.801,922.475 621.828,919.709 620.562,921.164 
			619.293,921.127 619.17,923.605 618.4,923.955 615.709,928.725 617.648,928.869 		"/>
	</g>
	<g>
		<polygon fill="#B3B4B7" points="250.354,1072.219 252.022,1073.344 252.373,1072.51 253.25,1072.219 254.133,1072.5 
			254.526,1073.344 255.045,1073.215 255.268,1073.344 256.403,1073.039 259.172,1075.125 261.713,1069.645 262.427,1070.514 
			270.175,1061.908 271.042,1061.846 269.88,1058.275 270.156,1057.68 266.538,1055.869 265.046,1056.117 264.571,1056.762 
			259.532,1058.59 258.943,1058.215 257.896,1059.012 257.417,1058.59 257.086,1058.59 253.741,1061.57 254.168,1065.973 
			252.401,1066.084 252.022,1066.439 251.4,1066.072 249.841,1066.893 250.318,1067.703 249.515,1070.297 		"/>
	</g>
	<g>
		<polyline fill="#B3B4B7" points="753.846,1207.289 753.449,1208.277 754.143,1208.881 754.852,1208.762 757.393,1204.949 
			753.129,1201.115 721.049,1198.66 718.65,1192.146 720.91,1189.926 721.271,1190.857 721.59,1190.068 720.588,1188.133 
			716.611,1187.826 716.234,1186.758 718.846,1185.494 720.299,1185.678 720.588,1186.758 722.822,1185.459 722.768,1184.609 
			713.492,1181.109 712.654,1179.807 702.576,1180.008 700.066,1181.836 700.066,1182.246 702.248,1181.836 705.58,1183.189 
			705.613,1184.264 703.229,1187.316 699.443,1187 697.568,1183.184 702.27,1179.387 702.131,1175.607 697.121,1175.287 
			696.139,1174.527 687.148,1177.48 686.092,1176.871 680.33,1179.691 679.088,1179.084 630.795,1203.387 616.957,1199.875 
			599.938,1206.947 592.867,1204.32 593.791,1202.457 592.912,1201.607 594.18,1197.547 592.205,1199.297 589.682,1199.537 
			587.684,1198.002 585.537,1198.408 578.02,1193.541 576.238,1194.387 573.541,1193.758 572.574,1191.77 569.939,1192.604 
			567.949,1191.711 566.744,1192.594 564.01,1191.264 561.863,1191.711 561.863,1192.115 565.732,1196.127 564.869,1198.994 
			560.568,1202.697 546.035,1203.523 546.064,1202.457 532.125,1198.58 531.365,1198.885 529.963,1195.32 528.609,1194.436 
			528.471,1193.295 521.734,1191.057 513.281,1197.193 513.41,1200.674 512.303,1202.279 477.742,1212.693 476.328,1216.062 
			463.492,1220.393 452.291,1215.588 452.004,1214.564 453.045,1211.393 449.078,1210.506 448.047,1209.135 446.172,1208.945 
			444.928,1207.586 354.689,1209.373 353.804,1212.951 350.111,1213.98 341.571,1209.148 321.861,1223.426 311.552,1223.246 
			309.946,1220.992 181.253,1275.26 170.643,1273.078 169.639,1271.457 169.959,1270.588 169.776,1269.918 168.233,1269.146 
			167.986,1268.41 167.335,1268.006 161.553,1269.51 160.775,1269.031 160.479,1269.115 160.53,1270.219 160.659,1270.391 
			157.26,1276.979 155.357,1276.777 153.844,1279.348 149.316,1280.096 148.335,1278.576 143.6,1276.59 138.48,1280.578 
			137.92,1279.768 71.047,1320.449 70.725,1320.074 70.34,1319.973 69.156,1320.408 58.982,1316.592 51.31,1319.973 34.79,1310.389 
			34.544,1310.889 41.623,1318.701 35.967,1317.732 33.398,1315.027 33.241,1310.1 33.722,1309.51 30.362,1302.26 30.926,1298.451 
			30.692,1297.928 30.08,1297.594 29.58,1297.791 29.33,1298.328 29.427,1298.998 24.386,1307.732 22.24,1307.332 9.461,1313.693 
			-9.626,1308.096 -11.645,1312.172 -17.084,1312.883 -18.312,1312.125 -19.746,1309.076 -42.176,1316.523 -79.827,1299.445 
			-90.861,1282.283 -92.324,1282.283 -93.939,1270.891 -91.647,1269.086 -91.189,1267.713 -92.563,1268.418 -95.541,1266.875 
			-99.836,1267.27 -107.741,1273.469 -109.868,1272.57 -112.03,1273.023 -112.693,1272.703 -116.659,1275.367 -123.932,1275.074 
			-142.443,1358.58 758.852,1356.834 759.312,1354.836 760.104,1354.057 792.217,1348.568 783.27,1345.934 781.658,1341.814 
			782.561,1340.977 781.838,1340.406 775.547,1340.221 765.547,1240.172 798.102,1204.592 794,1195.08 794.68,1193.613 
			794.26,1191.873 793.338,1191.416 786.457,1193.939 785.98,1194.611 786.137,1196.215 768.893,1206.059 766.26,1212.104 
			760.312,1214.957 755.961,1213.508 753.449,1209.135 		"/>
	</g>
	<g>
		<polygon fill="#B3B4B7" points="794.26,1358.838 794.75,1357.842 793.635,1357.508 		"/>
	</g>
	<g>
		<polygon fill="#B3B4B7" points="1004.182,1114.021 1005.135,1113.975 1005.613,1113.104 998.352,1111.623 986.768,1117.641 
			984.338,1116.967 984.219,1113.809 983.908,1113.809 984.086,1114.021 983.85,1114.719 984.086,1115.373 980.768,1121.002 
			976.078,1122.881 975.082,1122.672 974.037,1121.309 969.891,1120.818 968.592,1119.32 903.635,1132.666 903.994,1132.174 
			895.041,1126.902 895.061,1125.145 893.598,1124.041 887.201,1124.539 886.186,1119.916 883.896,1118.098 883.629,1116.91 
			883.371,1116.734 880.021,1117.939 879.215,1117.641 878.777,1119.131 872.592,1118.588 871.385,1119.221 871.086,1119.789 
			871.379,1120.369 869.557,1121.971 870.346,1125.324 861.523,1129.518 859.865,1128.545 859.818,1127.971 857.174,1126.207 
			854.168,1119.375 852.955,1119.375 852.646,1118.588 852.023,1119.748 852.305,1123.027 851.225,1124.029 849.02,1123.672 
			846.174,1127.238 844.496,1126.617 840.129,1129.947 840.711,1130.623 839.064,1141.02 838.943,1141.064 838.564,1142.896 
			838.668,1143.09 837.676,1143.811 837.596,1143.545 836.699,1143.99 840.824,1153.461 915.871,1190.857 925.707,1189.793 
			954.961,1215 958.08,1215.439 958.947,1216.287 959.607,1216.031 959.994,1216.734 965.303,1214.691 970.551,1217.42 
			971.365,1216.547 975.336,1219.346 977.48,1219.303 978.506,1218.305 976.404,1210.213 979.771,1202.082 985.52,1198.885 
			985.293,1197.973 985.873,1197.547 985.52,1197.107 987.664,1195.977 988.494,1196.582 988.895,1196.371 988.309,1194.506 
			987.838,1194.26 986.768,1194.387 986.34,1193.971 986.256,1193.152 986.562,1192.621 987.342,1193.049 987.369,1190.518 
			983.623,1188.314 983.479,1187.34 984.453,1187.203 984.453,1186.758 983.695,1186.35 982.832,1186.986 981.096,1183.562 
			981.908,1182.246 981.582,1181.432 982.787,1181.115 983.092,1181.604 983.021,1182.729 984.309,1181.027 985.16,1181.836 
			983.875,1179.15 976.902,1175.545 1001.654,1118.098 1000.812,1118.125 1001.324,1116.324 		"/>
	</g>
	<g>
		<polygon fill="#B3B4B7" points="735.02,-223.355 736.703,-223.006 725.633,-230.841 724.914,-230.655 724.906,-228.05 
			724.162,-227.781 723.775,-229.67 703.658,-220.717 701.143,-222.093 700.471,-224.393 696.686,-223.985 692.555,-219.517 
			699.676,-214.482 698.328,-214.123 693.992,-216.996 693.992,-216.427 700.066,-211.964 698.273,-211.964 701.143,-210.706 
			700.623,-209.677 697.896,-208.881 700.613,-206.314 702.938,-206.407 703.477,-205.998 704.045,-195.908 708.449,-193.506 
			708.84,-186.776 708.691,-186.839 708.766,-185.72 710.604,-185.414 710.865,-185.536 709.068,-191.279 709.709,-192.09 
			711.584,-190.591 714.443,-191.279 715.434,-190.84 717.691,-186.839 712.973,-182.476 713.893,-181.991 716.943,-182.476 
			719.842,-179.927 720.277,-182.613 737.719,-176.766 741.207,-179.757 747.135,-179.927 751.711,-196.955 750.018,-200.323 
			750.404,-201.953 751.268,-202.205 752.848,-200.603 753.242,-200.603 746.088,-214.397 740.748,-216.199 740.352,-215.256 
			740.65,-214.482 739.881,-214.004 739.049,-214.033 738.553,-214.619 738.838,-215.791 748.41,-218.755 742.398,-230.412 
			741.408,-230.361 741.734,-225.881 740.65,-227.143 741.676,-222.494 741.016,-221.463 739.371,-222.909 739.215,-222.093 
			741.439,-219.229 735.842,-216.556 735.252,-216.712 734.225,-214.666 732.363,-214.576 731.494,-216.115 734.025,-219.189 
			734.975,-219.432 735.143,-220.75 734.18,-221.778 734.42,-222.871 		"/>
	</g>
	<g>
		<polygon fill="#B3B4B7" points="707.627,-163.133 704.332,-165.016 702.93,-164.319 702.93,-163.699 707.846,-161.274 
			712.891,-163.233 705.803,-176.445 701.826,-177.715 698.703,-181.42 690.049,-179.35 690.049,-178.673 690.953,-178.152 
			693.635,-178.673 692.164,-176.81 692.449,-175.983 698.99,-175.56 698.99,-174.941 698.34,-174.072 701.246,-171.353 
			700.754,-170.879 701.531,-169.341 700.484,-169.088 696.852,-172.391 696.852,-171.831 697.18,-171.831 698.043,-166.484 
			699.809,-165.049 704.188,-166.13 709.068,-163.078 709.068,-162.458 		"/>
	</g>
	<g>
		<polygon fill="#B3B4B7" points="530.932,-43.144 531.191,-43.661 531.541,-43.816 531.672,-44.031 530.494,-44.062 
			529.941,-43.615 529.811,-43.188 530.604,-42.768 		"/>
	</g>
	<g>
		<polygon fill="#B3B4B7" points="536.363,-46.024 537.996,-46.618 539.584,-45.362 538.834,-46.729 537.797,-47.277 
			537.797,-47.823 541.756,-49.023 541.068,-50.403 534.5,-48.558 535.432,-46.497 		"/>
	</g>
	<g>
		<polygon fill="#B3B4B7" points="524.086,-43.646 525.961,-43.017 526.254,-43.577 526.676,-43.673 523.797,-44.955 
			523.074,-44.818 523.164,-44.231 		"/>
	</g>
	<g>
		<polygon fill="#B3B4B7" points="506.611,-36.591 506.941,-35.764 507.98,-37.091 517.701,-40.015 517.701,-40.615 
			506.389,-38.225 506.941,-37.014 		"/>
	</g>
	<g>
		<polygon fill="#B3B4B7" points="854.082,-230.556 854.158,-230.144 854.441,-229.839 855.498,-231.193 855.117,-234.795 
			854.197,-235.744 853.236,-234.928 852.754,-232.452 853.562,-230.927 		"/>
	</g>
	<g>
		<polygon fill="#B3B4B7" points="975.262,-174.314 977.264,-176.81 977.068,-178.133 979.221,-182.783 978.691,-184.971 
			979.412,-186.214 958.947,-202.353 954.656,-183.664 964.711,-177.158 		"/>
	</g>
	<g>
		<polygon fill="#B3B4B7" points="855.369,-260.882 863.367,-245.613 862.691,-244.479 862.043,-244.35 862.643,-243.01 
			864.914,-242.704 865.355,-240.873 867.299,-241.058 869.918,-236.056 862.996,-227.205 865.943,-215.112 865.27,-215.692 
			864.779,-215.694 864.914,-213.903 863,-212.417 861.709,-212.348 859.689,-213.919 859.34,-213.903 857.721,-210.706 
			857.932,-209.088 863.156,-209.591 864.525,-210.706 888.221,-206.314 894.883,-210.078 897.131,-209.668 899.674,-212.376 
			927.385,-209.521 938.346,-224.105 929.34,-240.802 937.23,-261.992 937.639,-262.302 854.527,-262.302 854.689,-261.54 		"/>
	</g>
	<g>
		<polygon fill="#B3B4B7" points="785.881,-80.596 787.994,-86.061 786.43,-86.791 782.361,-84.442 781.594,-82.417 783.234,-81.22 
			784.08,-81.169 784.848,-81.809 784.607,-83.041 784.895,-83.788 785.336,-83.784 785.248,-80.583 		"/>
	</g>
	<g>
		<polygon fill="#B3B4B7" points="841.57,-228.854 843.447,-224.582 849.637,-229.274 846.174,-238.527 844.592,-235.315 		"/>
	</g>
	<g>
		<polygon fill="#B3B4B7" points="789.889,-89.104 790.182,-89.104 794.18,-94.023 789.889,-91.594 789.602,-90.929 		"/>
	</g>
	<g>
		<polygon fill="#B3B4B7" points="483.137,-33.698 497.568,-36.423 482.076,-37.365 481.199,-36.625 480.881,-35.328 
			481.803,-34.023 		"/>
	</g>
	<g>
		<path fill="#B3B4B7" d="M759.826-240.678l1.277,2.151l4.539,2.245l0.863,1.551l-8.252-0.69v0.69l8.264,3.08l3.021,4.707
			l-0.398,3.067l-2.592,0.839l-0.402,1.917l0.271,0.504l1.523-0.847l1.889,0.593l2.812,7.288l-0.205,0.931l0.635,0.503l-0.455,2.201
			l-3.949,2.452l-2.162-0.065l1.076,3.133h0.809l0.982-1.886l2.1,0.18l0.396,0.452l-0.088,0.94l-1.861,0.63l4.645,4.584l0.025,2.732
			l2.322-0.677l-0.32,1.26l-0.643,0.587l-0.777-0.027l-0.766-0.569l1.18,3.839l3.117,0.538l-1.082-0.623v-0.625l6.459-1.257
			l3.631,1.638l0.719-0.381l7.514,2.501l2.393-2.481l1.18-0.02l0.799,0.747l-0.359,2.126l-0.764,0.819l0.881,1.207l2.984-0.225
			l1.143,0.951l0.133,0.733l-0.297,0.364l-4.52,0.833l5.756,6.863l0,0l0.732,1.863l2.158,4.979l-1.807,1.496l-0.562-0.637
			l-1.758,1.631l-2.35-1.809l-2.494,1.809v0.672l1.07,0.502l7.9,16.241l-0.367,2.417l1.801,0.728l-2.146,5.614l4.188,8.217
			l1.047-0.117l-0.439-11.222l10.977-13.07v-0.561l-3.871-4.853l-2.932,0.452l-4.33-5.022l-1.775,0.672l0.387,1.192l-0.668,0.522
			l-0.791-0.088l-1.078-1.626l0.744-4.968l1.047-0.677l-0.17-0.094l-0.133,0.011l-0.084-0.112l0.029-0.432l6.43,3.792l6.787-3.307
			l-1.918-6.093l-0.379-0.218l2.771-2.003l-0.152-3.012l-3.801-1.219l0.156,0.021l4.381-7.834l14.025-4.82l0.771-0.968l-1.588-6.744
			l-4.338-3.76l-4.105-0.53l-2.553-2.266l-1.395-4.852l11.803-12.151l2.176,1.235l1.164-0.407l6.02-9.142l-4.68-19.752l1.266-3.331
			h-27.814l1.662,16.439l-2.082-11.428l-3.324-2.875l-0.926-0.077l-0.387,1.77l2.311,5.777l-0.852,2.634l-2.803,1.083l-2.219,5.327
			l0.732,2.188l-3.979,6.734l0.4-3.796l-2.145-2.77l-0.898,0.688l-3.111,0.065l-0.65-0.74l0.377-0.583l5.135-1.154l-1.258-4.446
			l-6,1.613l-0.848-0.288v-0.688l0.967-0.009l2.359-2.195l2.43,0.301l0.723-1.835l-3.592-7.131l1.193-1.178l1.676-0.096
			l-0.324,1.273l0.857,0.46l0.846-0.137l0.348-0.618l-0.635-0.979l2.031-3.331l-9.316,1.352l-0.963-0.912l-11.721-0.439l6.293,1.42
			l1.725,3.089l-1.717,6.218l-1.795-0.389l-2.348,1.793l-2.639-1.107l1.436,2.834l-1.234,4.845l-8.01,2.289l-0.48-0.495
			l-0.715,0.682l2.186,1.903l-1.338,0.771l-3.705-3.356l0.998-0.633l1.146,0.047v-0.629l-15.051,0.629v0.586l3.568,0.682
			L759.826-240.678z M818.926-189.44l-0.383,1.974l0.367,0.328l-3.951-1.265l0.113-0.952l2.178-1.666l1.08,0.34L818.926-189.44z
			 M812.869-240.413l2.809,0.56l1.057-1.549l0.734,7.248l-2.566-1.392l-0.324-0.853l0.213-0.208l1.627,0.551l-1.182-1.958
			l-0.881-0.288l-0.83,0.345l-0.158,1.493l-2.717,1.974l-1.055-0.241L812.869-240.413z"/>
	</g>
	<g>
		<polygon fill="#B3B4B7" points="-67.367,-88.9 -67.516,-88.45 -67.16,-87.833 -66.776,-87.92 -66.547,-87.626 -65.965,-89.187 
			-66.453,-89.349 		"/>
	</g>
	<g>
		<polygon fill="#B3B4B7" points="-45.269,-7.525 -44.539,-7.991 -44.521,-8.197 -42.531,-7.461 -35.982,-12.02 -35.754,-11.93 
			-35.605,-12.013 -35.419,-13.926 -26.216,-22.552 -30.359,-23.801 -31.125,-22.742 -34.615,-22.165 -36.265,-27.386 
			-37.953,-28.337 -38.074,-29.059 -38.463,-31.147 -40.977,-32.763 -53.888,-30.43 -49.924,-11.814 -49.351,-11.878 -47.47,-10.3 
			-47.416,-10.034 -44.703,-12.414 -44.147,-12.041 -45.596,-7.647 		"/>
	</g>
	<g>
		<polygon fill="#B3B4B7" points="-43.231,-121.485 -60.019,-103.991 -61.179,-103.707 -64.294,-90.924 -64.901,-90.688 
			-65.362,-90.374 -65.362,-89.708 -64.11,-89.31 -60.882,-91.594 -60.103,-91.297 -59.127,-90 -58.359,-89.708 -57.034,-90.324 
			-56.491,-90.235 -56.032,-89.104 -54.93,-92.141 -48.833,-96.579 -48.879,-97.674 -44.444,-101.396 -44.88,-103.835 
			-40.308,-109.659 -40.977,-111.718 -42.736,-112.39 -42.373,-121.019 		"/>
	</g>
	<g>
		<polygon fill="#B3B4B7" points="-56.776,-24.133 -58.321,-24.036 -58.932,-24.399 -60.331,-23.146 -59.423,-21.004 
			-57.105,-20.816 -53.925,-17.015 -53.492,-17.233 -53.227,-18.173 -54.22,-19.864 		"/>
	</g>
	<g>
		<polygon fill="#B3B4B7" points="458.479,-26.918 472.801,-32.172 472.467,-33.423 477.012,-34.066 478.223,-35.764 
			456.928,-29.785 456.342,-28.28 456.986,-26.95 		"/>
	</g>
	<g>
		<polygon fill="#B3B4B7" points="135.753,189.176 135.942,188.733 135.816,188.243 135.309,187.776 134.642,187.744 
			133.279,190.123 132.121,190.603 132.121,191.165 136.414,191.779 136.414,191.165 135.309,190.043 135.309,189.522 		"/>
	</g>
	<g>
		<polygon fill="#B3B4B7" points="192.726,-49.569 190.855,-50.669 192.172,-47.885 		"/>
	</g>
	<g>
		<polygon fill="#B3B4B7" points="192.772,-46.618 192.172,-47.885 191.343,-45.362 		"/>
	</g>
	<g>
		<path fill="#B3B4B7" d="M-113.849,249.062l0.548,2.461l1.981,0.785l6.377-2.132l0.57-1.089l-0.326-2.54l3.465-1.38l11.635,8.351
			l0.39,2.827l2.833,2.763l2.702-4.488h2.177l2.173-3.763l-0.744-2.35l-2.893-0.555l2.146-1.113l0.244-1.849l1.491-0.974
			l0.439,0.031l-1.103-1.158v-0.507l0.664-0.887l-0.057-1.654l1.037-0.297l0.67,0.609l0.935,3.896l7.013-6.959l3.588-0.009
			l2.351-5.894l-0.417-1.67l3.616-1.743l0.371,0.053l0.718,2.237l0.301,0.003l0.432-0.432l-0.016-0.131l21.347-2.79l0.912,0.556
			l1.049,2.16l1.114,0.074l-0.224-1.632l0.941-0.655v-0.502h-1.469l0.397-0.615h-1.462v-0.559l1.816-0.508l-1.181-0.888
			l-2.972,0.476l-0.888-1.268h3.225l0.648-1.505l-0.222-0.829l-0.758-0.517v-0.511l1.175-0.256l0.619-1.475l0.573,0.47l0.53,0.051
			l1.04-0.521l-1.669,3.434l1.358,3.384l3.179,0.462l-0.72,1.536l1.711,2.108l1.148,0.318l-0.323,1.069l1.956,1.166l3.77-2.235
			l9,8.982l0.783-0.869l6.736-0.245l1.259-7.842l2.298-0.992l0.379-1.823l1.658,0.98l0.629-0.445l0.625-2.47l0.874-0.315
			l0.572-2.285l-3.241-0.321l-0.37-1.357l0.365-1.189l3.246-1.052l-0.979-5.042l3.803-7.354l-1.791-5.451l0.171-0.179l2.978,4.72
			l2.063,0.35l3.796-1.687l1.88-3.053l5.49-1.385l1.543,0.498l12.476-4.05L56.7,209.543l0.042,3.111h0.324l1.287-2.446l-0.127-1.049
			l-1.32-0.438l-0.483-0.789l1.555-4.315l24.663,2.906l-0.115-1.219l1.826-2.254l-1.073-0.612l0.372-1.395l-0.356-0.643l-3.23-1.006
			l-1.114-2.021l-2.476,1.175l2.297-3.381l0.896,1.639l3.806,0.566l0.489,1.859l4.32-2.982l15.624,0.629l1.812-3.458l6.277-1.124
			v-0.516l-0.718-0.614l5.307-0.976l-0.304-2.121l-7.51-7.125v-0.509l17.209,11.345l0.683-0.641l0.063-2.485l-2.149-2.052
			l4.06-0.513l0.943,0.513l-1.772,3.98l1.06,1.198l1.392-0.163l1.861-5.016l5.338,0.62l-0.526,1.103l0.373,0.099l0.895-0.646
			l2.149,1.747v0.521l-2.208,1.149l-0.292,0.847l6.36,3.949l1.001-0.559l0.179-3.136l0.485-0.198l1.335,0.818l24.26-5.296
			l1.917,0.775l1.41-0.751l25.002,6.908l27.83-15.867l7.494,2.47l1.806-0.72l-0.697-5.366l22.968-16.698l-1.423-11.913l0.284-0.299
			l1.861,0.015l1.562-4.458l-1.287-0.773l-25.521,1.714l0.274-0.956l-2.169-2.89l-6.997-2.547l-0.688,0.191l-1.046,2.801l2.163,3.09
			l8.003,0.343l-8.567,0.574l-1.982-4.573l-1.119-0.039l-0.256,0.81l0.656,2.139l-6.654-0.573l-1.637-1.771l4.523-2.672l3.786,0.245
			l0.521-0.461l-0.715-1.999l-12.819-0.567l-0.419,1.187l-3.788,0.834l2.992-2l0.763-2.401l5.06-1.031l0.845,0.8l4.966-2.277
			l0.044,0.036l5.597,0.575l9.458-7.46l-0.699-0.682l-1.416,0.098l1.401-1.456l0.186-2.679l0.528-0.461l-0.325-4.652l-0.816-0.844
			l-8.879,4.3l-0.598-1.334l-2.649-0.972l4.872-1.782l2.313,0.632l1.985-1.154l0.697-2.934l4.725-3.589l0.133-1.607l3.503,5.623
			l12.04-5.731l0.544-3.119l-0.238,0.099l-0.942,1.402l-3.395-1.164l4.142-4.248l0.186-1.592l-1.05,0.634l-10.104-1.211l5.039-1.154
			l2.114,1.154l3.424-0.249l0.143-1.135l3.064,2.515l7.326-9.856l0.777,0.618l4.999-2.765l3.234-59.509L236.215,6.062v0.586
			l2.501,0.646l-2.374,1.095l-14.873-3.371l-1.055,0.389l0.391,0.655l-9.76,3.545l-5.574,12.351l0.271,1.936l-2.238-2.508
			l-2.939-0.693l-2.038,0.846l-7.4-8.101l-4.99,0.25l-0.09-1.058l16.827-16.311l-5.266-27.802l-0.904-0.689l0.388-0.591l-1.982-1.26
			l-0.711-2.698l-24.896-21.988l-11.668,3.228l-4.692-3.016l-3.038,0.796l-0.792,1.397l-1.775-1.202l4.686-2.771l3.028,0.348
			l1.824,1.642l14.876-2.292l11.288,9.691l4.163-1.807l3.449,2.026l-16.757-35.392l2.907-5.392l4.646-2.571l-9.696-5.792
			l-0.874-3.637l-6.312-4.599l0.354-1.284l-6.917-14.672l-32.226-17.977l-0.771,3.015l-0.632,0.125l0.092-0.19l-0.48-1.1
			l-0.252-0.069l-0.122,0.531l-0.15,0.151l-0.875-0.214l-0.388-1.02l2.176-1.79l-1.465-3.708h1.077v-0.671l-3.581-1.855
			l-11.479-32.447l-1.074-0.622l-5.72-37.667l-1.154-1.148l0.438-1.429l-1.468-1.262v-0.63l0.724-0.581l-1.006-1.969l0.282-1.246
			l-4.703-2.72l-1.843,0.521l-0.631-0.382v-0.577h1.067l-1.108-2.095l-1.248-0.431l-0.76,1.107l-0.497,0.16l-16.842-26.196
			l-49.917-3.12l-0.622-0.789h-81.53l9.275,2.635l-1.271,0.868l-9.854-2.083l-0.594,0.273l-4.136-1.693l-3.411,0.776l-1.944,2.667
			l0.462,10.113l0.876,5.06l-3.115,4.466l5.751,5.064l-0.382,1.546l5.035,1.67l2.659,3.223l0.259,2.048l-1.102,1.682l1.911,0.643
			l1.726,3.828l-22.623,40.994l3.215,10.423l-1.302,2.266l-0.933-0.155l-4.41-10.942l-0.491,1.347l-1.687,0.022l-0.74,0.716
			l9.564,24.823l1.758,0.62l-0.221,1.319l0.616,1.156l-0.618,0.839l0.277,2.907l4.963,2.424l-3.733-11.738l-0.522-0.391
			l-0.708-3.892l4.963-5.118l25.519,16.689l1.249-1.793l-0.442-3.606l0.659-1.322l-0.745-1.319l0.554-3.293l-1.304-1.321
			l-1.596-0.26l-1.234-4.053l1.234-3.442l0.849,0.221l1.558,3.569l5.303,2.466l2.895-2.536l-0.458,3.645l4.52,4.824l2.051-0.36
			l-0.329-2.97l1.367-1.977l0.023,0.423l0.716,0.322l-0.31,3.697l0.675,0.505v0.677l11.481-5.01l-1.79-1.799l1.073-0.679
			l-0.356-1.297l1.434-1.805l0.358,1.241l-0.52-0.548l-0.584,1.112l0.589,0.945l0.398,0.066l0.47-0.336l-0.238-0.202l-0.115-0.473
			l3.708,0.596l1.135-1.92l6.248,0.261l0.87-0.506l0.591-10.174l2.327,1.663l0.887-0.416l-0.327-0.679l25.859,1.238v0.681
			l-0.998-0.402l-2.614,1.014v0.627h3.611l-5.285,1.983l-4.763-1.983l-5.433,3.115l3.279,1.859l-2.711,1.238l-2.019-1.487
			l-1.022,0.249l-3.967,9.292l0.483,1.538l-1.946,4.087l-1.71,0.86L-4.8-129.934l17.153,28.8l3.906-0.961l0.481-4.924l0.82-0.476
			l-0.408,7.437l-1.74,0.549v0.612l0.798,0.682l-0.41,4.192l1.128,1.016l1.546,0.252l2.336,3.047l0.005-3.229l4.409-5.529
			l0.617-5.369l0.712-0.345l0.587,0.391l0.853,1.902l-0.481,0.908l1.734,3.304l3.352-0.793l5.958-6.408l0.208-1.347h0.358
			l-0.762,3.29l-2.296,1.598l3.058,6.146l-6.413,8.099l1.192,2.849l3.425-1.216l-0.23,1.437l-1.816,1.872l0.586,1.001l-1.604,1.909
			l-1.077-0.697l-6.888,2.694L27.3-61.503l6.422,0.924L23.086-44.943l9.27,18.268l6.563,2.534l0.905-0.471l0.368-1.274l3.961-0.952
			l-0.932,0.799l-0.448,0.063l-0.438-0.212l-1.001,1.92l0.291,1.123l-3.046,1.14l-1.643-0.546l-0.391,0.243l-0.29,0.954
			l-3.138-0.636l-6.551-12.032l-7.335,2.723l-0.568,0.871l5.156,13.831l-12.698-10.24l-20.221,5.675l-3.895-3.189l-1.021,0.553
			l-3.576-1.794l2.472,4.24L-40.767-4.988l-0.362-1.146l-0.349-0.185l-0.348,0.358l-0.911,7.328l-20.806,18.996l0.149,0.913
			l-0.541,0.798l0.804,0.523l2.248-1.701h4.098l1.659-1.176l3.468,2.267l1.014-0.077l1.049-1.014l-0.636-0.928l0.519-2.099
			l0.833-0.518l-0.328-0.587l19.026-6.563l0.414,0.955l0.537,0.132l1.198-1.086l0.324,0.481l0.386,0.164l-3.446,2.597l0.65,5.067
			l-1.507,0.911l-0.151,0.702l5.248,7.822l3.174-1.096l-7.015,9.098l-0.173,2.134l3.791,5.283l5.543-1.222v0.636l-3.611,2.345
			l-1.685-0.721l-0.424,0.087l-23.35,33.441l-9.085,0.973l0.108,2.513l-1.731-1.372l-0.718,0.016l-4.021,4.835l-2.148,0.639
			l0.302,2.542l-0.479,0.361l-4.143-1.161l0.352,1.161l-8.19-0.978l-0.583,0.443l-0.078,0.566l0.625,0.546v0.521h-0.747l-0.16,2.192
			l-11.019,5.516l0.418,1.611l-0.636,0.564l0.277,1.277l-0.716,0.528l7.677-0.239l0.94,0.803l0.358-0.564l1.538,7.227l-7.294,3.783
			l3.605,2.301l-0.111,1.438l0.742,0.032l0.61-0.724l-0.524-1.378l13.429-0.363l0.973-1.793l-0.742-0.667l0.052-2.007l-1.484-0.356
			l5.724-1.728v0.629l-1.993,0.508l-0.871,1.711l0.296,2.045l1.491,1.501v0.52l-0.69-0.375l-9.716,2.161l0.358,1.196l-4.021-0.577
			l-0.334,0.577l1.007,1.161l2.591,0.662l0.757,1.629l-0.476,0.891l5.488,2.556l4.062-4.001l5.464-0.072l1.268-1.205l1.183,0.781
			l1.203-3.511l0.476-0.086l0.118-2.088l13.185-2.521l-1.197-1.603l0.181-0.589l1.016-0.172l0.895,1.026l0.535,0.132l1.789-2.32
			l0.364,1.345l-0.722,1.55l1.297,1.604l1.924,0.179l-0.504,0.746l-3.105-0.168l3.349,4.155l5.26-0.182l0.758-0.526l4.903,1.826
			l1.649-1.141l0.257,0.157l-1.091,3.039l-6.796,1.343l-0.715-0.62v-0.524h0.332l-0.332-0.627l-1.101,1.771l-1.792,0.584
			l0.609,3.262l-0.998,0.76l0.389,1.14l4.687,1.405l0.193-0.875l1.598,0.57l2.342-1.97l2.693,0.87l0.894-1.14l1.107,0.508
			l0.285,0.766l0.551-0.535l-0.011-0.222h2.186l-1.326-2.343l0.054-0.785l8.237-1.799l5.221,9.515l-0.296,0.108l-0.094,0.146
			l2.826,2.845l1.694-0.399l5.539,5.965l19.521,0.629l1.292-2.87l-0.656-1.792l10.372-9.221l0.968,1.452l29.012-18.346l0.233-1.564
			l0.763,0.742l-28.165,31.864l-1.675-0.343l-1.137,1.192l0.79,0.836l-1.712,4.381l-0.53,0.233l-1.017-0.314l0.895,9.16
			l-0.895,1.727l-0.717-0.568l0.717-1.188l-0.393-0.576l-62.822,2.333v0.521l0.97,1.111l-0.259,1.784h-2.144l2.498,6.252
			l-6.791,6.629l-9.891-1.524l-1.24,17.018l-9.324,11.335l-0.724-0.207l-0.523,0.396l0.143,2.11l-2.269,4.049l-6.706,0.499
			l-0.067,2.827l4.028,3.357l-3.961-1.126l-0.686,0.608l-0.712-3.463l-1.465,1.171h-1.076l-2.857,9.811l-5.422,2.394l0.203,4.04
			l-15.099,12.74l-2.671-2.083l-10.247,4.761l-1.284,2.355l0.375,2.407l0.083-0.007l0.308,1.117l-0.224,0.328L-113.849,249.062z"/>
	</g>
	<g>
		<polygon fill="#B3B4B7" points="103.374,201.93 107.146,200.75 118.583,208.145 124.384,206.428 125.016,202.525 129.945,199.676 
			129.945,199.064 128.868,197.372 128.726,197.313 128.273,197.426 128.118,197.372 128.118,196.248 117.708,192.424 
			110.92,196.805 111.278,195.68 		"/>
	</g>
	<g>
		<polygon fill="#B3B4B7" points="444.191,-15.835 451.648,-22.552 453.045,-22.552 453.045,-23.146 450.414,-23.515 
			441.223,-15.393 442.855,-14.66 		"/>
	</g>
	<g>
		<polygon fill="#B3B4B7" points="435.09,4.336 436.852,3.817 443,-5.277 441.924,-5.277 441.924,-5.811 442.85,-6.493 
			441.57,-10.627 441.91,-11.454 441.57,-12.414 439.932,-12.5 432.238,1.368 433.258,3.577 		"/>
	</g>
	<g>
		<polygon fill="#B3B4B7" points="380.533,117.026 382.875,116.885 384.477,115.055 388.34,117.085 390.012,119.956 
			393.092,121.481 398.98,120.394 400.365,118.939 400.266,117.576 386.293,111.079 378.895,112.967 378.744,115.689 
			379.455,116.701 		"/>
	</g>
	<g>
		<polygon fill="#B3B4B7" points="-95.188,-223.355 -94.467,-218.313 -87.741,-214.197 -82.531,-214.356 -80.452,-215.791 
			-81.237,-219.958 -80.066,-220.782 -82.636,-222.093 -82.924,-223.321 -81.173,-223.985 -81.296,-226.061 -83.562,-228.419 
			-82.959,-229.67 -85.824,-237.957 -91.932,-240.543 -91.573,-239.219 -94.963,-237.449 -96.742,-228.247 -94.467,-224.566 		"/>
	</g>
	<g>
		<polygon fill="#B3B4B7" points="-60.19,121.038 -59.7,120.949 -59.495,120.488 -61.035,119.884 -61.131,120.216 -60.792,120.75 
			-60.516,120.67 		"/>
	</g>
	<g>
		<polygon fill="#B3B4B7" points="1005.029,730.615 1004.746,730.568 1004.547,730.686 1002.604,728.174 1002.43,728.174 
			1002.363,728.674 1002.16,728.793 1001.379,728.043 1001.18,728.141 1002.865,730.879 1003.348,730.896 1004.514,732.525 
			1006.01,733.062 1006.342,732.877 1005.434,731.689 1005.5,731.244 		"/>
	</g>
	<g>
		<polygon fill="#B3B4B7" points="1014.623,737.676 1014.719,738.244 1016.68,740.379 1016.939,740.387 1016.408,738.201 
			1015.543,737.152 		"/>
	</g>
	<g>
		<polygon fill="#B3B4B7" points="1120.504,807.027 1123.67,809.26 1124.217,808.363 1120.67,805.473 1120.07,805.533 
			1120.797,806.887 1120.547,806.91 		"/>
	</g>
	<g>
		<polygon fill="#B3B4B7" points="1029.863,757.182 1031.244,757.182 1031.59,756.752 1032.469,756.922 1032.762,756.699 
			1032.496,755.719 1031.664,755.057 1031.041,755.088 1030.865,755.268 1031.041,755.719 1030.432,755.656 1030.203,755.859 
			1030.209,756.115 1029.744,756.893 		"/>
	</g>
	<g>
		<polygon fill="#B3B4B7" points="1035.893,752.369 1035.312,752.246 1034.934,752.4 1034.918,752.799 1043.266,753.213 
			1043.504,752.783 1037.686,751.158 1036.834,751.484 1037.057,752.088 1036.598,752.449 		"/>
	</g>
	<g>
		<polygon fill="#B3B4B7" points="647.318,-127.156 647.902,-126.14 651.26,-125.928 654.871,-129.612 654.945,-130.789 
			655.191,-130.899 650.83,-131.393 647.318,-128.946 647.984,-127.979 647.896,-127.466 		"/>
	</g>
	<g>
		<polygon fill="#B3B4B7" points="629.016,-213.225 628.254,-213.972 627.191,-213.79 626.318,-214.262 626.125,-216.996 
			624.352,-216.528 623.822,-215.215 628.396,-205.157 629.701,-205.683 		"/>
	</g>
	<g>
		<polygon fill="#B3B4B7" points="977.725,694.406 973.064,692.18 973.049,694.268 974.496,695.188 975.082,695.17 976.047,694.211 
			977.242,694.762 977.566,695.471 978.637,694.992 		"/>
	</g>
	<g>
		<polygon fill="#B3B4B7" points="835.359,608.312 833.93,609.117 834.455,609.721 836.188,608.002 835.963,607.68 		"/>
	</g>
	<g>
		<polygon fill="#B3B4B7" points="905.812,651.053 906.07,651.1 906.529,649.875 906.752,649.998 907.41,649.955 907.504,649.766 
			907.207,649.01 905.48,648.242 905.197,648.375 905.27,648.66 905.955,649.166 905.99,649.566 905.709,650.07 		"/>
	</g>
	<g>
		<polygon fill="#B3B4B7" points="1342.287,1322.404 1339.299,1323.975 1338.199,1326.426 1338.375,1327.074 1342.693,1323.309 
			1342.625,1322.613 		"/>
	</g>
	<g>
		<polygon fill="#B3B4B7" points="1334.076,1322.92 1334.951,1321.773 1334.941,1321.523 1334.721,1321.549 1334.609,1321.518 
			1334.662,1321.312 1334.562,1321.232 1334.295,1321.318 1333.789,1320.9 1331.867,1321.664 1331.383,1322.418 1332.617,1323.834 
			1332.721,1323.297 		"/>
	</g>
	<g>
		<polygon fill="#B3B4B7" points="1334.68,1326.213 1332.617,1323.834 1332.562,1324.078 		"/>
	</g>
	<g>
		<polygon fill="#B3B4B7" points="1339.633,1328.832 1339.633,1329.32 1340.342,1329.32 1342.1,1325.643 1341.623,1325.717 		"/>
	</g>
	<g>
		<polygon fill="#B3B4B7" points="919.258,946.121 919.301,945.904 919.367,945.904 919.611,946.393 919.949,946.564 
			919.77,945.855 920.404,945.664 920.203,945.197 920.9,945.016 919.98,944.287 919.262,944.854 919.393,945.029 919.107,946.102 
					"/>
	</g>
	<g>
		<path fill="#B3B4B7" d="M255.039,227.354l-0.509,8.708l6.026,5.117l0.064,2.661l-7.32-4.034l-8.403,10.755l0.003,0.002
			l-1.699,2.151l-11.217,8.972l-20.154,5.525l-13.242,5.057l-10.783,6.094l-6.164,9.648l-1.139,7.411l5.438,3.832l7.26,1.277
			l-0.042,0.196l-0.684,0.133l-6.209,1.251l-10.014,6.075l-11.326,4.756l-9.219-4.788l-21.935-2.617l-5.146-2.483l-7.847,2.174
			l-0.871,0.25l-1.765-1.455l-0.291-4.409l-7.154-7.959l2-5.326l2.945-0.077l-2.828-7.055l-11.494-0.258l-6.042,4.372l-7.025-4.298
			l-9.982-2.663l-0.993,2.687l5.744,4.326l0.147,5.817l-2.069,2.67l1.355,1.274l0.825,0.527l-0.429,5.029l1.987,4.171l6.317,6.671
			l1.477,6.042l1.37,1.822l0.236,9.488l3.365,6.242l0.183,7.38l-3.282,6.915l3.949,9.389l5.92,1.16l0.581,2.648l-2.87,1.381
			l-5.038,0.122v-0.003l-13.105,0.334l-4.893-2.787l3.095-4.295l-6.412-0.098l-2.489,2.936l-0.5,0.541l-1.162,1.395l-5.096-0.418
			l-0.439,2.92l-3.194,0.334l-0.347-3.66l-2.714-0.735l-1.823,2.154l-0.133-5.269l-3.143,2.441l-4.802-0.682l-1.542,3.203
			l-9.725,5.52l0.065,2.654l-2.135,0.051l-0.12-4.759l-5.656-2.472l0.392-4.78l-5.13-3.542l-0.112-4.471l-3.774-0.706l0.147-4.221
			l-2.908-0.182l0.188-2.911l-5.335,0.135l-0.745,2.637l-1.674-3.631l-2.385,1.914l-6.087,0.914l-1.32,1.887l-4.349-3.051
			l-5.498,3.85l2.205,2.812l-3.761,5.029l0.012,0.719l-0.014-0.723l-4.461-2.418l-7.46,0.444l0.134,5.269l-2.137,0.055l-0.569-2.351
			l-3.189,0.591l-0.706-6.057l-2.821,3.235l-3.234-1.225l-5.88,0.694l-0.996,2.637l-3.441,0.893l-0.625-2.896l-6.087,0.952
			l0.044,1.855l-4.261,0.363l-1.911-1.262l-2.111,1.109l-0.469,3.172l-7.167,0.436l-3.644,4.566l3.262,2.278l-4.182,3.562
			l1.383,2.334l-0.922,5.799l4.284,0.441l1.58-1.646l0.839,1.038l10.081-1.565l6.542-4.89l-5.712,5.673l0.576,2.604l5.278-2.495
			l-0.977,3.734l5.899,0.104l-0.216,1.567l-6.409-0.095l-5.116-1.178l-6.22-2.756l-3.611,4.308l4.826,1.486l-0.081,7.087
			l1.297-1.087l2.835-4.543l5.671,3.024l2.705,0.476l1.171,4.192l-1.549,2.907l-3.466-0.166l-3.2,0.078l-5.309,0.938l-9.08,0.733
			l-1.777,2.448l2.688,1.494l2.939-0.327l2.443,2.045l3.452-0.338l5.791,6.186l1.495,6.793l-1.784,3.757l5.622,0.913l6.136-0.453
			l1.268-2.393l-2.47-3.102l2.413,0.994l2.43-0.314l4.327,2.252l2.633-0.57l-0.109-4.514l1.178,4.486l3.598,5.434l7.483,0.322
			l0.258-1.57l1.903,2.57l4.585,0.685l3.457-0.087l0.224,0.298l3.106,4.642l4.293,0.95l1.523-2.4l-0.703,2.883l3.757,1.511
			l4.941,4.602l1.655,2.868l-0.424,3.427l-0.471,3.473l3.263,2.282l1.575-1.897l-1.676-2.068l-0.12-4.719l3.219,0.676l0.989-3.193
			l0.859,1.839l3.532,2.823l1.556-2.698l-1.716-3.626l3.045,3.889l3.698-0.643l-0.813-1.84l3.477,0.721l2.732,3.096l-1.271,2.143
			l-3.485-0.972l-4.06-1.752l-2.068,2.714l3.229,0.969l2.483,3.609l14.392-1.67l3.736,0.705l-1.798,1.609l0.316,2.392l0.522,0.369h0
			l1.389,0.897l-4.968,4.593l1.092,1.028l1.119,2.078l-2.593,3.779l2.985,1.482l5.103,0.93l0.46-2.118l3.041,3.636l4.82-0.125
			l3.365-3.793l4.527-0.113l-4.727,2.477l0.327,2.65l1.124,2.336l-2.869,2.984l-3.202,0.08l0.653,3.949l5.821-1.201l7.116,6.15
			l-0.333,0.428l0.006,0.006l-7.68,10.314l-0.101,6.332l8.437,7.678l-0.199,2.369l2.394-0.061l5.458,14.92l5.399,2.486l5.471,5.131
			l6.146-0.156l2.519,5.213l5.893-0.148l2.749,3.893l5.96,2.76l0.083-1.836l1.732-0.346l0.427,0.295l1.461,1.248l-4.181,3.521
			l-0.449,2.67l-4,0.604l-2.193-2.305l-5.35-0.371l-0.621-2.645l-3.254-2.027l-4.485,1.715l3.052,4.148l3.715-0.09l3.815,2.262
			l3.003,2.287l5.586-0.396l1.125,2.328l3.737,0.713l1.458,3.637l2.413,0.986l-0.183,2.92l-3.211-0.426l-1.026,1.588l2.475,3.35
			l-1.18,5.855l-3.206-0.176l0.347,3.66l0.847,1.295l-3.754,0.09l-0.568-2.086l2.31-3.232l-0.855-1.787l-1.352-1.025l-0.715-6.307
			l-4.536-0.436l-3.825-4.375l-0.324,9.244l6.261,4.32l0.64,5l1.209,5.756l0.7,5.799l3.197-0.373l5.703,4.377l3.812,2.002
			l0.321,2.613l2.963,0.469l8.75,8.221l2.231,9.055h-0.002l0.426,1.68l2.071,7.588l0.703,7.613l-1.272,2.143l-1.479-6.295
			l-4.123-14.369L118.5,602.041l0.159-5.533l-2.691-0.189l-4.106,6.441l-0.773,22.16l-2.893,22.479l-1.996,17.43l-0.143,4.521
			l1.726-6.119l3.593-4.857l5.457,4.627l0.591,1.551l1.635,2.066l-6.655,0.461l-1.104-1.58l-2.622,1.127l-0.453,3.975l-2.845,4.039
			l0.15,6.029l-0.036,0.252h-0.002l-4.108,25.166l-5.564,23.346l-1.654,9.029l-1.417,6.357l-3.8,6.842l-1.058,1.975l-5.963,7.527
			l-4.736,1.979l-3.444,0.59l0.058,2.238l-0.044-0.02l-0.271-0.672l-0.252-0.154l-0.91,0.48l-26.758-8.324l-0.947,3.074
			l-1.263-4.092l-2.796-2.016l-9.342,1.555v0.445h0.363v0.539l-4.681,2.949l1.106,3.971l-4.258-3.293l-1.2,0.918l-3.383-0.871
			l-1.2-1.379l-12.376-2.414l-0.568-0.848l-0.735,1.322l-1.083-1.115l-1.034-0.207l1.661-1.678l1.955,0.627L6,754.672l0.021-1.074
			l-0.445-0.625l-6.267-2.111l0.098-1.234l-9.135,2.705l0.388,0.543l-0.303,0.084l-0.088,0.357l-1.401-0.441l0.775,2.109
			l-0.222,0.289l-0.486-0.154l-0.487-0.707l-0.461-0.154l-2.037,1.947l-1.052,0.051l-0.013-0.318l0.076-0.076l0.331-0.051
			l-1.075-1.02l3.934-2.463l-3.013-1.277l-3.102,1.273l-0.413-0.398l-0.66,0.402l-0.865-0.244l-2.711,1.713v0.453l0.719,0.541
			l-0.816,0.148l-0.258,0.338l-1.644-1.023l-0.429,0.146l-0.128,0.684l-17.6,2.967l-1.05,1.156l-2.792-1.369l-1.479,0.279
			l-1.097,1.09l-24.062-6.338l-1.79,0.934l-3.665-1.113l-0.627,0.4l-0.553-0.91l-15.145-4.131l-0.433,0.855l-2.563,1.455
			l-0.359-0.486l1.581-2.021l-0.165-1l-14.862-0.434l-1.009-1.561l-0.268,1.025h-0.358l-0.979-1.512l-6.898,509.697l6.266,4.029
			l1.248-0.465l5.006,3.537l7.616-2.477l0.872-1.223l-0.423-2.5l0.261-0.467l-0.394-1.766l0.893-1.994l3.078,1.076l1.29,3.016
			l0.467-1.262h-0.354l9.646-19l35.967-12.729l3.259-5.854l80.741-1.936l1.984,2.227l0.485-0.143l0.478-0.613l0.467-0.141
			l3.058,1.791l3.47-0.363l5.941-7.76l5.314-1.219l2.533,0.893l4.914-1.164l7.103,6.338l2.982,0.461l33.093-45.996l0.946,0.355
			l0.448-0.348l0.914-3.227l12.981-5.771l6.585,2.275l-0.708-0.518l-0.157-0.637l0.87-1.141l18.272-1.84l0.461,0.312l2.119-1.309
			l0.212-0.787l-0.36-0.762l-0.961-0.561l-0.438,0.807l-3.938-1.816l-2.424-4.986l0.431-0.896l1.862-0.924l1.285-3.484l1.431,1.775
			l6.657-25.674l4.922-1.16l0.601-0.781l0.325-8.322l1.856,0.115l0.199-1.012l21.506-13.383l0.276-2.844l1.362-1.682l5.73-0.703
			l-0.388-0.939l2.377-2.512l1.384-0.24l2.474-2.945l1.866-0.283l0.363-0.521l-0.363-1.869l-0.521,0.146l-1.825-1.871l0.75-0.504
			l-15.255-8.912l-7.728-14.723l45.032-99.979l5.905-1.543l1.13,0.588l-4.238,3.148l-1.877-0.334l0.917,1.684l1.317-0.047
			l11.943-9.803l0.166-0.545l-6.034-4.85l0.168,0.461l-0.246,0.342l-3.538-1.371l16.265-17.537l6.503-1.379L247.37,924
			l109.316-62.107l-2.352-11.059l-3.389-2.625l1.414-7.613l5.947,0.621l2.865-5.857l-1.943-0.986l-0.559,0.535h-0.359l-0.678-0.984
			l-1.266,0.139l-0.059-2.252l-2.209-2.854l-3.795-1.512l-1.182-23.002l-0.404-7.545l0.082-8.688l-3.194,0.332l-2.788-3.861
			l2.047-3.506l4.627,4.1l3.938-3.258l2.623-2.682l0.271-2.797l0.135-1.438l9.531-3.148l1.01-2.383l7.461-0.447l2.32-2.961
			l14.143-11.709l8.891-6.551l3.68,0.156l4.102,0.197l0.131,5.275l6.102-0.461l3.289,0.086l8.463,0.174l11.246,0.516l2.188,2.055
			l-4.018,0.104l-2.529,4.529l11.494,2.07l9.057-1.781l-4.939-4.391l3.143-2.693l5.127,1.977l2.521,4.957l15.244-0.131l3.93-1.695
			l0.871,2.381l-4.178,3.775l5.898,0.109l-1,2.678l-1.578,1.9l13.062-0.336l6.457,1.945l0.666,0.834v-0.004l0.746,0.951l4.834,1.99
			l1.457,5.229l2.955,0.477l2.645-1.92l4.711-3.031l8.299,0.596l-0.201,2.115l-2.656,1.377l6.41,0.127l-1.619-1.559l-0.643-3.396
			l3.398-2.455l4.043,1.199l1.639,0.475l1.363,1.564l1.846-1.352l0.422-3.467l2.094-1.863l5.592-0.145l1.559-2.445l3.742,0.965
			l4.221-1.922l-0.17-6.873l-5.584,0.393l4.201-2.723l2.061-2.965l0.449-4.225l7.697-1.248l4.191-4.879l-3.064-2.951l-0.039-1.693
			l-1.486-1.398v-0.004l1.49,1.402l0.041,1.693l3.064,2.951l0.207-0.258l0.104-5.896l0.885,0.014l0.299,0.049l-0.338,0.898
			l1.002-0.135l0.209-0.611l3.305,0.566l1.82-2.449l2.699,0.479l0.031-4.488l35.42-12.168l-0.799-1.936l15.566-20.449l-0.273-1.43
			l11.037-8.078h1.227l3.064-2.496l4.719,0.02l0.951,1.096l14.924,3.672l0.975,1.709l-0.113,0.834l3.355,1.691l1.043-3.537
			l7.18,4.336l0.371,1.646l2.492,1.096l0.76,1.26l2.498-0.316l18.754,14.736l0.209-0.375l-0.691-0.418l0.75-1.035v-0.449
			l-0.893-0.459l-0.566-1.029l0.715-0.504l-0.34-0.539l0.947-0.096l1.688,1.508l0.561-0.369l3.928,3.508l0.953-0.379l0.418-0.709
			l6.135,3.131l11.549,39.016l1.719,0.838l9.227,26.795l-3.039,7.236l2.154,4.619l1.459-0.676l-0.389-1.027l11.752,2.205l0.75,1.684
			l-2.434,6.414l13.543,6.713l0.838,3l3.773,2.535l0.168,1.389l0.869,0.422l1.627,3.459l1.568-0.426l1.498,3.068l-1.084,5.131
			l-4.482,0.926l1.346,3.109l2.59,1.766l0.068-0.119l1.398,0.119l1.441-3.725l7.889,1.311l-0.404-0.484l2.193,0.479v0.527
			l13.727,8.014l8.873,17.271l4.682-0.262l37.641,41.301l0.975-1.26l14.145,5.98l6.332,10.584l1.242,0.404l13.406-5.084l9.58,5.084
			l0.381-0.555l1.057,1.502h2.139l-0.623-2.074l4.873-1.496l0.355,0.621l2.354-0.4l18.021,28.988l-0.639,2.752l2.211,0.979
			l-0.318-2.666l0.324-0.641l0.703-0.17l5.645,2.256l1.041-2.086l3.691-0.504l9.725,8.771l-7.438,5.992l-0.412,2.742l0.66,0.947
			l7.551-4.27l2.99,1.318l10.918-4.348l12.436,19.4l-1.326,3.354l-1.674,0.787l0.344,1.814l-1.684,3.311l0.215,1.168l7.135,4.969
			l3.434-0.4l8.723,8.688l-0.947,0.783v0.453l2.182-0.453l3.875,2.279l2.5-0.117l5.793-5.006h4.672l8.623,19.557v-0.418
			l19.15,56.809l3.176,2.41l-0.727,9.561l-18.678,7.754l-0.562,1.779l4.305,5.566l-6.301,17.641l-7.6,2.957l-1.393,9.885
			l1.803,3.279l-1.049,0.98l0.369,2.615l4.686,3.799l13.951,0.787l29.357-33.01l-0.637-18.242l-0.746-0.67l2.658-6.551l20.752-9.326
			l2.117,2.096l2.543-1.131l1.283,0.242l0.479,1.346l3.564-4.117l0.238-3.465l1.57-1.154l-2.871-1.119l0.352-24.268l-33.682-19.178
			l0.688-2.162l-2.047-3.645l7.438-12.992l-1.41-8.062l23.311-29.734l6.102,0.686l0.83,1.633l0.432,0.24l3.01-1.438l1.102,0.463
			l-0.355,0.508l3.229-0.68l-0.355,1.146l-1.07,0.59l-2.537-0.486l-1.045,0.404l1.068,1.178l-0.248,1.098l-2.25,1.43l37.338,11.303
			v0.43h-0.688l5.836,10.465l-0.426,1.465l-1.863,1.174l1.984,0.846l0.889,1.588l-0.098,0.775l-0.475,0.467l-0.83,0.045v0.504
			l19.559,13.518l7.736-20.957l-26.658-37.428l-2.734,0.25l0.049-1.617l-57.52-32.453v0.521l-49.594-25.699l-1.057-5.16
			l15.789-14.963l-0.709-7.174l-0.959,0.049l-1.066-1.908l-1.502-0.455l-0.051-0.127l-71.789-10.967l-58.887-102.965l0.396-1.141
			l-1.387-1.615l-1.01-0.24l-3.596-4.381l-1.926,1.57l-60.393-53.83l-2.148-34.225h-0.713v-0.459l1.367-1.213l0.549,0.023
			l3.797,3.73l2.123-0.812l0.414-1.264l-1.426-0.465v-0.5l0.596-0.201l0.408-0.539l0.033-0.553l-1.303-0.562l1.254-3.033l0.6-0.375
			l0.588,0.289l-0.742,3.418l1.076,2.521l2.85-7.441l0.727-0.059l0.75-1.549l-0.213-0.484l0.574-1.486l-0.889-1.287l-1.615-0.268
			v0.553l0.688,0.006l-0.688,0.531l-3.965-4.111l0.154-0.793l-2.33-1.678l0.93,1.977l-0.934,2.051l-0.717-1l1.104-0.557
			l-2.889-4.547l0.385,1.018l-1.141,0.1l-0.52-0.734l0.562-2.945v1.518l1.104,0.504l-1.596-8.471l0.492-1.133l-2.535,2.066
			l0.385,0.455l-1.875-0.551l-0.488-0.902l0.182-1.07l-0.721-0.908l0.146-0.385l0.574-0.219l-0.398-3.164l-1.045-0.439l0.113,1.863
			l-0.979,1.234l-0.625-0.312l-1.041-2.225l0.285-1.58l0.443-0.213l1.287,0.732l1.115-0.189l1.238-2.34l-0.449-0.988l1.129-0.541
			l0.719-2.531l-0.551-0.547l0.547-2.041h-0.336l5.117-5.572l1.719,0.031l-0.143,0.723l1.627,0.117l0.65-0.373v-0.461l-1.766-0.713
			l-0.328-0.672l0.662-1.205l0.344,1.57h0.361l0.379-0.416l0.91,0.84l0.844,0.033l-0.473-1.371l3.383-3.203l1.619,2.795l2.324-1.281
			l-1.023,1.594l-1.676,0.443l-0.455,0.49l-0.334,1.967l-1.164,0.141v-0.557h0.715l-0.346-0.559l-0.045,0.1l-0.096-0.168
			l-1.701,0.168l0.721,1.016l-0.354,0.363l-0.248,0.023l-0.467-0.939h-0.445l-0.195,1.025l-0.863,0.041l0.26,0.674l-1.338,2.885
			l38.734-19.955l-3.051,1.096l-0.846-0.59l-0.293-1.254l1.621-1.691l1.174-0.061v-0.561l-0.59-0.312l-0.039-1.414l0.438-0.324
			l0.631,0.24l0.441,1.047l0.518,0.248l0.441-0.23l0.607-1.057l2.412-0.744l7.135,2.875l0.924-0.322l0.645,1.092l2.148,0.443
			l0.461,1.289l-0.346,0.617l-2.514,1.154l1.305,0.574l8.029-4.619l-1.398-0.248l0.326-3.104l0.865-0.779l10.613,8.99l0.209,1.293
			l-0.961,0.441l3.604,2.596l-4.084,0.105l-0.963,1.477l2.158,2.555v0.459l-9.66,1.027l0.531,1.17l0.908,0.396l-0.33,2.184
			l-4.314-1.721l0.711,4.066l-0.285,0.68l0.285,0.385l-0.398,0.51l2.182,5.582l-0.756,0.324l1.111,2.264l2.514,0.465l-1.795,1.012
			l0.48,0.975l0.955,0.586v0.461l-0.975,0.225l-0.461,0.834l1.049,1.053l-0.025,2.828l-0.658,0.721v0.451l0.639,0.691l-0.283,0.875
			l0.541,0.318l0.059,2.512l6.584,0.201l-5.961,1.229l1.283,1.803l-0.732,1.482l1.09,0.182l8.602,11.455l-0.709,1.059v0.447
			l0.533,0.707l1.973-0.203l-0.445,1.092l-0.738,0.414l-0.777-0.213l-0.541-0.785l-0.383,0.451l2.314,1.648l0.574-0.145l0.35,0.547
			l-0.35,0.51h0.719l-0.363,1.004l2.492,1.008l0.332,2.99l0.766-0.441l-0.705-1.5l0.258-0.754l-1.377-1.303l0.373-0.508l0.49,0.328
			l0.539-0.141l0.461,0.148l0.328,1.18l0.242-0.168l0.111-0.385l3.574,0.555l-0.551-0.881l-0.873-0.125l0.002-1.512l1.066-1.51
			v-0.541h-0.361v-0.449h0.361l-1.072-1.463l1.996-0.303l0.506,0.303l0.053-0.455l0.059-0.064l0.264-0.031v-0.502l-0.268-0.389
			l-0.012-0.207l0.643,0.09l0.008-2.527h0.289l0.223,0.367l1.633-2.373l-0.211-0.719l-0.889-0.225l-0.773-0.996l0.018-2.178
			l0.617,0.062l1.674,3.814l-0.787,2.717h0.352l1.971-2.055l1.402,0.457l1.256-1.807l-0.236-3.301l-0.809-0.938v-0.461l0.746,0.463
			v-2.535l0.326,0.555l1.51-1.906l0.105-1.105l-0.836-1.033l1.578,0.607l6.309-16.871l11.186,5.207l0.443-0.316l0.18-0.576
			l-1.09-1.25l2.504,2.023l-0.719,0.701l14.904,13.508l2.203,26.363l-0.602,0.924l33.809,33.08l-0.18,0.805l-13.848-5.248
			l1.471,2.225l0.717,0.221l-0.646,0.848l-0.467,0.146l0.725,2.533l-0.83-0.076l-4.258-3.635l0.445,1.182h-0.406L981.656,695
			l-0.01,0.008l-0.061,0.137l-0.4,0.098l1.172,0.922l-0.527,1.129l-1.113,0.547l-0.994-2.225l-0.896-0.16l-1.578,1.324l2.627,3.725
			l-0.832,1.303l3.568,3.432l-0.203,0.734l3.629,3.824l-0.035,0.242l20.34,19.076l0.162-0.125l0.537,0.131v0.531l-3.227-0.973
			l0.816,1.082l2.564,0.959l1.271,2.439l11.77,6.271l0.457-0.078l-0.049-1.35l0.604,0.562l0.1,0.637l-0.344,0.539l-0.725,0.281
			l1.006,0.807l0.1,0.471l-0.564,0.211l-1.346-0.42l-0.629,0.414l3.223,0.488v0.537l-1.922-0.035l-0.557,0.4l0.34,1.066
			l-0.395,0.533l0.395,0.496l-0.395,0.447l0.748,0.488l-0.744,0.535v0.451l0.922-0.012l0.459,0.445l-0.123,0.492l-0.865,0.098
			l1.609,0.771l0.178,0.705l1.467-0.492l-0.262,0.557l0.24,0.705l-0.168,0.455l-1.164,0.42l-0.096,0.805h0.248l0.105-0.5
			l0.373,0.561l1.176-0.029l0.623,0.445v-0.479l5.52,1.801l-0.115-0.777h3.221l-0.4-1.029l-2.465-0.988v-0.492l18.629-0.98
			l-4.287,1.473v0.492l7.266,0.148l0.223,0.836l45.59,31.938l1.129-0.967l0.391,0.971l-0.396,0.496l0.768,0.889l1.031,0.084
			l-1.396,0.977l2.834-1.258l0.738,0.281l-1.631,1.26l3.338,4.475l0.795-0.324l3.564,2.398l-3.215-0.941l5.047,3.094l0.004,0.02
			l1.357,0.832l1.496-0.539l0.334,0.438l-0.611,0.879l2.072,2.078l-3.553-2.551l-1.094,0.121l-6.621-3.443l-0.219,0.145l0.045,0.666
			l-0.203,0.154l-3.061-0.961l-0.326-1.465l-23.727-7.807l1.408,1.459v0.486l-0.547,0.748l22.26,8.217l-0.125,1.795l16.145,5.875
			l-1.457-2.508l3.1,2.078l0.629-0.822l2.252,0.1l1.576,1.225l1.447-0.061l-0.637,1.57l7.74,5.502l0.766-0.766l1.795,2.412h-1.043
			l8.705,3.781l-0.152,2.518l10.031,7.307l0.051,1.004l5.244,3.723l0.432-2.029l-0.982-0.732v-0.52l7.949,0.273l1.73-2.203
			l1.096,5.26l-0.416,1.096l-7.205-3.221l-0.66,0.244l-0.262,0.816l1.719,1.643l-0.385,0.521l2.414,1.766l1.129-0.154l0.432,0.289
			h0.354l0.266-1.443l1.057,0.049l0.906,0.861l-0.125,1.445l1.076,1.01l0.02,0.969l3.367,3.807l2.053-1.393l0.717,0.961l0.393-0.578
			l1.719-0.338l6.1,8.943h0.344l0.275,0.178l0.555,1.514l2.006-0.045l1.834,2.115l-0.477,1.025l3.387,3.746l0.195,3.754
			l-0.266,0.256l1.707,3.322l10.205,6l3.568-1.133l8.299,3.49l0.383,2.801l-0.5,0.916l-0.957-0.328l0.359,5.791l-1.072,1.889
			l1.787,1.955l0.436-0.447l0.682,2.359l-0.523,0.248l-0.354-0.068l-0.24-1.174h-0.355l-1.033,2.404l-6.516-0.027l3.834,3.863
			l-0.275,3.004l-3.566,3.203l0.234,1.785l-0.869,0.967l-1.174,0.061l-0.689-0.916l1.34,6.33l0.67,0.617l2.955,0.502l1.328,2.062
			l-2.607,8.699l-1.131,0.52l0.289,9.303l1.43,0.932l-1.43,4.244l0.336,0.727l2.18-5.441l1.461,5.662l-4.33,3.338l-0.15-0.99
			l-0.166,0.99h-0.385l-0.016-4.463l0.727-0.824l-3.123,2.801l1.736,2.725l-1.109,1.65l0.727,1.68l-1.521,0.521l-3.848,11.01
			l4.303,7.043l0.285-1.904l1.24-0.344l1.393,0.707l0.652,1.324l-0.439,2.936l-0.658,0.361l-1.016-1.164l-0.309,0.049l3.68,4.68
			l-0.191,7.234l-2.701,1.258l-4.771-7.461l-2.254,0.807v0.467l23.014,21.338l0.201-0.137l1.98,3.195l0.35-0.979l1.426,0.979
			l-0.43,0.424l3.084,0.512l4.492,7.484l-1.818,1.855v0.434l2.758,1.158l0.143,0.744l2.518,0.875l-1.521,7.355l1.145,0.619
			l-1.006,3.176l0.297,0.992h0.352l0.057-0.4l9.691,4.627l0.346,1.377l-0.721,0.424l-0.004,1.422l-0.713,0.852l-0.352,0.031
			l-0.4-0.453l-0.676,2.773l3.586,0.004l-0.594,0.539l1.652,0.877l-0.012-0.844l2.195,0.844v0.465l-0.461,0.639l-2.078-0.172v0.42
			l2.539,1.889l0.18,0.943l-2.719,0.441l1.438,1.887v0.428h-0.354v0.455l1.193,0.143l1.662,2.205l0.125,2.107l3.807,3.09
			l1.473-0.625l2.068,0.957l0.803-0.455l0.219,0.621l0.396,0.207l1.166-0.359l71.59,252.445l-0.596,0.68l1.596,3.684l1.152-1.332
			l0.029-0.289l0.803-0.283l2.926,1.191l0.166-0.205l-3.9-3.451l-0.633,0.02l-0.121-0.988l0.748,0.502l1.809-3.955l-0.762-0.174
			v-0.508l1.475-1.367l0.318,0.455l0.578-0.672l0.607,0.416l0.211,1.123l-0.656,1.477l0.357-0.484l0.717-0.027l0.023,0.348
			l-0.078,0.084l0.062,0.527l0.459-0.166l0.26,1.535l-0.789,0.377l2.18,0.031l-0.24-0.314l-0.572-0.131l-0.23-0.672l0.189-0.426
			l0.936-0.533l0.309-0.674h0.379l0.986,0.859l1.502-0.355v0.449l-0.459,0.129l-0.162,0.295h-0.109l0.492,1.225l0.502,0.289
			l0.633-0.346l1.957,1.17v0.463l2.895,0.414l-1.102-0.877l1.471-1.244l0.701,0.295l-0.227-0.93l0.547-0.871l3.92,4.379l0.051,1.584
			l-0.439-0.178l-0.547,0.967l0.275,0.539l-0.291,1.584l0.9,1.334l0.234-0.059l0.186,0.059l0.328,1.324l0.438,0.385l-0.207,0.631
			l-0.246,0.156l-0.629-0.287l-0.021-0.186l-2.07-1.977l-0.971-0.053l-0.555,0.438l0.412,1.281l-0.68,0.799l-0.08,0.625
			l-3.107-2.264l0.086-2.314l-4.732-0.766l-0.516-0.699h-0.344l-0.26,1.227l-0.629,0.533l-1.945,0.121l0.309-0.439l-0.047-0.242
			l-0.262-0.25l0.232-0.477l-0.232-0.896h-0.352l-1.256,2.133l-0.986,0.496l-1.863-0.912l-0.611-1.605l-0.832,2.291l0.551,2.215
			l1.961,1.188l0.182,0.428l-2.926,0.709l-1.049,3.604l2.305,2.85l0.553-0.477l0.418,0.096l0.645-0.453l0.373,0.727l1.771-2.479
			l0.773-0.26l0.719,0.541l2.777,7.93l2.742,0.283l2.98,11.057l2.668-1.973l0.49,0.309l-0.58,2.012l0.756,0.492l-1.08,0.416
			l1.441,0.422l-0.244,1.107l0.486,1.248l-0.242,0.865l0.717-0.496l-0.189,0.822l-0.498,0.184l-1.141-1.002l-0.098,0.354
			l-0.232,0.139l0.844,2.008l0.598,0.266l0.449-0.727l0.404-0.035l0.928,0.754l-1.4,1.67l-0.543-0.295l0.162-0.463l-0.709,1.406
			l0.713-0.49l0.17,0.738l-1.283,1.115l2.904,0.459l0.797,2.18l0.986,0.08l0.043-0.705l1.299-0.648l-0.977-0.494l0.424-0.723
			l2.617,0.691l1.727-1.562l-0.248-0.227l-0.064-0.242l0.162-0.426l0.441-0.199l0.713,0.449l0.389-0.494l-0.266-0.152l-0.123-0.266
			l2.373-1.195l0.512-2.018l-0.383-0.459h0.744l-2.346-4.088l0.756-0.125l1.943,1.896l0.922,4.594l2.035,0.316l0.639,0.695
			l-0.338,1.305l1.072-0.49l0.836,0.344l0.922-0.346l-0.32,0.91h1.041l-0.727,0.451v0.496l0.727,0.455l-0.371,0.812l0.375,0.506
			v0.494l-2.334-1.619l-0.887,0.227l5.006,2.312l3.975-3.672l0.717,0.395l5.393-0.857l2.426,1.961l0.467-0.342l0.559-1.988
			l3.053-2.354l0.83,1.193l6.9-1.979l1.225,1.238l1.986-0.438l5.17,2.289l-0.113,0.676l1.223,0.197l1.064,1.859l1.861-2.467
			l8.256,1.15l0.297-0.553l-0.361-0.455l0.791-0.703l-0.084-1.123l-0.242,0.309l-0.213,0.029l-0.633-0.787l1.809-1.566l-0.053-0.643
			l2.928-0.041l0.705,1.314l153.506,0.713V-262.302h-287.223l9.953,49.944l-3.266,6.316l-0.148,0.069l0.289,0.894l3.031-2.897
			l0.545,0.071l1.484,7.562l-0.764-0.088l-0.34,0.37l-0.275,7.256l-1.887,0.32l-1.113-1.187l-0.957,1.163l2.455,23.994l-6.488,2.317
			l-0.812,1.086l-0.627,0.157l-1.207-1.331l-0.859,0.938l-25.209-3.346l-1.273-1.719l-0.025-1.258l19.492-22.391l-0.107-0.669
			l0.514-0.675l1.232-0.417l0.342-0.62l-0.113-0.381l8.637-16.422l-1.002-1.257l1.602-23.918l-1.711-2.145l0.455,11.066l0.297,0.434
			l-32.326,57.209l-23.51,2.49l-1.99-1.807l-2.049,1.477l-3.162,26.283l-8.58,10.595l11.656-8.207l0.344-0.984l-0.734-0.613
			l0.371-4.332l1.422-1.529l1.998-0.326l1.031,0.483l1.725,5.348l0.689,0.07l4.76-3.545l12.051,0.731l-0.004,0.679h-0.008v0.001
			l-17.729,11.101l-0.658-0.077l-1.311-1.148l-2.078-0.173l-4.426,7.607l-4.467,1.785l-0.93,2.072l-3.158,1.051l0.324,1.785
			l-20.125,16.641l0.625-3.201l0.49-0.463v-0.668l-7.199-1.227l0.379-1.621l0.344-0.162l-1.754-1.96v-0.551l11.4-8.027
			l-23.311,7.431l-2.5-1.228l-1.623,0.908l-10.789-3.007l-1.199-2.024l-5.578-2.611l-3.41-19.18l-0.871,1.126l-0.992,0.209
			l-2.082-7.818l-1.814-1.232l0.852-4.508l0.779-0.615l-6.682-4.532l-95.113,27.664l-2.895,3.977l1.473-1.025l0.299,0.363
			l-1.006,1.99l-0.852,0.333l-0.523-0.222l0.285-1.437l-8.287,11.65l1.227-1.34l1.039,0.037l0.625,1.307l-5.498,3.221l2.277-3.228
			l-7.213,6.118l4.072-0.834l-0.1,1.444l0.16,0.124l0.113-0.016l0.074,0.51h-2.5v0.662h0.359v0.556l-4.619,0.805l-1.139-0.805
			l3.246-1.835l-97.607,32.244l-24.717-22.846l-2.27,2.245l3.232,4.624l-2.148,6.994l1.066,0.406l3.635-2.821l0.389,0.124
			l-0.787,4.12l2.129-0.883l1.014-1.91l0.451-0.244l-0.486-1.771l0.555-0.677l2.076,0.019l2.537,4.252l1.219-0.502l0.57,7.177
			l-1.789-0.547l0.225-0.825l0.48-0.44l-2.787,0.355l-0.811,1.457l0.707-4.299l-3.58-0.552l1.428,8.546l-5.76,3.03l0.959,1.307
			l9.684-1.191l1.225-1.378l9.338,0.658l4.842,4.761l1.166-0.063l0.043-0.183l-0.721-0.283v-0.603l2.9-1.213l0.459,0.354L940.816-71
			l0.102-1.065l-2.855-1.263l1.145-1.587l0.449-0.18l1.072,0.4l0.414-0.117l0.535-0.891l0.311,0.608l-0.65,1.724l0.82,0.9
			l7.051,1.314l0.727,1.507l-1.074,1.209l1.389,1.203l-0.312-0.6l1.664-1.965l0.123-1.061h0.359l-0.359,7.257l-1.908,0.534
			l-0.598-0.538l-1.633,5.795l1.625,3.913l2.504,0.598l0.006,1.206l-1.398,1.938l-0.072,1.403l-0.264,0.258l-13.023-10.275
			l-0.605-1.699l-1.898-1.317l-0.297,0.662l0.689,0.599l-0.689,0.598l0.92,0.643l-0.059,0.729l-1.623,1.046l-3.188-0.662
			l2.873-2.425l-0.143-1.432l-0.773-0.734l-0.836-0.167l-1.008,1.49l-16.498-5.686l-1.934-2.831l-2.395-1.034l-0.467-1.082
			l5.221-6.071l-0.094-0.843l-2.992-1.116l-0.52-2.736l-4.863-4.461l1.418-0.878l1.838-5.205l-5.756-4.312v-0.56l0.861-0.425
			l0.08-0.396l-0.232-0.458l-12.189,4.315v0.62l1.471,1.821v0.619l-1.242-0.023l-3.445-5.512l-0.479-0.131l-0.727,0.498L886.77-97.7
			l1.064-1.84l-1.029-0.396l-3.258,1.012l1.43-1.218l-9.039-7.542l-1.719,0.158l1.432-0.554v-0.664l-2.922-0.309l-2.01-6.494
			l1-1.767l-3.918-3.801l0.033-1.069l0.672-0.647l-1.34-0.393l-9.793,7.353l-1.805-3.22l-0.98,1.079l-0.557,0.033l-0.617-0.553
			l-0.58,0.692l-0.586-0.273l-1.002-1.638l-1.08,2.448l0.965-2.857l0.789-0.205v-0.67l-2.477,0.67l0.367,1.286l-4.432,2.04
			l-0.957-0.864v0.604l-0.434-0.337l-1.328,0.334v0.618l1.041,0.616l-4.293,2.392l-0.326,1.941l-3.25,3.663l1.699,1.251l0.793-0.024
			l-1.105,0.693l-3.572-1.927l0.588-0.702l-0.91-2.969l0.857-0.2l0.908-1.846l-0.342-1.068l0.354-0.619l1.436,0.619l0.043-2.789
			l1.561-1.445l2.934,0.699l0.863,1.078l1.404-1.664l1.127-0.108l1.002,0.549l-0.01-0.381l0.07-0.118l0.324-0.051l-0.754-0.176
			l-0.32-1.109l1.07-0.663l0.326,0.666l0.324-1.2l0.516-0.288l2.406,0.267l0.867-1.053l9.635,1.342l2.648-1.504l-0.668-1
			l-1.514-0.383l-1.199,0.693l-16.156-1.879l-1.115-1.8h0.354v-0.556L819.6-99.528l2.189-0.603l-0.445,1.196l-1.508,0.864
			l-0.551,1.042l1.039,4.262l-1.217-1.43l-0.188-7.146l-20.879,3.468l-3.545,4.507v0.464l0.385,0.309l-3.984,5.854l-1.797-0.551
			v0.551h0.363v0.666l-1.791,1.818l0.318,1.82l-1.33,1.159l-0.781,5.56h-0.582l-2.414-2.804l-0.033-0.283h-2.162l-1.266-1.808
			l-2.553,1.922l-2.219-0.49l0.113-2.954l-0.27-0.443l-1.877-0.519l-1.059-2.38l-15.549,4.635l-0.605-2.808l-4.984-1.292
			l-1.455-3.568l3.188-4.258l0.471,0.049l0.717,0.655l12.066-8.376l0.01-15.633l1.117,0.604l2.504-3.058l-1.652-0.626l-3.678,2.266
			l-1.225-0.857l-0.902,0.301l-0.738-0.334l-15.16,5.524l-17.258-11.206h-2.826l-1.1,1.473l-3.227,0.983l-3.166,7.583l-1.162,0.437
			l0.734-1.708l-0.729-1.352l0.342-0.6l-0.023-0.282l-0.324-0.346l1.852-1.081l1.047-2.318l-0.684-3.52l1.029-1.051l-4.131-3.131
			l-12.656,3.03l-2.262-1.183v-0.611l6.568-2.165l2.855-3.582l1.004-10.919l-0.293-0.548l-0.594,0.042l-0.568,0.486l-0.791-1.054
			l-3.502,0.434l0.156-1.018l2.033-1.243l-0.035-0.2l1.832,0.513l0.664-0.513l-5.404-8.148l-1.229,0.087l0.199,1.881l-3.76,1.159
			l-1.145-2.409l-11.459-4.255l-0.16-3.275l-7.535,5.067l4.494-6.251l1.242-0.005l2.141-4.399l1.49-0.45l1.23,0.722l0.285,1.052
			l-1.762,0.903l1.246,2.174l-0.076,0.566l-0.438,0.353l-0.062,0.359l3.85,0.585l1.793,2.48l0.785-0.403l-0.086-2.749l-2.137-1.812
			l0.404-1.126l2.133,0.508l0.502-0.408l-1.625-8.916l-7.893-5.044l-7.182,2.495l-0.449-1.315l6.559-4.369l-2.695-3.128
			l-2.174-0.162l-0.531-0.397l2.898-0.68v-0.625h-0.896l-0.439-0.675l0.004-0.808l4.383-3.312l6.006-0.472l1.121-6.182l-3.75-4.819
			v-0.683l0.721-0.725l-3.209-8.698l2.537-0.761l1.297-1.595l0.016-2.298l-3.033-1.637l-4.543,1.161l-0.922-0.581l3.586-2.524
			l-0.363-0.627l2.506,0.634l5.217-1.887l0.291-2.129l7.398-6.142l-6.047-0.279l-4.857-6.053l-4.861-0.575l0.357-1.325l13.742,3.65
			l8.377-3.086l1.229,0.763l0.682-0.699l-0.598-1.521l2.779-2.273v-0.636l-2.094-0.148l1.361-5.208l-8.029-2.083l-1.32-1.461
			l5.4-0.692l1.123-1.669l5.768-0.469l3.707,4.734l0.508-0.208l0.891-1.578l-0.832-2.136l1.525-1.507l0.254,0.005l1.764-6.238
			h-99.113l1.791,4.425l-0.312,1.522l-10.16,7.549l-0.443-0.259l-1.457-13.232h-1.014l-2.238,37.853l11.428,7.364l0.674-0.251
			l-1.688-2.975l-2.633-1.15l0.973-1.145l0.484-0.12l-1.701-2.542l1.504-2.086l3.395,0.202v0.573l-1.115,0.209l-0.041,0.655
			l6.885,9.119l9.217,2.394l3.756,27.217l-1.047,0.424l-5.992-1.13l-0.154-1.025l1.486-1.687l0.691-0.188l-3.324-1.805l-2.164,0.326
			l-1.57,8.575l1.312,3.273l0.814,0.189l2.197-2.268l0.514-0.098l0.33-0.445l0.324-4.304l6.191,0.936l0.355,36.203l6.123,4.319
			l2.498,6.168l-1.791,1.227l0.359,0.676l2.773-0.758l6.943,9.039l-0.361,3.636l-17.539,5.843l-1.119-0.5l-1.164,2.689l0.434,0.988
			l0.844-1.131l2.342,1.131v0.615l-5.002,1.835l1.225,4.301l2.898,1.863l10.975-3.111l-0.355,1.228l4.281-2.448l-2.703,4.34
			l-3.777,1.226l-1.391,6.709l2.508,4.928h0.354l2.643-1.883l3.111,0.063l-0.154,1.571l2.297,2.691l-1.131,6.01l-1.141,0.555
			l-5.416-2.037l-2.021,0.931l9.137,12.789l1.154-1.298l9.062,3.195l-8.785,1.554l-0.996,1.159l-12.24-0.174l-6.852-4.425
			l-4.117,3.083l-4.52,16.868l4.133,10.582l-3.23,16.562l-0.75-11.253l3.246-4.382v-0.657l-13.859-6.449l-1.578,1.095l-1.369,6.964
			l3.164-0.356l1.516,1.771l-2.57,7.877l-1.201,0.971l-1.506,0.168l-3.527-3.801l-1.496-0.369l-1.264,0.571l-2.141-4.779l5.57-2.918
			l0.148-1.586l-0.588-0.919l-1.961-0.731l0.443-1.659l-3.922-4.014l-1.123-6.328l-28.875,2.305l-1.113-1.165l-12.201,2.529
			l-7.291,7.024l0.109,1.154l2.213,1.475l0.553,1.739l-0.387,0.861l-0.49,0.267l-0.287,0.706l-3.146-0.47l-1.107,15.19l15.936,2.148
			l1.275,1.857l-3.939-1.845l-1.93,0.379l-1.328,2.014l0.398,0.964l-2.195,3.548l-5.963-1.913l-0.391-2.518l0.633-0.629v-0.591
			h-0.357l-0.451,0.495l-1.236,0.006l-0.463-0.504l-0.918,0.309l-6.244-4.008l-2.68-8.16l-28.191,4.035l-1.428-1.012l-4.682,2.869
			l0.016,0.598l3.525,1.661l-0.615,0.888l-5.137-0.245l-0.336-0.916l0.115-0.495L467.117-2.726l1.373,3.423l0.502,0.314l0.352,7.029
			l-0.852,0.958l0.697,1.38l-2.455,2.563l0.146,1.403l9.859,3.579l4.203-1.522l4.426,1.52l-3.443,1.531l-3.045,12.943l3.275,5.014
			l9.424,0.621l1.672,8.823l-1.732,1.639l0.982-2.046l-1.012-5.504l-8.303-1.987l-1.418-1.543l-7.184,4.704l-1.578-0.042
			l-18.52,14.736l1.059,3.546l18.369,4.808l-2.945,2.788l-25.1-9.921l0.717-0.583v-0.638l1.434,0.635v-0.638l0.812,0.624
			l3.512-5.245l-2.188-2.398l1.471-0.54l-0.395-1.223l1.055-1.117l-2.928-10.673l0.779-1.434l3.252,0.209l1.305,1.232l8.775-7.058
			l-0.9-3.592l-3.506-1.245l-2.598,1.455l-6.609-16.217l15.629-11.311l-22.465,13.769l-4.207-0.505l-1.207-1.578l0.768-2.657
			l-0.391-0.641l-0.504,0.505l-3.236-0.505l-31.617,82.566l-3.814,1.505l-2.43-0.549l-0.654,1.208l1.75,6.052l-0.717,1.74
			l2.508,3.785l-1.174,0.785l-4.84-1.108l-5.25,2.65l0.484,2.349l0.867-0.048l0.193-0.348l4.693-1.442l4.721,7.837l5.531,2.636
			l-2.703,0.53l-0.838,1.452l0.441,2.666l0.934,0.865l2.838,0.313l0.666,0.634l0.24,1.586l-2.631-1.485l-8.848,1.48l15.729,8.246
			l0.436,1.812l-0.707,1.916l-9.34,0.169l-2.508-5.265l-9.723-3.434v-0.528l1.787-1.14l-2.08-3.046l-21.402,4.238l-0.545,0.766
			l4.629,7.276l15.273,5.71l3.928-1.152l2.873-4.266l13.939,3.886l0.607-0.8l0.533,0.381l0.832,3.755h0.012l1.475,5.045l2.188,1.102
			l-1.164,2.083l-0.607,0.309l0.586-1.324l-4.568-7.076v-0.005l0.01-0.004l-2.152-0.771l-1.234,1.667l-4.523-1.083l-1.398-2.337
			l-3.105-1.003l-0.781,2.412l-5.814,3.031l-16.6-5.968l-53.494,25.062l-14.628,7.979l-0.215-0.401l-8.438,4.179l-13.265,2.443
			l-0.727,0.144l-14.699,3.156l-11.514,9.229l0.898,35.584l-0.059,1.056 M475.273,63.876l0.736-4.726l9.365-4.84L475.273,63.876z
			 M700.006-43.39l-12.387-4.481L672.178-71.03l5.627,1.983l2.127,7.285l5.051,3.309l0.973,6.759l14.084,6.872l0.654,1.145
			L700.006-43.39z M1287.426,939.494l-0.035-0.047l0.035,0.043l0.029,0.004H1287.426z M1287.492,939.494h0.186l0.084,0.068
			L1287.492,939.494z M1421.869,1337.529l-0.197-0.107l10.438-0.02L1421.869,1337.529z M1438.172,1337.357l74.133-0.934
			l-0.094-0.734l2.447,1.529L1438.172,1337.357z"/>
	</g>
</g>
<g id="Regions">
	<path id="provenceAlpesCoteDAzur" fill="#B4B4B4" stroke="#E4E4E4" stroke-linejoin="round" stroke-miterlimit="10" d="
		M568.156,742.861l0.104-6.033l5.361,0.918l1.82-2.449l2.699,0.479l0.055-8.18l6.135-0.67l5.213-4.887l4.785-0.123l0.18-2.912
		l4.754-2.992l-2.842-6.008l3.924-3.516l-0.914-3.939l5.846-1.994l1.434-5.826l-0.863-3.939l-1.426-2.326l-1.156-3.439l-3.965,0.404
		l-12.436,4.779l-4.012,0.104l-7.055-5.344l-7.004-1.68l-4.014,0.094l-0.117-4.771l-5.682-3.27l-0.004-0.164l-0.002,0.002
		l-0.131-5.102l3.746-0.6l-2.18-1.799l-2.711-0.738l-1.406-3.375l1.004-2.395l4.658-5.135l-0.865-3.693l0.672-0.738l2.447-2.766
		l2.908,0.186l-0.062-2.363l-3.756-1.76l-1.002-7.611l-2.975-0.98l-3.697,0.646l-7.047-3.287l-1.266-7.852l-4-1.215l-1.438-2.617
		l-1.842-3.756l-5.133-0.119l-2.363,1.119l-0.451,3.973l-4.77,0.668l-0.908-3.691l-1.615-1.518l-4.812,0.627l-1.836,1.65
		l-0.93,5.553l0.844,1.285l5.609,0.402l1.154,3.391l2.158,0.998l0.145,5.775l-5.084-0.125l-2.074,2.414l-6.133-0.902l-3.385,3.006
		l-2.461-0.998l-3.389,2.742l1.383,2.332l-2.082,2.156l-6.658,0.17l0.082,3.166l2.16,0.994l-0.768,1.881l-4.48,1.924l-5.576,0.689
		l-1.496,5.061l-0.18,3.17l3.006,2.283l-2.861,3.484l-3.76-1.758l-4.275-0.15l-0.494,2.373l2.736,1.797l-3.193,2.188l1.223,4.441
		l9.111,2.172l1.707,3.369l2.662,0.445l-0.688,8.246l0.041,0.037l-0.174,1.527l-1.627-1.814l-2.178-1.809l-1.27,3.998l-2.338,2.178
		l-0.977,0.191l-2.49-0.367l-4.088-2.809l-1.146-3.387l-7.488-0.359l-5.605-0.367l-0.635-3.146l1.779-4.012l-3.385,2.994
		l-5.346-0.412l-1.117-1.826l3.588-5.064l-3.801-3.359l-3.748,0.381l-2.785,4.545l0.885,4.699l4.537,0.438l-0.717,2.119
		l-3.494,0.346l-3.867,4.064l-1.104-1.275l0.639-5.299l-1.631-1.809l-7.184,1.23l-1.338,2.861l0.775,0.404l4.715,7.311l0.15,5.984
		l8.133,7.602l0.084,3.369l-3.029,1.812l0,0l-7.361,4.398l-1.564,14.215l-7.924-0.896l-2.113,6.002l1.945,2.566l-8.535,5.443
		l-2.254,5.539l8.463,0.174l11.246,0.516l2.188,2.055l-4.018,0.104l-2.529,4.529l11.494,2.07l9.057-1.781l-4.939-4.391l3.143-2.693
		l5.127,1.977l2.521,4.957l15.244-0.131l3.93-1.695l0.871,2.381l-4.178,3.775l5.898,0.109l-1,2.678l-1.578,1.9l13.062-0.336
		l6.457,1.945l0.666,0.834v-0.004l0.746,0.951l4.834,1.99l1.457,5.229l2.955,0.477l2.645-1.92l4.711-3.031l8.299,0.596l-0.201,2.115
		l-2.656,1.377l6.41,0.127l-1.619-1.559l-0.643-3.396l3.398-2.455l4.043,1.199l1.639,0.475l1.363,1.564l1.846-1.352l0.422-3.467
		l2.094-1.863l5.592-0.145l1.559-2.445l3.742,0.965l4.221-1.922l-0.17-6.873l-5.584,0.393l4.201-2.723l2.061-2.965l0.449-4.225
		l7.697-1.248l4.191-4.879L568.156,742.861z"/>
	<path id="paysDeLaLoire" fill="#B4B4B4" stroke="#E4E4E4" stroke-linejoin="round" stroke-miterlimit="10" d="M175.985,380.92
		l-0.767-0.022l-1.486-4.729l-3.487-1.221l-1.214-5.748l-2.442-2.047l-2.642,0.322l-1.042,2.641l-3.932,1.701l-7.242-0.87
		l-7.103,4.396l-2.696-1.788l-3.947,2.759l-2.998-2.035l-1.959-3.114l-4.006-1.499l-2.64,2.174l-4.538-0.439l-0.081,6.879
		l1.35,1.023l0.129,5.268l-2.62,2.727l0.105,4.217l0.878,2.592l0.191,7.631l1.924,1.811l0.182,7.125l-4.543-0.436l-1.848,1.1
		l-3.246,8.52l-1.248,4.801l-1.358,2.06l-5.026-1.097l-2.467-3.102l-4.028-0.45l-0.182,2.915l-5.827,0.949l-2.626,2.682
		l-0.995,2.938l-16.497,1.215l-6.868,3.84l-0.07,7.389l-7.397,3.096l-5.014,2.74l-4.268,0.11l-1.627-1.777l-2.332,2.425
		l-1.146,0.237l1.389,0.897l-4.968,4.593l1.092,1.028l1.119,2.078l-2.593,3.779l2.985,1.482l5.103,0.93l0.46-2.118l3.041,3.636
		l4.82-0.125l3.365-3.793l4.527-0.113l-4.727,2.477l0.327,2.65l1.124,2.336l-2.869,2.984l-3.202,0.08l0.653,3.949l5.821-1.201
		l7.116,6.15l-0.333,0.428l0.006,0.006l-7.68,10.314l-0.101,6.332l8.437,7.678l-0.199,2.369l2.394-0.061l5.458,14.92l5.399,2.486
		l5.471,5.131l6.146-0.156l2.519,5.213l5.893-0.148l2.749,3.893l5.96,2.76l0.167-3.715l1.526,1.359l8.033-5.102l3.748-0.346
		l1.688,4.176l5.022-2.234l4.349,3.053l3.419-1.689l2.924-0.873l1.286-1.592l3.653-2.457l-2.715-2.59l-2.092,1.654l-0.31-2.1
		l1.793-3.506l-1.96-3.109l1.528-2.15l-0.996-7.359l-2.747-3.853l1.814-2.454l-4.385-4.611l1.491-3.453l-6.535-5.111l-0.079-3.164
		l-2.741-3.642l5.541-2.507l8.326,1.648l3.651-2.498l-0.09-3.669l7.2-0.728l6.629-1.473l7.207-0.438l0.854,1.838l1.919,1.514
		l1.756-3.213l4.948-5.392l2.048-0.056l2.76-10.867l4.144-5.129l-0.443-5.766l2.601-3.529l-0.042-1.555l-1.364-1.57l0.81-1.748
		l1.706-3.586l5.426,3.577l2.947-0.077l-1.754-5.226l3.297,2.026l1.766-2.704l7.672-2.306l-1.402-3.127l1.817-2.406l3.974-1.658
		l3.594-4.861l-0.127-5.015l2.692-0.069l0.974-3.695l0.121-5.527l-2.712-2.338l2.044-3.723l3.063-4.041l-3.782-2.523l-3.471-0.46
		l-3.894-5.429l-1.068,0.027l-0.19,2.619l-0.306-1.805l-5.588,0.14l-2.792-3.896l-4.565-1.49l-1.559-9.449l-2.203-2.818
		l-7.209,0.437l-7.048,6.761l-3.764-0.117"/>
	<path id="midiPyreneesLanguedocRoussillon" fill="#B4B4B4" stroke="#E4E4E4" stroke-linejoin="round" stroke-miterlimit="10" d="
		M297.992,668.531l-2.184-0.236l1.38-4.51l-3.451-1.389l3.218-7.93l-4.61-3.213l-1.777-9.664l-4.165-0.996l-2.962,3.033
		l-1.556-2.578l-4.414,4.584l-3.021,0.457l-5.434-7.279l-6.865-2.838l-5.611,2.766l-0.813,0.143l0.179,0.244l-1.798,1.615
		l0.075,2.904l2.455,2.557l-2.284,4.277l-2.1,1.4l-0.232,2.623l-4.51,0.662l0.33,2.859l1.635,0.506l-3.625,5.369l-5.835,0.652
		l-0.155,3.969l-2.378,2.42l-1.237,3.488l-5.327,0.385l2.331,7.836l2.386,4.834 M235.641,687.482l0.451,0.918l-5.863,1.201
		l-4.078-2.26l-1.726,6.078l3.024,3.084l-1.196,5.055l-1.576,1.891l1.188,3.129l-5.056,1.186l-3.987,1.158l1.16,3.645l-1.988,0.637
		h0l-0.633,0.227l-1.334,1.34l-4.111-3.818l-7.962,0.961l-2.043,3.758l-4.809,0.633l-4.504,0.916l-1.944-2.572l-4.161,4.322
		l-3.227-2.572l-1.78,4.014l0.345,3.402l-2.927,0.877l-1.371-1.82l-1.421-3.93l-3.674,3.254l-2.675-0.986l-2.934,0.621l-2.566,3.223
		l3.289,5.191l-2.077,2.166l0.919,4.451l-2.559,3.477l-1.754,5.062l2.229,3.662l6.757,0.291l1.678-0.932l-1.678,0.934l0.467,0.033
		l4.711,7.266l-2.878,2.73l2.213,3.111l3.32,4.637l-2.561,3.482l-4.029,9.596l-7.063,6.25l1.975,3.662l-1.598,1.092l-3.99-0.699
		l-0.893,8.715l-2.091,1.664l-0.289,5.441l0.67-0.398l4.595,2.549l5.433,3.82l0.593,3.158l4.355,3.303l3.5-0.088l8.702-3.934
		l3.822,4.129l5.108,1.219l1.798-3.213l2.42,1l5.172,0.199l10.864,0.451l0.229-12.963l3.729,0.455l5.584,3.025l0.006-0.004
		l1.466,0.764l8.275,1.357l3.5-0.092l4.671,5.707l11.47-0.838l4.703,7.014l3.973-1.701l11.779,1.303l0.979,4.828l0.541,2.77
		l4.105,3.609l8.036,1.91l0.376,4.721l4.359,3.592l3.189-0.623l4.427-5.635l5.573-1.197l8.863,2.689l7.63,6.133l2.067-2.709
		l1.878-0.045l1.908,1.252l1.561-0.791l0.164-3.715l7.979-2.057l2.561-3.48l3.979-1.414l5.594-0.139l3.591,3.588l4.277,0.184
		l-0.107-4.217l-2.209-2.854l-3.795-1.512l-1.182-23.002l-0.404-7.545l0.082-8.688l-3.194,0.332l-2.788-3.861l2.047-3.506l4.627,4.1
		l3.938-3.258l2.623-2.682l0.271-2.797l0.135-1.438l9.531-3.148l1.01-2.383l7.461-0.447l2.32-2.961l14.143-11.709l8.891-6.551
		l3.68,0.156l4.102,0.197l0.131,5.275l6.102-0.461l3.289,0.086l2.254-5.533l8.535-5.447l-1.945-2.568l2.113-6.002l7.924,0.896
		l1.564-14.215l10.393-6.209l-0.084-3.369l-8.135-7.604l-0.15-5.986l-4.711-7.305l-9.568-4.992l-0.617,4.107l-3.789,0.475
		l-1.215-4.062l-3.781,0.814l-0.596,5.246l-3.059-1.016l-6.506-3.977l-2.994,1.592l-0.188-7.465l-4.418-2.459l-0.004,0.008
		l-1.34-0.775l0.629-5.588l-4.646-4.73l-2.121-9.645l-7.002-8.391l-4.926,1.307l-1.158-3.65l-2.688,0.072l-0.434,3.18l-6.863,2.271
		l-5.131-12.014l-7.402,2.844l-2.016,4.777l-4.861-3.049l-3.461,11.695l-3.623,8.816l-2.424-2.799l-0.955-7.445l-2.604,0.064
		l-1.341-7.432l-5.273,0.887l-0.847-4.824l-0.798-1.123l-7.394,6.557l0.158,6.324l-1.878,0.043l-0.618,5.971l-1.859,0.807
		l-1.413,3.369l-8.325,0.207l-0.75-1.08l-3.8,0.098l-2.171,3.768l-0.812-0.066"/>
	<path id="nordPasDeCalaisPicardie" fill="#B4B4B4" stroke="#E4E4E4" stroke-linejoin="round" stroke-miterlimit="10" d="
		M266.405,275.29l-1.691,2.112l-1.004,2.637l2.133-0.052l-1.001,2.685l-0.932,5.296l1.643,2.575l0.115,4.512l2.688-0.067
		l-1.021,1.839l-1.794,3.503l-0.706,2.381l2.444,2.047l0.92,6.054l1.419,2.07l-1.864,0.551l-2.423-1.248l-0.351,3.134l0.166-0.215
		l1.083,2.333l1.691,2.576l7.226,0.366l5.066-0.674l3.394-2.702l4.334,2.508l2.173,1.549l3.181-0.886l2.869-1.378l5.709,2.77
		l5.934,3.264l1.922,1.81l3.149-2.187l2.686,1.493l1.658,1.266l2.385-0.311l1.569-2.152l3.766,2.014l4.521-1.97l2.668,0.738
		l2.591-2.178l1.605-0.84l0.521,0.367v-0.001l2.475,1.668l0.958,5.796l7.345,6.649l2.41,0.739l1.443,3.131l4.506,0.815l0.535-0.688
		l1.297-2.904l3.967-1.955l1.992-5.575l2.354-1.664l-1.414-1.821l-3.457,0.085l-0.561-1.8l2.365-1.113l1.027-1.63l-2.432-1.502
		l0.711-2.42l6.133-0.659l-1.129-2.334l-3.771-2.309l-0.182-7.08l4.947-3.833l5.637-0.145l-0.621-2.604l3.17-1.428l4.592,2.796
		l1.867-0.553l-0.479-8.974l0.73-3.181l0.975-3.698l-3.551-1.764l0.76-2.13l5.053-1.182l-0.088-3.415l3.961-2.204l0.988-3.192
		l-1.375-2.076l0.154-3.97l2.342-2.168l-2.508-4.408l0.607-4.698l-5.42,0.137l-1.219,0.855l1.217-0.857l-0.428,0.012l-0.316-2.607
		l5.254-3.298l-0.938-4.996l-5.113-1.176l1.289-1.384l-0.088-3.668l3.936-3.012l-1.115-2.08l-8.705-6.364l-14.922,1.179
		l-1.514,2.654l-1.879,0.05l0.025-9.242l-4.395-4.871l-3.189,0.588l-1.932-2.061l-5.275,2.498l-1.882-1.77l-3.77-0.453l-1.151-3.388
		l-0.524-10.534l-2.416-0.993l-0.339-1.594l-1.581,0.037l-0.634-3.147l-3.45,0.384l-6.606,2.271l-3.103,4.006l-3.2,0.08l-2.197-2.56
		l-0.889-2.893l-2.722-2.843l-3.755,0.098l-1.65-2.825l-0.115-4.515l1.765-2.912l-1.168-3.937l-3.629-6.787l-8.438,4.179
		l-13.265,2.443l-0.727,0.144l-14.699,3.156l-11.514,9.229l0.898,35.584l-0.061,1.056l-0.509,8.708l6.026,5.117l0.064,2.661
		l-7.32-4.034l-8.403,10.755l2.333,0.913l2.938-0.327l1.389,2.579l12.023,11.048l0.931,4.702l2.766,4.696l-0.871,1.117"/>
	<path id="ileDeFrance" fill="#B4B4B4" stroke="#E4E4E4" stroke-linejoin="round" stroke-miterlimit="10" d="M302.922,387.102
		l1.726,2.404l3.244,1.518l0.367,4.466l-4.194,3.015l2.442,2.043l2.897-1.927l7.219,0.075l2.636-0.574l0.759-2.127l2.953,0.178
		l0.563,2.094l6.567-3.875l2.362-2.93l3.107-3.787l-2.192-2.311l1.777-4.012l4.724-2.48l10.426,0.248l2.346-1.875l0.219,0.202
		l0.488-4.442l0.935-5.295l1.817-2.45l0.178-3.169l3.674-1.65l-0.055-2.109l-3.963,0.354l-0.857-1.834l1.264-2.395l-1.166-3.939
		l-2.168-1.255l0.463-3.68l2.1-1.401l-0.336-1.553l0.744-0.947l-4.506-0.814l-1.443-3.131l-2.412-0.741l-7.344-6.647l-0.957-5.796
		l-3-2.038l-1.607,0.84l-2.589,2.177l-2.668-0.734l-4.521,1.967l-3.77-2.014l-1.566,2.15l-2.387,0.312l-1.655-1.269l-2.688-1.49
		l-3.149,2.188l-0.124-0.121v-0.002l-1.793-1.684l-5.934-3.267l-5.709-2.77l-2.869,1.378l-3.182,0.888l-2.175-1.551l-4.334-2.508
		l-3.392,2.702l-5.066,0.674l-7.228-0.366l-1.689-2.576l-1.083-2.333l-2.066,2.668l-1.479,5.857l-1.716,3.037l-0.083,0.173
		l-7.416,2.296l-1.035,1.333l1.42,2.078l0.051,2.103l2.404,0.444l-1.331,1.383l0.159,1.178l0.166-0.131l2.715,2.548l0.889,3.145
		l2.185,2.052l-0.994,2.936l0.068,2.615l1.93,2.062l-1.795,3.21l1.987,4.461l3.779,2.523l0.627,2.896l3.217,0.426l0.913,5.799
		l2.508,2.845l4.328,0.695 M276.579,375.738l1.287,0.223l0.598,3.398l0.578,0.789l0.729,7.068l8.517-0.975l3.381-3.249l3.003,2.288
		l7.188,0.324l1.058,1.491"/>
	<path id="corse" fill="#B4B4B4" stroke="#E4E4E4" stroke-linejoin="round" stroke-miterlimit="10" d="M681.561,851.539v-13.266
		l-2.35-4.51l-0.723-14.207l-1.664-2.613l-3.068-2.348l-0.492-8.795l1.439-4.014l-1.895-6.406l-1.178-5.188l-0.982-1.443
		l-2.123-1.168l-3.559,2.387l0.488,2.35l1.895,2.387l-2.119,1.631l0.947,1.891l-1.441,1.67v2.119l2.387,2.162v3.297l-1.441,3.068
		l-1.629,0.719l-1.895-2.615l-3.334,0.271l-0.721-0.496h-2.838l-2.576,2.387l-0.988,4.018L645.566,816l-4.738,4.014l-0.945,2.613
		l-2.348-0.227l-1.215-1.439l-0.68,4.053l-1.668,0.684l-0.494,3.787l0.721,1.666l-2.613,1.895l-0.719,1.891l0,0h-1.895v0.008v2.611
		l2.387,1.666l4.018,2.354l0.264,1.891l-2.387,0.723l-3.793,0.717v1.633l1.406,1.439l0.262,4.734l5.193,1.668l1.893,0.455
		l1.668,2.613l-1.178,1.67l-1.893,0.68l-1.441,2.611l-1.398,1.668l0.68,4.246l3.562-0.23l0.947,0.723l3.334-1.67l0.947,0.947
		l-1.67,3.562l1.67,1.67l-2.84,2.117l-1.898,4.244l5.193,1.213l7.35,0.684l-3.07,3.561c0,0-1.441-0.557-2.084-0.266
		c-0.018,0.014-0.061,0.029-0.072,0.039c-0.008,0.004-0.035,0.033-0.041,0.035c-0.008,0.008-0.033,0.035-0.037,0.039
		c-0.006,0.004-0.033,0.033-0.039,0.039c-0.008,0.01-0.027,0.027-0.035,0.035c-0.004,0.006,0.004,0.031,0,0.039
		c-0.008,0.012-0.033,0.064-0.037,0.072c-0.002,0.008,0,0.033,0,0.041c-0.006,0.018-0.041,0.061-0.041,0.078
		c0,0.014,0,0.055,0,0.074c0,1.182-1.627,4.053-1.627,4.053l2.352,2.576l4.279,2.611l8.033,2.125l2.352,0.947l2.16,0.943
		l-1.443,2.615l3.787-0.227l0.721,1.666h3.789l0.949-4.51l-2.389-0.492l3.334-3.523l-1.176-1.209l0.23-2.125l4.281-2.35l0.227-2.611
		l-2.842-0.227l-1.896,1.625v-2.348l3.791-0.229l1.176-2.842l0.945-8.301l-0.717-3.559l-0.078-3.408h-0.002l-0.15-7.004
		L681.561,851.539z"/>
	<path id="centre" fill="#B4B4B4" stroke="#E4E4E4" stroke-linejoin="round" stroke-miterlimit="10" d="M339.536,493.041
		l0.171-3.422l0.639-6.893l-3.02-2.791l0.401-6.339l-2.834-5.501l-0.347-3.662l-4.917-3.584l-0.839-3.144l2.305-3.476l-0.127-5.02
		l-2.852-3.127h0.001l-0.44-0.453l-0.322-2.65l5.296-1.695l-0.884-2.891l-0.918-4.191l-3.574-4.639l-0.886-2.891l5.335-0.134
		l3.691-2.745l0.411-3.938l-2.453-2.596l6.811-5.949l-0.121-4.764l-3.591-3.582l-1.43-4.184l-4.937-4.391l-6.564,3.875l-0.564-2.09
		l-2.956-0.18l-0.756,2.127l-2.636,0.576l-7.22-0.076l-2.899,1.93l-2.441-2.047l4.194-3.016l-0.367-4.465l-3.241-1.52l-2.79-3.896
		l-7.188-0.326l-3.006-2.292l-3.381,3.249l-7.792,0.873l0,0l-0.724,0.102l-0.729-7.068l-0.575-0.789l-0.601-3.398l-5.615-0.918
		l-2.508-2.847l-0.913-5.796l-3.217-0.426l-0.626-2.895l-3.78-2.521l-1.987-4.467l1.795-3.21l-1.931-2.058l-0.067-2.615l0.995-2.938
		l-2.186-2.051l-0.889-3.145l-2.717-2.547l-1.592,1.346l0.107,4.218l-5.27,2.747l0.099,3.965l-1.531,1.895l-6.702,0.17l-3.19-1.227
		l-9.523,5.217l-3.713,0.094l-3.751,3.724l0.916,0.567l0.366,4.506l5.755,4.576l0.754,9.73l-2.564,3.229l-3.994,0.901l-3.956,2.465
		l0.608,2.092l1.899,2.357l0.156,6.232l0.555,0.07l3.782,2.523l-1.326,1.722l-1.733,2.322l-2.043,3.722l2.709,2.336l-0.119,5.529
		l-0.976,3.695l-2.688,0.067l0.124,5.018l-3.593,4.858l-3.973,1.662l-1.819,2.404l0.862,1.959l0.541,1.166l-7.67,2.306l-1.768,2.704
		l-3.297-2.026l1.755,5.226l-2.948,0.074l-5.426-3.574l-2.519,5.336l1.365,1.568l0.039,1.559l-2.601,3.525l0.444,5.766l-4.145,5.131
		l-2.76,10.865l0.342-0.009l1.174,4.194l5.107,0.922l0.079,3.166l6.45,1.692l0.124,5.017l-0.175,3.165l7.985-0.198l6.916-1.774
		l-0.629-2.897l2.102-1.359l2.208,2.854l1.899,0.758l1.737,6.281l4.686,4.607l0.605,3.698l4.243,3.942l0.7,0.658l0.125,5.017
		l-0.986,3.188l5.18,3.836l2.713,2.553l4.281,0.438l1.76,5.482l2.947,1.486l-0.415,3.977l-2.126,0.434l0.773,0.148l6.714,0.338
		l2.333-2.42l4.373,4.111l5.183-6.211l2.427,1.547l3.197-0.379l1.082,0.523l4.829,0.131l1.475-4.257l13.401,1.265l5.115,1.183
		l2.296-0.31v-0.001l6.253-0.917l1.212-2.733l3.357-4.005l6.626-1.519l3.526,0.967l3.642-2.96l-0.308-2.098l-1.352-1.023
		l-0.108-4.217l6.994-7.302l2.762,2.839l2.331-2.465l2.128-0.303l3.595-4.82l6.158,0.354l0.124,1.429l1.885-6.499L339.536,493.041z"
		/>
	<path id="bretagne" fill="#B4B4B4" stroke="#E4E4E4" stroke-linejoin="round" stroke-miterlimit="10" d="M-8.002,424.112
		l3.106,4.642l4.293,0.95l1.523-2.4l-0.703,2.883l3.757,1.511l4.941,4.602l1.655,2.868l-0.424,3.427l-0.471,3.473l3.263,2.282
		l1.575-1.897l-1.676-2.068l-0.12-4.719l3.219,0.676l0.989-3.193l0.859,1.839l3.532,2.823l1.556-2.698l-1.716-3.626l3.045,3.889
		l3.698-0.643l-0.813-1.84l3.477,0.721l2.732,3.096l-1.271,2.143l-3.485-0.972l-4.06-1.752l-2.068,2.714l3.229,0.969l2.483,3.609
		l14.392-1.67l3.736,0.705l-1.798,1.609l0.316,2.392l0.522,0.369l1.146-0.24l2.333-2.422l1.629,1.776l4.266-0.109l5.015-2.74
		l7.395-3.098l0.072-7.387l1.553-0.881l0.002,0.002l5.311-2.961l16.497-1.215l0.995-2.938l2.626-2.681l5.826-0.949l0.183-2.918
		l4.028,0.449l2.47,3.104l5.408,1.171l0.974-2.132l1.248-4.801l3.246-8.52l1.848-1.1l4.543,0.436l-0.182-7.125l-1.924-1.811
		l-0.191-7.631l-0.878-2.592l-0.105-4.217l2.62-2.727l-0.129-5.268l-1.35-1.023l0.068-7.383l-2.16-1l-3.201,0.08l-2.743-2.043
		l-2.817,3.488l-2.385,0.355l-2.061,2.922l-2.147-0.451l-4.666-3.848l-1.706-4.979l-0.896-3.314l-13.105,0.334l-4.893-2.787
		l3.095-4.295l-6.412-0.098l-2.489,2.936l-1.662,1.936l-5.096-0.418l-0.439,2.92l-3.194,0.334l-0.347-3.66l-2.714-0.735
		l-1.823,2.154l-0.133-5.269l-3.143,2.441l-4.802-0.682l-1.542,3.203l-9.725,5.52l0.065,2.654l-2.135,0.051l-0.12-4.759
		l-5.656-2.472l0.392-4.78l-5.13-3.542l-0.112-4.471l-3.774-0.706l0.147-4.221l-2.908-0.182l0.188-2.911l-5.335,0.135l-0.745,2.637
		l-1.674-3.631l-2.385,1.914l-6.087,0.914l-1.32,1.887l-4.349-3.051l-5.498,3.85l2.205,2.812l-3.763,5.025l-4.461-2.418l-7.46,0.444
		l0.134,5.269l-2.137,0.055l-0.569-2.351l-3.189,0.591l-0.706-6.057l-2.821,3.235l-3.234-1.225l-5.88,0.694l-0.996,2.637
		l-3.441,0.893l-0.625-2.896l-6.087,0.952l0.044,1.855l-4.261,0.363l-1.911-1.262l-2.111,1.109l-0.469,3.172l-7.167,0.436
		l-3.644,4.566l3.262,2.278l-4.182,3.562l1.383,2.334l-0.922,5.799l4.284,0.441l1.58-1.646l0.839,1.038l10.081-1.565l6.542-4.89
		l-5.712,5.673l0.576,2.604l5.278-2.495l-0.977,3.734l5.899,0.104l-0.216,1.567l-6.409-0.095l-5.116-1.178l-6.22-2.756l-3.611,4.308
		l4.826,1.486l-0.081,7.087l1.297-1.087l2.835-4.543l5.671,3.024l2.705,0.476l1.171,4.192l-1.549,2.907l-3.466-0.166l-3.2,0.078
		l-5.309,0.938l-9.08,0.733l-1.777,2.448l2.688,1.494l2.939-0.327l2.443,2.045l3.452-0.338l5.791,6.186l1.495,6.793l-1.784,3.757
		l5.622,0.913l6.136-0.453l1.268-2.393l-2.47-3.102l2.413,0.994l2.43-0.314l4.327,2.252l2.633-0.57l-0.109-4.514l1.178,4.486
		l3.598,5.434l7.483,0.322l0.258-1.57l1.903,2.57l4.585,0.685l3.457-0.087l0.223,0.293"/>
	<path id="bourgogneFrancheComte" fill="#B4B4B4" stroke="#E4E4E4" stroke-linejoin="round" stroke-miterlimit="10" d="
		M460.254,430.146l-1.043,2.685l-5.816,1.453l-0.586-1.291l-4.402-5.162l-2.355,1.367l-3.211-0.175l-1.121-2.083l-4.262,0.355
		l-0.369-4.461l-2.434-1.54l3.369-3.757l-6.354-8.025l-4.91-4.898l-4.322-2.251l-7.723,0.192l-0.471,3.43l-3.416,1.943l-8.783,0.475
		l-1.295,2.943l-1.881-0.21l-1.66-2.866l-5.268,2.789l-10.68-0.279l-1.396-2.875l-3.045-3.848l-0.631-4.748l-4.395-4.914
		l-2.645,1.925l-4.918-3.549l0.635-7.145l-7.094-6.948l-3.203,0.078l-1.92-1.512l-2.344,1.875l-10.428-0.248l-4.724,2.48
		l-1.779,4.012l2.194,2.311l-3.11,3.787l-2.36,2.928l4.937,4.391l1.428,4.184l3.591,3.582l0.12,4.762l-6.814,5.948l2.456,2.599
		l-0.41,3.937l-3.691,2.749l-5.335,0.131l0.886,2.887l3.573,4.638l0.918,4.196l0.886,2.889l-1.568,0.504l-3.727,1.193l0.323,2.648
		l3.294,3.586l0.127,5.02l-2.305,3.476l0.848,3.142l4.915,3.586l0.349,3.662l2.83,5.496l-0.398,6.342l3.019,2.793l-0.638,6.891
		l-0.172,3.424l1.383,2.328l-1.886,6.5l0.219,1.977l4.622,1.997l3.289,3.376l2.864-1.683l2.647-1.626l0.617,2.351l3.969-0.101
		l1.014-2.134l2.422,0.996l0.893,3.394l2.121-0.563l4.91-6.998l2.691,1.791l0.443,0.789l5.188,9.063l0.098,3.965l1.363,1.572
		l4.525-0.115l1.633,2.068l4.268-0.105l1.945,2.562v10.296l-5.486,4.359l-0.121,0.295l0.383-0.049l0.82,0.234l0.357,4.211
		l4.039,0.699l0.557,1.844l2.133-0.055l3.156-1.936l8.57,1.094l1.662,1.559l2.084-2.16l2.939-0.074l1.371-8.475l1.047-0.828
		l2.648-0.066l3.293,2.029l2.338-2.172l1.633,2.07l2.375-2.424l2.895-0.324l1.473,4.186l1.156,5.236l1.885,0.211l1.529-3.75
		l4.551-19.607l1.791-3.465l2.938-0.367l3.006,2.331l2.123-0.605l2.596-1.919l2.707,0.477l1.664,3.377l1.549,0.553l0.006-0.001
		l3.312,1.183l5.521,7.24l3.498,1.477l0.09,3.707l4.002-0.645l4.939-5.651l4.324,1.997l0.076,3.164l7.73-0.195l10.795-12.338
		l-0.475-0.242l0.371-5.532l3.896-4.828l-2.717-0.986l0.215-1.593h0.002l0.037-0.257l16.135-15.716l-0.83-12.641l5.773-3.012
		l3.971-1.958l3.629-3.507l0.172-5.026l3.664-1.947l8.297-9.954l-1.404-3.131l2.914-1.383l3.348-4.301l-1.926-1.816l-6.367,1.474
		l-0.283-1.051l5.725-6.849l0.99-1.209l3.531-0.637l-1.467-5.574l-0.881-2.89l-3.742,0.647l-0.594-3.148l1.268-2.441l0.178-3.168
		l-0.816-1.795l-4.918-3.584l-4.275-0.148l-0.854-1.584l-0.27-0.504l-8.65-4.252l-2.459-2.596l-2.428-1.502l-2.105,1.111
		l-0.262,1.57l-2.102,1.361l-1.32,0.028l-4.127-4.364l-5.594,0.137l-2.346,1.917l-2.123,0.306l-3.523-2.525l0.186-2.916
		l-1.395-1.021l-5.018,0.93l-0.748,2.637l-2.641,1.919l-1.891-2.062l-1.307,0.838l1.066,1.533l-2.609,1.668l0.865,2.087
		l-2.918,1.128l0.088,3.414l-3.76,0.096l-0.201,2.111l-3.695,0.896l0.338,3.158l2.393,0.188l-1.281,1.598l-0.676,5.285l-2.391,0.062
		l-3.973,1.707l-4.309-1.498l-3.674,1.693L460.254,430.146z"/>
	<path id="auvergneRhoneAlpes" fill="#B4B4B4" stroke="#E4E4E4" stroke-linejoin="round" stroke-miterlimit="10" d="
		M385.176,539.395l0.123-0.301l5.486-4.361l-0.004-10.293l-1.943-2.566l-4.271,0.109l-1.631-2.066l-4.525,0.113l-1.363-1.568
		l-0.098-3.967l-5.629-9.852l-2.693-1.793l-4.91,7l-2.121,0.564l-0.893-3.398l-2.422-0.99l-1.016,2.129l-3.969,0.104l-0.615-2.348
		l-2.649,1.623l-2.864,1.686l-3.289-3.376l-4.622-1.997l-0.341-3.406l-6.158-0.352l-3.592,4.814l-2.132,0.307l-2.329,2.463
		l-2.763-2.839l-6.992,7.304l0.108,4.214l1.35,1.025l0.307,2.095l-3.643,2.963l-3.524-0.961l-6.627,1.514l-3.356,4.004l-1.216,2.731
		l0.212-0.046l3.315,4.387l0.08,3.16l1.894,2.32l1.821-2.412l2.227,3.658l2.971,0.984l3.116,6.754l0.178,1.98l0.54,6.189
		l2.201,2.562l1.192,4.988l-3.143,2.439l-0.672,3.732l-2.907,1.631l-5.007,3.041l0.571,2.35l6.299,5.918l0.649,3.686l-2.335,3.99
		l0.093,3.705l1.668,1.816l0.925,4.451l-0.467,1.82h0l-0.738,2.93l1.405,3.127l-1.579,1.896l-2.645,0.066l-2.763-2.842l-2.425-1.24
		l-0.072,7.379l-4.748,3.027l-3.34,4.812l0.933,4.74l-1.014,2.135l-1.261,4.254l-2.131,0.053l-2.069,2.666l1.663,1.561l1.13,2.594
		l-3.398,2.492l1.632,8.77l4.607,3.219l-3.218,7.93l3.451,1.383l-1.379,4.512l2.996,0.303l2.172-3.764l3.798-0.098l0.751,1.08
		l8.326-0.207l1.411-3.373l1.858-0.803l0.618-5.971l1.877-0.043l-0.159-6.324l7.394-6.562l0.8,1.127l0.846,4.824l5.275-0.889
		l1.34,7.432l2.603-0.062l0.956,7.447l2.419,2.809l3.625-8.826l3.461-11.695l4.862,3.049l2.013-4.777l6.769-2.615l0.643-0.23
		l5.129,12.016l6.863-2.271l0.434-3.18l2.688-0.072l1.158,3.65l4.926-1.307l6.338,7.602l0.666,0.789l2.123,9.648l4.643,4.73
		l-0.627,5.588l5.76,3.227l0.188,7.461l2.994-1.586l6.506,3.971l3.059,1.021l0.596-5.252l3.781-0.814l1.213,4.066l3.791-0.477
		l0.617-4.109l8.791,4.584l1.336-2.861l3.658-0.633v-0.004l3.525-0.594l1.631,1.809l-0.639,5.299l1.104,1.275l3.867-4.064
		l3.494-0.346l0.717-2.119l-4.537-0.438l-0.885-4.699l2.785-4.545l3.748-0.381l3.801,3.359l-3.588,5.064l1.117,1.826l5.348,0.416
		l3.383-2.994l-1.779,4.01l0.635,3.152l5.605,0.359l7.488,0.363l1.146,3.387l4.088,2.811l3.465,0.17l2.338-2.178l1.268-3.998
		l2.176,1.809l1.631,1.814l0.82-9.811l-2.66-0.443l-1.709-3.369l-9.111-2.174l-1.223-4.439l3.191-2.189l-2.738-1.791l0.496-2.377
		l4.277,0.15l3.762,1.76l2.859-3.482l-3.004-2.285l0.176-3.174l1.498-5.057l5.576-0.691l4.479-1.922l0.447-1.072l0.32-0.818
		l-2.16-0.994l-0.078-3.168l6.658-0.166l2.082-2.16l-1.385-2.33l3.391-2.746l2.461,0.996l3.385-2.996l6.133,0.904l2.074-2.42
		l5.084,0.123l-0.145-5.773l-2.158-0.996l-1.154-3.393l-5.609-0.402l-0.844-1.279l0.93-5.553l1.836-1.65l4.809-0.627l1.619,1.51
		l0.906,3.699l4.768-0.668l0.455-3.977l2.363-1.115l5.131,0.119l-0.088-0.162l7.9-3.363l2.992,1.777l2.947-0.07l0.178-3.176
		l3.408-1.936l1.287-1.596l6.887-2.83l0.703-4.488l-1.42-2.074l3.598-6.41l-3.494-1.229l-1.158-3.682l-7.322-4.033
		c0,0,0.234-8.088-0.496-9.521c-0.023-0.033-0.066-0.109-0.084-0.129c-0.008-0.006-0.037-0.031-0.045-0.037
		c-0.006,0-0.037,0-0.043-0.004c-0.002-0.008-0.002-0.037-0.002-0.039c-0.004-0.002-0.035,0-0.041,0
		c-0.002,0-0.041,0.002-0.045,0.002c-0.002-0.002-0.035,0-0.039,0c-1.059,0.289-5.023,0.684-5.023,0.684l-4.129-4.414l0.021-4.352
		l0.014-4.598l8.998-3.943l1-2.633l-0.699-5.809l-6.004-5.883l-1.848,1.102l-0.057-2.398l-0.104-3.928l-5.145-2.266l-0.305-2.107
		l2.867-3.236l-0.092-3.664l-4.953-4.902l-0.34-3.404l-9.098,0.23l-6.072,1.201l-5.773,4.869l-1.641-2.316l-2.938,0.328
		l-2.545,5.888l0.361,2.351l2.963,2.287l-5.248,3.592l-3.381,3.25l-5.895,0.139l-2.902,0.076l-0.127-5.016l3.156-1.938l4.77-0.623
		l0.23-2.663l-1.646-1.018l3.885-5.116l-0.594-1.547l-4.629-2.285l-10.797,12.336l-7.729,0.193l-0.076-3.16l-4.324-1.997
		l-4.939,5.647l-4.002,0.646l-0.09-3.709l-3.498-1.473l-5.521-7.244l-4.867-1.732l-1.662-3.375l-2.707-0.477l-2.596,1.919
		l-2.123,0.603l-3.006-2.328l-2.938,0.367l-1.793,3.463l-4.549,19.607l-0.684,1.621v0.012l-0.84,2.113l-1.889-0.203l-1.154-5.244
		l-1.477-4.182l-2.893,0.326l-2.375,2.422l-1.635-2.068l-2.336,2.166l-3.295-2.023l-2.648,0.066l-1.049,0.828l-0.479,3.049
		l-0.893,5.424l-2.939,0.076l-2.084,2.158l-1.662-1.562l-8.57-1.094l-3.156,1.939l-2.135,0.055l-0.557-1.848l-4.037-0.695
		l-0.357-4.213l-0.818-0.23"/>
	<path id="aquitaineLimousinPoitouCharentes" fill="#B4B4B4" stroke="#E4E4E4" stroke-linejoin="round" stroke-miterlimit="10" d="
		M312.625,582.773l-5.687-5.336l-0.573-2.352l5.01-3.037l2.905-1.633l0.675-3.73l3.144-2.441l-1.194-4.992l-2.2-2.561l-0.721-8.164
		l-3.116-6.754l-2.971-0.984l-2.227-3.654l-1.821,2.408l-1.895-2.316l-0.079-3.164l-3.315-4.386l-8.764,1.277l-5.115-1.185
		l-13.401-1.264l-1.475,4.258l-4.832-0.133l-1.079-0.521l-3.197,0.373l-2.431-1.543l-4.475,5.348 M253.792,536.289l-0.706,0.863
		l-4.373-4.113l-2.333,2.42l-6.713-0.336l-0.755-0.148l2.107-0.438l0.413-3.973l-2.946-1.486l-1.76-5.482l-4.28-0.439l-2.713-2.553
		l-5.181-3.832l0.985-3.19l-0.123-5.019l-4.946-4.603l-0.603-3.697l-4.688-4.606l-1.736-6.279l-1.898-0.76l-2.207-2.854
		l-2.104,1.361l0.628,2.895l-6.913,1.775l-7.984,0.199l0.174-3.168l-0.124-5.013l-6.448-1.692l-0.079-3.166l-5.11-0.922
		l-1.171-4.194l-2.39,0.064l-4.946,5.396l-1.229,2.225v0.004l-0.529,0.98l-1.917-1.509l-0.856-1.839l-7.205,0.434l-6.63,1.475
		l-7.2,0.727l0.092,3.67l-3.654,2.498l-8.326-1.65l-5.534,2.507l2.741,3.64l0.079,3.166l6.537,5.104l-1.494,3.458l4.385,4.613
		l-1.813,2.45l2.744,3.856l0.998,7.355l-1.533,2.154l1.96,3.109l-1.793,3.506l0.31,2.1l2.092-1.654l2.715,2.59l-3.652,2.453
		l-1.287,1.596l-2.924,0.873l-3.419,1.689l-0.26-0.203l0,0l-4.091-2.85l-5.023,2.234l-1.687-4.178l-3.75,0.348l-8.029,5.102
		l2.009,1.717l-4.181,3.521l-0.449,2.67l-4,0.604l-2.193-2.305l-5.35-0.371l-0.621-2.645l-3.254-2.027l-4.485,1.715l3.052,4.148
		l3.715-0.09l3.815,2.262l3.003,2.287l5.586-0.396l1.125,2.328l3.737,0.713l1.458,3.637l2.413,0.986l-0.183,2.92l-3.211-0.426
		l-1.026,1.588l2.475,3.35l-1.18,5.855l-3.206-0.176l0.347,3.66l0.847,1.295l-3.754,0.09l-0.568-2.086l2.31-3.232l-0.855-1.787
		l-1.352-1.025l-0.715-6.307l-4.536-0.436l-3.825-4.375l-0.324,9.244l6.261,4.32l0.64,5l1.209,5.756l0.7,5.799l3.197-0.373
		l5.703,4.377l3.812,2.002l0.321,2.613l2.963,0.469l8.75,8.221l2.231,9.055h-0.002l0.426,1.68l2.071,7.588l0.703,7.613l-1.272,2.143
		l-1.479-6.295l-4.123-14.369L118.5,602.041l0.159-5.533l-2.691-0.189l-4.106,6.441l-0.773,22.16l-2.893,22.479l-1.996,17.43
		l-0.143,4.521l1.726-6.119l3.593-4.857l5.457,4.627l0.591,1.551l1.635,2.066l-6.655,0.461l-1.104-1.58l-2.622,1.127l-0.453,3.975
		l-2.845,4.039l0.15,6.029l-0.036,0.252h-0.002l-4.108,25.166l-5.564,23.346l-1.654,9.029l-1.417,6.357l-3.8,6.842l0,0l-1.058,1.975
		l-5.963,7.527l-4.736,1.979l-3.444,0.59l0.075,2.914l3.276,2.826l4.786,0.135l0.343,3.408l3.765,0.197l1.005-2.43l5.134,1.984
		l3.221,0.717l0.848,3.143l-1.798,1.643l0.127,4.986l-3.713,1.949l-0.195,2.365l2.459,2.598l4.303,1.197l0.708-3.984l2.325-2.678
		l-0.169,3.422l1.944,2.611l4.781-0.115l2.204,2.809l6.432,0.896l6.237,3.553l10.119-0.254l0.694,5.508l7.048,5.092l2.774,3.104
		l2.898-1.639l2.634-0.607l1.357,1.268l2.402-1.359l4.588-2.654l0.29-5.445l2.092-1.66l0.892-8.709l3.988,0.693l1.601-1.092
		l-1.975-3.662l7.062-6.25l4.031-9.596l2.561-3.482l-3.32-4.637l-2.213-3.111l2.878-2.73l-4.711-7.266l-7.225-0.324l-0.268-0.459
		l-0.004,0.002l-1.962-3.201l1.756-5.064l2.561-3.477l-0.922-4.449l2.08-2.168l-3.289-5.195l2.566-3.221l2.932-0.617l2.678,0.988
		l3.674-3.26l1.421,3.928l1.371,1.82l2.924-0.875l-0.342-3.404l0.809-1.875l-0.001-0.006l0.972-2.129l3.227,2.568l4.16-4.322
		l1.946,2.574l4.502-0.916l4.81-0.631l2.041-3.76l7.965-0.963l4.11,3.818l1.337-1.34l2.623-0.863l-1.16-3.645l3.987-1.158
		l5.055-1.184l-1.187-3.131l1.575-1.891l1.197-5.055l-3.024-3.084l1.726-6.078l4.075,2.256l5.865-1.199l-2.839-5.75l-2.331-7.836
		l5.328-0.385l0.997-2.805h0.001l0.238-0.684l2.377-2.418l0.155-3.971l5.835-0.652l3.622-5.369l-1.633-0.506l-0.331-2.859
		l4.512-0.662l0.23-2.623l2.102-1.4l2.282-4.277l-2.453-2.557l-0.075-2.904l1.798-1.615l-0.169-0.248l0.802-0.145l5.609-2.76
		l6.865,2.832l5.434,7.285l3.021-0.457l4.414-4.584l1.556,2.578l2.962-3.027l4.165,0.99l0.15,0.889l3.394-2.492l-1.126-2.594
		l-1.663-1.561l2.069-2.666l2.131-0.053l1.261-4.254l1.014-2.135l-0.933-4.74l3.34-4.812l4.748-3.027l0.072-7.379l2.425,1.24
		l2.763,2.842l2.647-0.066l1.577-1.896l-1.405-3.127l1.205-4.754l-0.923-4.449l-1.671-1.818l-0.092-3.705l2.337-3.986l-0.651-3.688
		l-0.613-0.584"/>
	<path id="alsaceChampagneArdenneLorraine" fill="#B4B4B4" stroke="#E4E4E4" stroke-linejoin="round" stroke-miterlimit="10" d="
		M570.119,384.307l-0.07-0.844l6.623-13.622l-1.004-7.614l2.943-10.367l0.588-8.998l6.789-5.148l-0.08-3.164l2.605-3.526
		l2.133-0.051l2.328-2.42l-0.621-4.458l2.23-6.382l3.691-0.896l-3.789-2.816l-6.678-0.591l-5.961-2.759l-3.953,2.463l-2.193-2.31
		l-2.902,0.074v-0.001l-5.045,1.516l-0.549,0.185l-1.906-2.569l-5.414-3.028l-1.949-2.864l-6.391,0.71l-3.672,3.509l-9.045,0.481
		l-2.734-1.785c-0.188-0.323-1.557-2.578-2.73-3.183c-0.043-0.024-0.117-0.058-0.174-0.076c-0.033-0.018-0.094-0.034-0.125-0.042
		c-0.018-0.004-0.068-0.032-0.084-0.042c-0.006,0.001-0.043,0.004-0.047,0.004c-0.033-0.002-0.1,0.001-0.125,0.001
		c-1.256,0.034-3.705-1.292-4.01-1.459l-3.719,1.657l-0.178,3.167l-4.51,0.664l-2.814-4.947l-1.594-0.516l-0.092-3.665l-3.799-1.507
		l-0.416-6.323l-2.754-2.545l-5.658-2.515l-2.648,0.066l-0.797,0.568l-2.691,0.066l-3.791-3.066l-4.01,0.353l-3.135,2.74
		l-0.775,1.326l-4.527,0.115l-1.615-1.564l-0.686,0.017l0,0l-3.58,0.093l-4.957-5.147l-6.148,0.151l-3.131,2.991l-4.514,0.365
		l-1.541,1.643l-0.342,0.01l-1.281,0.03l-1.195-4.992l-2.186-2.051l-1.541-0.172v0.003l-1.926-0.25l-1.203-5.242l-2.172-1.551
		l-7.488-0.612l-1.414-3.385l-2.471-1.497l-8.562-0.834l-0.666-6.065l1.039-1.079l-0.059-2.361l-4.338-2.546l0.736-2.934l1.006-2.64
		l-1.92-1.555l2.881-2.691l-0.119-4.765l-1.086-0.731l-4.016,0.1v0.001l-2.592,3.988l-2.328,2.465l0.062,2.358l0.076,3.166
		l-3.148,2.187l-5.803,2.002l-3.168,1.388l-3.828-2.815l-5.082,0.128l-0.607,4.701l2.508,4.408l-2.342,2.165l-0.154,3.97
		l1.375,2.077l-0.984,3.191l-3.965,2.206l0.088,3.415l-5.053,1.182l-0.76,2.13l3.547,1.767l-0.973,3.696l-0.734,3.184l0.336,6.571
		l0.148,2.404l-1.871,0.55l-4.592-2.795l-3.17,1.428l0.621,2.602l-5.635,0.142l-4.947,3.837l0.182,7.085l3.773,2.308l1.125,2.332
		l-6.133,0.663l-0.709,2.419l2.43,1.502l-1.023,1.631l-2.369,1.11l0.561,1.804l3.457-0.086l1.416,1.819l-2.355,1.665l-1.994,5.575
		l-3.967,1.956l-1.293,2.903l-1.281,1.634l0.336,1.556l-2.098,1.4l-0.463,3.683l2.166,1.252l1.168,3.939l-1.266,2.393l0.859,1.836
		l3.961-0.354l0.035,1.306l0.02,0.8l-3.676,1.655l-0.176,3.168l-1.819,2.446l-0.933,5.299l-0.487,4.445l1.696,1.305l3.205-0.078
		l7.096,6.947l-0.637,7.15l4.916,3.544l2.645-1.925l4.395,4.914l0.631,4.748l3.047,3.848l1.396,2.875l10.684,0.279l5.268-2.789
		l1.654,2.87l1.887,0.206l1.295-2.943l8.783-0.475l3.416-1.943l0.471-3.43l7.723-0.192l1.084,0.562l3.242,1.689l4.908,4.898
		l6.355,8.025l-3.373,3.757l2.434,1.54l0.369,4.461l4.262-0.358l1.121,2.079l3.209,0.176l2.357-1.368l4.402,5.161l0.584,1.291
		l5.818-1.455l1.043-2.683l0.258,0.037l-0.068-2.659l3.676-1.691l4.309,1.496l3.971-1.705l2.391-0.062l0.68-5.288l1.281-1.6
		l-2.395-0.188l-0.336-3.16l3.695-0.896l0.205-2.111l3.754-0.094l-0.086-3.415l2.92-1.127l-0.865-2.087l0.795-0.523l0.002,0.002
		l1.807-1.142l-1.066-1.534l1.307-0.838l1.891,2.064l2.641-1.92l0.748-2.639l5.02-0.926l1.393,1.018l-0.186,2.916l3.523,2.525
		l2.123-0.306l2.346-1.917l5.594-0.137l4.127,4.364l1.32-0.028l2.102-1.361l0.262-1.57l2.107-1.107l2.428,1.5l2.461,2.596
		l8.516,4.17l-0.004,0.002l0.135,0.082l1.121,2.082l4.271,0.146l4.914,3.589l0.818,1.793l-0.178,3.166l-1.266,2.439l0.594,3.148
		l3.74-0.642l0.887,2.89l1.465,5.57l3.143-0.584l-0.479,2.883l1.916,1.556l9.854-0.503l4.98-4.09l0.111-5.822l2.604-3.487
		l-3.6-3.876l-1.941-4.166l2.062-2.919l-0.166-6.622l1.246-3.196l-0.135-5.269l2.303-3.473l-2.736-3.605l-0.447-7.58"/>
</g>
<path class="mapZone" id="manche" fill="#2D2D2D" stroke="#E4E4E4" stroke-linejoin="round" stroke-miterlimit="10" d="M78.274,276.348l-0.993,2.687
	l5.744,4.326l0.147,5.817l-2.069,2.67l1.355,1.274l0.825,0.527l-0.429,5.029l1.987,4.171l6.317,6.671l1.477,6.042l1.37,1.822
	l0.236,9.488l3.365,6.242l0.183,7.38l-3.282,6.915l3.949,9.389l5.92,1.16l0.581,2.648l-2.87,1.381l-5.038,0.122l0.896,3.313
	l1.704,4.977l4.668,3.848l2.147,0.451l2.061-2.92l2.385-0.355l2.818-3.49l2.741,2.045l3.202-0.082l2.159,1l0.013,0.504l4.539,0.439
	l2.64-2.178l4.006,1.503l0.087,0.165l4.477-3.949L139,362.32l-0.481-2.182l0.576-2.589l-2.713-2.546l-6.939-4.213l-5.05-0.293
	l-5.24-6.197l4.146-1.623l1.667-3.289l-2.227-1.93l1.921-1.777l2.001,1.467l3.489-2.237l2.133-3.557l0.766-3.476l-1.612-3.042
	l0.868-1.117l-2.089-3.193l2.15-2.882l-1.81-2.15l-2.146,2.88l-3.118-1.649l-5.204-4.891l-0.264-2.143l1.497-1.563l-0.543-2.896
	l-1.334-1.216l-1.59-4.404l-7.154-7.959l2-5.326l2.945-0.077l-2.828-7.055l-11.494-0.258l-6.042,4.372l-7.025-4.298L78.274,276.348z
	"/>
<path class="mapZone" id="calvados" fill="#2D2D2D" stroke="#E4E4E4" stroke-linejoin="round" stroke-miterlimit="10" d="M192.476,300.858
	l-6.209,1.251l-10.014,6.075l-11.326,4.756l-9.219-4.788l-21.935-2.617l-5.146-2.483l-7.847,2.174l0.542,2.897l-1.496,1.563
	l0.265,2.144l5.202,4.891l3.12,1.647l2.146-2.881l1.807,2.148l-2.146,2.88l2.088,3.199l-0.868,1.116l1.614,3.04l-0.769,3.477
	l-2.131,3.556l-3.49,2.239l-2.005-1.469l-1.919,1.779l2.226,1.926l-1.666,3.29l-4.146,1.624l5.241,6.193l5.047,0.299l3.947,2.389
	l5.34-1.738l3.855-4.654l5.544,1.383l4.743-3.412l2.875-1.125l3.15,2.956l5.055-1.011l4.459,2.291l5.463-1.869l4.943-3.832
	l3.24-3.797l2.206-0.477l0.712,2.811l1.741-0.467l0.162-1.986l5.061-0.971l1.775,1.006l5.393-1.315l0.828-2.594l-0.314-2.352
	l-2.717-0.988l-0.306-1.849l2.355-1.62l0.232-2.666l-1.784-6.281l-3.313-4.39l2.649-1.627l-0.026-1.054l-2.711-0.733
	L192.476,300.858z"/>
<path class="mapZone selected" id="orne" fill="#2D2D2D" stroke="#E4E4E4" stroke-linejoin="round" stroke-miterlimit="10" d="M199.106,336.973l-5.393,1.321
	l-1.774-1.015l-5.062,0.975l-0.165,1.982l-1.739,0.468l-0.711-2.81l-2.208,0.477l-3.236,3.795L173.87,346l-5.459,1.869l-4.46-2.293
	l-5.056,1.014l-3.151-2.957l-2.875,1.122l-4.739,3.417l-5.543-1.381l-3.854,4.654l-5.339,1.737l2.991,1.821l2.715,2.546
	l-0.578,2.589l0.483,2.182l-1.41,5.059l-4.475,3.949l1.867,2.949l3,2.035l3.947-2.759l2.694,1.788l7.105-4.396l7.24,0.868
	l3.932-1.699l1.043-2.642l2.64-0.321l2.444,2.047l1.214,5.748l3.487,1.221l1.486,4.729l4.531,0.14l7.047-6.755l7.21-0.438
	l2.207,2.818l1.562,9.451l4.565,1.488l2.79,3.896l5.591-0.141l0.306,1.808l0.19-2.622l1.065-0.027l3.895,5.431l2.917,0.39
	l-0.158-6.239l-1.896-2.354l-0.609-2.094l3.958-2.465l3.99-0.9l2.564-3.229l-0.753-9.728l-5.754-4.578l-0.367-4.506l-4.863-3.044
	l1.812-2.661l-1.208-3.934l-3.745-1.215l-2.76-2.592l-1.666-3.627l-7.48-0.064l-2.201-2.604L199.106,336.973z"/>
<path class="mapZone" id="seineMaritime" fill="#2D2D2D" stroke="#E4E4E4" stroke-linejoin="round" stroke-miterlimit="10" d="M244.901,250.561
	l-1.699,2.153l-11.217,8.972l-20.154,5.525l-13.242,5.057l-10.783,6.094l-6.164,9.648l-1.139,7.411l5.438,3.832l7.765,1.366
	l-1.23,0.24l0.043,0.209l5.956-0.908l2.996-3.323l2.289-0.604l2.762,4.482l3.663-0.469l1.603,2.575l6.478-0.539l6.649,4.384
	l-4.193,1.417l3.128,2.201l1.922-0.052l1.799,3.586l3.072-0.079l0.884-2.298l-2.346-1.462l6.484-2.059l6.852-0.932l1.628-4.979
	l3.169-2.902l6.147-0.323l7.174,3.405l4.237,0.357l0.668-2.213l1.793-3.502l1.02-1.838l-2.688,0.066l-0.115-4.517l-1.641-2.573
	l0.929-5.297l1.004-2.684l-2.133,0.052l1.001-2.642l2.563-3.227l-2.764-4.698l-0.931-4.703l-12.022-11.048l-1.389-2.578
	l-2.938,0.328L244.901,250.561z"/>
<path class="mapZone" id="eure" fill="#2D2D2D" stroke="#E4E4E4" stroke-linejoin="round" stroke-miterlimit="10" d="M203.76,296.232l-2.289,0.604
	l-2.996,3.323l-5.956,0.908l1.483,9.75l2.713,0.733l0.024,1.056l-2.649,1.627l3.313,4.387l1.783,6.284l-0.23,2.663l-2.355,1.617
	l0.303,1.854l2.717,0.985l0.316,2.354l-1.981,6.125l2.204,2.602l7.477,0.064l1.669,3.627l2.76,2.592l3.743,1.215l1.211,3.938
	l-1.812,2.659l3.947,2.477l3.751-3.726l3.713-0.095l9.523-5.216l3.19,1.229l6.702-0.17l1.531-1.895l-0.1-3.967l5.27-2.747
	l-0.107-4.216l1.424-1.217l-0.157-1.178l1.33-1.385l-2.403-0.444l-0.053-2.103l-1.419-2.076l1.035-1.333l7.415-2.298l1.802-3.21
	l1.478-5.857l1.897-2.451l0.354-3.131l2.423,1.247l1.862-0.552l-1.417-2.073l-0.92-6.049l-2.444-2.05l0.036-0.168l-4.236-0.357
	l-7.174-3.404l-6.145,0.321l-3.172,2.902l-1.628,4.979l-6.851,0.932l-6.483,2.059l2.345,1.462l-0.885,2.3l-3.072,0.077l-1.799-3.586
	l-1.921,0.052l-3.129-2.201l4.194-1.417l-6.648-4.384l-6.476,0.539l-1.606-2.575l-3.66,0.469L203.76,296.232z"/>
</svg>
