<?xml version="1.0" standalone="no"?>
<!DOCTYPE svg PUBLIC "-//W3C//DTD SVG 20010904//EN"
 "http://www.w3.org/TR/2001/REC-SVG-20010904/DTD/svg10.dtd">
<svg version="1.0" xmlns="http://www.w3.org/2000/svg"
 width="600.000000pt" height="600.000000pt" viewBox="0 0 600.000000 600.000000"
 preserveAspectRatio="xMidYMid meet">
<metadata>
Created by potrace 1.11, written by Peter Selinger 2001-2013
</metadata>
<g transform="translate(0.000000,600.000000) scale(0.100000,-0.100000)"
fill="#000000" stroke="none">
<path d="M1852 4643 l3 -838 33 -95 c54 -156 137 -274 257 -365 148 -113 280
-157 470 -158 96 -1 136 4 199 22 265 74 471 280 543 541 25 90 24 309 -1 400
-84 303 -359 536 -658 557 l-78 6 0 -190 0 -190 49 -6 c119 -14 230 -97 288
-215 35 -71 38 -82 37 -161 -1 -157 -75 -276 -212 -343 -62 -31 -74 -33 -167
-33 -87 0 -107 3 -157 27 -109 51 -192 156 -217 276 -7 36 -11 299 -11 827 l0
775 -190 0 -191 0 3 -837z"/>
<path d="M2620 5293 l0 -191 73 -7 c172 -17 316 -57 451 -128 286 -149 503
-423 587 -742 21 -80 24 -111 23 -280 0 -164 -3 -201 -22 -270 -67 -241 -178
-423 -356 -583 -290 -260 -697 -355 -1066 -248 l-80 23 0 -309 c0 -285 1 -308
17 -308 10 0 56 38 103 85 l85 85 205 4 c176 3 220 7 310 29 297 71 537 204
745 412 61 61 136 147 168 191 283 400 360 913 206 1379 -127 382 -408 703
-774 884 -192 95 -369 144 -573 157 l-102 7 0 -190z"/>
<path d="M2260 1510 l0 -280 150 0 c168 0 199 8 242 59 50 59 46 168 -8 210
-21 17 -22 20 -8 32 49 40 56 140 15 198 -37 52 -73 61 -240 61 l-151 0 0
-280z m264 144 c19 -18 21 -45 4 -62 -7 -7 -38 -12 -70 -12 l-58 0 0 45 0 45
54 0 c36 0 60 -5 70 -16z m10 -220 c41 -40 -1 -84 -79 -84 l-55 0 0 50 0 50
59 0 c41 0 65 -5 75 -16z"/>
<path d="M2780 1510 l0 -280 70 0 70 0 0 280 0 280 -70 0 -70 0 0 -280z"/>
<path d="M3040 1510 l0 -280 190 0 190 0 0 60 0 60 -120 0 -120 0 0 50 0 50
105 0 105 0 0 60 0 60 -105 0 -105 0 0 50 0 50 120 0 120 0 0 60 0 60 -190 0
-190 0 0 -280z"/>
<path d="M3520 1510 l0 -280 70 0 69 0 3 136 3 136 85 -134 86 -133 62 -3 62
-3 0 281 0 280 -70 0 -69 0 -3 -134 -3 -134 -85 134 -85 134 -62 0 -63 0 0
-280z"/>
<path d="M2267 1093 c-4 -3 -7 -132 -7 -286 l0 -279 148 4 c143 3 150 4 190
31 70 46 86 90 87 242 0 83 -5 143 -13 167 -19 54 -79 104 -141 117 -56 12
-253 15 -264 4z m252 -142 c25 -25 35 -94 28 -184 -8 -89 -26 -110 -94 -111
l-48 -1 -3 158 -3 157 51 0 c36 0 55 -5 69 -19z"/>
<path d="M2780 815 l0 -285 70 0 70 0 0 285 0 285 -70 0 -70 0 0 -285z"/>
<path d="M3000 1035 l0 -65 70 0 70 0 0 -220 0 -220 70 0 70 0 0 220 0 220 70
0 70 0 0 65 0 65 -210 0 -210 0 0 -65z"/>
<path d="M3420 600 l0 -70 75 0 75 0 0 70 0 70 -75 0 -75 0 0 -70z"/>
</g>
</svg>
