<?xml version="1.0" encoding="utf-8"?>
<!-- Generator: Adobe Illustrator 16.0.0, SVG Export Plug-In . SVG Version: 6.00 Build 0)  -->
<!DOCTYPE svg PUBLIC "-//W3C//DTD SVG 1.1//EN" "http://www.w3.org/Graphics/SVG/1.1/DTD/svg11.dtd">
<svg version="1.1" id="Layer_1" xmlns="http://www.w3.org/2000/svg" xmlns:xlink="http://www.w3.org/1999/xlink" x="0px" y="0px"
	 width="280px" height="185.326px" viewBox="0 0 280 185.326" enable-background="new 0 0 280 185.326" xml:space="preserve">
<path id="meuse" fill="#818089" d="M137.381,116.788l1.912-2.264l0.18-2.691l-2.63-2.156c-0.201-0.166-0.256-0.453-0.129-0.682
	l1.734-3.086l-1.391-9.557c-0.008-0.056-0.008-0.107,0-0.164l2.534-15.719l0.974-2.934l-5.501-13
	c-0.047-0.109-0.055-0.23-0.025-0.346l1.678-6.506l-1.303-2.793l-4.671-5.15l-5.848,2.111c-0.143,0.051-0.305,0.039-0.439-0.033
	c-0.136-0.074-0.234-0.201-0.269-0.353l-1.302-5.577c-0.164-0.031-0.312-0.14-0.388-0.3l-3.678-7.739l-1.438,1.006l-2.284,2.979
	c-0.142,0.188-0.385,0.258-0.611,0.18l-6.158-2.216l-1.815,1.901l0.986,9.689c0.01,0.121-0.018,0.239-0.08,0.344l-3.48,5.518
	l1.367,2.562c0.116,0.22,0.069,0.492-0.118,0.656l-4.524,4.041l2.46,9.93c0.021,0.084,0.023,0.172,0.002,0.256l-1.015,4.254
	l2.565,1.326c0.207,0.106,0.32,0.336,0.285,0.563l-0.714,4.464c-0.033,0.194-0.168,0.356-0.355,0.424l-3.152,1.114l-1.221,6.167
	l3.522,4.984c0.053,0.073,0.086,0.161,0.098,0.254l0.488,4.537l3.72,5.672l18.915,11.549l7.643-3.729
	c0.104-0.049,0.224-0.062,0.328-0.047L137.381,116.788z"/>
<path id="meurtheEtMoselle" fill="#818089" d="M151.098,123.7l5.986-0.736l1.1-2.842c0.06-0.145,0.172-0.258,0.318-0.312l6.09-2.231
	c0.162-0.062,0.352-0.037,0.496,0.063l2.555,1.801l6.558-1.061l5.885-4.189c0.121-0.086,0.276-0.118,0.418-0.09
	c0.146,0.029,0.271,0.119,0.354,0.244l1.717,2.767l6.443,1.799l11.854-8.568c0.051-0.034,0.104-0.061,0.164-0.079l0.616-0.183
	l-1.166-0.776c-0.047-0.033-0.09-0.07-0.125-0.115l-2.241-2.826l-16.197-6.234l-6.096-4.252l-9.525-1.703
	c-0.159-0.031-0.305-0.131-0.383-0.277l-3.144-5.881c-0.055-0.104-0.071-0.221-0.057-0.337l0.436-2.802l-12.651-4.314
	c-0.121-0.043-0.228-0.127-0.289-0.237l-5.065-8.619c-0.099-0.162-0.103-0.361-0.015-0.527c0.091-0.165,0.261-0.271,0.445-0.284
	l2.733-0.166l-1.012-5.797c-0.021-0.113-0.002-0.229,0.047-0.332l1.629-3.252l-1.188-3.662l-2.68-1.724
	c-0.113-0.073-0.195-0.188-0.229-0.319l-2.696-10.926l-3.78-3.55h-7.259l-1.275,3.263c-0.078,0.174-0.242,0.465-0.432,0.487
	l-5.489,0.726l1.146,4.95l5.616-2.007c0.207-0.072,0.436-0.004,0.584,0.157l4.969,5.483c0.036,0.039,0.065,0.088,0.089,0.137
	l1.42,3.041c0.053,0.115,0.065,0.244,0.034,0.365l-1.682,6.519l5.51,13.019c0.053,0.12,0.059,0.258,0.016,0.381l-1.016,3.041
	l-2.5,15.554l1.405,9.652c0.017,0.119-0.005,0.237-0.063,0.346l-1.604,2.85l2.494,2.047c0.137,0.109,0.209,0.277,0.195,0.453
	l-0.172,2.631l5.982,0.652c0.278,0.027,0.487,0.271,0.479,0.551l-0.097,3.145L151.098,123.7z"/>
<path id="moselle" fill="#818089" d="M198.971,70.595c0.092-0.201,0.299-0.334,0.521-0.313c0.221,0.014,0.414,0.162,0.482,0.373
	l0.942,2.934l9.92,5.107l9.802-0.289l1.477-2.674l1.352-4.275l-9.146-8.171l-6.852,4.536c-0.115,0.076-0.256,0.102-0.393,0.08
	l-7.742-1.389l-2.68,1.34c-0.248,0.127-0.566,0.035-0.709-0.215l-2.449-4.312l-3.041-1.434l-2.754,1.549l-0.283,2.969
	c-0.014,0.156-0.098,0.299-0.227,0.39c-0.129,0.091-0.291,0.123-0.445,0.08l-3.141-0.812c-0.105-0.027-0.199-0.086-0.271-0.166
	l-9.131-10.344c-0.055-0.06-0.092-0.129-0.113-0.205l-1.875-6.418l-3.109-2.263l-12.313-2.854l-4.769,3.791
	c-0.086,0.067-0.19,0.108-0.301,0.115l-3.246,0.205c-0.088,0.01-0.18-0.012-0.26-0.048l-4.758-2.17l2.408,9.453l2.66,1.712
	c0.104,0.066,0.186,0.169,0.223,0.288l1.316,4.058c0.045,0.135,0.035,0.28-0.027,0.406l-1.646,3.288l1.084,6.216
	c0.026,0.151-0.013,0.307-0.105,0.428c-0.096,0.121-0.238,0.194-0.395,0.205l-2.461,0.147l4.521,7.688l12.895,4.396
	c0.244,0.086,0.396,0.336,0.357,0.595l-0.479,3.07l2.934,5.493l9.385,1.677c0.078,0.016,0.15,0.045,0.215,0.09l6.08,4.26
	l16.219,6.228c0.09,0.034,0.168,0.092,0.229,0.168l2.19,2.76l3.398,0.072l2.328-1.488l3.326-14.683l-4.682-3.559l-2.646-0.341
	l-1.438,2.526c-0.074,0.132-0.201,0.226-0.35,0.259c-0.146,0.037-0.301,0.004-0.43-0.082l-2.641-1.826
	c-0.238-0.166-0.304-0.491-0.146-0.735l1.487-2.316l-5.623-2.58c-0.271-0.123-0.39-0.443-0.268-0.713L198.971,70.595z"/>
<path id="vosges" fill="#818089" d="M200.955,121.669l1.318-10.646l-0.853,0.248l-11.989,8.668c-0.134,0.101-0.3,0.129-0.461,0.082
	l-6.896-1.926c-0.133-0.037-0.242-0.121-0.312-0.236l-1.525-2.45l-5.521,3.928c-0.065,0.049-0.143,0.08-0.225,0.095l-6.896,1.114
	c-0.142,0.021-0.283-0.008-0.398-0.092l-2.502-1.769l-5.596,2.058l-1.129,2.914c-0.072,0.186-0.24,0.312-0.438,0.34l-6.597,0.812
	c-0.021,0.004-0.045,0.004-0.065,0.004c-0.013,0-0.021-0.015-0.035-0.017c-0.146-0.01-0.282-0.062-0.375-0.174l-4.662-5.478
	c-0.086-0.102-0.133-0.229-0.129-0.367l0.088-2.85l-5.711-0.623l-2.047,2.416c-0.125,0.146-0.324,0.215-0.504,0.182l-3.281-0.573
	l-7.668,3.737l-2.233,2.23l14.104,10.479c0.168,0.125,0.248,0.338,0.207,0.543l-1.967,9.425l6.042,5.063
	c0.117,0.096,0.186,0.232,0.195,0.381l0.162,2.906l2.348-0.938c0.254-0.103,0.547,0.006,0.676,0.244l1.229,2.303l8.734-6.143
	c0.176-0.121,0.406-0.129,0.59-0.021l7.807,4.746l6.267-1.859c0.162-0.049,0.338-0.018,0.479,0.084l5.323,3.972l5.496-2.41
	c0.07-0.029,0.146-0.047,0.22-0.047c0.121,0,0.237,0.041,0.338,0.119l9.188,7.338l0.688-0.543l2.941-2.47l0.102-6.854
	c0.002-0.099,0.027-0.189,0.078-0.271l5.373-8.823l4.709-15.396c0.031-0.102,0.092-0.188,0.172-0.256l0.541-0.453l-5.071-2.188
	C201.055,122.136,200.926,121.907,200.955,121.669z"/>
<path id="marne" fill="#818089" d="M61.113,102.64l7.469-1.016c0.055-0.008,0.143-0.008,0.197,0.002l3.565,0.607
	c0.248,0.047,0.439,0.25,0.453,0.504l0.399,6.654l2.686,2.129c1.092,0.397,2.141,0.821,3.185,1.244
	c0.981,0.396,1.963,0.795,2.984,1.172l2.864-1.73l3.637,1.041l4.573-0.082l-0.382-2.801c-0.047-0.188,0.006-0.059,0.141-0.191
	l2.274-2.105l-2.187-2.272c-0.129-0.139-0.174-0.297-0.121-0.479c0.055-0.182,0.197-0.278,0.381-0.33l9.283-2.418l-0.437-4.062
	l-3.574-5.059c-0.086-0.121-0.118-0.271-0.088-0.415l1.322-6.695c0.036-0.188,0.168-0.34,0.35-0.403l3.141-1.111l0.603-3.762
	l-2.596-1.34c-0.219-0.115-0.332-0.363-0.275-0.605l1.085-4.537l-2.419-9.744l-22.435-1.992c-0.09-0.009-0.177-0.039-0.252-0.092
	L65.783,55.21l-7.045-1.033L57.771,57c-0.047,0.137-0.146,0.248-0.273,0.311c-0.131,0.062-0.281,0.068-0.415,0.023l-5.867-2.055
	l-8.76,4.379l-1.244,2.662l3.565,8.91c0.11,0.274-0.022,0.586-0.297,0.699l-5.573,2.282l1.559,2.291
	c0.096,0.14,0.117,0.313,0.064,0.474l-0.866,2.602l2.42,1.209c0.144,0.072,0.249,0.202,0.284,0.357
	c0.038,0.155,0.002,0.319-0.093,0.448l-8.653,11.569l-0.479,2.218c-0.025,0.115-0.087,0.22-0.175,0.295l-2.648,2.279l3.739,8.918
	l2.735,1.795c0.019,0.008,0.035,0.021,0.052,0.033l0.015,0.01c0.056,0.035,0.684,0.24,0.722,0.289l3.802,4.873l9.24,1.063
	l0.583-3.604L61.113,102.64z"/>
<path id="aube" fill="#818089" d="M97.195,138.536l-0.594-10.891l-6.121-3.199c-0.105-0.059-0.189-0.146-0.24-0.256l-2.739-5.982
	c-0.046-0.104-0.059-0.215-0.04-0.324l0.628-3.398l-3.08-1.079l-2.618,1.592c-0.141,0.084-0.311,0.104-0.463,0.045
	c-1.123-0.405-2.194-0.84-3.266-1.272c-1.06-0.431-2.12-0.855-3.227-1.263c-0.056-0.021-0.105-0.047-0.152-0.084l-2.943-2.332
	c-0.119-0.096-0.193-0.237-0.204-0.391l-0.381-6.474l-3.042-0.521l-6.727,0.981l-9.653,8.354L52,115.55
	c0,0.154-0.514,0.303-0.627,0.404c-0.102,0.088-0.451,0.135-0.582,0.135c-0.023,0-0.158-0.002-0.181-0.004l-10.302-1.32
	c-0.146-0.02-0.303-0.096-0.391-0.213l-3.287-4.422l-2.939,4.887c-0.071,0.119-0.187,0.205-0.321,0.242l-2.939,0.799l0.378,8.955
	l3.828,1.496c0.089,0.033,0.166,0.092,0.229,0.166l5.072,6.391c0.04,0.056,0.071,0.111,0.09,0.177l2.657,8.514l1.59-1.812
	c0.102-0.115,0.249-0.187,0.405-0.187c0.155,0,0.305,0.068,0.406,0.188l4.061,4.664c0.034,0.039,0.062,0.082,0.083,0.129
	l5.616,12.119l13.909-1.779c0.097-0.012,0.208,0.006,0.304,0.051l3.022,1.469l2.265-1.996c0.076-0.065,0.171-0.11,0.272-0.129
	l6.854-1.09l5.155-4.367c0.116-0.1,0.285-0.143,0.422-0.123l3.736,0.523l-0.088-4.846c-0.005-0.215,0.12-0.412,0.317-0.502
	l5.993-2.707L97.195,138.536z"/>
<path id="basRhin" fill="#818089" d="M211.225,124.024l9.633,6.492c0.129,0.086,0.213,0.225,0.234,0.375l0.367,2.754l3.898,1.862
	l6.438-14.924l1.615-17.765c0.01-0.104,0.047-0.198,0.109-0.278l11.918-15.558l4.242-11.479l-9.146-3.237l-16.01-0.591l-1.426,4.478
	l-1.666,3.039c-0.095,0.168-0.267,0.272-0.457,0.279l-10.242,0.303c-0.101-0.004-0.183-0.017-0.265-0.06l-10.243-5.274
	c-0.127-0.064-0.226-0.178-0.269-0.312l-0.586-1.818l-4.779,10.516l5.699,2.615c0.144,0.066,0.25,0.189,0.293,0.339
	c0.045,0.151,0.021,0.312-0.063,0.444l-1.545,2.4l1.729,1.193l1.32-2.326c0.108-0.191,0.33-0.297,0.539-0.27l3.149,0.402
	c0.093,0.014,0.181,0.049,0.257,0.105l5.069,3.854c0.168,0.129,0.246,0.344,0.198,0.549l-3.444,15.212
	c-0.028,0.125-0.101,0.234-0.201,0.312l-2.536,1.396c-0.097,0.068-0.302,0.342-0.421,0.342c-0.014,0-0.702,0.043-0.717,0.043
	l-2.067-0.313l0.811,0.358c0.008,0.004,0.172,0.354,0.18,0.357c0.012,0.01,0.406-0.057,0.416-0.049
	c0.039,0.035,0.062,0.117,0.092,0.16c0.016,0.021,0.041,0.055,0.051,0.08c0.002,0.004,0.002,0.02,0.004,0.021
	c0.037,0.087,0.054,0.187,0.041,0.277l-1.368,11.062l5.418,2.34l3.461,0.196C211.049,123.938,211.145,123.972,211.225,124.024z"/>
<path id="hautRhin" fill="#818089" d="M227.758,148.31l-2.186-11.549c-0.059-0.006-0.121-0.014-0.174-0.039l-4.668-2.229
	c-0.164-0.078-0.277-0.234-0.306-0.414l-0.375-2.807l-9.309-6.271l-3.195-0.182l-0.928,0.772L201.9,140.96l-5.353,8.818
	l-0.103,6.953c-0.002,0.158-0.071,0.307-0.192,0.406l-3.043,2.52l8.274,5.484l0.507,10.239l3.146-0.198l2.432,5.778l-0.401,0.205
	l3.342,0.707l-0.909,3.354l8.725,0.098l3.045-1.115l0.504-3.549l3.35-0.102l0.197-3.55l2.539-2.334l-3.246-8.823L227.758,148.31z"/>
<path id="hauteMarne" fill="#818089" d="M118,177.015v2.443l5.028-1.854l1.568-2.662c0.047-0.092,0.239-0.17,0.33-0.224l7.46-4.356
	c0.19-0.113,0.465-0.101,0.641,0.043l2.321,1.844l2.925-1.002l0.293-9.061c0.006-0.125,0.052-0.24,0.133-0.334l2.438-2.841
	c0.123-0.143,0.312-0.213,0.492-0.184l2.914,0.457l2.223-3.207l-0.166-1.42l-1.24-2.322l-2.598,1.037
	c-0.166,0.062-0.346,0.047-0.492-0.045c-0.145-0.097-0.233-0.252-0.248-0.429l-0.188-3.42l-6.111-5.125
	c-0.154-0.127-0.224-0.326-0.184-0.521l1.961-9.397l-14.328-10.646c-0.125-0.095-0.205-0.238-0.215-0.396
	c-0.014-0.154,0.043-0.31,0.156-0.42l2.253-2.254l-18.686-11.408c-0.07-0.041-0.127-0.099-0.172-0.164l-3.644-5.56l-8.486,2.209
	l1.927,2.078c0.196,0.213,0.189,0.543-0.015,0.748l-2.427,2.418l0.739,2.951c0.04,0.162,0.004,0.082-0.098,0.213
	c-0.103,0.133-0.257-0.043-0.424-0.043h-4.927l-0.601,3.496l2.591,5.789l6.231,3.317c0.169,0.088,0.278,0.293,0.288,0.482
	l0.608,11.271l-0.21,3.221c-0.013,0.197-0.133,0.377-0.316,0.459l-5.964,2.697l0.085,4.688l3.636,0.723
	c0.213,0.043,0.382,0.211,0.423,0.428l0.553,2.763l2.674,1.104c0.223,0.096,0.357,0.323,0.328,0.565l-0.334,2.688l2.788,0.254
	c0.147,0.015,0.28,0.084,0.372,0.199l2.033,2.537c0.038,0.049,0.07,0.104,0.088,0.162l1.217,3.551
	c0.07,0.211,0.008,0.441-0.163,0.586l-2.928,2.472l2.342,4.86l10.289,2.176c0.051,0.011,0.101,0.029,0.147,0.056l2.869,1.826
	C118.374,176.634,118,176.815,118,177.015z"/>
<path id="ardennes" fill="#818089" d="M66.284,54.245l11.144,7.53l22.445,1.992l4.278-3.817l-1.314-2.468
	c-0.091-0.17-0.084-0.377,0.02-0.541l3.547-5.625l-0.992-9.754c-0.015-0.156,0.038-0.313,0.147-0.428l2.231-2.333
	c0.145-0.155,0.364-0.206,0.572-0.136l6.118,2.201l2.096-2.732c0.033-0.043,0.073-0.08,0.117-0.111l0.298-0.209l-1.555,0.172
	c-0.147,0.019-0.724-0.032-0.837-0.133c-0.113-0.104-0.6-0.25-0.6-0.402v-3.23l-6.066-1.621c-0.084-0.021,0.048-0.062-0.017-0.119
	l-7.343-6.551l-6.531,0.193c-0.145,0.02-0.286-0.061-0.394-0.18c-0.105-0.121-0.137-0.281-0.117-0.439l1.099-7.238l-3.877-6.439
	C90.719,11.751,90,11.67,90,11.586V6.921c0-0.085,0.728-0.169,0.765-0.245l3.062-5.332L91.764,0l-4.18,4.553l-1.85,7.172
	c-0.043,0.157-0.133,0.288-0.281,0.354l-9.928,4.463c-0.12,0.057-0.249,0.062-0.375,0.023l-6.058-1.889l-2.6,0.489l0.938,6.077
	c0.016,0.098,0.004,0.195-0.033,0.287l-1.535,3.738l1.526,3.335c0.08,0.177,0.062,0.381-0.053,0.537l-5.784,8.115
	c-0.087,0.121-0.222,0.203-0.369,0.223l-2.661,0.343l0.382,15.286l7.158,1.051C66.141,54.17,66.219,54.2,66.284,54.245z"/>
</svg>
