<?xml version="1.0" encoding="utf-8"?>
<!-- Generator: Adobe Illustrator 16.0.0, SVG Export Plug-In . SVG Version: 6.00 Build 0)  -->
<!DOCTYPE svg PUBLIC "-//W3C//DTD SVG 1.1//EN" "http://www.w3.org/Graphics/SVG/1.1/DTD/svg11.dtd">
<svg version="1.1" id="Layer_1" xmlns="http://www.w3.org/2000/svg" xmlns:xlink="http://www.w3.org/1999/xlink" x="0px" y="0px"
	 width="280px" height="100.336px" viewBox="0 0 280 100.336" enable-background="new 0 0 280 100.336" xml:space="preserve">
<path id="cotesDArmor" fill="#818089" d="M107.823,15.369l3.958,5.145c0.105,0.137,0.14,0.314,0.089,0.482l-2.793,9.387
	l2.797,10.299c0.034,0.127,0.021,0.26-0.036,0.378l-2.045,4.176l13.499,3.542l8.764-3.387c0.137-0.057,0.298-0.049,0.436,0.021
	l14.514,7.307l3.145-0.949c0.055-0.018,0.104-0.021,0.154-0.021c0.062,0,0.114,0.035,0.172,0.056
	c0.037,0.014,0.076,0.014,0.108,0.034c0.104,0.063,0.192,0.16,0.233,0.289l1.826,5.84l6.369-7.747
	c0.127-0.158,0.346-0.228,0.532-0.185l4.06,0.912c0.15,0.034,0.283,0.137,0.355,0.271l1.498,2.816l2.646-1.074l5.484-7.883
	c0.072-0.103,0.178-0.177,0.293-0.209l9.924-2.848l1.769-9.915l-0.106-5.748l-2.541-2.055c-0.041-0.033-0.076-0.07-0.104-0.112
	l-2.954-0.279c-0.166-0.016-0.313-0.107-0.406-0.248l-1.391-2.213c-0.043,0.016-0.089,0.026-0.138,0.03l-4.561,0.401
	c-0.271,0.025-0.486-0.133-0.562-0.375l-0.938-2.967l-2.988,1.371c-0.139,0.062-0.293,0.064-0.435,0.006s-0.248-0.172-0.302-0.312
	l-0.973-2.649l-3.578,0.35l-12.049,10.035c-0.146,0.119-0.344,0.152-0.515,0.098c-0.177-0.059-0.312-0.204-0.354-0.386l-0.953-3.945
	l-4.979-2.823c-0.16-0.098-0.752-0.271-0.752-0.455v-3.408l-4.477-8.686l-2.853-0.564c-0.143-0.026-0.148-0.109-0.229-0.231
	c-0.083-0.122-0.047-0.271-0.015-0.414L137.007,4l-2.419,0.215l-1.776,3.199c-0.133,0.231-0.412,0.336-0.656,0.242
	c-0.25-0.093-0.392-0.354-0.339-0.613l1.261-6.207l-4.28,2.906c-0.15,0.104-0.35,0.125-0.52,0.049
	c-0.169-0.074-0.289-0.23-0.315-0.414L127.454,0l-9.509,3.897c-0.246,0.104-0.537,0.006-0.671-0.231l-1.305-2.283l-4.493,3.701
	l-0.295,6.756c-0.013,0.26-0.207,0.475-0.464,0.512l-3.057,0.436L107.823,15.369z"/>
<path id="morbihan" fill="#818089" d="M174.434,95.384l0.377-6.463l-1.006-6.43c-0.041-0.277,0.133-0.543,0.407-0.609l2.043-0.493
	l-1.981-1.15c-0.147-0.09-0.248-0.244-0.267-0.42c-0.015-0.174,0.056-0.346,0.188-0.455l2.613-2.232l0.959-3.137l-2.43-1.803
	c-0.221-0.162-0.281-0.469-0.146-0.707l1.586-2.701l-1.034-2.42l-5.618-3.059c-0.146-0.078-0.242-0.216-0.271-0.375l-0.61-3.244
	c-0.052-0.271,0.116-0.543,0.384-0.619l0.521-0.146l-0.487-0.01c-0.244-0.008-0.453-0.178-0.513-0.412l-1.067-4.361l-2.663,1.08
	c-0.254,0.105-0.547-0.004-0.678-0.244l-1.612-3.024l-3.489-0.785l-6.791,8.262c-0.094,0.113-0.229,0.164-0.373,0.177
	c-0.018,0.002-0.024,0.021-0.045,0.021c-0.033,0-0.07-0.004-0.104-0.01c-0.193-0.039-0.352-0.182-0.411-0.369l-1.965-6.283
	l-2.839,0.857c-0.133,0.041-0.274,0.022-0.397-0.035l-14.492-7.297l-8.703,3.365c-0.105,0.037-0.225,0.043-0.33,0.018l-14.113-3.705
	l-7.267,3.399l0.531,3.548l3.667,5.885l8.987,1.482c0.257,0.043,0.446,0.262,0.45,0.521l0.102,6.188
	c0.002,0.133-0.047,0.264-0.133,0.362l-2.838,3.246c-0.141,0.16-0.361,0.229-0.572,0.158l-2.368-0.765l0.714,7.74l2.354,1.43
	l2.45-1.229l-0.48-6.334c-0.021-0.281,0.181-0.533,0.461-0.572c0.27-0.041,0.546,0.146,0.604,0.426l0.638,3.103l3.005,0.638
	c0.194,0.041,0.349,0.186,0.404,0.375c0.058,0.188,0.005,0.395-0.136,0.532l-2.138,2.144l1.426,2.432l3.775,1.656l2.816-1.316
	c0.266-0.129,0.579-0.014,0.712,0.252c0.129,0.264,0.023,0.58-0.235,0.719l-2.416,1.25l0.259,2.732l2.244,3.023
	c0.088,0.121,0.123,0.271,0.094,0.422l-0.581,3.057l3.047-2.652c0.062-0.057,0.141-0.096,0.223-0.117l3.653-0.907
	c0.162-0.039,0.328-0.007,0.461,0.098l1.571,1.222l-1.112-5.248c-0.055-0.254,0.081-0.513,0.32-0.607
	c0.24-0.102,0.516-0.016,0.659,0.203l3.082,4.756l1.278-2.105c0.111-0.184,0.324-0.278,0.539-0.254l4.16,0.609
	c0.13,0.02,0.246,0.086,0.33,0.184l2.435,2.84c0.172,0.201,0.175,0.498,0.002,0.699l-2.336,2.74
	c-0.118,0.139-0.301,0.211-0.479,0.186l-5.181-0.666l3.796,3.021l13.885-1.197c0.109-0.01,0.222,0.016,0.317,0.07l3.146,1.824
	c0.205,0.119,0.311,0.359,0.254,0.592c-0.055,0.23-0.256,0.398-0.491,0.414l-2.545,0.148l1.132,1.821L174.434,95.384z"/>
<path id="finistere" fill="#818089" d="M98.635,10.134l-0.643,3.5c-0.038,0.207-0.192,0.373-0.394,0.425
	c-0.194,0.058-0.416-0.015-0.552-0.177l-2.01-2.406l-1.455,2.913c-0.111,0.222-0.361,0.341-0.602,0.284
	c-0.242-0.055-0.415-0.27-0.419-0.52l-0.095-6.691l-15.749,4.664c-0.234,0.072-0.492-0.028-0.619-0.244L74.635,9.39l-10.2,5.46
	l2.029,1.05c0.229,0.119,0.34,0.383,0.27,0.633c-0.074,0.248-0.3,0.404-0.569,0.385l-9.237-0.885l-1.963,2.496l-1.467,9.773
	l1.631,2.121l2.659-1.152c0.143-0.061,0.3-0.059,0.441,0.008l2.854,1.334l13.801-4.201c0.271-0.082,0.56,0.058,0.661,0.32
	c0.101,0.264-0.018,0.561-0.272,0.682l-3.998,1.906l-0.44,2.779l6.01-1.436c0.176-0.037,0.359,0.004,0.491,0.127
	c0.133,0.121,0.196,0.301,0.169,0.479l-0.443,2.932l2.956,1.258c0.22,0.094,0.351,0.316,0.327,0.552
	c-0.025,0.235-0.2,0.428-0.433,0.476l-1.846,0.368l5.505,2.356c0.258,0.111,0.389,0.4,0.299,0.666
	c-0.088,0.267-0.381,0.42-0.636,0.354l-6.795-1.622c-0.152-0.035-0.279-0.134-0.353-0.27l-1.315-2.457l-3.837,1.098
	c-0.082,0.023-0.168,0.027-0.254,0.01l-6.596-1.318c-0.136-0.027-0.254-0.105-0.334-0.219l-1.367-1.938l-1.258,3.036l2.235,4.799
	l1.496-2.246c0.107-0.159,0.256-0.246,0.484-0.239l3.145,0.205c0.084,0.006,0.164,0.03,0.238,0.073l6.188,3.647
	c0.119,0.07,0.208,0.187,0.246,0.32l1.016,3.652c0.039,0.148,0.016,0.307-0.068,0.436l-1.828,2.84
	c-0.149,0.238-0.462,0.316-0.708,0.184l-2.693-1.441l-13.87,1.377l-1.247,2.053l10.244,3.828c0.113,0.043,0.211,0.123,0.273,0.229
	l4.26,7.104c0.069,0.117,0.092,0.256,0.063,0.389l-1.19,5.591l7.143,0.633L80,65.669v-0.229l-0.5-3.273
	c-0.041-0.146,0.181-0.307,0.261-0.436c0.084-0.129,0.316-0.215,0.469-0.238l0.853-0.137l0.301-3.033
	c0.021-0.238,0.213-0.438,0.451-0.48c0.236-0.047,0.479,0.072,0.587,0.289l1.616,3.244c0.08,0.158,0.079,0.348-0.008,0.5
	c-0.084,0.152-0.238,0.26-0.412,0.275l-1.486,0.156l-0.233,2.788l2.857,1.908l5.021-1.737c0.217-0.074,0.455-0.009,0.599,0.17
	l4.697,6.434L97,71.326v-2.814c0-0.281,0.682-0.518,0.961-0.539c0.33-0.055,0.763,0.178,0.809,0.455l0.525,2.611l2.395-0.807
	c0.181-0.062,0.42-0.021,0.566,0.106c0.145,0.132,0.221,0.33,0.179,0.521l-0.587,2.631l2.568,0.643l3.789-1.533l0.279-3.223
	c0.002-0.014,0.018-0.021,0.02-0.035c0.021-0.131,0.073-0.254,0.179-0.34c0.009-0.008,0.021-0.008,0.029-0.014
	c0.005-0.006,0.005-0.014,0.009-0.016c0.009-0.007,0.021,0,0.031-0.005c0.131-0.077,0.282-0.108,0.435-0.061l2.808,0.903
	l2.467-2.821l-0.089-5.529l-8.783-1.449c-0.152-0.022-0.287-0.114-0.369-0.245l-3.855-6.188c-0.04-0.062-0.064-0.134-0.076-0.205
	l-0.608-4.057c-0.036-0.234,0.089-0.468,0.306-0.568l7.634-3.57l2.161-4.414l-2.784-10.249c-0.027-0.097-0.025-0.2,0.004-0.296
	l2.757-9.271l-3.89-5.057c-0.065-0.085-0.104-0.188-0.111-0.295l-0.178-2.842l-5.26-3.211L98.635,10.134z"/>
<path id="illeEtVilaine" fill="#818089" d="M190.87,22.666c-0.146,0-0.289-0.703-0.39-0.811c-0.104-0.107-0.156-0.57-0.149-0.721
	l0.274-5.926l-2.812,0.621l-4.188,3.957l2.428,5.392l0.289,0.215c0.132,0.101,0.21,0.248,0.212,0.412l0.104,6.39l-1.834,10.348
	c-0.037,0.203-0.187,0.367-0.382,0.424l-10.062,2.885l-5.329,7.656l1.06,4.334l3.646,0.09c0.267,0.006,0.486,0.207,0.521,0.471
	c0.032,0.269-0.134,0.517-0.389,0.589l-3.481,0.981l0.473,2.506l5.558,3.023c0.106,0.059,0.19,0.148,0.239,0.262l1.217,2.842
	c0.066,0.158,0.059,0.338-0.027,0.486l-1.479,2.521l2.345,1.74c0.187,0.135,0.263,0.371,0.196,0.59l-1.117,3.65
	c-0.027,0.1-0.088,0.188-0.166,0.252l-2.152,1.84l2.483,1.443c0.188,0.107,0.293,0.326,0.262,0.545
	c-0.03,0.219-0.19,0.395-0.405,0.445l-2.867,0.691l0.81,5.186l5.29-3.406c0.083-0.053,0.178-0.082,0.273-0.086l14.711-0.496
	l1.679-2.889c0.058-0.1,0.146-0.18,0.251-0.225l10.244-4.461c0.145-0.064,0.312-0.062,0.462,0.016l7.108,3.646l0.438-1.684
	l4.08-9.906c0.059-0.135,0.162-0.239,0.298-0.295l5.911-2.383l-2.188-19.371c-0.017-0.129,0.019-0.26,0.092-0.367l1.731-2.5
	l0.099-13.361l-5.683-2.293l-7.778,5.217c-0.14,0.092-0.313,0.113-0.472,0.062l-3.041-1.012c-0.136-0.047-0.247,0.5-0.312,0.373
	l-5.33-9.91L190.87,22.666L190.87,22.666z"/>
</svg>
