<?xml version="1.0" encoding="utf-8"?>
<!-- Generator: Adobe Illustrator 16.0.0, SVG Export Plug-In . SVG Version: 6.00 Build 0)  -->
<!DOCTYPE svg PUBLIC "-//W3C//DTD SVG 1.1//EN" "http://www.w3.org/Graphics/SVG/1.1/DTD/svg11.dtd">
<svg version="1.1" id="Layer_1" xmlns="http://www.w3.org/2000/svg" xmlns:xlink="http://www.w3.org/1999/xlink" x="0px" y="0px"
	 width="280px" height="114.951px" viewBox="0 0 280 114.951" enable-background="new 0 0 280 114.951" xml:space="preserve">
<path id="CorseDuSud" fill="#818089" d="M157.009,82.967c-0.077,0.043-0.165,0.062-0.253,0.062c-0.025,0-0.049-0.002-0.074-0.004
	l-4.459-0.606c-0.203-0.028-0.373-0.17-0.438-0.365l-4.09-12.252l-2.729-1.221c-0.159-0.07-0.272-0.22-0.307-0.392l-0.679-3.483
	l-6.625-6.53l-6.737-3.817c-0.113-0.064-0.197-0.166-0.242-0.288l-1.306-3.655l-14.689-2.303l-0.317,1.649l2.014-0.834
	c0.215-0.087,0.454-0.03,0.608,0.139l4.363,4.868c0.101,0.113,0.148,0.266,0.135,0.418c-0.018,0.15-0.098,0.29-0.222,0.379
	l-5.609,4.059l1.108,5.703l8.708,4.85c0.166,0.092,0.271,0.268,0.275,0.459c0.004,0.188-0.092,0.369-0.254,0.469L122.412,72
	l-2.917,8.299l7.158-2.477c0.157-0.05,0.319-0.035,0.454,0.049c0.137,0.082,0.23,0.222,0.256,0.379l1.013,6.492
	c0.015,0.092,0.005,0.188-0.029,0.272l-2.817,7.416l10.228,2.01c0.215,0.041,0.382,0.209,0.426,0.42
	c0.043,0.216-0.047,0.437-0.227,0.556l-5.355,3.604l-0.175,2.924l5.096,4.718l12.67,3.914c0.146,0.047,0.269,0.153,0.33,0.297
	l1.328,2.946l2.748,1.136l6.221-15.656l-3.021-0.239c-0.224-0.021-0.413-0.17-0.479-0.388c-0.062-0.215,0.018-0.444,0.191-0.582
	l2.821-2.143l2.333-5.929l-0.729-8.598L157.009,82.967z"/>
<path id="hauteCorse" fill="#818089" d="M129.981,49.747l1.346,3.769l6.625,3.753c0.042,0.023,0.08,0.053,0.114,0.087l6.793,6.697
	c0.078,0.073,0.129,0.175,0.147,0.278l0.655,3.377l2.688,1.201c0.137,0.062,0.241,0.178,0.291,0.32l4.059,12.158l3.955,0.541
	l3.107-1.642c0-0.015,0-0.026,0-0.041l0.104-7.103c0.002-0.074,0.017-0.146,0.047-0.213l6.021-13.445l-4.218-29.229l-4.593-6.387
	c-0.072-0.101-0.105-0.221-0.104-0.342l0.608-12.07l-1.919-10.324c-0.018-0.1,0.023-0.186,0.061-0.274l-2.305-0.862
	c-0.031,0.082-0.048,0.173-0.119,0.233l-2.543,2.167l0.5,19.623c0.004,0.16-0.062,0.312-0.184,0.419
	c-0.12,0.107-0.268,0.156-0.439,0.13l-9.414-1.476l-3.86,5.214c-0.062,0.082-0.142,0.143-0.234,0.182l-11.925,4.77l-0.837,2.99
	c-0.061,0.216-0.248,0.371-0.47,0.393l-3.012,0.28l-2.271,2.897l0.289,3.748c0.01,0.135-0.029,0.271-0.113,0.375l-4.03,5.137
	l14.752,2.312C129.751,49.429,129.916,49.563,129.981,49.747z"/>
</svg>
