<svg version="1.1" xmlns="http://www.w3.org/2000/svg" xmlns:xlink="http://www.w3.org/1999/xlink" width="700px" height="670px">
<style type="text/css" >
  <![CDATA[
    path.mapZone:hover { fill: #e56c40; cursor: pointer;}
    path.selected { fill: #e56c40;}
    path.selected:hover { cursor: default;}
  ]]>
</style>
<g id="lands">
	<g>
		<polygon fill="#B3B4B7" points="190.826,525.011 191.076,525.15 193.268,523.812 192.981,523.652 192.801,523.812 
			192.497,523.416 174.218,533.709 174.173,535.234 174.979,536.238 175.737,535.848 175.851,536.124 176.003,536.197 
			176.36,535.848 176.953,536.452 176.766,536.568 176.693,536.755 177.223,537.779 177.831,537.702 180.837,535.062 
			182.802,536.249 183.054,536.842 182.648,538.008 182.971,538.216 183.758,540.48 188.313,541.299 189.854,543.54 
			194.485,538.999 194.789,539.217 197.536,534.279 197.44,533.379 198.903,531.527 198.768,531.167 199.05,530.725 199.05,529.741 
			196.389,528.734 195.398,529.58 192.122,529.182 191.283,527.969 191.316,527.372 191.479,527.146 192.668,526.721 
			192.883,525.947 193.104,525.783 193.104,525.604 190.612,525.947 190.659,525.011 		"/>
	</g>
	<g>
		<polygon fill="#B3B4B7" points="213.463,520.402 213.396,520.061 207.1,520.977 206.687,521.977 207.738,522.82 207.487,523.062 
			207.295,524.203 217.738,527.506 217.802,525.604 218.408,526.197 218.559,526.197 217.692,524.033 216.724,523.812 
			217.117,523.646 216.957,522.747 214.898,521.027 214.988,520.645 214.85,520.486 214.707,520.602 214.749,521.027 
			214.225,521.641 214.073,521.541 214.155,521.027 		"/>
	</g>
	<g>
		<polygon fill="#B3B4B7" points="152.855,560.752 152.938,560.922 154.2,560.305 156.593,561.207 157.131,560.883 157.151,560.264 
			155.457,560.105 153.881,557.977 153.789,557.994 153.167,559.04 153.063,558.893 152.712,559.225 152.954,559.434 
			152.726,560.105 152.863,560.105 152.726,560.316 		"/>
	</g>
	<g>
		<path fill="#B3B4B7" d="M302.682,501.493l0.269,0.085l0.736,0.911l0.295,0.018l0.117,0.084l-0.141,0.32l-0.057-0.003l-0.328,1.138
			l-0.739,0.474l0.472,1.797l0.33-1.252l0.372-0.317l0.509,0.153l-0.451,0.996l0.451,0.215l1.675-0.721l0.896,2.471l0.752,0.541
			l0.452,4.084l0.496,0.406l0.163-0.218l1.344,1.544l-0.16,6.672l-2.036,0.818l0.063,0.104l0.32-0.172l0.279,0.402l-0.279,3.168
			l0.954,1.035l-0.196,0.324l0.152,0.216l0.367-1.005l0.256-0.178l-0.399,0.027l-0.071,0.152l-0.153-0.18l0.611-0.438l1.351,0.441
			l0.667,1.01l-0.792,2.928l0.454-0.593h0.154l-0.89,1.73l-1.018-1.083l-0.299-0.055l0.218,5.125l0.167,0.212l-1.723,3.197
			l0.343,1.524l-0.607,0.961l0.178,0.554l0.779,0.595l-0.034,0.434l0.369,0.627l-1.348,2.039l0.19,0.66l0.414,0.178l0.241,0.912
			l0.134,0.096l-0.065-0.278l0.14-0.045l0.366,0.323l0.153,1.367l0.265-0.192l0.632,1.271l0.483-0.302l0.304,0.212l-0.304,0.586
			l0.888,0.334l0.175-0.156h0.168l0.453,2.742l0.517-0.123l0.26,1.194l-0.335,0.483v0.195L314,554.53l-0.178,0.534l0.138,0.195
			l0.319-0.195l-0.078-0.58l0.955-0.961l0.997-0.153l1.47,1.289v-0.585l1.059,0.796l3.368-3.343l0.233,0.164l0.24-0.164h-0.166
			l0.176-4.846l1.174-1.347l0.017-0.353l-0.108-0.153l-0.804,0.054l-0.022,0.027l-0.374-0.378l0.107-0.446l-0.295-0.131l0.032-0.098
			l0.552,0.051l0.556,0.548l0.202-0.157l2.07,1.754l1.118-1.17l1.532,0.41l0.155-0.214l3.353,2.769l0.841-0.32l0.691,0.32
			l-0.106,0.369l0.256,0.198l0.094-0.582l0.783-0.421l0.492-1.359l-0.323-0.517l0.367-1.744l1.167-0.88v-0.176l-0.689-0.663
			l0.918-4.521l-0.365-0.514l1.522-10.253l-0.305-0.216v-0.178h0.151l0.154-1.382l0.392-0.145l0.029-0.45l-0.134-0.003l-0.287,0.187
			l0.789-4.341l-1.496-1.384l-0.679-4.376l1.732-2.437l0.826-0.317l1.713-4.435l-0.991-1.528l-0.453-0.153l-2.038-6.258
			l-0.027,0.324l-0.24-0.28l0.085-0.267l0.284-0.143l0.341,0.088l-0.195-0.552l0.954-0.442l-0.759-0.32l-0.151-0.281l-0.248,0.193
			l-0.194,0.017l-0.164-0.521l-0.924-0.51V496.5l0.381-0.158l0.236-0.463l-0.435-0.091l-1.099,0.51l-0.757-0.419l-0.602,0.158
			l-0.168-0.344l0.182-0.029l-0.031-0.043l0.012-0.145l1.323-0.017l-0.107-0.405l0.468-1.382l0.374-0.198l1.044,0.338l0.253-0.338
			l-1.653-0.533l-0.338,0.332l-0.165-0.045l-0.136-0.157l-0.041,0.206l-0.109-0.004l0.03-0.74l-0.244-0.067l-0.411,0.188
			l0.167,0.417h-0.455l0.607-2.222l0.153,0.418l0.456-1.223l-0.077-0.056l-0.025,0.002l-0.051-0.146h-0.15l-0.15,0.15l-0.475-0.352
			l0.167-0.222l-0.185-0.274l-0.351,0.274l-0.871-0.167l-0.278,0.167l0.306,0.423l-0.608,1.004l-0.128-0.985l0.128-0.22
			l-0.758-0.804l0.299-0.423v-0.182l-0.758-0.198v0.198l-1.175-0.916l-0.051,0.718l-0.456-0.406l-0.609,0.185v-0.786h-0.15
			l-0.085,0.651l0.085,0.135l-0.241-0.207l-0.212-1.399l-0.442,0.022l-0.169-0.409l-1.326,0.585l-0.645,2.65l-0.144-0.218
			l-5.654,4.013l0.105,0.071l0.046,0.146l-2.748,3.008l-1.228-0.2l-4.632,2.818l-4.962-1.199l-1.081-1.648l0.157-0.976l-0.167-0.224
			l-0.364-0.03l-0.067-0.345h-0.162l-0.517,1.383l0.679,0.4v1.439L302.682,501.493z M311.676,531.458l-0.647-0.688l1.266,0.543
			L311.676,531.458z"/>
	</g>
	<g>
		<polygon fill="#B3B4B7" points="305.294,492.268 307.104,491.648 307.377,491.02 306.965,489.846 306.427,490.463 
			305.888,490.447 305.835,491.5 305.508,491.648 304.366,493.673 305.19,493.734 		"/>
	</g>
	<g>
		<polygon fill="#B3B4B7" points="149.271,554.587 149.979,555.064 150.128,554.711 150.5,554.587 150.875,554.707 151.042,555.064 
			151.262,555.01 151.357,555.064 151.839,554.936 153.014,555.82 154.093,553.494 154.396,553.863 157.685,550.21 158.053,550.184 
			157.56,548.668 157.677,548.415 156.141,547.646 155.508,547.752 155.306,548.025 153.167,548.802 152.917,548.643 
			152.472,548.98 152.269,548.802 152.129,548.802 150.709,550.066 150.89,551.936 150.14,551.982 149.979,552.134 149.715,551.979 
			149.053,552.325 149.256,552.67 148.915,553.771 		"/>
	</g>
	<g>
		<polyline fill="#B3B4B7" points="363.006,611.925 362.837,612.345 363.132,612.602 363.434,612.551 364.512,610.932 
			362.701,609.304 349.084,608.263 348.065,605.497 349.025,604.555 349.178,604.95 349.313,604.615 348.888,603.794 347.2,603.664 
			347.04,603.209 348.148,602.673 348.765,602.752 348.888,603.209 349.837,602.658 349.814,602.298 345.876,600.812 
			345.52,600.259 341.241,600.345 340.177,601.12 340.177,601.295 341.103,601.12 342.517,601.694 342.532,602.15 341.518,603.447 
			339.912,603.312 339.116,601.692 341.111,600.08 341.052,598.477 338.927,598.341 338.509,598.018 334.694,599.271 
			334.243,599.013 331.798,600.21 331.27,599.952 310.771,610.269 304.896,608.778 297.672,611.78 294.67,610.665 295.062,609.874 
			294.688,609.514 295.227,607.79 294.389,608.533 293.317,608.635 292.469,607.982 291.559,608.155 288.367,606.09 287.61,606.448 
			286.466,606.181 286.055,605.338 284.937,605.69 284.091,605.312 283.581,605.688 282.42,605.123 281.508,605.312 
			281.508,605.484 283.151,607.188 282.785,608.404 280.958,609.977 274.79,610.327 274.802,609.874 268.886,608.229 
			268.562,608.358 267.967,606.845 267.392,606.469 267.333,605.984 264.473,605.034 260.886,607.64 260.94,609.117 260.47,609.798 
			245.799,614.22 245.199,615.649 239.75,617.488 234.995,615.448 234.872,615.014 235.315,613.668 233.631,613.291 
			233.193,612.708 232.397,612.628 231.869,612.052 193.562,612.811 193.186,614.329 191.618,614.766 187.993,612.715 
			179.626,618.775 175.25,618.699 174.568,617.742 119.937,640.779 115.433,639.854 115.007,639.165 115.143,638.796 
			115.065,638.512 114.41,638.185 114.305,637.872 114.029,637.7 111.574,638.339 111.244,638.136 111.118,638.171 111.14,638.64 
			111.195,638.713 109.752,641.51 108.944,641.424 108.302,642.515 106.38,642.833 105.963,642.188 103.953,641.344 101.78,643.037 
			101.542,642.693 73.154,659.963 73.017,659.804 72.854,659.761 72.351,659.945 68.032,658.325 64.775,659.761 57.762,655.692 
			57.658,655.904 60.663,659.221 58.262,658.81 57.172,657.661 57.105,655.569 57.309,655.319 55.883,652.241 56.122,650.624 
			56.023,650.402 55.763,650.261 55.551,650.345 55.445,650.571 55.486,650.856 53.346,654.564 52.435,654.395 47.01,657.095 
			38.907,654.719 38.051,656.448 35.741,656.75 35.22,656.43 34.612,655.135 25.09,658.297 9.107,651.046 4.423,643.761 
			3.802,643.761 3.116,638.925 4.089,638.158 4.283,637.576 3.7,637.875 2.436,637.22 0.613,637.388 -2.743,640.019 -3.646,639.638 
			-4.564,639.83 -4.845,639.694 -6.529,640.825 -9.616,640.7 -17.474,676.149 365.132,675.408 365.327,674.56 365.661,674.229 
			379.295,671.899 375.496,670.781 374.812,669.032 375.195,668.677 374.889,668.435 372.219,668.356 367.973,625.885 
			381.792,610.78 380.052,606.743 380.34,606.12 380.162,605.382 379.771,605.188 376.85,606.259 376.646,606.544 376.715,607.225 
			369.395,611.402 368.275,613.97 365.751,615.181 363.904,614.565 362.837,612.708 		"/>
	</g>
	<g>
		<polygon fill="#B3B4B7" points="380.162,676.259 380.37,675.836 379.896,675.694 		"/>
	</g>
	<g>
		<polygon fill="#B3B4B7" points="469.275,572.333 469.68,572.312 469.884,571.943 466.801,571.314 461.884,573.869 
			460.852,573.583 460.8,572.242 460.669,572.242 460.745,572.333 460.645,572.629 460.745,572.906 459.336,575.296 
			457.345,576.094 456.923,576.005 456.479,575.426 454.719,575.218 454.168,574.582 426.593,580.247 426.746,580.038 
			422.944,577.801 422.953,577.055 422.332,576.586 419.616,576.798 419.186,574.835 418.214,574.062 418.1,573.559 417.99,573.484 
			416.568,573.996 416.227,573.869 416.04,574.502 413.414,574.271 412.902,574.54 412.775,574.781 412.9,575.027 412.126,575.707 
			412.461,577.131 408.716,578.91 408.012,578.498 407.992,578.255 406.869,577.506 405.594,574.605 405.079,574.605 
			404.947,574.271 404.684,574.764 404.803,576.155 404.344,576.581 403.408,576.43 402.2,577.943 401.488,577.68 399.634,579.094 
			399.881,579.381 399.182,583.794 399.131,583.812 398.969,584.59 399.014,584.672 398.592,584.979 398.559,584.865 
			398.177,585.055 399.93,589.074 431.786,604.95 435.963,604.498 448.381,615.198 449.705,615.386 450.074,615.745 
			450.354,615.637 450.518,615.935 452.771,615.068 455,616.226 455.345,615.855 457.029,617.044 457.94,617.025 458.376,616.602 
			457.483,613.166 458.914,609.715 461.354,608.358 461.257,607.971 461.503,607.79 461.354,607.604 462.263,607.124 
			462.615,607.38 462.786,607.291 462.537,606.499 462.337,606.394 461.884,606.448 461.701,606.271 461.666,605.925 
			461.796,605.699 462.127,605.88 462.139,604.806 460.548,603.87 460.487,603.457 460.9,603.398 460.9,603.209 460.579,603.036 
			460.212,603.307 459.475,601.854 459.82,601.295 459.682,600.949 460.193,600.814 460.322,601.021 460.293,601.499 
			460.838,600.777 461.2,601.12 460.655,599.98 457.695,598.45 468.202,574.062 467.846,574.074 468.062,573.311 		"/>
	</g>
	<g>
		<polygon fill="#B3B4B7" points="355.014,4.607 355.729,4.755 351.029,1.429 350.725,1.508 350.721,2.613 350.405,2.728 
			350.24,1.926 341.701,5.726 340.633,5.142 340.348,4.166 338.741,4.339 336.987,6.236 340.011,8.373 339.438,8.526 337.598,7.306 
			337.598,7.548 340.177,9.442 339.416,9.442 340.633,9.976 340.412,10.413 339.255,10.751 340.409,11.841 341.395,11.801 
			341.624,11.975 341.864,16.258 343.735,17.278 343.9,20.135 343.837,20.108 343.869,20.583 344.65,20.713 344.76,20.661 
			343.997,18.223 344.269,17.879 345.066,18.515 346.279,18.223 346.699,18.409 347.658,20.108 345.655,21.96 346.045,22.166 
			347.341,21.96 348.571,23.042 348.756,21.902 356.16,24.384 357.641,23.114 360.156,23.042 362.1,15.814 361.381,14.384 
			361.545,13.692 361.911,13.585 362.582,14.265 362.749,14.265 359.712,8.409 357.445,7.644 357.277,8.045 357.404,8.373 
			357.077,8.576 356.725,8.564 356.514,8.315 356.635,7.818 360.699,6.559 358.146,1.611 357.727,1.633 357.864,3.534 
			357.404,2.999 357.84,4.972 357.559,5.409 356.861,4.796 356.795,5.142 357.738,6.358 355.363,7.493 355.113,7.427 354.677,8.295 
			353.887,8.333 353.518,7.68 354.592,6.375 354.995,6.272 355.066,5.712 354.658,5.276 354.759,4.812 		"/>
	</g>
	<g>
		<polygon fill="#B3B4B7" points="343.386,30.171 341.987,29.372 341.391,29.668 341.391,29.931 343.479,30.96 345.621,30.129 
			342.611,24.52 340.923,23.981 339.597,22.408 335.924,23.287 335.924,23.574 336.307,23.796 337.446,23.574 336.822,24.365 
			336.943,24.717 339.72,24.896 339.72,25.158 339.443,25.528 340.677,26.682 340.468,26.883 340.798,27.536 340.354,27.643 
			338.812,26.241 338.812,26.479 338.95,26.479 339.317,28.749 340.067,29.358 341.925,28.899 343.997,30.195 343.997,30.458 		"/>
	</g>
	<g>
		<polygon fill="#B3B4B7" points="268.377,81.108 268.488,80.888 268.637,80.822 268.692,80.731 268.193,80.718 267.958,80.907 
			267.902,81.089 268.239,81.267 		"/>
	</g>
	<g>
		<polygon fill="#B3B4B7" points="270.683,79.885 271.376,79.633 272.051,80.166 271.733,79.586 271.292,79.353 271.292,79.121 
			272.973,78.612 272.681,78.026 269.893,78.809 270.287,79.684 		"/>
	</g>
	<g>
		<polygon fill="#B3B4B7" points="265.471,80.894 266.267,81.161 266.392,80.924 266.572,80.883 265.349,80.339 265.042,80.397 
			265.08,80.646 		"/>
	</g>
	<g>
		<polygon fill="#B3B4B7" points="258.054,83.889 258.194,84.24 258.635,83.677 262.762,82.436 262.762,82.181 257.959,83.196 
			258.194,83.71 		"/>
	</g>
	<g>
		<polygon fill="#B3B4B7" points="405.557,1.55 405.59,1.725 405.71,1.854 406.158,1.279 405.996,-0.25 405.605,-0.653 
			405.198,-0.306 404.993,0.745 405.337,1.392 		"/>
	</g>
	<g>
		<polygon fill="#B3B4B7" points="456.999,25.425 457.848,24.365 457.766,23.804 458.679,21.83 458.454,20.901 458.76,20.373 
			450.074,13.522 448.252,21.456 452.52,24.218 		"/>
	</g>
	<g>
		<polygon fill="#B3B4B7" points="406.104,-11.324 409.498,-4.842 409.212,-4.361 408.938,-4.306 409.191,-3.737 410.156,-3.607 
			410.343,-2.83 411.167,-2.908 412.279,-0.785 409.342,2.972 410.592,8.106 410.307,7.86 410.098,7.859 410.156,8.619 
			409.344,9.25 408.794,9.279 407.938,8.612 407.788,8.619 407.102,9.976 407.191,10.663 409.409,10.449 409.99,9.976 
			420.05,11.841 422.877,10.243 423.832,10.417 424.91,9.267 436.674,10.479 441.327,4.288 437.504,-2.8 440.854,-11.795 
			441.027,-11.927 405.746,-11.927 405.814,-11.603 		"/>
	</g>
	<g>
		<polygon fill="#B3B4B7" points="376.605,65.209 377.502,62.889 376.838,62.579 375.111,63.576 374.785,64.436 375.48,64.944 
			375.841,64.966 376.166,64.694 376.064,64.171 376.188,63.854 376.374,63.856 376.337,65.214 		"/>
	</g>
	<g>
		<polygon fill="#B3B4B7" points="400.246,2.272 401.043,4.086 403.67,2.094 402.2,-1.834 401.527,-0.471 		"/>
	</g>
	<g>
		<polygon fill="#B3B4B7" points="378.307,61.597 378.432,61.597 380.128,59.509 378.307,60.54 378.184,60.822 		"/>
	</g>
	<g>
		<polygon fill="#B3B4B7" points="248.089,85.117 254.215,83.961 247.639,83.561 247.266,83.875 247.132,84.426 247.522,84.979 		
			"/>
	</g>
	<g>
		<path fill="#B3B4B7" d="M365.545-2.747l0.542,0.913l1.927,0.953l0.366,0.659l-3.503-0.293v0.293l3.509,1.307l1.282,1.998
			L369.5,4.385l-1.102,0.356l-0.17,0.814l0.114,0.214l0.647-0.36l0.802,0.252l1.192,3.094l-0.086,0.395l0.27,0.214l-0.193,0.934
			l-1.677,1.041l-0.918-0.028l0.458,1.33h0.342l0.418-0.8l0.891,0.076l0.169,0.192l-0.037,0.399l-0.79,0.267l1.972,1.946l0.011,1.16
			l0.985-0.287l-0.136,0.535l-0.273,0.249l-0.33-0.012l-0.324-0.241l0.5,1.63l1.324,0.228l-0.459-0.264v-0.266l2.741-0.533
			l1.541,0.695l0.306-0.162l3.189,1.062l1.016-1.053l0.5-0.009l0.34,0.317l-0.152,0.903l-0.325,0.348l0.375,0.512l1.267-0.095
			l0.484,0.404l0.057,0.311l-0.125,0.154l-1.92,0.354l2.444,2.913l0,0l0.312,0.791l0.916,2.114l-0.768,0.635l-0.238-0.271
			l-0.746,0.692l-0.998-0.768l-1.06,0.768v0.285l0.455,0.213l3.354,6.895l-0.156,1.026l0.764,0.309l-0.91,2.383l1.777,3.489
			l0.443-0.05l-0.186-4.764l4.659-5.548v-0.238l-1.644-2.06l-1.244,0.192l-1.838-2.132l-0.754,0.285l0.164,0.506l-0.283,0.222
			l-0.336-0.037l-0.457-0.69l0.315-2.109l0.444-0.287l-0.071-0.04l-0.058,0.004l-0.035-0.047l0.012-0.184l2.73,1.61l2.88-1.404
			l-0.813-2.586l-0.16-0.093l1.176-0.85l-0.064-1.279l-1.613-0.517l0.065,0.009l1.86-3.326l5.953-2.046l0.328-0.411l-0.675-2.863
			l-1.842-1.596l-1.741-0.225l-1.084-0.962l-0.592-2.06l5.011-5.158l0.923,0.525l0.494-0.173l2.555-3.881l-1.985-8.385l0.536-1.414
			h-11.807l0.705,6.979L388.628-9.8l-1.411-1.22l-0.393-0.033l-0.164,0.751l0.98,2.453l-0.361,1.118l-1.189,0.46l-0.941,2.261
			l0.31,0.929l-1.688,2.859l0.17-1.612l-0.91-1.176l-0.381,0.292l-1.321,0.028l-0.276-0.314l0.159-0.247l2.181-0.49l-0.533-1.888
			l-2.547,0.685l-0.36-0.122v-0.292l0.409-0.004l1.002-0.932l1.031,0.128l0.308-0.779l-1.524-3.027l0.506-0.5l0.711-0.041
			l-0.138,0.541l0.364,0.195l0.359-0.058l0.147-0.262l-0.269-0.416l0.861-1.414l-3.955,0.574l-0.408-0.387l-4.976-0.187l2.671,0.603
			l0.732,1.312l-0.729,2.64l-0.763-0.165l-0.996,0.761l-1.119-0.47l0.608,1.203l-0.524,2.057l-3.399,0.972l-0.204-0.21l-0.304,0.289
			l0.929,0.808l-0.569,0.327l-1.572-1.424l0.424-0.269l0.485,0.02v-0.267l-6.389,0.267v0.249l1.516,0.289L365.545-2.747z
			 M390.632,19.004l-0.161,0.838l0.155,0.139l-1.677-0.537l0.048-0.404l0.925-0.707l0.458,0.144L390.632,19.004z M388.062-2.635
			l1.19,0.238l0.45-0.658l0.311,3.077l-1.089-0.591l-0.138-0.362l0.09-0.088l0.691,0.234l-0.502-0.831l-0.373-0.122l-0.354,0.146
			l-0.066,0.634L387.12-0.12l-0.448-0.102L388.062-2.635z"/>
	</g>
	<g>
		<polygon fill="#B3B4B7" points="14.396,61.684 14.333,61.875 14.484,62.137 14.647,62.1 14.744,62.224 14.991,61.562 
			14.784,61.493 		"/>
	</g>
	<g>
		<polygon fill="#B3B4B7" points="23.777,96.228 24.087,96.03 24.094,95.943 24.939,96.255 27.719,94.32 27.816,94.358 
			27.879,94.323 27.958,93.511 31.865,89.849 30.106,89.319 29.781,89.768 28.3,90.013 27.599,87.797 26.883,87.393 26.831,87.087 
			26.666,86.2 25.599,85.514 20.118,86.505 21.801,94.407 22.044,94.38 22.843,95.05 22.865,95.163 24.017,94.153 24.253,94.311 
			23.638,96.176 		"/>
	</g>
	<g>
		<polygon fill="#B3B4B7" points="24.642,47.851 17.515,55.278 17.023,55.398 15.7,60.824 15.443,60.925 15.247,61.058 
			15.247,61.341 15.779,61.51 17.149,60.54 17.48,60.666 17.894,61.217 18.22,61.341 18.782,61.079 19.013,61.117 19.208,61.597 
			19.676,60.308 22.264,58.424 22.244,57.959 24.127,56.379 23.942,55.344 25.883,52.871 25.599,51.997 24.852,51.712 
			25.006,48.049 		"/>
	</g>
	<g>
		<polygon fill="#B3B4B7" points="18.892,89.178 18.236,89.219 17.977,89.065 17.383,89.597 17.768,90.506 18.752,90.586 
			20.102,92.199 20.286,92.107 20.399,91.708 19.977,90.99 		"/>
	</g>
	<g>
		<polygon fill="#B3B4B7" points="237.621,87.995 243.701,85.765 243.559,85.234 245.489,84.961 246.003,84.24 236.963,86.779 
			236.714,87.417 236.988,87.982 		"/>
	</g>
	<g>
		<polygon fill="#B3B4B7" points="100.622,179.729 100.702,179.541 100.649,179.333 100.433,179.135 100.15,179.121 99.572,180.131 
			99.08,180.335 99.08,180.573 100.903,180.834 100.903,180.573 100.433,180.097 100.433,179.876 		"/>
	</g>
	<g>
		<polygon fill="#B3B4B7" points="124.807,78.38 124.013,77.913 124.572,79.095 		"/>
	</g>
	<g>
		<polygon fill="#B3B4B7" points="124.827,79.633 124.572,79.095 124.22,80.166 		"/>
	</g>
	<g>
		<path fill="#B3B4B7" d="M-5.336,205.151l0.233,1.045l0.841,0.333l2.707-0.905l0.242-0.463l-0.138-1.078l1.471-0.586l4.939,3.545
			l0.166,1.2l1.202,1.173l1.147-1.905h0.924l0.923-1.598l-0.316-0.997l-1.228-0.236l0.911-0.472l0.104-0.785l0.633-0.413
			l0.186,0.013l-0.468-0.492v-0.215l0.282-0.377l-0.024-0.702l0.44-0.126l0.284,0.258l0.397,1.654l2.977-2.954l1.523-0.004
			l0.998-2.502l-0.177-0.709l1.535-0.74l0.157,0.022l0.305,0.95l0.128,0.001l0.183-0.183l-0.007-0.056l9.062-1.184l0.387,0.236
			l0.445,0.917l0.473,0.031l-0.095-0.693l0.4-0.278v-0.213h-0.624l0.169-0.261H27.74v-0.237l0.771-0.216l-0.501-0.377l-1.262,0.202
			l-0.377-0.538h1.369l0.275-0.639l-0.094-0.352l-0.322-0.219v-0.217l0.499-0.109l0.263-0.626l0.243,0.2l0.225,0.022l0.441-0.222
			l-0.708,1.458l0.576,1.437l1.35,0.196l-0.306,0.652l0.726,0.895l0.488,0.135l-0.137,0.454l0.83,0.495l1.6-0.949l3.821,3.813
			l0.332-0.369l2.859-0.104l0.535-3.329l0.975-0.421l0.161-0.774l0.704,0.416l0.267-0.189l0.265-1.048l0.371-0.134l0.243-0.97
			l-1.376-0.136l-0.157-0.576l0.155-0.505l1.378-0.447l-0.416-2.14l1.615-3.122l-0.761-2.314l0.073-0.076l1.264,2.004l0.876,0.148
			l1.611-0.716l0.798-1.296l2.331-0.588l0.655,0.211l5.296-1.719l9.499,5.908l0.018,1.321h0.138l0.546-1.039l-0.054-0.445
			l-0.56-0.186l-0.205-0.335l0.66-1.832l10.469,1.234l-0.048-0.518l0.775-0.957l-0.456-0.26l0.158-0.592l-0.151-0.273l-1.371-0.427
			l-0.473-0.858l-1.051,0.499l0.975-1.435l0.381,0.696l1.615,0.24l0.208,0.789l1.834-1.266l6.632,0.267l0.769-1.468l2.665-0.478
			v-0.219l-0.305-0.261l2.253-0.414l-0.129-0.9l-3.188-3.025v-0.216l7.305,4.816l0.29-0.272l0.027-1.055l-0.912-0.871l1.723-0.218
			l0.401,0.218l-0.753,1.689l0.45,0.509l0.591-0.069l0.79-2.129l2.266,0.263l-0.223,0.468l0.158,0.042l0.38-0.274l0.912,0.741v0.221
			l-0.937,0.488l-0.124,0.36l2.7,1.676l0.425-0.237l0.076-1.331l0.206-0.084l0.567,0.347l10.298-2.248l0.814,0.329l0.599-0.319
			l10.613,2.933l11.814-6.736l3.181,1.048l0.767-0.305l-0.296-2.278l9.75-7.088l-0.604-5.057l0.12-0.127l0.79,0.006l0.663-1.892
			l-0.546-0.328l-10.834,0.728l0.117-0.406l-0.921-1.227l-2.97-1.081l-0.292,0.081l-0.444,1.189l0.918,1.312l3.397,0.145
			l-3.637,0.244l-0.841-1.941l-0.475-0.017l-0.109,0.344l0.278,0.908l-2.824-0.243l-0.695-0.752l1.92-1.134l1.607,0.104l0.221-0.196
			l-0.303-0.848l-5.442-0.241l-0.178,0.504l-1.608,0.354l1.27-0.849l0.324-1.019l2.148-0.438l0.359,0.339l2.108-0.966l0.019,0.015
			l2.376,0.244l4.015-3.167l-0.297-0.289l-0.601,0.041l0.595-0.618l0.079-1.137l0.224-0.196l-0.138-1.975l-0.346-0.358l-3.77,1.825
			l-0.253-0.566l-1.125-0.413l2.068-0.756l0.982,0.268l0.843-0.49l0.296-1.245l2.005-1.524l0.057-0.682l1.487,2.387l5.111-2.433
			l0.231-1.324l-0.101,0.042l-0.4,0.595l-1.441-0.494l1.758-1.803l0.079-0.676l-0.446,0.269l-4.289-0.514l2.139-0.49l0.897,0.49
			l1.454-0.106l0.061-0.481l1.301,1.067l3.11-4.184l0.33,0.262l2.122-1.174l1.373-25.262l-15.078-7.3v0.249l1.062,0.274
			l-1.008,0.465l-6.313-1.431l-0.448,0.165l0.166,0.278l-4.143,1.505l-2.366,5.243l0.115,0.822l-0.95-1.065l-1.248-0.294
			l-0.865,0.359l-3.141-3.439l-2.119,0.106l-0.038-0.449l7.143-6.924l-2.235-11.802l-0.384-0.293l0.165-0.251l-0.841-0.535
			l-0.302-1.145L114.95,74.5l-4.953,1.37l-1.992-1.28l-1.289,0.338l-0.336,0.593l-0.754-0.51l1.989-1.177l1.286,0.148l0.774,0.697
			l6.315-0.973l4.791,4.114l1.768-0.767l1.464,0.86L116.9,62.889l1.234-2.289l1.972-1.091l-4.116-2.459l-0.371-1.544l-2.679-1.952
			l0.15-0.545l-2.936-6.229l-13.681-7.631l-0.327,1.28l-0.268,0.053l0.039-0.081l-0.204-0.467l-0.107-0.029l-0.052,0.226
			l-0.064,0.064l-0.371-0.091l-0.165-0.433l0.924-0.76l-0.622-1.574h0.457v-0.285l-1.52-0.788L89.32,22.49l-0.456-0.264
			l-2.428-15.99l-0.49-0.487l0.186-0.607l-0.623-0.535V4.339l0.307-0.246l-0.427-0.836l0.12-0.529l-1.997-1.155L82.73,1.795
			l-0.268-0.162V1.388h0.453l-0.47-0.89l-0.53-0.183l-0.322,0.47l-0.211,0.068l-7.15-11.12l-21.19-1.325l-0.264-0.335h-34.61
			l3.937,1.119l-0.539,0.368l-4.183-0.884l-0.252,0.116l-1.756-0.719l-1.448,0.33l-0.825,1.132l0.196,4.293l0.372,2.148
			l-1.323,1.896l2.442,2.15l-0.162,0.657l2.137,0.709l1.129,1.368l0.11,0.869l-0.468,0.714l0.811,0.273l0.733,1.625L9.475,23.639
			l1.365,4.425l-0.553,0.962L9.891,28.96l-1.872-4.645L7.81,24.887l-0.716,0.009L6.78,25.2l4.06,10.538l0.746,0.263l-0.094,0.56
			l0.262,0.491l-0.263,0.356l0.118,1.234l2.107,1.029l-1.585-4.983l-0.222-0.166l-0.3-1.652l2.107-2.173l10.833,7.085l0.53-0.761
			l-0.188-1.531l0.28-0.562l-0.316-0.56l0.235-1.398l-0.554-0.561l-0.677-0.11l-0.524-1.721l0.524-1.461l0.36,0.094l0.662,1.515
			l2.251,1.047l1.229-1.077l-0.195,1.547l1.919,2.048l0.87-0.153l-0.139-1.261l0.58-0.839l0.01,0.18l0.304,0.136l-0.132,1.57
			l0.287,0.214v0.288l4.874-2.127l-0.76-0.764l0.455-0.288l-0.151-0.551l0.609-0.766l0.152,0.527l-0.221-0.233l-0.248,0.472
			l0.25,0.401l0.169,0.028l0.2-0.142l-0.101-0.086l-0.049-0.201l1.574,0.253l0.482-0.815l2.652,0.111l0.369-0.215l0.251-4.319
			l0.988,0.706l0.377-0.177l-0.139-0.288l10.977,0.526v0.289l-0.423-0.171l-1.11,0.431v0.266h1.533l-2.243,0.842l-2.022-0.842
			l-2.306,1.322l1.392,0.789l-1.151,0.526L47.388,29.3l-0.434,0.105L45.27,33.35l0.205,0.653l-0.826,1.735l-0.726,0.365
			l-2.967,8.161l7.282,12.226l1.658-0.408l0.204-2.09l0.348-0.202l-0.173,3.157l-0.739,0.233v0.26l0.339,0.289l-0.174,1.78
			l0.479,0.431l0.657,0.107l0.991,1.294l0.002-1.371l1.872-2.347l0.262-2.279l0.302-0.146l0.249,0.166l0.362,0.808l-0.204,0.385
			l0.736,1.403l1.423-0.337l2.529-2.72l0.088-0.572h0.152l-0.323,1.397l-0.975,0.678l1.298,2.609l-2.722,3.438l0.506,1.209
			l1.454-0.516l-0.098,0.61L57.97,64.55l0.249,0.425l-0.681,0.81l-0.457-0.296l-2.924,1.144l0.426,6.681l2.726,0.392l-4.515,6.638
			l3.935,7.754l2.786,1.076l0.384-0.2l0.156-0.541l1.682-0.404l-0.396,0.339l-0.19,0.027l-0.186-0.09L60.54,89.12l0.123,0.477
			l-1.293,0.484l-0.697-0.232l-0.166,0.103l-0.123,0.405l-1.332-0.27l-2.781-5.108l-3.114,1.156l-0.241,0.37l2.189,5.871
			l-5.39-4.347l-8.584,2.409l-1.654-1.354l-0.433,0.235l-1.518-0.762l1.049,1.8l-10.887,6.948l-0.154-0.486l-0.148-0.079
			l-0.147,0.152l-0.387,3.111l-8.832,8.064l0.063,0.387l-0.23,0.339l0.342,0.222l0.954-0.722h1.739l0.705-0.499l1.472,0.962
			l0.43-0.033l0.446-0.43l-0.27-0.394l0.22-0.891l0.353-0.22l-0.139-0.249l8.077-2.786l0.176,0.405l0.228,0.056l0.508-0.461
			l0.138,0.204l0.164,0.07l-1.463,1.102l0.276,2.151l-0.64,0.387l-0.064,0.298l2.228,3.32l1.347-0.465l-2.978,3.862l-0.073,0.906
			l1.609,2.243l2.353-0.519v0.27l-1.533,0.995l-0.715-0.306l-0.18,0.037l-9.912,14.196l-3.857,0.413l0.046,1.067l-0.735-0.582
			l-0.305,0.006l-1.707,2.053l-0.912,0.271l0.128,1.079l-0.203,0.153l-1.759-0.493l0.15,0.493l-3.477-0.415l-0.247,0.188
			l-0.033,0.24l0.265,0.232v0.221H8.688l-0.068,0.931l-4.677,2.341l0.177,0.684l-0.27,0.24l0.118,0.542l-0.304,0.224l3.259-0.101
			l0.399,0.341l0.152-0.24l0.653,3.068l-3.096,1.606l1.53,0.977l-0.047,0.611l0.315,0.013l0.259-0.307l-0.223-0.585l5.701-0.154
			l0.413-0.761l-0.315-0.284l0.022-0.852l-0.63-0.151l2.43-0.733v0.267l-0.846,0.215l-0.37,0.727l0.126,0.868l0.633,0.637v0.221
			l-0.293-0.159l-4.125,0.917l0.152,0.508l-1.707-0.245l-0.142,0.245l0.428,0.493l1.1,0.281l0.321,0.692l-0.202,0.378l2.33,1.085
			l1.724-1.699l2.32-0.031l0.538-0.511l0.502,0.331l0.511-1.49l0.202-0.037l0.05-0.886l5.597-1.071l-0.508-0.68l0.077-0.25
			l0.431-0.073l0.38,0.436l0.227,0.056l0.759-0.985l0.155,0.571l-0.306,0.658l0.55,0.681l0.817,0.076l-0.214,0.317l-1.318-0.072
			l1.421,1.764l2.233-0.077l0.322-0.223l2.081,0.775l0.7-0.485l0.109,0.067l-0.463,1.29l-2.885,0.57l-0.304-0.263v-0.222h0.141
			l-0.141-0.267l-0.467,0.752l-0.761,0.248l0.259,1.385l-0.424,0.322l0.165,0.484l1.99,0.597l0.082-0.372l0.678,0.242l0.994-0.836
			l1.144,0.369l0.379-0.484l0.47,0.216l0.121,0.325l0.234-0.228l-0.005-0.094h0.928l-0.563-0.995l0.023-0.333l3.497-0.764
			l2.216,4.039l-0.126,0.046l-0.04,0.062l1.2,1.208l0.719-0.169l2.351,2.532l8.287,0.267l0.549-1.218l-0.279-0.761l4.403-3.914
			l0.411,0.616l12.316-7.788l0.099-0.664l0.324,0.315l-11.956,13.527l-0.711-0.146l-0.483,0.506l0.336,0.355l-0.727,1.86
			l-0.225,0.099l-0.432-0.133l0.38,3.888l-0.38,0.733l-0.304-0.241l0.304-0.505l-0.167-0.244l-26.668,0.99v0.221l0.412,0.472
			l-0.11,0.757h-0.91l1.06,2.654l-2.883,2.814l-4.198-0.647l-0.527,7.224l-3.958,4.812l-0.307-0.088l-0.223,0.168l0.061,0.896
			l-0.963,1.719l-2.847,0.212l-0.028,1.2l1.71,1.425l-1.682-0.478l-0.291,0.258l-0.302-1.47l-0.622,0.497h-0.457l-1.213,4.165
			l-2.302,1.016l0.086,1.715l-6.409,5.408l-1.134-0.884l-4.35,2.021l-0.545,1l0.159,1.022l0.035-0.003l0.131,0.474l-0.095,0.139
			L-5.336,205.151z"/>
	</g>
	<g>
		<polygon fill="#B3B4B7" points="86.877,185.143 88.478,184.642 93.333,187.781 95.796,187.053 96.064,185.396 98.156,184.186 
			98.156,183.927 97.699,183.208 97.639,183.183 97.447,183.231 97.381,183.208 97.381,182.731 92.962,181.108 90.08,182.968 
			90.232,182.49 		"/>
	</g>
	<g>
		<polygon fill="#B3B4B7" points="231.556,92.7 234.722,89.849 235.315,89.849 235.315,89.597 234.198,89.44 230.296,92.888 
			230.989,93.199 		"/>
	</g>
	<g>
		<polygon fill="#B3B4B7" points="227.693,101.263 228.44,101.043 231.051,97.182 230.594,97.182 230.594,96.956 230.987,96.666 
			230.444,94.911 230.587,94.56 230.444,94.153 229.747,94.116 226.482,100.003 226.915,100.941 		"/>
	</g>
	<g>
		<polygon fill="#B3B4B7" points="204.533,149.101 205.527,149.041 206.207,148.264 207.847,149.126 208.556,150.345 
			209.864,150.992 212.364,150.53 212.952,149.913 212.909,149.334 206.978,146.576 203.838,147.378 203.773,148.533 
			204.075,148.963 		"/>
	</g>
	<g>
		<polygon fill="#B3B4B7" points="2.586,4.607 2.892,6.747 5.747,8.494 7.959,8.427 8.842,7.818 8.508,6.049 9.005,5.699 
			7.914,5.142 7.792,4.621 8.535,4.339 8.483,3.458 7.521,2.457 7.777,1.926 6.561,-1.592 3.968,-2.69 4.12,-2.128 2.681,-1.376 
			1.926,2.53 2.892,4.093 		"/>
	</g>
	<g>
		<polygon fill="#B3B4B7" points="17.443,150.804 17.651,150.766 17.738,150.571 17.084,150.314 17.043,150.455 17.187,150.682 
			17.304,150.648 		"/>
	</g>
	<g>
		<polygon fill="#B3B4B7" points="469.635,409.574 469.516,409.554 469.431,409.604 468.605,408.538 468.532,408.538 
			468.504,408.75 468.417,408.8 468.086,408.482 468.001,408.523 468.716,409.686 468.922,409.693 469.416,410.385 470.052,410.613 
			470.192,410.534 469.807,410.03 469.835,409.841 		"/>
	</g>
	<g>
		<polygon fill="#B3B4B7" points="473.708,412.571 473.749,412.812 474.581,413.718 474.691,413.723 474.466,412.794 
			474.098,412.35 		"/>
	</g>
	<g>
		<polygon fill="#B3B4B7" points="518.655,442.012 519.999,442.959 520.231,442.579 518.726,441.352 518.471,441.377 
			518.779,441.951 518.673,441.961 		"/>
	</g>
	<g>
		<polygon fill="#B3B4B7" points="480.177,420.852 480.763,420.852 480.911,420.669 481.283,420.741 481.408,420.646 
			481.296,420.23 480.942,419.949 480.678,419.963 480.604,420.039 480.678,420.23 480.419,420.204 480.321,420.29 480.324,420.398 
			480.127,420.729 		"/>
	</g>
	<g>
		<polygon fill="#B3B4B7" points="482.736,418.809 482.49,418.757 482.329,418.822 482.323,418.991 485.867,419.167 
			485.967,418.984 483.498,418.295 483.137,418.434 483.232,418.689 483.037,418.843 		"/>
	</g>
	<g>
		<polygon fill="#B3B4B7" points="317.784,45.444 318.032,45.875 319.458,45.965 320.989,44.401 321.022,43.902 321.126,43.855 
			319.275,43.645 317.784,44.684 318.067,45.095 318.03,45.312 		"/>
	</g>
	<g>
		<polygon fill="#B3B4B7" points="310.015,8.907 309.691,8.59 309.24,8.667 308.871,8.467 308.788,7.306 308.035,7.505 
			307.81,8.062 309.752,12.332 310.305,12.109 		"/>
	</g>
	<g>
		<polygon fill="#B3B4B7" points="458.044,394.203 456.065,393.258 456.059,394.145 456.673,394.535 456.923,394.527 
			457.332,394.12 457.84,394.354 457.977,394.654 458.432,394.451 		"/>
	</g>
	<g>
		<polygon fill="#B3B4B7" points="397.609,357.656 397.002,357.997 397.225,358.253 397.96,357.523 397.865,357.387 		"/>
	</g>
	<g>
		<polygon fill="#B3B4B7" points="427.517,375.799 427.626,375.818 427.821,375.299 427.916,375.352 428.195,375.333 
			428.235,375.253 428.109,374.932 427.376,374.605 427.256,374.662 427.286,374.784 427.578,374.998 427.592,375.168 
			427.474,375.382 		"/>
	</g>
	<g>
		<polygon fill="#B3B4B7" points="612.803,660.793 611.535,661.459 611.068,662.5 611.143,662.775 612.976,661.177 612.946,660.882 
					"/>
	</g>
	<g>
		<polygon fill="#B3B4B7" points="609.318,661.012 609.689,660.524 609.686,660.419 609.593,660.429 609.545,660.416 
			609.566,660.329 609.525,660.295 609.411,660.332 609.196,660.154 608.381,660.479 608.175,660.799 608.697,661.399 
			608.742,661.172 		"/>
	</g>
	<g>
		<polygon fill="#B3B4B7" points="609.575,662.409 608.697,661.399 608.676,661.504 		"/>
	</g>
	<g>
		<polygon fill="#B3B4B7" points="611.677,663.521 611.677,663.729 611.979,663.729 612.725,662.167 612.521,662.199 		"/>
	</g>
	<g>
		<polygon fill="#B3B4B7" points="433.225,501.059 433.243,500.966 433.271,500.966 433.374,501.173 433.518,501.246 
			433.441,500.945 433.712,500.863 433.625,500.665 433.922,500.589 433.531,500.279 433.227,500.52 433.282,500.595 
			433.161,501.05 		"/>
	</g>
	<g>
		<path fill="#B3B4B7" d="M151.26,195.936l-0.216,3.696l2.558,2.172l0.027,1.129l-3.107-1.712l-3.567,4.566l0.001,0l-0.721,0.913
			l-4.762,3.809l-8.555,2.345l-5.621,2.147l-4.578,2.587l-2.617,4.095l-0.483,3.146l2.309,1.626l3.082,0.542l-0.018,0.083
			l-0.291,0.057l-2.636,0.531l-4.251,2.579l-4.808,2.019l-3.914-2.033l-9.312-1.111l-2.184-1.054l-3.331,0.923l-0.37,0.106
			l-0.749-0.618l-0.124-1.872l-3.037-3.379l0.849-2.261l1.25-0.033l-1.201-2.995l-4.879-0.11l-2.565,1.856l-2.982-1.825l-4.237-1.13
			l-0.422,1.141l2.438,1.836l0.062,2.469l-0.878,1.133l0.575,0.541l0.35,0.224l-0.182,2.135l0.843,1.771l2.682,2.832l0.627,2.564
			l0.582,0.773L83,238.182l1.428,2.65l0.078,3.133l-1.393,2.935l1.676,3.986l2.513,0.492l0.247,1.124l-1.218,0.586l-2.139,0.052
			v-0.001l-5.563,0.142l-2.077-1.184l1.314-1.823l-2.722-0.042l-1.057,1.246l-0.212,0.229l-0.493,0.592l-2.163-0.178l-0.187,1.24
			l-1.356,0.142l-0.147-1.554l-1.152-0.312l-0.774,0.915l-0.056-2.237l-1.334,1.037l-2.039-0.29l-0.654,1.36l-4.129,2.343
			l0.028,1.127l-0.906,0.022l-0.051-2.021l-2.401-1.049l0.167-2.029l-2.178-1.503l-0.047-1.897l-1.603-0.3l0.062-1.792l-1.234-0.077
			l0.08-1.236l-2.265,0.057l-0.316,1.119l-0.71-1.542l-1.012,0.813l-2.584,0.388l-0.561,0.802l-1.846-1.296l-2.333,1.634
			l0.936,1.194l-1.597,2.135l0.005,0.305l-0.006-0.307l-1.894-1.026l-3.167,0.188l0.057,2.236l-0.907,0.023l-0.242-0.998
			l-1.354,0.25l-0.3-2.57l-1.197,1.373l-1.373-0.52l-2.496,0.294l-0.423,1.12l-1.46,0.378l-0.266-1.229l-2.584,0.404l0.019,0.788
			l-1.809,0.153l-0.811-0.535l-0.896,0.471l-0.199,1.347l-3.042,0.185l-1.547,1.938l1.385,0.967l-1.775,1.512l0.587,0.99
			l-0.392,2.462l1.819,0.187l0.67-0.699l0.356,0.44l4.28-0.664l2.777-2.076l-2.425,2.408l0.245,1.105l2.241-1.059l-0.415,1.585
			l2.504,0.044l-0.092,0.666l-2.721-0.041l-2.171-0.5l-2.64-1.17l-1.533,1.829l2.048,0.63l-0.034,3.009l0.551-0.462l1.204-1.928
			L22,264.107l1.148,0.202l0.497,1.78l-0.658,1.234l-1.471-0.071l-1.358,0.034l-2.254,0.398l-3.855,0.311l-0.754,1.04l1.141,0.634
			l1.248-0.139l1.037,0.868l1.465-0.144l2.458,2.626l0.635,2.883l-0.758,1.595l2.387,0.388l2.604-0.192l0.538-1.016l-1.049-1.316
			l1.024,0.421l1.032-0.133l1.836,0.956l1.118-0.242l-0.046-1.916l0.5,1.904l1.527,2.307l3.177,0.136l0.11-0.666l0.807,1.091
			l1.947,0.291l1.467-0.037l0.095,0.126l1.319,1.97l1.822,0.403l0.646-1.019l-0.298,1.224l1.595,0.642l2.098,1.954l0.703,1.217
			l-0.18,1.455l-0.2,1.474l1.385,0.969l0.668-0.806l-0.711-0.878l-0.051-2.003l1.367,0.287l0.42-1.356l0.365,0.781l1.499,1.199
			l0.661-1.146l-0.729-1.539l1.293,1.65l1.57-0.273l-0.345-0.781l1.476,0.306l1.16,1.314l-0.54,0.909l-1.479-0.412l-1.724-0.744
			l-0.878,1.152l1.371,0.411l1.054,1.532l6.109-0.709l1.586,0.3l-0.763,0.683l0.134,1.016l0.222,0.157h0l0.59,0.38l-2.109,1.95
			l0.463,0.437l0.476,0.882l-1.101,1.604l1.267,0.63l2.167,0.394l0.195-0.899l1.291,1.543l2.046-0.053l1.429-1.61l1.922-0.048
			l-2.007,1.052l0.139,1.125l0.478,0.992l-1.218,1.266l-1.359,0.035l0.277,1.676l2.471-0.51l3.021,2.611l-0.142,0.182l0.002,0.002
			l-3.26,4.379l-0.043,2.688l3.582,3.259l-0.084,1.005l1.016-0.025l2.317,6.334l2.292,1.055l2.322,2.178l2.609-0.066l1.069,2.213
			l2.501-0.062l1.167,1.652l2.53,1.172l0.035-0.78l0.735-0.146l0.181,0.125l0.62,0.53l-1.775,1.495l-0.19,1.133l-1.698,0.257
			l-0.931-0.979l-2.271-0.157l-0.264-1.122l-1.381-0.861l-1.904,0.728l1.295,1.761l1.577-0.039l1.62,0.96l1.275,0.971l2.371-0.168
			l0.478,0.988l1.586,0.303l0.619,1.544l1.025,0.419l-0.078,1.239l-1.363-0.181l-0.436,0.674l1.051,1.422l-0.501,2.485l-1.361-0.074
			l0.147,1.554l0.359,0.55l-1.594,0.038l-0.241-0.886l0.981-1.372l-0.363-0.759l-0.574-0.436l-0.304-2.677l-1.926-0.186
			l-1.624-1.857l-0.137,3.925l2.658,1.834l0.271,2.123l0.513,2.442l0.297,2.462l1.357-0.158l2.421,1.858l1.618,0.85l0.136,1.109
			l1.258,0.199l3.715,3.489l0.947,3.844h-0.001l0.181,0.714l0.879,3.221l0.298,3.232l-0.54,0.909l-0.628-2.672L99.208,360
			l-5.91-5.007l0.067-2.348l-1.143-0.081l-1.743,2.734l-0.328,9.406l-1.228,9.543l-0.847,7.398l-0.061,1.92l0.732-2.598l1.525-2.062
			l2.316,1.965l0.251,0.657l0.694,0.877l-2.825,0.196l-0.469-0.67l-1.113,0.478l-0.192,1.688l-1.208,1.715l0.064,2.56l-0.016,0.106
			h-0.001l-1.744,10.684l-2.362,9.91l-0.702,3.833l-0.602,2.699l-1.613,2.904l-0.449,0.838l-2.531,3.196l-2.011,0.84l-1.462,0.25
			l0.024,0.95l-0.019-0.008l-0.115-0.286l-0.107-0.065l-0.386,0.204l-11.359-3.534l-0.402,1.306l-0.536-1.737l-1.187-0.855
			l-3.966,0.66v0.188h0.154v0.229l-1.987,1.252l0.47,1.686l-1.808-1.398l-0.509,0.39l-1.436-0.369l-0.51-0.586l-5.254-1.024
			l-0.241-0.359l-0.312,0.561l-0.46-0.473l-0.439-0.088l0.705-0.713l0.83,0.266l0.091-0.04l0.009-0.456l-0.189-0.266l-2.661-0.896
			l0.042-0.524l-3.878,1.148l0.165,0.23l-0.129,0.035l-0.037,0.152l-0.595-0.188l0.329,0.896l-0.094,0.123l-0.206-0.065
			l-0.207-0.301l-0.196-0.065l-0.864,0.827l-0.447,0.021l-0.006-0.135l0.033-0.032l0.14-0.021l-0.456-0.433l1.67-1.046l-1.279-0.542
			l-1.317,0.54l-0.175-0.169l-0.28,0.171l-0.367-0.104l-1.151,0.728v0.192l0.305,0.229l-0.346,0.063l-0.11,0.143l-0.697-0.434
			l-0.183,0.062l-0.054,0.29l-7.471,1.26l-0.446,0.49l-1.185-0.581l-0.628,0.119l-0.466,0.462L11.9,419.021l-0.76,0.396
			l-1.556-0.473l-0.266,0.171l-0.235-0.387l-6.429-1.754l-0.184,0.363l-1.088,0.618l-0.153-0.207l0.671-0.858l-0.07-0.424
			l-6.309-0.185l-0.428-0.662l-0.114,0.435h-0.152l-0.416-0.641l-2.928,216.369l2.66,1.711l0.53-0.198l2.125,1.503l3.233-1.052
			l0.37-0.519l-0.18-1.062l0.111-0.198l-0.167-0.75l0.379-0.847l1.306,0.457l0.548,1.28l0.198-0.535h-0.15l4.095-8.066l15.268-5.403
			l1.384-2.484l34.275-0.821l0.842,0.944l0.206-0.061l0.203-0.26l0.198-0.06l1.298,0.76l1.473-0.154l2.522-3.294l2.256-0.517
			l1.075,0.379l2.086-0.495l3.015,2.69l1.266,0.196l14.048-19.525l0.402,0.15l0.19-0.147l0.388-1.37l5.511-2.449l2.795,0.966
			l-0.3-0.22l-0.067-0.271l0.369-0.484l7.757-0.781l0.196,0.133l0.899-0.556l0.09-0.334l-0.153-0.323l-0.408-0.238l-0.186,0.343
			l-1.672-0.771l-1.029-2.117l0.183-0.381l0.79-0.392l0.546-1.479l0.607,0.754l2.826-10.899l2.09-0.492l0.255-0.332l0.138-3.532
			l0.788,0.049l0.084-0.43l9.13-5.681l0.117-1.207l0.578-0.715l2.433-0.298l-0.165-0.399l1.009-1.065l0.588-0.103l1.05-1.25
			l0.792-0.121l0.154-0.221l-0.154-0.793l-0.221,0.062l-0.775-0.794L125.9,557l-6.476-3.783l-3.281-6.25l19.117-42.441l2.506-0.655
			l0.48,0.25l-1.799,1.336l-0.797-0.142l0.389,0.715l0.559-0.021l5.07-4.161l0.07-0.23l-2.562-2.06l0.071,0.196l-0.104,0.145
			l-1.502-0.582l6.905-7.444l2.76-0.586l0.697,0.381l46.405-26.365l-0.998-4.694l-1.439-1.113l0.601-3.233l2.524,0.265l1.217-2.487
			l-0.825-0.418l-0.237,0.228h-0.153l-0.288-0.418l-0.537,0.059l-0.024-0.956l-0.938-1.211l-1.611-0.642l-0.501-9.766l-0.171-3.202
			l0.034-3.688l-1.356,0.141l-1.183-1.638l0.869-1.489l1.964,1.74l1.671-1.383l1.113-1.139l0.115-1.187l0.057-0.61l4.046-1.337
			l0.428-1.012l3.168-0.189l0.984-1.257l6.004-4.971l3.774-2.781l1.562,0.066l1.742,0.084l0.055,2.239l2.59-0.195l1.396,0.036
			l3.592,0.074l4.774,0.219l0.928,0.872l-1.705,0.044l-1.074,1.923l4.879,0.879l3.845-0.757l-2.097-1.863l1.333-1.143l2.177,0.839
			l1.07,2.104l6.472-0.055l1.668-0.721l0.37,1.011l-1.774,1.603l2.504,0.047l-0.424,1.137l-0.671,0.807l5.545-0.143l2.741,0.826
			l0.283,0.354v-0.001l0.316,0.403l2.052,0.845l0.619,2.22l1.255,0.202l1.122-0.815l2-1.286l3.523,0.253l-0.086,0.897l-1.127,0.585
			l2.721,0.054l-0.688-0.662l-0.272-1.441l1.443-1.042l1.716,0.509l0.695,0.202l0.579,0.664l0.783-0.574l0.18-1.472l0.889-0.791
			l2.374-0.062l0.662-1.038l1.589,0.409l1.792-0.814l-0.074-2.919l-2.37,0.167l1.783-1.155l0.874-1.259l0.192-1.794l3.267-0.529
			l1.78-2.071l-1.301-1.253l-0.017-0.719l-0.632-0.594l0.001-0.001l0.632,0.595l0.017,0.719l1.301,1.253l0.088-0.109l0.043-2.503
			l0.377,0.006l0.126,0.021l-0.144,0.381l0.426-0.058l0.089-0.26l1.403,0.24l0.772-1.039l1.147,0.203l0.012-1.905l15.036-5.166
			l-0.339-0.821l6.608-8.681l-0.116-0.606l4.685-3.43h0.521l1.301-1.06l2.002,0.008l0.406,0.465l6.333,1.559l0.414,0.727
			l-0.047,0.354l1.424,0.719l0.443-1.502l3.048,1.84l0.156,0.7l1.059,0.464l0.323,0.535l1.061-0.134l7.96,6.256l0.089-0.159
			l-0.294-0.178l0.319-0.439v-0.19l-0.379-0.195l-0.241-0.437l0.305-0.215l-0.146-0.229l0.403-0.04l0.716,0.64l0.239-0.156
			l1.666,1.488l0.406-0.16l0.176-0.301l2.604,1.329l4.902,16.562l0.729,0.354l3.918,11.375l-1.291,3.072l0.916,1.961l0.619-0.287
			l-0.166-0.436l4.989,0.936l0.318,0.715l-1.033,2.723l5.75,2.85l0.354,1.273l1.604,1.076l0.07,0.59l0.37,0.179l0.69,1.469
			l0.666-0.182l0.635,1.304l-0.459,2.178l-1.903,0.393l0.571,1.32l1.101,0.75l0.028-0.051l0.594,0.051l0.611-1.582l3.349,0.557
			l-0.171-0.205l0.93,0.203v0.223l5.828,3.402l3.766,7.332l1.988-0.11l15.979,17.532l0.414-0.535l6.004,2.539l2.688,4.492
			l0.527,0.172l5.691-2.158l4.067,2.158l0.162-0.234l0.447,0.637h0.909l-0.265-0.881l2.068-0.635l0.15,0.264l0.999-0.17l7.65,12.306
			l-0.271,1.168l0.938,0.415l-0.136-1.131l0.138-0.271l0.299-0.072l2.396,0.957l0.441-0.885l1.567-0.215l4.128,3.725l-3.157,2.543
			l-0.175,1.164l0.28,0.402l3.204-1.812l1.271,0.56l4.633-1.847l5.279,8.236l-0.563,1.424l-0.71,0.334l0.146,0.771l-0.714,1.405
			l0.091,0.496l3.029,2.109l1.458-0.17l3.701,3.688l-0.4,0.332v0.193l0.926-0.193l1.645,0.968l1.062-0.05l2.459-2.125h1.983
			l3.66,8.302v-0.177l8.13,24.115l1.348,1.023l-0.308,4.059l-7.929,3.291l-0.239,0.756l1.828,2.363l-2.676,7.488l-3.227,1.255
			l-0.59,4.196l0.765,1.392l-0.445,0.417l0.156,1.11l1.99,1.612l5.922,0.334l12.463-14.013l-0.271-7.744l-0.317-0.284l1.129-2.781
			l8.809-3.959l0.899,0.89l1.079-0.479l0.545,0.103l0.203,0.571l1.513-1.748l0.102-1.471l0.667-0.49l-1.219-0.475l0.148-10.303
			l-14.297-8.141l0.291-0.918l-0.868-1.547l3.156-5.515l-0.598-3.423l9.896-12.622l2.59,0.29l0.353,0.693l0.183,0.103l1.278-0.61
			l0.467,0.196l-0.15,0.216l1.37-0.289l-0.151,0.487l-0.454,0.25l-1.077-0.207l-0.443,0.172l0.454,0.5l-0.105,0.466l-0.954,0.607
			l15.849,4.798v0.183h-0.291l2.478,4.442l-0.181,0.622l-0.791,0.498l0.841,0.359l0.378,0.674l-0.041,0.329l-0.202,0.198
			l-0.352,0.019v0.214l8.303,5.738l3.283-8.896l-11.315-15.888l-1.161,0.106l0.021-0.688l-24.417-13.775v0.221l-21.053-10.909
			l-0.448-2.191l6.702-6.352l-0.301-3.045l-0.408,0.021l-0.453-0.81l-0.637-0.193l-0.021-0.054l-30.475-4.656L424.67,417.76
			l0.168-0.484l-0.589-0.686l-0.428-0.102l-1.526-1.86l-0.818,0.666l-25.637-22.851l-0.912-14.528h-0.303v-0.194l0.58-0.516
			l0.234,0.011l1.611,1.583l0.899-0.346l0.178-0.536l-0.606-0.196v-0.213l0.254-0.085l0.174-0.229l0.014-0.234l-0.554-0.239
			l0.532-1.287l0.254-0.159l0.251,0.123l-0.315,1.451l0.457,1.069l1.209-3.158l0.309-0.024l0.318-0.658l-0.09-0.206l0.243-0.63
			l-0.377-0.547l-0.685-0.113v0.234l0.291,0.002l-0.291,0.226l-1.685-1.745l0.065-0.337l-0.989-0.712l0.396,0.839l-0.396,0.871
			l-0.305-0.425l0.469-0.236l-1.227-1.93l0.164,0.432l-0.484,0.042l-0.221-0.312l0.238-1.25v0.644l0.469,0.214l-0.678-3.596
			l0.209-0.48l-1.076,0.877l0.164,0.193l-0.797-0.234l-0.207-0.383l0.078-0.454l-0.307-0.386l0.062-0.163l0.244-0.093l-0.17-1.344
			l-0.443-0.187l0.049,0.791l-0.416,0.524l-0.266-0.133l-0.441-0.944l0.121-0.671l0.188-0.09l0.546,0.311l0.473-0.08l0.525-0.994
			l-0.189-0.42l0.478-0.229l0.307-1.075l-0.233-0.231l0.231-0.867h-0.143l2.172-2.365l0.729,0.014l-0.061,0.307l0.691,0.05
			l0.276-0.158v-0.196l-0.75-0.303l-0.139-0.284l0.28-0.512l0.146,0.667h0.152l0.162-0.178l0.385,0.356l0.359,0.015l-0.201-0.582
			l1.436-1.36l0.688,1.187l0.986-0.543l-0.434,0.676l-0.711,0.188l-0.193,0.208l-0.143,0.835l-0.494,0.06v-0.235h0.303l-0.145-0.237
			l-0.021,0.042l-0.04-0.071l-0.722,0.071l0.306,0.431l-0.15,0.154l-0.105,0.01l-0.199-0.398h-0.188l-0.082,0.436l-0.367,0.018
			l0.11,0.285l-0.567,1.225l16.442-8.471l-1.295,0.465l-0.358-0.25l-0.125-0.532l0.688-0.718l0.498-0.026v-0.237l-0.25-0.133
			l-0.018-0.601l0.188-0.138l0.267,0.103l0.187,0.444l0.221,0.105l0.188-0.099l0.258-0.448l1.023-0.316l3.029,1.221l0.393-0.137
			l0.273,0.463l0.912,0.188l0.194,0.548l-0.146,0.262l-1.067,0.49l0.554,0.243l3.408-1.96l-0.593-0.105l0.139-1.317l0.367-0.331
			l4.506,3.816l0.088,0.549l-0.408,0.188l1.53,1.102L427.148,353l-0.409,0.627l0.917,1.084v0.195l-4.102,0.436l0.226,0.497
			l0.386,0.169l-0.14,0.926l-1.832-0.729l0.302,1.726l-0.12,0.288l0.12,0.164l-0.169,0.216l0.926,2.37l-0.32,0.138l0.472,0.961
			l1.067,0.197l-0.761,0.43l0.203,0.414l0.404,0.248v0.195l-0.413,0.096l-0.194,0.354l0.444,0.447l-0.011,1.2l-0.28,0.306v0.192
			l0.271,0.293l-0.119,0.371l0.23,0.135l0.023,1.066l2.795,0.086l-2.53,0.521l0.545,0.765l-0.312,0.63l0.464,0.077l3.65,4.862
			l-0.301,0.449v0.19l0.227,0.3l0.838-0.086l-0.189,0.463l-0.313,0.176l-0.329-0.09l-0.229-0.334l-0.164,0.191l0.983,0.7
			l0.243-0.062l0.148,0.233l-0.148,0.216h0.306l-0.155,0.426l1.059,0.428l0.141,1.27l0.326-0.188l-0.3-0.637l0.109-0.32
			l-0.584-0.553l0.158-0.216l0.208,0.14l0.229-0.06l0.195,0.063l0.139,0.5l0.104-0.071l0.046-0.163l1.518,0.236l-0.233-0.375
			l-0.371-0.053l0.001-0.642l0.453-0.642v-0.229h-0.153v-0.19h0.153l-0.455-0.621l0.848-0.129l0.214,0.129l0.023-0.193l0.024-0.027
			l0.111-0.013v-0.213l-0.113-0.165l-0.004-0.088l0.272,0.037l0.002-1.072h0.123l0.094,0.156l0.694-1.008l-0.091-0.305l-0.377-0.096
			l-0.328-0.423l0.008-0.925l0.263,0.026l0.71,1.62l-0.334,1.152h0.148l0.837-0.872l0.596,0.194l0.533-0.767l-0.1-1.401
			l-0.344-0.398v-0.195l0.316,0.197v-1.077l0.139,0.235l0.641-0.809l0.046-0.47l-0.356-0.438l0.67,0.258l2.678-7.162l4.75,2.211
			l0.188-0.135l0.076-0.244l-0.463-0.531l1.062,0.859l-0.305,0.297l6.327,5.734l0.936,11.192l-0.255,0.392l14.351,14.043
			l-0.076,0.342l-5.877-2.228l0.623,0.943l0.305,0.095l-0.274,0.359l-0.198,0.062l0.308,1.076l-0.353-0.033l-1.807-1.543
			l0.188,0.502h-0.172l-0.103-0.103l-0.006,0.003l-0.024,0.059l-0.171,0.041l0.498,0.392l-0.224,0.479l-0.473,0.232l-0.422-0.944
			l-0.381-0.068l-0.671,0.562l1.116,1.581l-0.354,0.553l1.516,1.456l-0.087,0.312l1.542,1.623l-0.016,0.103l8.634,8.099l0.069-0.054
			l0.228,0.056v0.226l-1.369-0.413l0.347,0.46l1.088,0.407l0.539,1.035l4.997,2.662l0.193-0.033l-0.021-0.572l0.257,0.238
			l0.042,0.271l-0.146,0.229l-0.308,0.119l0.427,0.342l0.042,0.199l-0.239,0.09l-0.571-0.178l-0.268,0.176l1.368,0.207v0.229
			l-0.815-0.016l-0.236,0.17l0.144,0.453l-0.167,0.227l0.167,0.21l-0.167,0.19l0.317,0.207l-0.315,0.227v0.191l0.391-0.004
			l0.195,0.188l-0.053,0.209l-0.367,0.042l0.684,0.327l0.075,0.3l0.623-0.21l-0.111,0.236l0.103,0.3l-0.072,0.193l-0.493,0.178
			l-0.042,0.342h0.106l0.044-0.212l0.158,0.237l0.499-0.012l0.266,0.188v-0.203l2.343,0.765l-0.05-0.33h1.368l-0.171-0.438
			l-1.046-0.419v-0.209l7.908-0.416l-1.819,0.625v0.209l3.084,0.063l0.095,0.354l19.354,13.558l0.479-0.41l0.167,0.412l-0.169,0.211
			l0.326,0.377l0.438,0.035l-0.595,0.414l1.204-0.533l0.312,0.119l-0.692,0.535l1.418,1.899l0.337-0.138l1.514,1.019l-1.365-0.399
			l2.142,1.312l0.003,0.009l0.576,0.353l0.636-0.229l0.142,0.186l-0.26,0.373l0.88,0.882l-1.509-1.082l-0.464,0.051l-2.812-1.461
			l-0.093,0.062l0.02,0.282l-0.086,0.065l-1.3-0.408l-0.139-0.622l-10.071-3.313l0.598,0.619v0.207l-0.233,0.317l9.45,3.487
			l-0.054,0.763l6.854,2.494l-0.619-1.065l1.316,0.883l0.266-0.35l0.957,0.043l0.669,0.52l0.614-0.025l-0.27,0.667l3.284,2.335
			l0.326-0.324l0.762,1.023h-0.442l3.695,1.604l-0.064,1.069l4.259,3.102l0.021,0.426l2.227,1.581l0.183-0.862l-0.416-0.311v-0.221
			l3.374,0.116l0.735-0.935l0.464,2.232l-0.176,0.465l-3.06-1.367l-0.279,0.104l-0.111,0.346l0.729,0.697l-0.162,0.222l1.024,0.75
			l0.479-0.066l0.184,0.123h0.15l0.112-0.613l0.447,0.021l0.386,0.365l-0.054,0.614l0.457,0.429l0.009,0.41l1.43,1.616l0.871-0.591
			l0.304,0.408l0.167-0.246l0.729-0.143l2.59,3.796h0.146l0.117,0.076l0.234,0.642l0.852-0.019l0.78,0.897l-0.203,0.436l1.438,1.591
			l0.082,1.593l-0.112,0.109l0.725,1.41l4.332,2.547l1.515-0.48l3.523,1.48l0.162,1.189l-0.212,0.389l-0.406-0.139l0.153,2.457
			l-0.457,0.803l0.76,0.83l0.185-0.19l0.288,1.002l-0.222,0.104l-0.149-0.028l-0.102-0.498h-0.151l-0.438,1.021l-2.767-0.012
			l1.628,1.641l-0.117,1.274l-1.514,1.36l0.099,0.758l-0.369,0.41l-0.498,0.025l-0.292-0.389l0.569,2.688l0.284,0.262l1.255,0.213
			l0.562,0.876l-1.107,3.692l-0.479,0.221l0.123,3.949l0.607,0.396l-0.607,1.802l0.143,0.309l0.926-2.311l0.62,2.404l-1.838,1.417
			l-0.064-0.421l-0.07,0.421h-0.163l-0.008-1.896l0.31-0.349l-1.326,1.188l0.737,1.156l-0.471,0.701l0.309,0.713l-0.646,0.221
			l-1.634,4.674l1.826,2.99l0.121-0.809l0.527-0.146l0.591,0.3l0.277,0.562l-0.188,1.246l-0.278,0.153l-0.432-0.495l-0.132,0.021
			l1.562,1.986l-0.081,3.071l-1.147,0.534l-2.024-3.167l-0.958,0.342v0.198l9.771,9.059l0.085-0.059l0.841,1.357l0.148-0.416
			l0.605,0.416l-0.183,0.179l1.31,0.218l1.906,3.177l-0.771,0.788v0.184l1.171,0.492l0.061,0.315l1.068,0.371l-0.646,3.123
			l0.485,0.263l-0.427,1.348l0.126,0.422h0.148l0.024-0.17l4.114,1.965l0.146,0.584l-0.306,0.18l-0.002,0.604l-0.303,0.361
			l-0.149,0.014l-0.169-0.192l-0.286,1.177l1.521,0.002l-0.251,0.229l0.701,0.373l-0.005-0.358l0.932,0.358v0.197l-0.195,0.271
			l-0.882-0.072v0.179l1.077,0.801l0.076,0.4l-1.153,0.188l0.609,0.801v0.182h-0.149v0.193l0.506,0.061l0.706,0.937l0.054,0.894
			l1.614,1.312l0.625-0.266l0.88,0.406l0.34-0.193l0.093,0.264l0.169,0.088l0.494-0.152l30.391,107.165l-0.252,0.288l0.677,1.563
			l0.489-0.565l0.012-0.122l0.341-0.12l1.242,0.506l0.071-0.088l-1.656-1.465l-0.269,0.009l-0.052-0.419l0.317,0.212l0.769-1.679
			l-0.324-0.074v-0.215l0.627-0.58l0.135,0.193l0.246-0.285l0.257,0.176l0.09,0.477l-0.279,0.627l0.152-0.205l0.305-0.012
			l0.01,0.147l-0.034,0.035l0.027,0.225l0.194-0.071l0.111,0.652l-0.335,0.159l0.925,0.014l-0.102-0.134l-0.243-0.056l-0.098-0.284
			l0.08-0.182l0.397-0.226l0.13-0.287h0.161l0.419,0.365l0.638-0.15v0.19l-0.194,0.056l-0.068,0.124h-0.047l0.209,0.52l0.213,0.123
			l0.269-0.146l0.831,0.497v0.196l1.229,0.175l-0.468-0.371l0.625-0.528l0.297,0.125l-0.097-0.395l0.232-0.37l1.664,1.858
			l0.021,0.673l-0.187-0.075l-0.232,0.411l0.117,0.228l-0.123,0.673l0.382,0.566l0.1-0.024l0.079,0.024l0.139,0.562l0.186,0.163
			l-0.087,0.268l-0.104,0.066l-0.268-0.122l-0.009-0.078l-0.88-0.84l-0.411-0.021l-0.235,0.185l0.175,0.544l-0.289,0.34
			l-0.033,0.265l-1.32-0.961l0.036-0.982l-2.008-0.325l-0.219-0.296h-0.146l-0.109,0.521l-0.268,0.226l-0.825,0.052l0.131-0.187
			l-0.021-0.103l-0.11-0.105l0.099-0.203l-0.099-0.381h-0.149l-0.532,0.905l-0.421,0.211l-0.79-0.387l-0.259-0.682l-0.354,0.973
			l0.233,0.94l0.832,0.504l0.078,0.182l-1.242,0.301l-0.445,1.53l0.979,1.209l0.234-0.202l0.177,0.04l0.273-0.192l0.16,0.309
			l0.751-1.052l0.328-0.11l0.306,0.229l1.179,3.366l1.164,0.12l1.265,4.693l1.133-0.837l0.209,0.131l-0.248,0.854l0.322,0.21
			l-0.458,0.176l0.611,0.18l-0.104,0.47l0.207,0.53l-0.104,0.367l0.306-0.211l-0.081,0.35l-0.211,0.078l-0.484-0.426l-0.041,0.15
			l-0.099,0.059l0.357,0.852l0.254,0.113l0.19-0.309l0.171-0.015l0.396,0.32l-0.595,0.709l-0.23-0.126l0.067-0.196l-0.301,0.597
			l0.303-0.208l0.073,0.313l-0.545,0.474l1.232,0.195l0.338,0.925l0.42,0.034l0.018-0.3l0.551-0.274l-0.415-0.21l0.18-0.307
			l1.112,0.293l0.732-0.663l-0.104-0.096l-0.028-0.104l0.07-0.181l0.187-0.084l0.304,0.19l0.164-0.21l-0.113-0.064l-0.051-0.113
			l1.006-0.507l0.218-0.856l-0.162-0.195h0.316l-0.997-1.735l0.32-0.053l0.826,0.805l0.391,1.95l0.864,0.134l0.271,0.295
			l-0.144,0.555l0.456-0.208l0.354,0.146l0.392-0.146l-0.136,0.386h0.441l-0.309,0.192v0.21l0.309,0.193l-0.157,0.346l0.159,0.215
			v0.209l-0.991-0.688l-0.377,0.097l2.126,0.981l1.687-1.559l0.306,0.168l2.289-0.364l1.029,0.832l0.199-0.146l0.236-0.844
			l1.295-0.999l0.353,0.507l2.929-0.84l0.521,0.525l0.844-0.186l2.194,0.972l-0.048,0.287l0.518,0.083l0.452,0.79l0.791-1.048
			l3.505,0.488l0.126-0.234l-0.153-0.193l0.336-0.298l-0.035-0.478l-0.104,0.132l-0.091,0.013l-0.269-0.335l0.769-0.665
			l-0.022-0.272l1.242-0.018l0.3,0.558l65.164,0.304V-11.927H590.136l4.226,21.202l-1.387,2.681l-0.062,0.03l0.121,0.379
			l1.288-1.229l0.23,0.03l0.63,3.21l-0.323-0.037l-0.145,0.157l-0.117,3.08l-0.801,0.136l-0.473-0.504l-0.406,0.494l1.042,10.186
			l-2.754,0.983l-0.346,0.461l-0.266,0.067l-0.513-0.565l-0.364,0.398l-10.701-1.42l-0.541-0.73l-0.01-0.534l8.272-9.505
			l-0.045-0.284l0.219-0.287l0.523-0.177l0.145-0.263l-0.048-0.162l3.666-6.971l-0.425-0.534l0.68-10.153l-0.726-0.91l0.192,4.697
			l0.126,0.184l-13.723,24.286l-9.979,1.057l-0.846-0.767l-0.869,0.627l-1.343,11.157l-3.642,4.498l4.948-3.484l0.146-0.418
			l-0.312-0.26l0.157-1.839l0.604-0.649l0.848-0.138l0.438,0.205l0.731,2.27l0.293,0.03l2.021-1.505l5.116,0.31l-0.002,0.288h-0.003
			v0.001l-7.526,4.712l-0.279-0.033l-0.557-0.487l-0.882-0.073l-1.879,3.229l-1.896,0.757l-0.395,0.88l-1.341,0.446l0.139,0.758
			l-8.545,7.064l0.266-1.359l0.208-0.196v-0.284l-3.056-0.521l0.161-0.688l0.146-0.069l-0.745-0.832v-0.234l4.84-3.407l-9.896,3.154
			l-1.062-0.521l-0.689,0.385l-4.58-1.276l-0.509-0.859l-2.368-1.109l-1.447-8.142l-0.369,0.478l-0.422,0.089l-0.884-3.319
			l-0.771-0.523l0.361-1.914l0.331-0.261l-2.836-1.924l-40.377,11.744l-1.229,1.688l0.625-0.435l0.128,0.154l-0.427,0.845
			l-0.362,0.141l-0.223-0.094l0.121-0.61l-3.519,4.946l0.521-0.569l0.441,0.015l0.265,0.555l-2.334,1.367l0.967-1.37l-3.062,2.597
			l1.729-0.354l-0.042,0.613l0.068,0.052l0.047-0.006l0.032,0.216h-1.062v0.281h0.152v0.236l-1.961,0.342l-0.483-0.342l1.378-0.779
			L439.11,66.694l-10.493-9.699l-0.963,0.953l1.373,1.963l-0.912,2.969l0.452,0.173l1.543-1.198l0.165,0.052l-0.335,1.749
			l0.904-0.375l0.431-0.811l0.191-0.104l-0.207-0.752l0.235-0.287l0.883,0.008l1.077,1.805l0.517-0.213l0.242,3.046l-0.759-0.232
			l0.094-0.35l0.205-0.187l-1.184,0.151l-0.344,0.618l0.3-1.824l-1.52-0.235l0.606,3.628l-2.445,1.286l0.407,0.555l4.11-0.506
			l0.521-0.585l3.964,0.279l2.055,2.021l0.495-0.027l0.019-0.078l-0.307-0.12v-0.256l1.231-0.515l0.196,0.15l0.518-0.466
			l0.042-0.452l-1.211-0.536l0.485-0.674l0.19-0.076l0.455,0.17l0.176-0.05l0.227-0.378l0.133,0.258l-0.276,0.732l0.348,0.382
			l2.994,0.558l0.308,0.64l-0.456,0.513l0.59,0.511l-0.133-0.255l0.706-0.834l0.053-0.45h0.153l-0.153,3.08l-0.809,0.227
			l-0.255-0.228l-0.694,2.46l0.691,1.661l1.062,0.254l0.002,0.512l-0.593,0.823l-0.031,0.595l-0.112,0.11l-5.528-4.362l-0.258-0.721
			l-0.805-0.559l-0.127,0.281l0.293,0.254l-0.293,0.254l0.391,0.273l-0.023,0.309l-0.69,0.444l-1.352-0.281l1.22-1.03l-0.062-0.607
			l-0.328-0.312l-0.355-0.071l-0.428,0.633l-7.004-2.414l-0.821-1.202l-1.016-0.439l-0.197-0.459l2.216-2.577l-0.04-0.358
			l-1.271-0.474l-0.221-1.161l-2.063-1.894l0.601-0.373l0.781-2.209l-2.443-1.831v-0.237l0.365-0.181l0.034-0.168l-0.098-0.194
			l-5.176,1.832v0.263l0.624,0.773V60.3l-0.527-0.01l-1.463-2.34l-0.202-0.056l-0.309,0.212l-0.26-0.158l0.451-0.781l-0.438-0.168
			l-1.383,0.43l0.608-0.518l-3.839-3.201l-0.729,0.067l0.607-0.235V53.26l-1.24-0.131l-0.854-2.757l0.424-0.75l-1.662-1.613
			l0.014-0.454l0.285-0.275l-0.568-0.167l-4.157,3.122l-0.767-1.367l-0.416,0.458l-0.236,0.014l-0.262-0.235l-0.246,0.294
			l-0.248-0.116l-0.426-0.695l-0.459,1.039l0.41-1.213l0.334-0.087v-0.284l-1.051,0.284l0.155,0.546l-1.88,0.866l-0.406-0.367v0.257
			l-0.186-0.143l-0.563,0.142v0.262l0.442,0.262l-1.822,1.015l-0.139,0.824l-1.381,1.555l0.723,0.531l0.336-0.01l-0.469,0.294
			l-1.517-0.818l0.249-0.298l-0.386-1.26l0.364-0.085l0.386-0.784l-0.146-0.453l0.149-0.263l0.61,0.263l0.019-1.184l0.661-0.614
			l1.246,0.297l0.367,0.458l0.596-0.706l0.479-0.046l0.426,0.233l-0.006-0.162l0.03-0.05l0.138-0.022l-0.319-0.074l-0.136-0.471
			l0.453-0.281l0.14,0.282l0.138-0.509l0.219-0.122l1.021,0.113l0.368-0.447l4.09,0.57l1.124-0.639l-0.284-0.425l-0.642-0.162
			l-0.51,0.294l-6.858-0.798l-0.474-0.764h0.15v-0.236l-9.626,11.974l0.929-0.256l-0.188,0.508l-0.64,0.367l-0.233,0.442l0.44,1.809
			l-0.517-0.607l-0.079-3.033l-8.863,1.472l-1.505,1.913v0.197l0.163,0.131l-1.691,2.485l-0.763-0.234V62.6h0.153v0.283l-0.76,0.771
			l0.135,0.772l-0.564,0.492l-0.332,2.36h-0.246l-1.025-1.19l-0.014-0.12H374.4l-0.537-0.768l-1.084,0.816l-0.941-0.208l0.049-1.254
			l-0.115-0.188l-0.797-0.22l-0.449-1.01l-6.6,1.967l-0.258-1.192l-2.116-0.549l-0.618-1.514l1.353-1.808l0.2,0.021l0.305,0.278
			l5.123-3.556l0.004-6.636l0.475,0.256l1.062-1.298l-0.701-0.266l-1.562,0.962l-0.52-0.364l-0.383,0.128l-0.312-0.142l-6.437,2.345
			l-7.326-4.756h-1.2l-0.466,0.625l-1.37,0.417l-1.344,3.219l-0.493,0.185l0.312-0.725l-0.31-0.574l0.146-0.255l-0.011-0.119
			l-0.137-0.147l0.785-0.459l0.445-0.984l-0.29-1.494l0.437-0.446l-1.753-1.329l-5.373,1.286l-0.96-0.502v-0.26l2.787-0.919
			l1.213-1.521l0.426-4.635l-0.124-0.233l-0.252,0.018l-0.242,0.206l-0.335-0.447l-1.488,0.184l0.067-0.432l0.863-0.528
			l-0.016-0.085l0.78,0.218l0.281-0.218l-2.294-3.459l-0.521,0.037l0.085,0.799l-1.597,0.492l-0.486-1.022l-4.864-1.806l-0.069-1.39
			l-3.198,2.151l1.908-2.654l0.527-0.002l0.909-1.867l0.633-0.191l0.521,0.306l0.123,0.447l-0.749,0.383l0.53,0.923l-0.033,0.24
			l-0.186,0.15l-0.027,0.153l1.634,0.248l0.762,1.053l0.332-0.171l-0.035-1.167l-0.908-0.769l0.172-0.478l0.905,0.215l0.215-0.173
			l-0.692-3.785l-3.35-2.141l-3.049,1.059l-0.19-0.558l2.785-1.855l-1.144-1.328l-0.925-0.069l-0.225-0.168l1.231-0.289v-0.265
			h-0.381l-0.186-0.287l0.002-0.343l1.86-1.406l2.549-0.2l0.477-2.624l-1.592-2.046v-0.29l0.306-0.308l-1.362-3.692l1.076-0.323
			l0.551-0.677l0.006-0.976l-1.287-0.695l-1.929,0.493l-0.391-0.247l1.522-1.071l-0.154-0.266l1.064,0.269l2.214-0.801l0.123-0.904
			l3.14-2.607l-2.565-0.119l-2.062-2.569l-2.064-0.244l0.152-0.562l5.833,1.55l3.557-1.31l0.522,0.324l0.288-0.297l-0.253-0.646
			l1.179-0.965v-0.27l-0.889-0.063l0.579-2.211l-3.409-0.884l-0.559-0.62l2.292-0.294l0.476-0.709l2.449-0.199l1.574,2.01
			l0.214-0.088l0.379-0.67l-0.354-0.907l0.648-0.64l0.108,0.002l0.748-2.648h-42.074l0.76,1.878l-0.132,0.646l-4.313,3.205
			l-0.189-0.11l-0.618-5.617h-0.43l-0.951,16.069l4.851,3.126l0.288-0.107l-0.717-1.263l-1.117-0.488l0.412-0.486l0.205-0.051
			L305.026,3.8l0.639-0.886L307.106,3v0.243l-0.473,0.089l-0.018,0.278l2.921,3.871l3.914,1.016l1.595,11.554l-0.445,0.18
			l-2.545-0.48l-0.064-0.435l0.63-0.716l0.293-0.08l-1.41-0.766l-0.919,0.138l-0.666,3.64l0.557,1.39l0.346,0.08l0.932-0.962
			l0.218-0.042l0.14-0.189l0.138-1.827l2.628,0.397l0.151,15.368l2.6,1.834l1.059,2.618l-0.759,0.521l0.153,0.287l1.177-0.322
			l2.947,3.837l-0.153,1.544l-7.445,2.48l-0.476-0.212l-0.494,1.141l0.184,0.42l0.358-0.48l0.995,0.48v0.261l-2.123,0.779
			l0.52,1.826l1.229,0.791l4.659-1.321l-0.151,0.521l1.818-1.039l-1.148,1.842l-1.604,0.521l-0.59,2.848l1.065,2.092H319
			l1.121-0.799l1.321,0.026l-0.066,0.667l0.977,1.143l-0.481,2.551l-0.484,0.236l-2.299-0.865l-0.858,0.395l3.879,5.429l0.489-0.551
			l3.847,1.356l-3.73,0.66l-0.422,0.492l-5.197-0.074l-2.907-1.878l-1.749,1.309l-1.918,7.161l1.754,4.492l-1.371,7.031
			l-0.318-4.777l1.378-1.86V80.88l-5.884-2.738l-0.67,0.465l-0.58,2.957l1.343-0.152l0.642,0.752l-1.09,3.344l-0.51,0.412
			l-0.639,0.071l-1.498-1.613l-0.635-0.157l-0.537,0.243L301,82.435l2.364-1.239l0.064-0.673l-0.25-0.39l-0.833-0.311l0.188-0.704
			l-1.664-1.704l-0.477-2.686l-12.257,0.978l-0.473-0.494l-5.179,1.073l-3.096,2.982l0.047,0.49l0.94,0.626l0.234,0.738
			l-0.164,0.366l-0.209,0.113l-0.121,0.3l-1.335-0.2l-0.471,6.449l6.764,0.912l0.542,0.788l-1.673-0.783l-0.819,0.161l-0.563,0.855
			l0.169,0.409l-0.931,1.506l-2.533-0.812l-0.165-1.069l0.269-0.267v-0.251h-0.152l-0.192,0.21l-0.524,0.003l-0.197-0.214
			l-0.389,0.131l-2.652-1.701l-1.136-3.464l-11.968,1.713l-0.607-0.43l-1.987,1.218l0.006,0.254l1.496,0.705l-0.261,0.377
			l-2.181-0.104l-0.142-0.389l0.049-0.21l-17.244,10.569l0.583,1.453l0.213,0.133l0.15,2.984l-0.362,0.406l0.296,0.586l-1.042,1.088
			l0.062,0.596l4.186,1.52l1.784-0.646l1.878,0.645l-1.461,0.65l-1.293,5.495l1.39,2.128l4.001,0.263l0.709,3.746l-0.734,0.696
			l0.417-0.869l-0.429-2.336l-3.524-0.844l-0.602-0.655l-3.05,1.997l-0.67-0.018l-7.862,6.256l0.45,1.505l7.797,2.041l-1.249,1.183
			l-10.656-4.212l0.304-0.247v-0.271l0.609,0.27v-0.271l0.345,0.265l1.491-2.227l-0.929-1.018l0.624-0.229l-0.167-0.519l0.447-0.474
			l-1.242-4.531l0.331-0.608l1.38,0.088l0.554,0.523l3.725-2.996l-0.381-1.525l-1.489-0.528l-1.103,0.617l-2.805-6.884l6.634-4.802
			l-9.537,5.845l-1.786-0.214l-0.512-0.67l0.326-1.128l-0.166-0.272l-0.213,0.214l-1.375-0.214l-13.421,35.05l-1.62,0.639
			l-1.031-0.233l-0.278,0.513l0.743,2.569l-0.304,0.739l1.064,1.607l-0.498,0.333l-2.054-0.471l-2.229,1.125l0.205,0.997l0.368-0.02
			l0.082-0.148l1.993-0.612l2.004,3.327l2.348,1.119l-1.147,0.225l-0.356,0.616l0.187,1.132l0.397,0.367l1.204,0.133l0.283,0.269
			l0.102,0.673l-1.117-0.63l-3.756,0.628l6.677,3.5l0.185,0.77l-0.3,0.813l-3.965,0.072l-1.065-2.235l-4.127-1.458v-0.224
			l0.759-0.484l-0.883-1.293l-9.086,1.799l-0.231,0.325l1.965,3.089l6.484,2.424l1.667-0.489l1.22-1.811l5.917,1.65l0.258-0.34
			l0.226,0.162l0.353,1.594h0.005l0.626,2.142l0.929,0.468l-0.494,0.884l-0.258,0.131l0.248-0.562l-1.939-3.004v-0.002l0.004-0.002
			l-0.913-0.327l-0.524,0.708l-1.921-0.46l-0.593-0.992l-1.319-0.426l-0.331,1.024l-2.468,1.286l-7.047-2.533l-22.708,10.639
			l-6.21,3.387l-0.091-0.17l-3.582,1.774l-5.631,1.037l-0.308,0.061l-6.24,1.34l-4.888,3.918l0.381,15.105L151.26,195.936
			 M244.751,126.539l0.312-2.006l3.976-2.055L244.751,126.539z M340.151,81.003l-5.26-1.902l-6.553-9.831l2.388,0.842l0.903,3.092
			l2.144,1.405l0.413,2.869l5.978,2.917l0.278,0.486L340.151,81.003z M589.515,498.245l-0.015-0.021l0.015,0.019l0.012,0.002
			H589.515z M589.542,498.245h0.08l0.035,0.028L589.542,498.245z M646.587,667.214l-0.083-0.046l4.431-0.009L646.587,667.214z
			 M653.508,667.141l31.47-0.396l-0.04-0.312l1.039,0.648L653.508,667.141z"/>
	</g>
</g>
<g id="FranceRegions">
<a><path class="mapZone" action="mapZoom" id="provenceAlpesCoteDAzur" fill="#2D2D2D" stroke="#E4E4E4" stroke-linejoin="round" stroke-miterlimit="10" d="
		M284.18,414.772l0.044-2.562l2.276,0.39l0.772-1.039l1.147,0.203l0.021-3.473l2.605-0.284l2.213-2.074l2.03-0.053l0.076-1.236
		l2.018-1.271l-1.207-2.55l1.667-1.492l-0.388-1.672l2.48-0.848l0.609-2.473l-0.367-1.673l-0.606-0.987l-0.49-1.459l-1.683,0.171
		l-5.279,2.028l-1.703,0.044l-2.995-2.269l-2.973-0.713l-1.704,0.04l-0.049-2.025l-2.412-1.388l-0.002-0.07l-0.001,0.001
		l-0.054-2.165l1.59-0.255l-0.926-0.764l-1.15-0.313l-0.598-1.433l0.427-1.017l1.977-2.18l-0.367-1.567l0.285-0.313l1.04-1.174
		l1.234,0.078l-0.026-1.003l-1.595-0.747l-0.425-3.23l-1.262-0.417l-1.57,0.274l-2.991-1.396l-0.537-3.333l-1.699-0.516l-0.61-1.111
		l-0.782-1.594l-2.179-0.051l-1.003,0.476l-0.192,1.686l-2.025,0.284l-0.385-1.567l-0.686-0.644l-2.043,0.266l-0.779,0.7
		l-0.395,2.357l0.358,0.545l2.381,0.172l0.49,1.439l0.916,0.423l0.062,2.452l-2.159-0.054l-0.88,1.025l-2.603-0.383l-1.438,1.275
		l-1.044-0.424l-1.438,1.164l0.587,0.99l-0.884,0.916l-2.827,0.071l0.035,1.345l0.917,0.422l-0.327,0.798l-1.901,0.817l-2.367,0.292
		l-0.635,2.148l-0.076,1.346l1.276,0.97l-1.214,1.479l-1.596-0.746l-1.815-0.063l-0.21,1.008l1.162,0.762l-1.355,0.929l0.519,1.886
		l3.868,0.922l0.724,1.431l1.13,0.188l-0.292,3.501l0.018,0.016l-0.073,0.648l-0.691-0.771l-0.925-0.768l-0.538,1.697l-0.993,0.925
		l-0.414,0.08l-1.058-0.155l-1.735-1.192l-0.487-1.438l-3.179-0.152l-2.379-0.156l-0.27-1.336l0.756-1.703l-1.438,1.271
		l-2.269-0.175l-0.474-0.775l1.523-2.15l-1.614-1.426l-1.591,0.162l-1.183,1.929l0.375,1.995l1.927,0.187l-0.305,0.899l-1.483,0.146
		l-1.642,1.726l-0.468-0.542l0.271-2.249l-0.692-0.768l-3.049,0.522l-0.568,1.214l0.33,0.172l2,3.104l0.064,2.54l3.453,3.228
		l0.035,1.43l-1.286,0.77h0l-3.125,1.867l-0.664,6.034l-3.364-0.38l-0.896,2.548l0.825,1.089l-3.623,2.312l-0.957,2.351l3.592,0.074
		l4.774,0.219l0.928,0.872l-1.705,0.044l-1.074,1.923l4.879,0.879l3.845-0.757l-2.097-1.863l1.333-1.143l2.177,0.839l1.07,2.104
		l6.472-0.055l1.668-0.721l0.37,1.011l-1.774,1.603l2.504,0.047l-0.424,1.137l-0.671,0.807l5.545-0.143l2.741,0.826l0.283,0.354
		v-0.001l0.316,0.403l2.052,0.845l0.619,2.22l1.255,0.202l1.122-0.815l2-1.286l3.523,0.253l-0.086,0.897l-1.127,0.585l2.721,0.054
		l-0.688-0.662l-0.272-1.441l1.443-1.042l1.716,0.509l0.695,0.202l0.579,0.664l0.783-0.574l0.18-1.472l0.889-0.791l2.374-0.062
		l0.662-1.038l1.589,0.409l1.792-0.814l-0.074-2.919l-2.37,0.167l1.783-1.155l0.874-1.259l0.192-1.794l3.267-0.529l1.78-2.071
		L284.18,414.772z"/></a>
<a><path class="mapZone" action="mapZoom" id="paysDeLaLoire" fill="#2D2D2D" stroke="#E4E4E4" stroke-linejoin="round" stroke-miterlimit="10" d="
		M117.701,261.126l-0.326-0.01l-0.631-2.008l-1.48-0.518l-0.515-2.44l-1.037-0.869l-1.122,0.137l-0.442,1.121l-1.669,0.723
		l-3.074-0.37l-3.016,1.867l-1.145-0.76l-1.675,1.171l-1.273-0.864l-0.831-1.322l-1.701-0.637l-1.121,0.923l-1.926-0.186
		l-0.034,2.92l0.573,0.434l0.055,2.236l-1.112,1.157l0.045,1.791l0.373,1.101l0.081,3.239l0.817,0.769l0.077,3.025l-1.928-0.185
		l-0.784,0.467l-1.378,3.617l-0.53,2.038l-0.577,0.875l-2.133-0.465l-1.047-1.316l-1.71-0.191l-0.077,1.237l-2.474,0.403
		l-1.115,1.138l-0.422,1.247l-7.003,0.516l-2.916,1.63l-0.03,3.137l-3.14,1.314l-2.128,1.164l-1.812,0.047l-0.691-0.754l-0.99,1.029
		L62.22,290.8l0.59,0.38l-2.109,1.95l0.463,0.437l0.476,0.882l-1.101,1.604l1.267,0.63l2.167,0.394l0.195-0.899l1.291,1.543
		l2.046-0.053l1.429-1.61l1.922-0.048l-2.007,1.052l0.139,1.125l0.478,0.992l-1.218,1.266l-1.359,0.035l0.277,1.676l2.471-0.51
		l3.021,2.611l-0.142,0.182l0.002,0.002l-3.26,4.379l-0.043,2.688l3.582,3.259l-0.084,1.005l1.016-0.025l2.317,6.334l2.292,1.055
		l2.322,2.178l2.609-0.066l1.069,2.213l2.501-0.062l1.167,1.652l2.53,1.172l0.071-1.577l0.647,0.577l3.41-2.166l1.591-0.147
		l0.716,1.772l2.132-0.948l1.846,1.296l1.451-0.717l1.241-0.371l0.546-0.676l1.551-1.042l-1.152-1.1l-0.888,0.702l-0.132-0.891
		l0.761-1.488l-0.832-1.319l0.649-0.913l-0.423-3.125l-1.166-1.635l0.77-1.042l-1.861-1.957l0.633-1.465l-2.774-2.17l-0.033-1.343
		l-1.164-1.546l2.352-1.064l3.534,0.7l1.55-1.061l-0.039-1.558l3.057-0.309l2.814-0.625l3.06-0.185l0.363,0.78l0.815,0.642
		l0.746-1.363l2.1-2.289l0.87-0.023l1.171-4.613l1.759-2.177l-0.188-2.448l1.104-1.499l-0.018-0.66l-0.579-0.667l0.344-0.742
		l0.724-1.522l2.303,1.519l1.251-0.033l-0.745-2.218l1.4,0.86l0.75-1.148l3.257-0.979l-0.595-1.328l0.771-1.021l1.688-0.704
		l1.525-2.063l-0.054-2.129l1.143-0.03l0.414-1.568l0.051-2.347l-1.151-0.992l0.868-1.58l1.3-1.716l-1.605-1.071l-1.474-0.195
		l-1.653-2.304l-0.454,0.012l-0.081,1.112l-0.13-0.766l-2.373,0.059l-1.185-1.654l-1.938-0.632l-0.662-4.011l-0.935-1.196
		l-3.06,0.185l-2.992,2.87l-1.598-0.05"/></a>
<a><path class="mapZone" action="mapZoom" id="nordPasDeCalaisPicardie" fill="#2D2D2D" stroke="#E4E4E4" stroke-linejoin="round" stroke-miterlimit="10" d="
		M156.085,216.285l-0.718,0.896l-0.426,1.12l0.906-0.022l-0.425,1.14l-0.396,2.248l0.698,1.093l0.049,1.916l1.141-0.029
		l-0.433,0.781l-0.762,1.487l-0.3,1.011l1.038,0.869l0.391,2.57l0.603,0.879l-0.792,0.234l-1.029-0.529l-0.149,1.33l0.07-0.091
		l0.46,0.99l0.717,1.094l3.068,0.155l2.151-0.286l1.44-1.147l1.84,1.064l0.923,0.658l1.351-0.376l1.218-0.585l2.423,1.176
		l2.519,1.386l0.816,0.768l1.337-0.928l1.14,0.633l0.704,0.538l1.013-0.132l0.666-0.914l1.599,0.855l1.919-0.836l1.133,0.313
		l1.1-0.925l0.682-0.357l0.221,0.156v0l1.051,0.708l0.407,2.46l3.118,2.823l1.023,0.313l0.613,1.329l1.913,0.346l0.227-0.292
		l0.55-1.233l1.685-0.83l0.845-2.367l0.999-0.707l-0.6-0.773l-1.467,0.036l-0.238-0.764l1.004-0.472l0.436-0.692l-1.032-0.637
		l0.301-1.027l2.604-0.28l-0.479-0.991l-1.602-0.98l-0.077-3.005l2.101-1.627l2.393-0.061l-0.263-1.105l1.345-0.606l1.95,1.187
		l0.793-0.235l-0.204-3.81l0.311-1.35l0.414-1.57l-1.508-0.749l0.322-0.904l2.146-0.501l-0.037-1.45l1.681-0.936l0.419-1.354
		l-0.584-0.882l0.065-1.685l0.994-0.92l-1.064-1.871l0.258-1.995l-2.301,0.058l-0.517,0.363l0.516-0.364l-0.181,0.005l-0.135-1.106
		l2.23-1.4l-0.397-2.121l-2.171-0.5l0.547-0.587l-0.038-1.557l1.671-1.278l-0.473-0.883l-3.695-2.701l-6.334,0.5l-0.643,1.127
		l-0.797,0.021l0.011-3.923l-1.865-2.067l-1.354,0.25l-0.82-0.875l-2.239,1.061l-0.799-0.751l-1.6-0.192l-0.489-1.438l-0.223-4.472
		l-1.025-0.421l-0.144-0.677l-0.671,0.016l-0.269-1.336l-1.464,0.163l-2.805,0.963l-1.317,1.701l-1.358,0.034l-0.933-1.086
		l-0.377-1.228l-1.155-1.207l-1.594,0.042l-0.701-1.199l-0.048-1.917l0.749-1.236l-0.496-1.671l-1.54-2.881l-3.582,1.774
		l-5.631,1.037l-0.308,0.061l-6.24,1.34l-4.888,3.918l0.381,15.105l-0.025,0.449l-0.216,3.696l2.558,2.172l0.027,1.129l-3.107-1.712
		l-3.567,4.566l0.99,0.387l1.247-0.139l0.59,1.095l5.104,4.689l0.395,1.996l1.174,1.994L156.085,216.285"/></a>
<a><path class="mapZone" action="mapZoom" id="normandie" fill="#2D2D2D" stroke="#E4E4E4" stroke-linejoin="round" stroke-miterlimit="10" d="M99.503,257.054
		l0.793,1.252l1.273,0.864l1.676-1.171l1.144,0.759l3.016-1.866l3.073,0.369l1.669-0.722l0.443-1.122l1.121-0.136l1.038,0.869
		l0.515,2.44l1.48,0.518l0.631,2.008l1.923,0.059l2.992-2.867l3.061-0.186l0.937,1.196l0.663,4.012l1.938,0.631l1.184,1.655
		l2.374-0.06l0.13,0.767l0.081-1.113l0.453-0.012l1.653,2.305l1.238,0.166l-0.067-2.648l-0.805-1l-0.258-0.889l1.68-1.046
		l1.694-0.382l1.089-1.371l-0.32-4.129l-2.443-1.943l-0.156-1.913l-0.387-0.242l1.59-1.58l1.576-0.04l4.042-2.214l1.354,0.521
		l2.845-0.072l0.65-0.805l-0.042-1.684l2.237-1.166l-0.045-1.79l0.604-0.517l-0.067-0.5l0.565-0.588l-1.021-0.188l-0.022-0.893
		l-0.603-0.881l0.439-0.566l3.147-0.976l0.765-1.363l0.627-2.486l0.805-1.041l0.15-1.329l1.028,0.529l0.791-0.235l-0.602-0.88
		l-0.391-2.568l-1.038-0.87l0.016-0.071 M155.435,227.855l0.284-0.939l0.761-1.487l0.433-0.78l-1.141,0.028l-0.049-1.917
		l-0.697-1.092l0.395-2.249l0.426-1.14l-0.906,0.022l0.425-1.122l1.088-1.37l-1.174-1.994l-0.395-1.997l-5.104-4.689l-0.59-1.095
		l-1.247,0.139l-0.989-0.387l-0.721,0.914l-4.762,3.809l-8.555,2.345l-5.621,2.147l-4.578,2.587l-2.617,4.095l-0.483,3.146
		l2.309,1.626l3.296,0.58l-0.522,0.102l-2.636,0.531l-4.251,2.579l-4.808,2.019l-3.914-2.033l-9.312-1.111l-2.184-1.054
		l-3.331,0.923l-0.567-0.514l-0.675-1.87l-3.037-3.379l0.849-2.261l1.25-0.033l-1.201-2.995l-4.879-0.11l-2.565,1.856l-2.982-1.825
		l-4.237-1.13l-0.422,1.141l2.438,1.836l0.062,2.469l-0.878,1.133l0.575,0.541l0.35,0.224l-0.182,2.135l0.843,1.771l2.682,2.832
		l0.627,2.564l0.582,0.773L83,238.182l1.428,2.65l0.078,3.133l-1.393,2.935l1.676,3.986l2.513,0.492l0.247,1.124l-1.218,0.586
		l-2.139,0.052l0.38,1.407l0.723,2.113l1.982,1.633l0.912,0.191l0.875-1.239l1.013-0.151l1.196-1.482l1.163,0.868l1.359-0.034
		l0.917,0.424l0.005,0.214l1.927,0.186l1.121-0.924l1.701,0.638l0.037,0.07"/></a>
<a><path class="mapZone" action="mapZoom" id="ileDeFrance" fill="#2D2D2D" stroke="#E4E4E4" stroke-linejoin="round" stroke-miterlimit="10" d="M171.587,263.75
		l0.732,1.021l1.377,0.645l0.156,1.896l-1.78,1.28l1.037,0.867l1.23-0.818l3.064,0.032l1.119-0.244l0.322-0.903l1.253,0.076
		l0.239,0.889l2.788-1.645l1.002-1.244l1.319-1.608l-0.931-0.98l0.754-1.703l2.005-1.053l4.426,0.105l0.996-0.796l0.093,0.085
		l0.207-1.886l0.396-2.248l0.772-1.04l0.075-1.345l1.56-0.701l-0.023-0.896l-1.682,0.15l-0.364-0.778l0.537-1.017l-0.495-1.672
		l-0.92-0.533l0.196-1.562l0.892-0.595l-0.143-0.66l0.316-0.402l-1.913-0.346l-0.613-1.329l-1.024-0.315l-3.118-2.822l-0.406-2.46
		l-1.273-0.865l-0.683,0.357l-1.099,0.924l-1.133-0.312l-1.919,0.835l-1.601-0.855l-0.665,0.913l-1.013,0.133l-0.703-0.539
		l-1.141-0.633l-1.337,0.929l-0.053-0.051v-0.001l-0.761-0.715l-2.519-1.387l-2.423-1.176l-1.218,0.585l-1.352,0.376l-0.923-0.658
		l-1.84-1.064l-1.439,1.147l-2.151,0.286l-3.068-0.155l-0.717-1.094l-0.46-0.99l-0.877,1.133l-0.628,2.486l-0.729,1.289
		l-0.035,0.074l-3.148,0.975l-0.439,0.566l0.603,0.882l0.022,0.893l1.02,0.188l-0.564,0.587l0.067,0.5l0.07-0.055l1.153,1.082
		l0.377,1.335l0.927,0.871l-0.422,1.247l0.029,1.109l0.819,0.875l-0.762,1.363l0.844,1.894l1.604,1.071l0.267,1.229l1.365,0.181
		l0.388,2.461l1.065,1.208l1.837,0.295 M160.404,258.926l0.546,0.094l0.254,1.443l0.245,0.335l0.31,3l3.616-0.414l1.435-1.379
		l1.275,0.971l3.051,0.138l0.449,0.633"/></a>
<a><path class="mapZone" action="mapZoom" id="corse" fill="#2D2D2D" stroke="#E4E4E4" stroke-linejoin="round" stroke-miterlimit="10" d="M332.32,460.906v-5.631
		l-0.997-1.914l-0.307-6.031l-0.707-1.109l-1.303-0.997l-0.209-3.732l0.611-1.704l-0.804-2.719l-0.499-2.203l-0.418-0.612
		l-0.9-0.496l-1.512,1.014l0.208,0.997l0.804,1.013l-0.9,0.692l0.402,0.804l-0.612,0.708v0.899l1.014,0.918v1.399l-0.611,1.303
		l-0.691,0.305l-0.805-1.109l-1.415,0.114l-0.306-0.21h-1.206l-1.094,1.013l-0.418,1.706l-2.604,0.498l-2.011,1.704l-0.401,1.109
		l-0.997-0.096l-0.515-0.611l-0.29,1.721l-0.708,0.289l-0.208,1.608l0.306,0.707l-1.11,0.805l-0.304,0.802H310.8h-0.804v0.003v1.109
		l1.013,0.707l1.705,0.999l0.112,0.803l-1.013,0.307l-1.608,0.305v0.692l0.595,0.611l0.112,2.011l2.204,0.708l0.804,0.192
		l0.708,1.109l-0.5,0.709l-0.804,0.288l-0.611,1.109l-0.595,0.708l0.29,1.802l1.512-0.098l0.402,0.307l1.415-0.709l0.402,0.402
		l-0.708,1.513l0.708,0.708l-1.207,0.899l-0.805,1.802l2.204,0.515l3.12,0.29l-1.303,1.512c0,0-0.611-0.236-0.884-0.112
		c-0.008,0.005-0.025,0.012-0.031,0.017c-0.003,0.001-0.015,0.014-0.017,0.015c-0.003,0.003-0.014,0.015-0.016,0.017
		c-0.002,0.002-0.015,0.014-0.017,0.017c-0.004,0.004-0.013,0.011-0.016,0.015c-0.002,0.003,0.001,0.014,0,0.017
		c-0.003,0.006-0.014,0.027-0.016,0.031c-0.001,0.003,0,0.014,0,0.017c-0.002,0.008-0.017,0.025-0.017,0.033
		c0,0.006,0,0.023,0,0.031c0,0.502-0.691,1.721-0.691,1.721l0.997,1.095l1.817,1.107l3.41,0.902l0.998,0.401l0.917,0.401
		l-0.612,1.11l1.608-0.097l0.306,0.707h1.608l0.402-1.914l-1.014-0.209l1.415-1.495l-0.499-0.515l0.098-0.901l1.817-0.997
		l0.097-1.109l-1.207-0.096l-0.805,0.69v-0.997l1.609-0.098l0.5-1.206l0.4-3.523l-0.305-1.511l-0.032-1.447l-0.001,0.001
		l-0.064-2.974L332.32,460.906z"/></a>
<a><path class="mapZone" action="mapZoom" id="centre" fill="#2D2D2D" stroke="#E4E4E4" stroke-linejoin="round" stroke-miterlimit="10" d="M187.129,308.722
		l0.072-1.453l0.271-2.926l-1.282-1.185l0.17-2.691l-1.203-2.335l-0.147-1.555l-2.087-1.521l-0.356-1.334l0.979-1.476l-0.054-2.131
		l-1.21-1.328h0l-0.187-0.192l-0.137-1.125l2.248-0.72l-0.375-1.227l-0.39-1.779l-1.517-1.969l-0.376-1.227l2.265-0.057l1.567-1.166
		l0.174-1.671l-1.042-1.102l2.892-2.525l-0.051-2.022l-1.524-1.521l-0.607-1.776l-2.095-1.864l-2.787,1.645l-0.24-0.888
		l-1.254-0.076l-0.321,0.903l-1.119,0.244l-3.065-0.032l-1.23,0.819l-1.036-0.868l1.78-1.281l-0.156-1.896l-1.376-0.645
		l-1.184-1.654l-3.051-0.138l-1.276-0.973l-1.435,1.379l-3.308,0.371l0,0l-0.308,0.043l-0.31-3l-0.244-0.335l-0.255-1.443
		l-2.384-0.39l-1.065-1.208l-0.387-2.46l-1.366-0.181l-0.266-1.229l-1.604-1.071l-0.844-1.896l0.762-1.363l-0.82-0.874l-0.028-1.11
		l0.422-1.247l-0.928-0.871l-0.377-1.335l-1.153-1.081l-0.676,0.571l0.045,1.791l-2.237,1.166l0.042,1.683l-0.65,0.805l-2.845,0.072
		l-1.354-0.521l-4.043,2.214l-1.576,0.04l-1.593,1.581l0.389,0.241l0.156,1.913l2.443,1.942l0.32,4.13l-1.089,1.371l-1.695,0.383
		l-1.679,1.046l0.258,0.888l0.806,1l0.066,2.646l0.236,0.03l1.605,1.071l-0.563,0.731l-0.736,0.986l-0.867,1.58l1.15,0.992
		l-0.051,2.347l-0.414,1.568l-1.142,0.029l0.053,2.13l-1.525,2.062l-1.687,0.706l-0.772,1.02l0.366,0.832l0.229,0.495l-3.256,0.979
		l-0.75,1.148l-1.4-0.86l0.745,2.218l-1.251,0.032l-2.303-1.518l-1.069,2.266l0.58,0.666l0.017,0.662l-1.104,1.497l0.188,2.448
		l-1.759,2.178l-1.172,4.612l0.145-0.004l0.499,1.78l2.168,0.392l0.034,1.344l2.738,0.719l0.053,2.13l-0.074,1.344l3.39-0.084
		l2.936-0.753l-0.267-1.23l0.892-0.577l0.938,1.211l0.806,0.321l0.737,2.667l1.989,1.956l0.257,1.57l1.801,1.673l0.297,0.28
		l0.053,2.129l-0.418,1.354l2.199,1.628l1.152,1.083l1.817,0.186l0.747,2.327l1.25,0.631l-0.176,1.688l-0.903,0.184l0.329,0.063
		l2.85,0.143l0.991-1.027l1.856,1.745l2.2-2.636l1.03,0.656l1.357-0.16l0.459,0.222l2.05,0.055l0.626-1.807l5.689,0.537l2.171,0.502
		l0.975-0.131v0l2.654-0.389l0.515-1.161l1.425-1.7l2.812-0.644l1.497,0.41l1.546-1.257l-0.131-0.89l-0.574-0.435l-0.045-1.79
		l2.969-3.1l1.172,1.206l0.989-1.046l0.903-0.129l1.526-2.046l2.614,0.15l0.052,0.607l0.8-2.759L187.129,308.722z"/></a>
<a><path class="mapZone" action="mapZoom" id="bourgogneFrancheComte" fill="#2D2D2D" stroke="#E4E4E4" stroke-linejoin="round" stroke-miterlimit="10" d="
		M238.375,282.022l-0.443,1.14l-2.468,0.617l-0.249-0.548l-1.869-2.191l-1,0.58l-1.362-0.074l-0.476-0.884l-1.81,0.151l-0.157-1.894
		l-1.032-0.654l1.43-1.595l-2.697-3.406l-2.084-2.08l-1.835-0.956l-3.279,0.082l-0.2,1.456l-1.449,0.825l-3.729,0.201l-0.549,1.25
		l-0.799-0.089l-0.704-1.217l-2.236,1.184l-4.535-0.119l-0.592-1.22l-1.292-1.633l-0.269-2.016l-1.865-2.086l-1.123,0.817
		l-2.087-1.507l0.27-3.033l-3.011-2.95l-1.36,0.033l-0.815-0.642l-0.995,0.796l-4.427-0.105l-2.005,1.053l-0.755,1.703l0.931,0.98
		l-1.32,1.608l-1.002,1.242l2.096,1.864l0.606,1.776l1.525,1.521l0.051,2.021l-2.893,2.525l1.042,1.103l-0.174,1.671l-1.567,1.167
		l-2.265,0.056l0.376,1.226l1.517,1.968l0.39,1.781l0.376,1.226l-0.666,0.214l-1.582,0.506l0.137,1.125l1.398,1.522l0.054,2.131
		l-0.979,1.476l0.36,1.333l2.086,1.522l0.148,1.554l1.201,2.333l-0.169,2.692l1.282,1.186l-0.271,2.925l-0.073,1.454l0.587,0.988
		l-0.801,2.759l0.093,0.839l1.961,0.848l1.396,1.434l1.216-0.715l1.124-0.689l0.262,0.997l1.685-0.043l0.431-0.905l1.028,0.423
		l0.379,1.44l0.9-0.239l2.084-2.971l1.143,0.76l0.188,0.335l2.202,3.848l0.042,1.683l0.579,0.667l1.921-0.048l0.693,0.878
		l1.812-0.045l0.826,1.088v4.371l-2.329,1.851l-0.052,0.125l0.163-0.021l0.348,0.1l0.152,1.787l1.714,0.297l0.236,0.783l0.905-0.023
		l1.34-0.822l3.638,0.464l0.706,0.662l0.884-0.917l1.249-0.032l0.582-3.598l0.444-0.351l1.125-0.028l1.398,0.861l0.993-0.921
		l0.692,0.878l1.008-1.028l1.229-0.138l0.625,1.777l0.49,2.223l0.8,0.089l0.649-1.592l1.932-8.324l0.761-1.47l1.247-0.156
		l1.275,0.989l0.901-0.257l1.102-0.814l1.149,0.203l0.707,1.433l0.658,0.235l0.002,0l1.406,0.501l2.344,3.074l1.484,0.626
		l0.039,1.574l1.699-0.274l2.096-2.398l1.835,0.848l0.032,1.343l3.281-0.083l4.583-5.237l-0.201-0.103l0.158-2.349l1.654-2.049
		l-1.154-0.419l0.092-0.676h0l0.016-0.109l6.849-6.671l-0.352-5.366l2.451-1.279l1.686-0.831l1.54-1.489l0.073-2.134l1.557-0.827
		l3.521-4.226l-0.595-1.329l1.236-0.587l1.421-1.826l-0.816-0.771l-2.704,0.626l-0.121-0.446l2.43-2.907l0.421-0.513l1.499-0.271
		l-0.623-2.366l-0.375-1.227l-1.589,0.274l-0.25-1.336l0.537-1.037l0.075-1.345l-0.347-0.762l-2.087-1.522l-1.814-0.063
		l-0.363-0.672l-0.114-0.214l-3.673-1.805l-1.043-1.103l-1.031-0.637l-0.893,0.472l-0.111,0.666l-0.893,0.578l-0.56,0.012
		l-1.753-1.853l-2.375,0.059l-0.996,0.813l-0.902,0.13l-1.495-1.072l0.078-1.238l-0.591-0.433l-2.129,0.395l-0.317,1.119
		l-1.122,0.815l-0.802-0.875l-0.555,0.355l0.453,0.65l-1.107,0.709l0.367,0.885l-1.238,0.479l0.037,1.449l-1.596,0.041l-0.086,0.896
		l-1.568,0.38l0.143,1.34l1.017,0.081l-0.544,0.678l-0.287,2.244l-1.016,0.026l-1.686,0.725l-1.829-0.636l-1.56,0.719
		L238.375,282.022z"/></a>
<a><path class="mapZone" action="mapZoom" id="auvergneRhoneAlpes" fill="#2D2D2D" stroke="#E4E4E4" stroke-linejoin="round" stroke-miterlimit="10" d="
		M206.504,328.399l0.052-0.128l2.33-1.852l-0.002-4.369l-0.825-1.089l-1.813,0.046l-0.692-0.877l-1.921,0.048l-0.579-0.666
		l-0.042-1.684l-2.389-4.182l-1.144-0.761l-2.084,2.972l-0.901,0.239l-0.379-1.442l-1.028-0.42l-0.432,0.904l-1.685,0.044
		l-0.261-0.997l-1.125,0.689l-1.216,0.716l-1.396-1.434l-1.961-0.848l-0.145-1.446l-2.614-0.149l-1.525,2.044l-0.905,0.13
		l-0.988,1.045l-1.173-1.205l-2.968,3.1l0.046,1.789l0.573,0.435l0.13,0.889l-1.546,1.258l-1.496-0.408l-2.813,0.642l-1.425,1.7
		l-0.516,1.159l0.09-0.02l1.407,1.862l0.034,1.342l0.804,0.985l0.773-1.024l0.945,1.553l1.261,0.418l1.323,2.867l0.075,0.841
		l0.229,2.627l0.935,1.088l0.506,2.117l-1.334,1.036l-0.285,1.585l-1.234,0.692l-2.125,1.29l0.242,0.998l2.674,2.512l0.275,1.564
		l-0.991,1.694l0.04,1.573l0.708,0.771l0.393,1.89l-0.198,0.773h0l-0.313,1.243l0.597,1.327l-0.67,0.805l-1.123,0.028l-1.173-1.206
		l-1.029-0.527l-0.031,3.133l-2.015,1.286l-1.418,2.042l0.396,2.013l-0.431,0.906l-0.535,1.806l-0.905,0.022l-0.878,1.132
		l0.706,0.663l0.48,1.101l-1.443,1.058l0.693,3.724l1.956,1.365l-1.366,3.366l1.465,0.588l-0.585,1.915l1.272,0.128l0.922-1.598
		l1.612-0.041l0.319,0.458l3.534-0.088l0.599-1.432l0.789-0.341l0.262-2.534l0.797-0.019l-0.067-2.685l3.139-2.786l0.339,0.479
		l0.359,2.048l2.239-0.377l0.569,3.154l1.104-0.026l0.406,3.161l1.027,1.192l1.539-3.747l1.469-4.964l2.064,1.294l0.854-2.027
		l2.874-1.111l0.273-0.098l2.177,5.102l2.913-0.965l0.185-1.35l1.141-0.03l0.491,1.549l2.091-0.555l2.69,3.228l0.282,0.335
		l0.901,4.096l1.971,2.008l-0.266,2.372l2.445,1.37l0.08,3.167l1.271-0.674l2.762,1.686l1.299,0.434l0.252-2.229l1.605-0.347
		l0.515,1.727l1.609-0.202l0.262-1.744l3.732,1.945l0.567-1.214l1.552-0.27v-0.001l1.497-0.252l0.692,0.768l-0.271,2.249
		l0.468,0.542l1.642-1.726l1.483-0.146l0.305-0.899l-1.927-0.187l-0.375-1.995l1.183-1.929l1.591-0.162l1.614,1.426l-1.523,2.15
		l0.474,0.775l2.27,0.177l1.437-1.271l-0.756,1.702l0.271,1.338l2.378,0.153l3.179,0.154l0.487,1.438l1.735,1.192l1.471,0.073
		l0.993-0.925l0.538-1.697l0.924,0.768l0.691,0.771l0.348-4.164l-1.129-0.188l-0.725-1.431l-3.868-0.923l-0.519-1.885l1.354-0.93
		l-1.161-0.76l0.21-1.009l1.815,0.063l1.597,0.747l1.213-1.479l-1.275-0.97l0.075-1.348l0.636-2.146l2.368-0.293l1.901-0.816
		l0.189-0.455l0.137-0.348l-0.917-0.422l-0.034-1.345l2.827-0.07l0.884-0.917l-0.588-0.989l1.439-1.166l1.044,0.423l1.437-1.271
		l2.604,0.383l0.88-1.026l2.159,0.053l-0.062-2.451l-0.916-0.423l-0.49-1.439l-2.381-0.172l-0.358-0.543l0.395-2.357l0.779-0.7
		l2.042-0.266l0.687,0.641l0.384,1.57l2.024-0.284l0.194-1.688l1.002-0.474l2.178,0.051l-0.037-0.069l3.354-1.428l1.27,0.755
		l1.251-0.03l0.075-1.348l1.448-0.822l0.545-0.677l2.924-1.202l0.297-1.904l-0.602-0.882l1.528-2.721l-1.484-0.521l-0.492-1.562
		l-3.107-1.713c0,0,0.098-3.433-0.21-4.041c-0.01-0.015-0.029-0.046-0.037-0.055c-0.003-0.003-0.015-0.014-0.019-0.017
		c-0.003,0-0.017,0-0.019-0.001c-0.001-0.004-0.001-0.016-0.001-0.017c-0.002-0.001-0.015,0-0.017,0
		c-0.001,0-0.017,0.001-0.019,0.001c-0.002-0.001-0.015,0-0.018,0c-0.449,0.122-2.132,0.29-2.132,0.29l-1.752-1.874l0.009-1.848
		l0.005-1.951l3.82-1.674l0.425-1.118l-0.297-2.465l-2.549-2.498l-0.784,0.468l-0.025-1.019l-0.042-1.667l-2.183-0.962l-0.131-0.894
		l1.217-1.374l-0.039-1.556l-2.103-2.081l-0.145-1.445l-3.861,0.098l-2.579,0.51l-2.45,2.067l-0.696-0.984l-1.248,0.14l-1.08,2.499
		l0.152,0.998l1.258,0.971l-2.229,1.525L258,329.147l-2.501,0.059l-1.233,0.032l-0.054-2.129l1.34-0.823l2.025-0.264l0.097-1.131
		l-0.698-0.432l1.648-2.172l-0.252-0.656l-1.965-0.97l-4.583,5.236l-3.281,0.083l-0.032-1.342l-1.835-0.848l-2.096,2.397
		l-1.699,0.275l-0.039-1.575l-1.484-0.625l-2.344-3.076l-2.066-0.735l-0.706-1.432l-1.149-0.203l-1.102,0.814l-0.901,0.256
		l-1.275-0.988l-1.247,0.156l-0.761,1.47l-1.931,8.323l-0.291,0.688l0,0.005l-0.356,0.897l-0.801-0.086l-0.491-2.226l-0.626-1.776
		l-1.229,0.139l-1.007,1.028l-0.693-0.878l-0.992,0.919l-1.398-0.859l-1.125,0.028l-0.445,0.351l-0.204,1.295l-0.378,2.302
		l-1.249,0.032l-0.884,0.916l-0.706-0.663l-3.638-0.464l-1.34,0.823l-0.906,0.023l-0.237-0.784l-1.714-0.296l-0.152-1.788
		l-0.347-0.098"/></a>
<a><path class="mapZone" action="mapZoom" id="aquitaineLimousinPoitouCharentes" fill="#2D2D2D" stroke="#E4E4E4" stroke-linejoin="round" stroke-miterlimit="10" d="
		M175.705,346.813l-2.414-2.265l-0.243-0.998l2.126-1.289l1.233-0.693l0.287-1.584l1.334-1.036l-0.507-2.119l-0.934-1.087
		l-0.306-3.466l-1.323-2.867l-1.261-0.418l-0.945-1.551l-0.773,1.023l-0.804-0.984l-0.033-1.343l-1.407-1.861l-3.721,0.542
		l-2.171-0.503l-5.689-0.537l-0.626,1.808l-2.051-0.057l-0.458-0.221l-1.357,0.158l-1.032-0.655l-1.9,2.27 M150.73,327.081
		l-0.299,0.366l-1.856-1.746l-0.99,1.027l-2.85-0.142l-0.321-0.063l0.895-0.186l0.175-1.687l-1.25-0.631l-0.747-2.328l-1.817-0.187
		l-1.152-1.083l-2.199-1.626l0.418-1.354l-0.052-2.13l-2.1-1.954l-0.256-1.569l-1.99-1.956l-0.737-2.666l-0.806-0.322l-0.937-1.211
		l-0.893,0.578l0.267,1.229l-2.935,0.754l-3.389,0.084l0.074-1.345l-0.053-2.128l-2.737-0.719l-0.034-1.344l-2.169-0.392
		l-0.498-1.78l-1.015,0.027l-2.1,2.291l-0.521,0.944v0.001l-0.225,0.417l-0.814-0.641l-0.364-0.781l-3.059,0.184l-2.814,0.626
		l-3.057,0.309l0.039,1.558l-1.551,1.061l-3.534-0.701l-2.349,1.064l1.164,1.545l0.033,1.344l2.775,2.167l-0.634,1.468l1.862,1.958
		l-0.77,1.041l1.165,1.637l0.424,3.123l-0.651,0.915l0.832,1.319l-0.761,1.488l0.132,0.891l0.888-0.702l1.152,1.1l-1.55,1.042
		l-0.546,0.677l-1.241,0.372l-1.451,0.716l-0.11-0.086l0,0l-1.737-1.209l-2.132,0.948l-0.716-1.773l-1.592,0.148l-3.409,2.166
		l0.853,0.729l-1.775,1.495l-0.19,1.133l-1.698,0.257l-0.931-0.979l-2.271-0.157l-0.264-1.122l-1.381-0.861l-1.904,0.728
		l1.295,1.761l1.577-0.039l1.62,0.96l1.275,0.971l2.371-0.168l0.478,0.988l1.586,0.303l0.619,1.544l1.025,0.419l-0.078,1.239
		l-1.363-0.181l-0.436,0.674l1.051,1.422l-0.501,2.485l-1.361-0.074l0.147,1.554l0.359,0.55l-1.594,0.038l-0.241-0.886l0.981-1.372
		l-0.363-0.759l-0.574-0.436l-0.304-2.677l-1.926-0.186l-1.624-1.857l-0.137,3.925l2.658,1.834l0.271,2.123l0.513,2.442l0.297,2.462
		l1.357-0.158l2.421,1.858l1.618,0.85l0.136,1.109l1.258,0.199l3.715,3.489l0.947,3.844h-0.001l0.181,0.714l0.879,3.221l0.298,3.232
		l-0.54,0.909l-0.628-2.672L99.208,360l-5.91-5.007l0.067-2.348l-1.143-0.081l-1.743,2.734l-0.328,9.406l-1.228,9.543l-0.847,7.398
		l-0.061,1.92l0.732-2.598l1.525-2.062l2.316,1.965l0.251,0.657l0.694,0.877l-2.825,0.196l-0.469-0.67l-1.113,0.478l-0.192,1.688
		l-1.208,1.715l0.064,2.56l-0.016,0.106h-0.001l-1.744,10.684l-2.362,9.91l-0.702,3.833l-0.602,2.699l-1.613,2.904l0,0l-0.449,0.838
		l-2.531,3.196l-2.011,0.84l-1.462,0.25l0.032,1.237l1.391,1.199l2.032,0.058l0.146,1.446l1.598,0.084l0.427-1.031l2.18,0.842
		l1.367,0.305l0.36,1.334l-0.764,0.697l0.054,2.116l-1.576,0.828l-0.083,1.004l1.044,1.103l1.827,0.508l0.3-1.691l0.987-1.136
		l-0.072,1.452l0.825,1.109l2.03-0.05l0.936,1.193l2.73,0.38l2.647,1.508l4.296-0.108l0.294,2.339l2.992,2.162l1.177,1.316
		l1.231-0.695l1.118-0.258l0.576,0.538l1.02-0.577l1.948-1.127l0.123-2.311l0.888-0.705l0.378-3.697l1.693,0.294l0.679-0.464
		l-0.838-1.554l2.998-2.654l1.711-4.072l1.087-1.479l-1.41-1.969l-0.939-1.32l1.222-1.159l-2-3.085l-3.067-0.137l-0.114-0.195
		l-0.001,0.001l-0.833-1.358l0.745-2.15l1.087-1.476l-0.392-1.89l0.883-0.92l-1.396-2.205l1.089-1.367l1.245-0.263l1.137,0.42
		l1.56-1.384l0.604,1.668l0.582,0.772l1.242-0.372l-0.146-1.445l0.344-0.796l-0.001-0.002l0.413-0.904l1.37,1.091l1.766-1.835
		l0.826,1.093l1.912-0.389l2.042-0.268l0.866-1.597l3.381-0.408l1.745,1.62l0.567-0.568l1.114-0.366l-0.492-1.547l1.692-0.492
		l2.146-0.502l-0.504-1.329l0.668-0.803l0.508-2.146l-1.284-1.309l0.732-2.58l1.73,0.957l2.49-0.509l-1.205-2.44l-0.989-3.326
		l2.262-0.164l0.423-1.19h0l0.101-0.29l1.009-1.026l0.066-1.687l2.477-0.276l1.538-2.279l-0.693-0.214l-0.141-1.215l1.916-0.28
		l0.098-1.113l0.892-0.595l0.969-1.816l-1.041-1.085l-0.032-1.232l0.763-0.686l-0.072-0.105l0.34-0.062l2.381-1.172l2.914,1.202
		l2.307,3.093l1.282-0.194l1.874-1.945l0.66,1.095l1.257-1.286l1.768,0.421l0.064,0.377l1.441-1.058l-0.478-1.101l-0.706-0.663
		l0.878-1.132l0.905-0.022l0.535-1.806l0.431-0.906l-0.396-2.013l1.418-2.042l2.015-1.286l0.031-3.133l1.029,0.527l1.173,1.206
		l1.124-0.028l0.669-0.805l-0.597-1.327l0.512-2.019l-0.392-1.889l-0.709-0.771l-0.039-1.573l0.992-1.692l-0.276-1.565l-0.26-0.247"
		/></a>
<a><path class="mapZone" action="mapZoom" id="alsaceChampagneArdenneLorraine" fill="#2D2D2D" stroke="#E4E4E4" stroke-linejoin="round" stroke-miterlimit="10" d="
		M285.014,262.563l-0.03-0.358l2.812-5.783l-0.426-3.232l1.25-4.4l0.249-3.82l2.883-2.186l-0.034-1.343l1.105-1.497l0.906-0.021
		l0.988-1.027l-0.264-1.893l0.947-2.709l1.567-0.38l-1.609-1.196l-2.834-0.251l-2.531-1.171l-1.678,1.045l-0.931-0.98l-1.233,0.032
		v0l-2.142,0.644l-0.233,0.079l-0.808-1.091l-2.299-1.285l-0.828-1.216l-2.712,0.302l-1.559,1.489l-3.84,0.205l-1.161-0.758
		c-0.08-0.137-0.661-1.094-1.158-1.351c-0.02-0.01-0.05-0.024-0.074-0.033c-0.015-0.007-0.041-0.014-0.055-0.017
		c-0.006-0.002-0.028-0.014-0.035-0.018c-0.003,0-0.018,0.001-0.02,0.001c-0.014-0.001-0.042,0-0.053,0.001
		c-0.534,0.014-1.573-0.549-1.703-0.62l-1.578,0.704l-0.075,1.344l-1.915,0.282l-1.195-2.1l-0.676-0.219l-0.039-1.556l-1.612-0.64
		l-0.176-2.684l-1.169-1.081l-2.403-1.067l-1.124,0.028l-0.339,0.242l-1.142,0.028l-1.609-1.302l-1.702,0.15l-1.331,1.163
		l-0.33,0.562l-1.921,0.049l-0.686-0.664l-0.291,0.007l0,0l-1.521,0.04l-2.104-2.185l-2.609,0.064l-1.33,1.27l-1.916,0.155
		l-0.655,0.698l-0.145,0.004l-0.544,0.013l-0.507-2.12l-0.929-0.871l-0.653-0.073l0,0.001l-0.817-0.106l-0.51-2.225l-0.922-0.659
		l-3.179-0.26l-0.6-1.437l-1.049-0.636l-3.636-0.354l-0.282-2.574l0.44-0.458l-0.024-1.002l-1.842-1.081l0.313-1.245l0.427-1.121
		l-0.815-0.66l1.224-1.143l-0.051-2.022l-0.461-0.311l-1.705,0.042v0.001l-1.1,1.693l-0.989,1.046l0.026,1.001l0.033,1.344
		l-1.336,0.928l-2.464,0.85l-1.345,0.589l-1.625-1.195l-2.158,0.054l-0.258,1.996l1.064,1.871l-0.994,0.919l-0.065,1.685
		l0.583,0.882l-0.418,1.354l-1.682,0.937l0.037,1.45l-2.146,0.501l-0.322,0.904l1.506,0.75l-0.414,1.569l-0.311,1.352l0.143,2.79
		l0.063,1.021l-0.794,0.233l-1.95-1.187l-1.345,0.606l0.263,1.104l-2.392,0.06l-2.101,1.629l0.077,3.008l1.602,0.979l0.478,0.99
		l-2.604,0.281l-0.3,1.027l1.031,0.638l-0.435,0.692l-1.005,0.471l0.238,0.766l1.467-0.036l0.601,0.772l-1,0.707l-0.847,2.367
		l-1.684,0.83l-0.549,1.232l-0.544,0.693l0.143,0.661l-0.891,0.595l-0.197,1.563l0.92,0.532l0.496,1.672l-0.537,1.016l0.364,0.779
		l1.682-0.15l0.015,0.554l0.009,0.339l-1.561,0.703l-0.075,1.345l-0.772,1.038l-0.396,2.25l-0.207,1.887l0.72,0.554l1.361-0.033
		l3.012,2.949l-0.27,3.035l2.087,1.505l1.122-0.817l1.866,2.086l0.268,2.016l1.293,1.633l0.592,1.22l4.536,0.119l2.236-1.184
		l0.702,1.218l0.801,0.087l0.549-1.25l3.729-0.201l1.449-0.825l0.2-1.456l3.279-0.082l0.459,0.239l1.377,0.717l2.083,2.08
		l2.698,3.406l-1.431,1.595l1.033,0.654l0.156,1.894l1.809-0.152l0.477,0.882l1.362,0.075l1.001-0.581l1.868,2.191l0.249,0.548
		l2.469-0.618l0.443-1.139l0.11,0.016l-0.03-1.128l1.561-0.718l1.829,0.635l1.686-0.724l1.016-0.026l0.288-2.245l0.545-0.679
		l-1.018-0.08l-0.142-1.342l1.568-0.38l0.088-0.896l1.593-0.041l-0.036-1.449l1.239-0.479l-0.367-0.886l0.337-0.222l0.001,0
		l0.768-0.484l-0.453-0.651l0.555-0.355l0.802,0.876l1.122-0.815l0.317-1.12l2.13-0.394l0.59,0.432l-0.078,1.238l1.495,1.072
		l0.902-0.13l0.996-0.813l2.375-0.059l1.753,1.853l0.56-0.012l0.893-0.578l0.111-0.666l0.894-0.47l1.031,0.636l1.043,1.103
		l3.615,1.77l0,0l0.057,0.035l0.475,0.883l1.814,0.062l2.086,1.524l0.347,0.761l-0.076,1.344l-0.537,1.035l0.252,1.337l1.588-0.272
		l0.376,1.227l0.621,2.364l1.335-0.248l-0.204,1.224l0.813,0.661l4.185-0.214l2.113-1.736l0.048-2.472l1.104-1.48l-1.528-1.646
		l-0.824-1.769l0.876-1.239l-0.071-2.811l0.529-1.357l-0.057-2.237l0.978-1.474l-1.162-1.53l-0.19-3.218"/></a>
<a><path class="mapZone" action="mapZoom" id="bretagne" fill="#2D2D2D" stroke="#E4E4E4" stroke-linejoin="round" stroke-miterlimit="10" d="M39.597,279.461
		l1.319,1.97l1.822,0.403l0.646-1.019l-0.298,1.224l1.595,0.642l2.098,1.954l0.703,1.217l-0.18,1.455l-0.2,1.474l1.385,0.969
		l0.668-0.806l-0.711-0.878l-0.051-2.003l1.367,0.287l0.42-1.356l0.365,0.781l1.499,1.199l0.661-1.146l-0.729-1.539l1.293,1.65
		l1.57-0.273l-0.345-0.781l1.476,0.306l1.16,1.314l-0.54,0.909l-1.479-0.412l-1.724-0.744l-0.878,1.152l1.371,0.411l1.054,1.532
		l6.109-0.709l1.586,0.3l-0.763,0.683l0.134,1.016l0.222,0.157l0.486-0.102l0.991-1.028l0.691,0.754l1.811-0.046l2.129-1.164
		l3.139-1.315l0.03-3.136l0.66-0.374l0,0.001l2.255-1.257l7.003-0.516l0.422-1.247l1.115-1.138l2.473-0.403l0.078-1.238l1.71,0.19
		l1.048,1.317l2.296,0.497l0.413-0.905l0.53-2.038l1.378-3.617l0.784-0.467l1.928,0.185l-0.077-3.025l-0.817-0.769l-0.081-3.239
		l-0.373-1.101l-0.045-1.791l1.112-1.157l-0.055-2.236l-0.573-0.434l0.029-3.135l-0.917-0.424l-1.359,0.034l-1.165-0.867
		l-1.196,1.481l-1.013,0.151l-0.875,1.24l-0.912-0.191l-1.981-1.633l-0.724-2.114l-0.38-1.407l-5.563,0.142l-2.077-1.184
		l1.314-1.823l-2.722-0.042l-1.057,1.246l-0.706,0.822l-2.163-0.178l-0.187,1.24l-1.356,0.142l-0.147-1.554l-1.152-0.312
		l-0.774,0.915l-0.056-2.237l-1.334,1.037l-2.039-0.29l-0.654,1.36l-4.129,2.343l0.028,1.127l-0.906,0.022l-0.051-2.021
		l-2.401-1.049l0.167-2.029l-2.178-1.503l-0.047-1.897l-1.603-0.3l0.062-1.792l-1.234-0.077l0.08-1.236l-2.265,0.057l-0.316,1.119
		l-0.71-1.542l-1.012,0.813l-2.584,0.388l-0.561,0.802l-1.846-1.296l-2.333,1.634l0.936,1.194l-1.598,2.134l-1.894-1.026
		l-3.167,0.188l0.057,2.236l-0.907,0.023l-0.242-0.998l-1.354,0.25l-0.3-2.57l-1.197,1.373l-1.373-0.52l-2.496,0.294l-0.423,1.12
		l-1.46,0.378l-0.266-1.229l-2.584,0.404l0.019,0.788l-1.809,0.153l-0.811-0.535l-0.896,0.471l-0.199,1.347l-3.042,0.185
		l-1.547,1.938l1.385,0.967l-1.775,1.512l0.587,0.99l-0.392,2.462l1.819,0.187l0.67-0.699l0.356,0.44l4.28-0.664l2.777-2.076
		l-2.425,2.408l0.245,1.105l2.241-1.059l-0.415,1.585l2.504,0.044l-0.092,0.666l-2.721-0.041l-2.171-0.5l-2.64-1.17l-1.533,1.829
		l2.048,0.63l-0.034,3.009l0.551-0.462l1.204-1.928L22,264.107l1.148,0.202l0.497,1.78l-0.658,1.234l-1.471-0.071l-1.358,0.034
		l-2.254,0.398l-3.855,0.311l-0.754,1.04l1.141,0.634l1.248-0.139l1.037,0.868l1.465-0.144l2.458,2.626l0.635,2.883l-0.758,1.595
		l2.387,0.388l2.604-0.192l0.538-1.016l-1.049-1.316l1.024,0.421l1.032-0.133l1.836,0.956l1.118-0.242l-0.046-1.916l0.5,1.904
		l1.527,2.307l3.177,0.136l0.11-0.666l0.807,1.091l1.947,0.291l1.467-0.037l0.095,0.125"/></a>
<a><path class="mapZone" id="midiPyreneesLanguedocRoussillon" fill="#2D2D2D" stroke="#E4E4E4" stroke-linejoin="round" stroke-miterlimit="10" d="
		M169.494,383.219l-0.927-0.101l0.586-1.914l-1.465-0.59l1.366-3.366l-1.957-1.363l-0.754-4.103l-1.769-0.423l-1.257,1.288
		l-0.66-1.095l-1.874,1.945l-1.282,0.194l-2.307-3.091l-2.914-1.204l-2.382,1.174l-0.345,0.061l0.076,0.104l-0.763,0.686
		l0.032,1.232l1.042,1.085l-0.97,1.816l-0.891,0.595l-0.099,1.113l-1.915,0.28l0.14,1.215l0.694,0.214l-1.539,2.279l-2.477,0.276
		l-0.066,1.686l-1.01,1.027l-0.525,1.48l-2.261,0.164l0.989,3.326l1.013,2.052 M143.025,391.264l0.191,0.39l-2.489,0.51
		l-1.731-0.959l-0.732,2.58l1.284,1.309l-0.508,2.146l-0.669,0.803l0.504,1.328l-2.146,0.503l-1.692,0.492l0.492,1.547l-0.844,0.271
		h0l-0.269,0.096l-0.566,0.568l-1.745-1.62l-3.38,0.407l-0.867,1.596l-2.042,0.269l-1.912,0.389l-0.826-1.092l-1.766,1.835
		l-1.37-1.092l-0.755,1.703l0.146,1.444l-1.242,0.373l-0.582-0.773l-0.604-1.668l-1.56,1.381l-1.136-0.418l-1.246,0.264
		l-1.089,1.368l1.396,2.204l-0.882,0.919l0.391,1.89l-1.086,1.476l-0.745,2.149l0.947,1.555l2.868,0.123l0.712-0.396l-0.712,0.396
		l0.199,0.014l2,3.085l-1.222,1.159l0.939,1.32l1.41,1.969l-1.087,1.479l-1.71,4.072l-2.999,2.654l0.838,1.554l-0.678,0.464
		l-1.694-0.297l-0.379,3.7l-0.888,0.706l-0.123,2.31l0.284-0.168l1.951,1.081l2.306,1.622l0.251,1.341l1.849,1.401l1.485-0.037
		l3.694-1.669l1.623,1.752l2.168,0.518l0.764-1.364l1.027,0.425l2.196,0.085l4.612,0.191l0.097-5.503l1.583,0.193l2.371,1.284
		l0.002-0.002l0.623,0.324l3.513,0.576l1.486-0.039l1.983,2.423l4.869-0.355l1.997,2.978l1.687-0.723l5,0.554l0.416,2.049
		l0.23,1.176l1.743,1.532l3.411,0.811l0.16,2.004l1.851,1.525l1.354-0.265l1.879-2.393l2.365-0.508l3.763,1.142l3.239,2.604
		l0.877-1.15l0.797-0.019l0.811,0.531l0.663-0.336l0.069-1.577l3.387-0.872l1.087-1.479l1.689-0.6l2.375-0.059l1.524,1.522
		l1.815,0.077l-0.045-1.789l-0.938-1.211l-1.611-0.642l-0.501-9.766l-0.171-3.202l0.034-3.688l-1.356,0.141l-1.183-1.638
		l0.869-1.489l1.964,1.74l1.671-1.383l1.113-1.139l0.115-1.187l0.057-0.61l4.046-1.337l0.428-1.012l3.168-0.189l0.984-1.257
		l6.004-4.971l3.774-2.781l1.562,0.066l1.742,0.084l0.055,2.239l2.59-0.195l1.396,0.036l0.957-2.35l3.623-2.312l-0.825-1.09
		l0.896-2.548l3.364,0.38l0.664-6.034l4.412-2.636l-0.035-1.43l-3.454-3.229l-0.063-2.541l-2-3.101l-4.062-2.119l-0.262,1.743
		l-1.609,0.201l-0.515-1.725l-1.605,0.346l-0.252,2.228l-1.299-0.432l-2.762-1.688l-1.271,0.676l-0.08-3.169l-1.876-1.043
		l-0.001,0.002l-0.569-0.329l0.267-2.372l-1.972-2.008l-0.901-4.095l-2.972-3.562l-2.091,0.555l-0.491-1.549l-1.141,0.03
		l-0.185,1.35l-2.913,0.965l-2.178-5.101l-3.143,1.208l-0.855,2.027l-2.064-1.294l-1.469,4.964l-1.538,3.743l-1.029-1.188
		l-0.406-3.161l-1.105,0.027l-0.569-3.155l-2.238,0.377l-0.359-2.048l-0.339-0.478l-3.139,2.784l0.067,2.685l-0.797,0.019
		l-0.263,2.534l-0.789,0.343l-0.6,1.43l-3.534,0.088l-0.318-0.458l-1.613,0.041l-0.921,1.6l-0.345-0.028"/></a>
</g>
</svg>
