<?xml version="1.0" encoding="utf-8"?>
<!-- Generator: Adobe Illustrator 16.0.0, SVG Export Plug-In . SVG Version: 6.00 Build 0)  -->
<!DOCTYPE svg PUBLIC "-//W3C//DTD SVG 1.1//EN" "http://www.w3.org/Graphics/SVG/1.1/DTD/svg11.dtd">
<svg version="1.1" id="Layer_1" xmlns="http://www.w3.org/2000/svg" xmlns:xlink="http://www.w3.org/1999/xlink" x="0px" y="0px"
	 width="67.68px" height="53.219px" viewBox="0 0 67.68 53.219" enable-background="new 0 0 67.68 53.219" xml:space="preserve">
<g>
	<path fill="#80818B" d="M24.818,2.738H19.06l-4.001,1.264l-1.826,4.002l1.826,4.494l3.511,1.264l0.49,2.247l0.421,5.758l3.09,4.423
		l3.511,0.842l0.983,2.247l3.861,0.843l3.229-0.843l1.264,2.668l2.246,1.755l-2.246,0.843l-8.355,0.421v2.668l0.842,2.668
		l2.177,3.511l0.843-0.421l2.316-1.686h3.511l6.178,1.264l2.598,1.334l2.248,0.422l-1.404,3.159l2.809,2.598l2.596-2.177l2.67-5.336
		v-3.932h-1.336l-0.912-4.914l-4.422-6.67l-1.826-1.264l0.982-1.404v-1.685l-2.246,0.842H42.51l-0.49-2.176l2.246-0.913v-2.247
		l-2.738-0.421v-1.755l2.246-1.825l2.178,1.825l0.422-1.825l2.316-1.264l-0.912-2.247l-3.512,2.247h-2.738l-2.105,1.264
		l-7.091-8.776l-4.002-0.421L24.818,2.738z"/>
</g>
</svg>
