<?xml version="1.0" encoding="utf-8"?>
<!-- Generator: Adobe Illustrator 16.0.0, SVG Export Plug-In . SVG Version: 6.00 Build 0)  -->
<!DOCTYPE svg PUBLIC "-//W3C//DTD SVG 1.1//EN" "http://www.w3.org/Graphics/SVG/1.1/DTD/svg11.dtd">
<svg version="1.1" id="Layer_1" xmlns="http://www.w3.org/2000/svg" xmlns:xlink="http://www.w3.org/1999/xlink" x="0px" y="0px"
	 width="67.68px" height="53.219px" viewBox="0 0 67.68 53.219" enable-background="new 0 0 67.68 53.219" xml:space="preserve">
<g>
	<g>
		<g>
			<path fill="#80818B" d="M55.536,13.371h1.834v-1.535h-2.277L55.536,13.371z"/>
			<path fill="#80818B" d="M53.196,11.836V9.533h-6.453l1.393,2.878l0.949,0.513h2.719L53.196,11.836z"/>
			<path fill="#80818B" d="M52.247,24.18h-1.328l0.441,1.918h0.887V24.18z"/>
			<path fill="#80818B" d="M50.918,18.104l0.441-1.023l-1.391-0.448v0.959L50.918,18.104z"/>
			<path fill="#80818B" d="M60.026,19.446l1.076-0.447l0.758-0.512l-1.391-0.384l-1.328-1.982l-2.846,1.982l1.453,1.791l0.887-0.896
				l0.568,0.256L60.026,19.446z"/>
			<path fill="#80818B" d="M61.924,21.365l-0.443,1.407l1.328-0.447v-0.96H61.924z"/>
			<path fill="#80818B" d="M61.481,35.563l-1.391-1.407h-2.215l-2.34-2.431h-2.404l-1.328,1.279H49.78l-3.037,3.134l2.783,6.14
				l0.443,1.854l4.617,1.407v-1.599h4.363l1.836,1.854l-0.695,3.133l1.391,1.408h6.199v-4.094l-1.645-1.598h-2.467l-2.088-1.855
				V35.563z"/>
			<path fill="#80818B" d="M37.129,12.411v-1.022h-1.393v1.982L37.129,12.411z"/>
			<path fill="#80818B" d="M33.46,8.062V9.47h1.392V8.062H33.46z"/>
			<path fill="#80818B" d="M29.223,8.128l-1.266,0.446v0.959h1.266V8.128z"/>
			<path fill="#80818B" d="M30.298,10.94v1.471l1.265,0.448v-1.023L30.298,10.94z"/>
			<path fill="#80818B" d="M28.843,25.075h-1.771v-3.71l-3.288-0.447v3.262l1.391,6.139h1.897l1.328-2.302l0.507-2.175
				L28.843,25.075z"/>
			<path fill="#80818B" d="M14.484,18.295c0-0.383-0.126-0.639-0.316-0.704H9.551v0.896l0.443,3.391l3.289,0.447l0.442,0.383
				c0.253,0.129,0.442,0.064,0.442-0.383l0.442-3.326L14.484,18.295z"/>
			<path fill="#80818B" d="M15.56,27.058l-2.276-2.878l-1.013,2.43l1.455,7.61c0.062,0.385,0.253,0.448,0.633,0.256l0.695-0.256
				l1.393-2.365l1.896-0.959l-0.569-1.92L15.56,27.058z"/>
			<path fill="#80818B" d="M43.961,33.261l-0.445-3.389h-2.783l-0.504,0.959l-4.492,0.512l-2.783-0.512v1.982l1.392,2.75l2.34,1.406
				l1.328,2.878h1.834l2.783-3.772L43.961,33.261z"/>
			<path fill="#80818B" d="M2.277,2.882H0.442L0,4.673L2.277,4.29V2.882z"/>
			<path fill="#80818B" d="M2.719,16.121l1.329,2.366v-2.75l-1.329-3.326l-1.454,5.18l0.506,0.896L2.719,16.121z"/>
		</g>
	</g>
</g>
</svg>
