<?xml version="1.0" encoding="utf-8"?>
<!-- Generator: Adobe Illustrator 16.0.0, SVG Export Plug-In . SVG Version: 6.00 Build 0)  -->
<!DOCTYPE svg PUBLIC "-//W3C//DTD SVG 1.1//EN" "http://www.w3.org/Graphics/SVG/1.1/DTD/svg11.dtd">
<svg version="1.1" id="Layer_1" xmlns="http://www.w3.org/2000/svg" xmlns:xlink="http://www.w3.org/1999/xlink" x="0px" y="0px"
	 width="141px" height="176px" viewBox="0 0 141 176" enable-background="new 0 0 141 176" xml:space="preserve">
<path fill="#3F9A96" d="M70.485,98.911c17.477,0,31.835-7.075,32.881-16.646c-2.501-8.746-5.413-18.52-8.116-27.888
	c-1.87,6.66-12.491,11.443-24.555,11.443c-12.071,0-22.688-4.783-24.555-11.443c-2.711,9.368-5.623,19.142-8.116,27.888
	C38.646,91.623,53.211,98.911,70.485,98.911z M70.485,39.603c8.113,0,15.816-3.123,17.896-7.906
	c-3.122-10.405-5.623-19.354-7.283-25.18c-1.042-3.745-6.036-5.831-10.613-5.831c-4.581,0-9.573,1.873-10.608,5.831
	c-1.668,5.613-4.376,14.562-7.289,25.18C54.674,36.479,62.369,39.603,70.485,39.603z M134.369,115.559l-27.258-14.987l3.123,10.614
	c-0.21,11.241-18.316,20.396-39.749,20.396s-39.534-8.953-39.749-20.396l3.127-10.614L6.598,115.559
	c-7.7,3.745-7.902,10.613-0.622,15.401l51.396,41.401c7.289,4.793,19.15,4.793,26.431,0l51.4-41.401
	C142.275,126.379,142.072,119.304,134.369,115.559z"/>
</svg>
