<?xml version="1.0" encoding="utf-8"?>
<!-- Generator: Adobe Illustrator 16.0.0, SVG Export Plug-In . SVG Version: 6.00 Build 0)  -->
<!DOCTYPE svg PUBLIC "-//W3C//DTD SVG 1.1//EN" "http://www.w3.org/Graphics/SVG/1.1/DTD/svg11.dtd">
<svg version="1.1" id="Layer_1" xmlns="http://www.w3.org/2000/svg" xmlns:xlink="http://www.w3.org/1999/xlink" x="0px" y="0px"
	 width="133.684px" height="71.579px" viewBox="0 0 133.684 71.579" enable-background="new 0 0 133.684 71.579"
	 xml:space="preserve">
<g>
	<path opacity="0.3" fill="#678238" d="M67.872,38.781c-1.879-0.206-3.578,1.144-3.777,3.032c-0.203,1.877,1.149,3.57,3.027,3.766
		c0.133,0.018,0.256,0.021,0.379,0.021c1.734,0,3.207-1.299,3.396-3.045C71.098,40.665,69.749,38.98,67.872,38.781z"/>
	<path opacity="0.3" fill="#678238" d="M65.244,23.592c-0.247-1.871-1.968-3.188-3.845-2.942c-1.864,0.249-3.186,1.972-2.926,3.843
		c0.223,1.725,1.686,2.972,3.385,2.972c0.145,0,0.289-0.006,0.457-0.028C64.182,27.186,65.5,25.469,65.244,23.592z"/>
	<path opacity="0.3" fill="#678238" d="M64.027,14.307c0.011,1.889,1.542,3.415,3.421,3.415c0,0,0.01,0,0.021,0
		c1.887-0.005,3.404-1.549,3.396-3.438c0-1.887-1.545-3.413-3.432-3.406C65.544,10.881,64.013,12.418,64.027,14.307z"/>
	<path opacity="0.3" fill="#678238" d="M4.266,63.461c-1.899,0-3.431,1.533-3.431,3.424c0,1.889,1.531,3.42,3.431,3.42
		c1.887,0,3.42-1.531,3.42-3.42C7.686,64.995,6.155,63.461,4.266,63.461z"/>
	<path opacity="0.3" fill="#678238" d="M5.686,53.118c-1.855-0.314-3.621,0.946-3.936,2.801c-0.311,1.866,0.951,3.633,2.805,3.945
		c0.192,0.033,0.381,0.057,0.57,0.057c1.645,0,3.096-1.191,3.374-2.861C8.814,55.194,7.551,53.427,5.686,53.118z"/>
	<circle opacity="0.3" fill="#678238" cx="41.721" cy="66.884" r="3.423"/>
	<path opacity="0.3" fill="#678238" d="M45.276,53.624c-1.721-0.779-3.743,0-4.525,1.721c-0.77,1.725,0.012,3.746,1.732,4.52
		c0.457,0.207,0.928,0.307,1.396,0.307c1.309,0,2.56-0.758,3.129-2.031C47.779,56.424,46.997,54.395,45.276,53.624z"/>
	<path opacity="0.3" fill="#678238" d="M47.711,45.823c-1.408,1.264-1.531,3.426-0.269,4.835c0.683,0.749,1.609,1.134,2.55,1.134
		c0.816,0,1.629-0.291,2.277-0.868c1.408-1.265,1.532-3.431,0.27-4.837C51.274,44.682,49.12,44.567,47.711,45.823z"/>
	<path opacity="0.3" fill="#678238" d="M57.579,39.954c-1.8,0.574-2.794,2.502-2.213,4.305c0.457,1.447,1.811,2.377,3.252,2.377
		c0.346,0,0.703-0.051,1.051-0.162c1.799-0.583,2.793-2.502,2.212-4.303C61.301,40.37,59.376,39.377,57.579,39.954z"/>
	<path opacity="0.3" fill="#678238" d="M32.356,63.461c-1.898,0-3.417,1.533-3.417,3.424c0,1.889,1.519,3.42,3.417,3.42
		c1.891,0,3.422-1.531,3.422-3.42C35.778,64.995,34.247,63.461,32.356,63.461z"/>
	<path opacity="0.3" fill="#678238" d="M34.951,53.338c-1.798-0.57-3.721,0.434-4.29,2.239c-0.559,1.808,0.436,3.722,2.234,4.288
		c0.346,0.105,0.693,0.16,1.029,0.16c1.463,0,2.815-0.936,3.271-2.395l0,0C37.754,55.831,36.761,53.901,34.951,53.338z"/>
	<path opacity="0.3" fill="#678238" d="M36.571,50.077c0.594,0.419,1.285,0.613,1.956,0.613c1.085,0,2.134-0.502,2.806-1.451
		c1.084-1.547,0.703-3.682-0.84-4.766c-1.542-1.09-3.686-0.709-4.771,0.838C34.65,46.856,35.016,48.991,36.571,50.077z"/>
	<path opacity="0.3" fill="#678238" d="M45.723,43.176c0.727,0,1.464-0.229,2.088-0.717c1.488-1.152,1.778-3.3,0.617-4.793
		c-1.152-1.499-3.296-1.777-4.795-0.621c-1.498,1.146-1.777,3.297-0.625,4.793C43.678,42.711,44.695,43.176,45.723,43.176z"/>
	<path opacity="0.3" fill="#678238" d="M55.555,37.794c0.381,0,0.783-0.065,1.175-0.204c1.775-0.654,2.681-2.616,2.032-4.385
		c-0.648-1.782-2.615-2.693-4.381-2.039c-1.789,0.643-2.694,2.608-2.045,4.385C52.84,36.934,54.147,37.794,55.555,37.794z"/>
	<path opacity="0.3" fill="#678238" d="M22.983,63.461c-1.887,0-3.407,1.533-3.407,3.424c0,1.889,1.521,3.42,3.407,3.42
		c1.902,0,3.432-1.531,3.432-3.42C26.415,64.995,24.882,63.461,22.983,63.461z"/>
	<path opacity="0.3" fill="#678238" d="M25.038,53.214c-1.843-0.446-3.686,0.685-4.133,2.521c-0.445,1.832,0.682,3.688,2.514,4.131
		c0.268,0.065,0.537,0.101,0.815,0.101c1.531,0,2.939-1.052,3.318-2.614C28,55.512,26.873,53.665,25.038,53.214z"/>
	<path opacity="0.3" fill="#678238" d="M30.928,48.366c0.871-1.676,0.224-3.744-1.453-4.611c-1.674-0.877-3.742-0.227-4.625,1.451
		c-0.861,1.674-0.212,3.742,1.464,4.617c0.502,0.264,1.04,0.387,1.575,0.387C29.119,50.209,30.313,49.538,30.928,48.366z"/>
	<path opacity="0.3" fill="#678238" d="M36.348,40.444c1.24-1.433,1.105-3.588-0.325-4.833c-1.419-1.24-3.587-1.1-4.827,0.32
		c-1.24,1.418-1.096,3.586,0.324,4.833c0.646,0.568,1.453,0.843,2.246,0.843C34.727,41.606,35.667,41.214,36.348,40.444z"/>
	<path opacity="0.3" fill="#678238" d="M44.314,29.251c-1.083-1.545-3.217-1.92-4.759-0.831c-1.555,1.091-1.923,3.219-0.84,4.768
		c0.672,0.95,1.732,1.451,2.805,1.451c0.682,0,1.365-0.194,1.968-0.619C45.03,32.929,45.409,30.799,44.314,29.251z"/>
	<path opacity="0.3" fill="#678238" d="M51.935,29.471c1.767-0.683,2.627-2.67,1.945-4.437c-0.692-1.759-2.682-2.62-4.437-1.939
		c-1.766,0.692-2.638,2.675-1.944,4.435c0.537,1.352,1.833,2.18,3.185,2.18C51.108,29.711,51.534,29.638,51.935,29.471z"/>
	<path opacity="0.3" fill="#678238" d="M76.397,24.262c0.199-1.883-1.162-3.568-3.051-3.761c-1.879-0.2-3.555,1.165-3.756,3.047
		c-0.203,1.872,1.162,3.557,3.039,3.761c0.133,0.011,0.246,0.015,0.369,0.015C74.719,27.323,76.208,26.017,76.397,24.262z"/>
	<path opacity="0.3" fill="#678238" d="M13.262,63.461c-1.889,0-3.418,1.533-3.418,3.424c0,1.889,1.529,3.42,3.418,3.42
		c1.898,0,3.43-1.531,3.43-3.42C16.692,64.995,15.161,63.461,13.262,63.461z"/>
	<path opacity="0.3" fill="#678238" d="M14.936,53.148c-1.854-0.358-3.652,0.843-4.021,2.7c0-0.008,0-0.008,0-0.008
		c-0.359,1.861,0.839,3.662,2.692,4.023c0.224,0.045,0.458,0.066,0.671,0.066c1.596,0,3.039-1.127,3.352-2.76
		C17.999,55.316,16.793,53.516,14.936,53.148z"/>
	<path opacity="0.3" fill="#678238" d="M18.592,43.37c-1.744-0.725-3.744,0.1-4.471,1.85c0.014,0,0.014,0,0.014,0
		c-0.727,1.75,0.101,3.744,1.844,4.469c0.434,0.18,0.881,0.263,1.306,0.263c1.353,0,2.624-0.794,3.175-2.114
		C21.17,46.091,20.346,44.086,18.592,43.37z"/>
	<path opacity="0.3" fill="#678238" d="M24.1,34.486c-1.564-1.054-3.699-0.63-4.738,0.944l0,0c-1.061,1.572-0.637,3.699,0.94,4.744
		c0.58,0.387,1.252,0.582,1.898,0.582c1.106,0,2.189-0.542,2.849-1.531C26.09,37.661,25.676,35.531,24.1,34.486z"/>
	<path opacity="0.3" fill="#678238" d="M26.391,31.688c0.672,0.666,1.543,0.994,2.414,0.994c0.883,0,1.756-0.328,2.426-1.009
		c1.34-1.33,1.328-3.503-0.012-4.833c-1.329-1.331-3.508-1.331-4.828,0.011C25.049,28.19,25.049,30.354,26.391,31.688z"/>
	<path opacity="0.3" fill="#678238" d="M34.01,24.537c0.66,0.977,1.744,1.509,2.84,1.509c0.658,0.007,1.328-0.184,1.91-0.577
		c1.564-1.056,1.988-3.19,0.928-4.754c-1.051-1.57-3.184-1.983-4.75-0.926C33.375,20.838,32.961,22.973,34.01,24.537z"/>
	<path opacity="0.3" fill="#678238" d="M42.874,19.002c0.548,1.306,1.81,2.104,3.15,2.104c0.447,0,0.883-0.081,1.33-0.274
		c1.732-0.724,2.558-2.725,1.83-4.471c-0.724-1.747-2.735-2.57-4.479-1.843C42.961,15.251,42.147,17.256,42.874,19.002z"/>
	<path opacity="0.3" fill="#678238" d="M52.639,15.307c0.336,1.614,1.754,2.743,3.354,2.743c0.225,0,0.447-0.021,0.682-0.073
		c1.844-0.368,3.051-2.173,2.682-4.028c-0.381-1.85-2.18-3.05-4.033-2.683C53.467,11.648,52.27,13.446,52.639,15.307z"/>
	<path opacity="0.3" fill="#678238" d="M6.59,49.616c0.369,0.137,0.75,0.193,1.129,0.193c1.408,0,2.727-0.884,3.217-2.297
		c0.627-1.783-0.312-3.737-2.101-4.354c-1.788-0.625-3.731,0.319-4.357,2.102C3.852,47.047,4.802,48.999,6.59,49.616z"/>
	<path opacity="0.3" fill="#678238" d="M10.311,39.857c0.516,0.284,1.084,0.421,1.643,0.421c1.207,0,2.379-0.641,3.004-1.77
		c0.916-1.657,0.304-3.736-1.351-4.652c-1.653-0.912-3.731-0.302-4.649,1.347C8.054,36.862,8.647,38.942,10.311,39.857z"/>
	<path opacity="0.3" fill="#678238" d="M15.62,30.853c0.625,0.495,1.375,0.74,2.123,0.74c1.006,0,2-0.447,2.682-1.295
		c1.175-1.475,0.928-3.637-0.561-4.804c-1.475-1.176-3.63-0.93-4.805,0.552C13.887,27.527,14.133,29.676,15.62,30.853z"/>
	<path opacity="0.3" fill="#678238" d="M24.882,23.995c0.815,0,1.642-0.29,2.291-0.877c1.407-1.269,1.519-3.431,0.257-4.839
		c-1.274-1.402-3.43-1.514-4.84-0.25c-1.396,1.269-1.519,3.431-0.245,4.838C23.016,23.607,23.956,23.995,24.882,23.995z"/>
	<path opacity="0.3" fill="#678238" d="M33.196,17.68c0.624,0,1.262-0.171,1.82-0.535c1.609-1.012,2.068-3.129,1.063-4.721
		c-1.017-1.595-3.128-2.068-4.726-1.057c-1.598,1.021-2.068,3.133-1.051,4.726C30.951,17.124,32.068,17.68,33.196,17.68z"/>
	<path opacity="0.3" fill="#678238" d="M42.428,12.842c0.445,0,0.892-0.09,1.328-0.267c1.742-0.728,2.558-2.739,1.822-4.483
		c-0.729-1.734-2.738-2.556-4.481-1.819c-1.743,0.727-2.56,2.735-1.823,4.481C39.823,12.06,41.086,12.842,42.428,12.842z"/>
	<path opacity="0.3" fill="#678238" d="M52.337,9.626c0.257,0,0.526-0.031,0.782-0.09c1.842-0.432,2.982-2.269,2.559-4.108
		c-0.426-1.849-2.27-2.988-4.111-2.558c-1.844,0.425-2.984,2.273-2.549,4.112C49.375,8.563,50.785,9.626,52.337,9.626z"/>
	<path opacity="0.3" fill="#678238" d="M62.663,8.111c0.078,0,0.146,0,0.214,0c1.886-0.123,3.317-1.749,3.206-3.631
		c-0.123-1.889-1.742-3.317-3.631-3.201c-1.889,0.112-3.319,1.737-3.195,3.625C59.366,6.712,60.875,8.111,62.663,8.111z"/>
	<path opacity="0.3" fill="#678238" d="M77.188,40.307c-1.799-0.568-3.73,0.422-4.301,2.221c-0.58,1.805,0.414,3.721,2.213,4.307
		c0.346,0.105,0.703,0.158,1.053,0.158c1.439,0,2.781-0.926,3.25-2.377C79.981,42.819,78.989,40.883,77.188,40.307z"/>
	<path opacity="0.3" fill="#678238" d="M67.725,29.279c-1.888-0.084-3.486,1.38-3.578,3.269c-0.076,1.896,1.387,3.486,3.277,3.571
		c0.045,0,0.1,0,0.156,0c1.809,0,3.33-1.431,3.406-3.262C71.077,30.962,69.602,29.37,67.725,29.279z"/>
	<path fill="#678238" d="M129.418,63.461c-1.887,0-3.42,1.533-3.42,3.424c0,1.889,1.533,3.42,3.42,3.42
		c1.898,0,3.43-1.531,3.43-3.42C132.848,64.995,131.317,63.461,129.418,63.461z"/>
	<path fill="#678238" d="M128.555,59.92c0.193,0,0.383-0.023,0.572-0.057c1.854-0.311,3.119-2.079,2.807-3.945
		c-0.316-1.854-2.08-3.117-3.936-2.801c-1.867,0.31-3.129,2.074-2.814,3.941C125.461,58.731,126.917,59.92,128.555,59.92z"/>
	<path opacity="0.3" fill="#678238" d="M71.536,8.111c0.066,0,0.135,0,0.213,0c1.789,0,3.297-1.397,3.396-3.207
		c0.123-1.887-1.307-3.513-3.195-3.625c-1.891-0.116-3.51,1.312-3.621,3.201C68.206,6.361,69.635,7.987,71.536,8.111z"/>
	<circle fill="#678238" cx="91.963" cy="66.884" r="3.423"/>
	<path fill="#678238" d="M91.202,59.864c1.723-0.771,2.502-2.793,1.732-4.52c-0.781-1.721-2.805-2.501-4.525-1.721
		c-1.721,0.77-2.504,2.799-1.732,4.516c0.572,1.271,1.82,2.031,3.131,2.031C90.276,60.17,90.743,60.073,91.202,59.864z"/>
	<path opacity="0.3" fill="#678238" d="M85.971,45.823c-1.408-1.258-3.564-1.141-4.826,0.264c-1.262,1.406-1.139,3.572,0.268,4.837
		c0.646,0.577,1.463,0.868,2.279,0.868c0.938,0,1.867-0.385,2.547-1.134C87.502,49.249,87.381,47.086,85.971,45.823z"/>
	<path fill="#678238" d="M101.325,63.461c-1.889,0-3.42,1.533-3.42,3.424c0,1.889,1.531,3.42,3.42,3.42
		c1.9,0,3.422-1.531,3.422-3.42C104.747,64.995,103.225,63.461,101.325,63.461z"/>
	<path fill="#678238" d="M100.79,59.864c1.799-0.565,2.795-2.48,2.238-4.287c-0.574-1.805-2.494-2.809-4.297-2.24
		c-1.809,0.564-2.801,2.494-2.244,4.293l0,0c0.459,1.459,1.811,2.395,3.275,2.395C100.098,60.026,100.442,59.971,100.79,59.864z"/>
	<path fill="#678238" d="M95.157,50.69c0.672,0,1.363-0.195,1.955-0.613c1.555-1.086,1.922-3.221,0.85-4.766
		c-1.084-1.547-3.229-1.928-4.77-0.838c-1.543,1.085-1.922,3.219-0.84,4.766C93.024,50.188,94.077,50.69,95.157,50.69z"/>
	<path opacity="0.3" fill="#678238" d="M85.874,42.459c0.627,0.488,1.363,0.717,2.088,0.717c1.027,0,2.045-0.466,2.717-1.338
		c1.15-1.496,0.871-3.648-0.625-4.793c-1.498-1.156-3.645-0.876-4.795,0.621C84.094,39.16,84.385,41.309,85.874,42.459z"/>
	<path opacity="0.3" fill="#678238" d="M79.659,31.164c-1.768-0.654-3.734,0.256-4.383,2.038c-0.646,1.771,0.26,3.73,2.049,4.386
		c0.379,0.137,0.783,0.203,1.172,0.203c1.395,0,2.705-0.861,3.207-2.245C82.352,33.773,81.446,31.807,79.659,31.164z"/>
	<path fill="#678238" d="M110.702,63.461c-1.898,0-3.432,1.533-3.432,3.424c0,1.889,1.533,3.42,3.432,3.42
		c1.879,0,3.406-1.531,3.406-3.42C114.11,64.995,112.581,63.461,110.702,63.461z"/>
	<path fill="#678238" d="M110.266,59.864c1.832-0.441,2.959-2.297,2.514-4.129c-0.447-1.837-2.293-2.967-4.135-2.521
		c-1.832,0.45-2.961,2.297-2.514,4.135c0.379,1.562,1.789,2.615,3.32,2.615C109.729,59.966,109.997,59.93,110.266,59.864z"/>
	<path fill="#678238" d="M108.834,45.206c-0.883-1.678-2.951-2.329-4.625-1.451c-1.678,0.867-2.326,2.936-1.453,4.611
		c0.613,1.172,1.812,1.844,3.041,1.844c0.533,0,1.066-0.123,1.57-0.387C109.045,48.948,109.696,46.879,108.834,45.206z"/>
	<path fill="#678238" d="M102.165,40.762c1.42-1.246,1.564-3.414,0.322-4.833c-1.238-1.419-3.406-1.56-4.826-0.32
		c-1.418,1.247-1.562,3.402-0.322,4.833c0.68,0.771,1.617,1.162,2.58,1.162C100.711,41.606,101.518,41.331,102.165,40.762z"/>
	<path opacity="0.3" fill="#678238" d="M94.967,33.186c1.086-1.547,0.715-3.676-0.84-4.768c-1.541-1.088-3.678-0.713-4.758,0.831
		c-1.096,1.549-0.715,3.68,0.826,4.768c0.605,0.425,1.285,0.62,1.965,0.62C93.237,34.638,94.297,34.136,94.967,33.186z"/>
	<path opacity="0.3" fill="#678238" d="M86.184,27.531c0.693-1.759-0.176-3.742-1.943-4.434c-1.756-0.682-3.74,0.179-4.438,1.938
		c-0.682,1.768,0.178,3.754,1.945,4.438c0.404,0.167,0.828,0.24,1.254,0.24C84.352,29.711,85.649,28.882,86.184,27.531z"/>
	<path fill="#678238" d="M120.422,63.461c-1.898,0-3.43,1.533-3.43,3.424c0,1.889,1.531,3.42,3.43,3.42
		c1.889,0,3.416-1.531,3.416-3.42C123.838,64.995,122.311,63.461,120.422,63.461z"/>
	<path fill="#678238" d="M119.405,59.93c0.213,0,0.449-0.021,0.67-0.066c1.854-0.363,3.051-2.164,2.682-4.023c0,0,0,0,0,0.008
		c-0.357-1.857-2.156-3.059-4.012-2.7c-1.854,0.368-3.062,2.168-2.691,4.022C116.368,58.803,117.807,59.93,119.405,59.93z"/>
	<path fill="#678238" d="M117.709,49.688c1.74-0.725,2.566-2.721,1.842-4.469c0,0,0,0,0.012,0c-0.725-1.75-2.729-2.574-4.469-1.85
		c-1.756,0.717-2.584,2.723-1.869,4.467c0.549,1.322,1.824,2.115,3.176,2.115C116.825,49.952,117.27,49.868,117.709,49.688z"/>
	<path fill="#678238" d="M109.584,34.486c-1.574,1.044-1.99,3.174-0.951,4.739c0.658,0.988,1.746,1.531,2.852,1.531
		c0.645,0,1.316-0.195,1.898-0.582c1.572-1.043,1.998-3.172,0.938-4.744l0,0C113.282,33.856,111.147,33.433,109.584,34.486z"/>
	<path fill="#678238" d="M102.454,31.672c0.672,0.681,1.543,1.009,2.428,1.009c0.871,0,1.74-0.328,2.412-0.994
		c1.34-1.334,1.34-3.497,0-4.838c-1.32-1.341-3.5-1.341-4.828-0.011C101.124,28.169,101.112,30.342,102.454,31.672z"/>
	<path opacity="0.3" fill="#678238" d="M93.995,20.715c-1.061,1.563-0.637,3.698,0.928,4.754c0.582,0.393,1.254,0.583,1.912,0.577
		c1.096,0,2.178-0.532,2.838-1.509c1.049-1.564,0.635-3.7-0.928-4.75C97.18,18.732,95.045,19.146,93.995,20.715z"/>
	<path opacity="0.3" fill="#678238" d="M86.329,20.831c0.438,0.193,0.881,0.274,1.33,0.274c1.344,0,2.604-0.798,3.152-2.104
		c0.725-1.744-0.088-3.75-1.832-4.482c-1.742-0.728-3.756,0.094-4.482,1.843C83.77,18.106,84.6,20.107,86.329,20.831z"/>
	<path opacity="0.3" fill="#678238" d="M77.012,17.978c0.232,0.052,0.455,0.073,0.68,0.073c1.598,0,3.014-1.129,3.35-2.742
		c0.369-1.86-0.824-3.659-2.678-4.041c-1.859-0.367-3.656,0.834-4.035,2.684C73.961,15.803,75.167,17.608,77.012,17.978z"/>
	<path fill="#678238" d="M122.747,47.512c0.492,1.412,1.811,2.295,3.217,2.295c0.383,0,0.76-0.057,1.131-0.192
		c1.789-0.618,2.738-2.567,2.109-4.356c-0.623-1.78-2.568-2.727-4.355-2.102C123.059,43.774,122.122,45.729,122.747,47.512z"/>
	<path fill="#678238" d="M118.723,38.508c0.627,1.131,1.801,1.77,3.006,1.77c0.561,0,1.131-0.137,1.645-0.421
		c1.664-0.917,2.256-2.995,1.352-4.656c-0.918-1.646-2.996-2.257-4.648-1.346C118.422,34.772,117.807,36.852,118.723,38.508z"/>
	<path fill="#678238" d="M115.944,31.593c0.746,0,1.494-0.246,2.119-0.74c1.488-1.175,1.732-3.324,0.559-4.806
		c-1.172-1.482-3.328-1.727-4.803-0.552c-1.486,1.167-1.734,3.329-0.559,4.804C113.942,31.146,114.936,31.593,115.944,31.593z"/>
	<path fill="#678238" d="M106.51,23.118c0.648,0.587,1.477,0.877,2.293,0.877c0.928,0,1.863-0.386,2.535-1.127
		c1.273-1.406,1.15-3.569-0.248-4.837c-1.406-1.264-3.564-1.152-4.838,0.25C104.991,19.686,105.102,21.849,106.51,23.118z"/>
	<path opacity="0.3" fill="#678238" d="M98.667,17.145c0.559,0.364,1.193,0.535,1.82,0.535c1.129,0,2.246-0.557,2.895-1.586
		c1.018-1.593,0.547-3.705-1.051-4.726c-1.596-1.012-3.709-0.536-4.725,1.057C96.598,14.016,97.057,16.132,98.667,17.145z"/>
	<path opacity="0.3" fill="#678238" d="M89.93,12.576c0.434,0.177,0.881,0.267,1.328,0.267c1.34,0,2.605-0.782,3.15-2.088
		c0.738-1.744-0.08-3.754-1.822-4.481c-1.74-0.736-3.752,0.084-4.48,1.82C87.37,9.836,88.184,11.849,89.93,12.576z"/>
	<path opacity="0.3" fill="#678238" d="M80.563,9.536c0.256,0.059,0.525,0.09,0.781,0.09c1.555,0,2.963-1.062,3.32-2.643
		c0.436-1.84-0.703-3.688-2.547-4.112c-1.844-0.431-3.688,0.71-4.115,2.558C77.581,7.268,78.721,9.104,80.563,9.536z"/>
</g>
</svg>
