<?xml version="1.0" encoding="utf-8"?>
<!-- Generator: Adobe Illustrator 16.0.0, SVG Export Plug-In . SVG Version: 6.00 Build 0)  -->
<!DOCTYPE svg PUBLIC "-//W3C//DTD SVG 1.1//EN" "http://www.w3.org/Graphics/SVG/1.1/DTD/svg11.dtd">
<svg version="1.1" id="Layer_1" xmlns="http://www.w3.org/2000/svg" xmlns:xlink="http://www.w3.org/1999/xlink" x="0px" y="0px"
	 width="133.684px" height="71.579px" viewBox="0 0 133.684 71.579" enable-background="new 0 0 133.684 71.579"
	 xml:space="preserve">
<g>
	<path fill="#678238" d="M68.306,39.331c-1.879-0.207-3.578,1.144-3.777,3.032c-0.203,1.876,1.15,3.569,3.027,3.766
		c0.135,0.017,0.255,0.021,0.379,0.021c1.734,0,3.207-1.299,3.396-3.045C71.533,41.214,70.183,39.53,68.306,39.331z"/>
	<path fill="#678238" d="M65.679,24.141c-0.248-1.871-1.969-3.188-3.846-2.942c-1.864,0.249-3.186,1.972-2.926,3.843
		c0.223,1.725,1.686,2.972,3.385,2.972c0.145,0,0.289-0.006,0.457-0.028C64.617,27.735,65.935,26.019,65.679,24.141z"/>
	<path fill="#678238" d="M64.461,14.856c0.011,1.889,1.542,3.415,3.42,3.415c0.01,0,0.01,0,0.021,0
		c1.888-0.005,3.405-1.549,3.397-3.438c0-1.887-1.545-3.413-3.432-3.406C65.979,11.43,64.448,12.968,64.461,14.856z"/>
	<path fill="#678238" d="M4.701,64.011c-1.899,0-3.432,1.532-3.432,3.424c0,1.889,1.532,3.42,3.432,3.42
		c1.887,0,3.42-1.531,3.42-3.42C8.121,65.543,6.589,64.011,4.701,64.011z"/>
	<path fill="#678238" d="M6.121,53.667c-1.855-0.315-3.621,0.946-3.935,2.801c-0.312,1.866,0.95,3.632,2.804,3.945
		c0.192,0.033,0.381,0.056,0.57,0.056c1.645,0,3.096-1.19,3.374-2.861C9.249,55.743,7.986,53.977,6.121,53.667z"/>
	<circle fill="#678238" cx="42.156" cy="67.434" r="3.422"/>
	<path fill="#678238" d="M45.71,54.173c-1.721-0.779-3.744,0-4.524,1.721c-0.771,1.724,0.011,3.746,1.731,4.52
		c0.457,0.207,0.928,0.306,1.396,0.306c1.309,0,2.56-0.758,3.129-2.031C48.213,56.973,47.431,54.944,45.71,54.173z"/>
	<path fill="#678238" d="M48.146,46.372c-1.408,1.264-1.531,3.427-0.269,4.836c0.683,0.748,1.609,1.133,2.55,1.133
		c0.816,0,1.629-0.29,2.277-0.867c1.407-1.265,1.532-3.432,0.27-4.838C51.708,45.232,49.554,45.116,48.146,46.372z"/>
	<path fill="#678238" d="M58.013,40.502c-1.8,0.574-2.794,2.502-2.213,4.305c0.457,1.448,1.811,2.377,3.253,2.377
		c0.345,0,0.702-0.05,1.05-0.162c1.797-0.582,2.793-2.502,2.212-4.303C61.735,40.918,59.811,39.926,58.013,40.502z"/>
	<path fill="#678238" d="M32.791,64.011c-1.898,0-3.417,1.532-3.417,3.424c0,1.889,1.519,3.42,3.417,3.42
		c1.891,0,3.422-1.531,3.422-3.42C36.212,65.543,34.681,64.011,32.791,64.011z"/>
	<path fill="#678238" d="M35.385,53.887c-1.798-0.569-3.721,0.435-4.29,2.24c-0.559,1.808,0.436,3.722,2.234,4.287
		c0.346,0.105,0.693,0.16,1.029,0.16c1.463,0,2.815-0.936,3.271-2.395l0,0C38.189,56.379,37.196,54.45,35.385,53.887z"/>
	<path fill="#678238" d="M37.005,50.625c0.594,0.42,1.285,0.614,1.956,0.614c1.085,0,2.134-0.503,2.806-1.452
		c1.084-1.546,0.703-3.682-0.838-4.766c-1.544-1.09-3.688-0.708-4.773,0.839C35.084,47.406,35.451,49.541,37.005,50.625z"/>
	<path fill="#678238" d="M46.158,43.725c0.727,0,1.464-0.228,2.088-0.717c1.488-1.152,1.778-3.299,0.617-4.793
		c-1.152-1.499-3.296-1.776-4.795-0.62c-1.498,1.146-1.777,3.297-0.627,4.793C44.113,43.261,45.129,43.725,46.158,43.725z"/>
	<path fill="#678238" d="M55.99,38.344c0.382,0,0.783-0.066,1.175-0.204c1.775-0.655,2.681-2.616,2.032-4.386
		c-0.648-1.782-2.615-2.693-4.381-2.039c-1.789,0.643-2.694,2.608-2.045,4.385C53.275,37.483,54.582,38.344,55.99,38.344z"/>
	<path fill="#678238" d="M23.417,64.011c-1.887,0-3.407,1.532-3.407,3.424c0,1.889,1.521,3.42,3.407,3.42
		c1.901,0,3.433-1.531,3.433-3.42C26.85,65.543,25.316,64.011,23.417,64.011z"/>
	<path fill="#678238" d="M25.473,53.764c-1.844-0.446-3.687,0.685-4.134,2.521c-0.445,1.832,0.682,3.687,2.514,4.13
		c0.268,0.066,0.537,0.102,0.815,0.102c1.531,0,2.939-1.053,3.317-2.615C28.435,56.061,27.307,54.214,25.473,53.764z"/>
	<path fill="#678238" d="M31.363,48.915c0.871-1.675,0.224-3.743-1.453-4.611c-1.675-0.876-3.742-0.226-4.625,1.451
		c-0.861,1.674-0.212,3.742,1.464,4.617c0.501,0.264,1.04,0.388,1.575,0.388C29.553,50.759,30.748,50.087,31.363,48.915z"/>
	<path fill="#678238" d="M36.783,40.994c1.24-1.433,1.105-3.589-0.325-4.834c-1.419-1.24-3.587-1.1-4.827,0.32
		c-1.24,1.419-1.096,3.587,0.324,4.833c0.647,0.569,1.453,0.844,2.246,0.844C35.162,42.155,36.101,41.764,36.783,40.994z"/>
	<path fill="#678238" d="M44.749,29.8c-1.083-1.545-3.217-1.92-4.759-0.831c-1.555,1.091-1.923,3.219-0.84,4.768
		c0.672,0.95,1.732,1.451,2.805,1.451c0.682,0,1.364-0.194,1.968-0.619C45.464,33.478,45.843,31.349,44.749,29.8z"/>
	<path fill="#678238" d="M52.37,30.02c1.767-0.683,2.627-2.67,1.945-4.437c-0.692-1.759-2.682-2.62-4.437-1.939
		c-1.766,0.692-2.638,2.675-1.944,4.435c0.538,1.352,1.833,2.18,3.185,2.18C51.542,30.26,51.968,30.187,52.37,30.02z"/>
	<path fill="#678238" d="M76.832,24.811c0.199-1.883-1.162-3.568-3.052-3.761c-1.878-0.2-3.554,1.165-3.756,3.047
		c-0.201,1.872,1.163,3.557,3.039,3.761c0.134,0.011,0.247,0.015,0.37,0.015C75.154,27.872,76.642,26.566,76.832,24.811z"/>
	<path fill="#678238" d="M13.697,64.011c-1.889,0-3.42,1.532-3.42,3.424c0,1.889,1.531,3.42,3.42,3.42c1.898,0,3.43-1.531,3.43-3.42
		C17.126,65.543,15.595,64.011,13.697,64.011z"/>
	<path fill="#678238" d="M15.372,53.698c-1.854-0.359-3.653,0.843-4.022,2.699c0-0.007,0-0.007,0-0.007
		c-0.359,1.86,0.839,3.661,2.692,4.023c0.224,0.044,0.458,0.065,0.671,0.065c1.596,0,3.039-1.127,3.352-2.759
		C18.434,55.866,17.228,54.066,15.372,53.698z"/>
	<path fill="#678238" d="M19.027,43.919c-1.743-0.725-3.744,0.1-4.471,1.85c0.012,0,0.012,0,0.012,0
		c-0.725,1.749,0.103,3.744,1.846,4.468c0.434,0.18,0.881,0.264,1.306,0.264c1.353,0,2.624-0.794,3.175-2.115
		C21.605,46.641,20.781,44.635,19.027,43.919z"/>
	<path fill="#678238" d="M24.535,35.036c-1.564-1.054-3.699-0.63-4.738,0.944l0,0c-1.062,1.572-0.637,3.699,0.94,4.743
		c0.579,0.388,1.252,0.583,1.897,0.583c1.107,0,2.19-0.542,2.85-1.531C26.525,38.21,26.111,36.08,24.535,35.036z"/>
	<path fill="#678238" d="M26.826,32.237c0.672,0.666,1.543,0.994,2.414,0.994c0.883,0,1.756-0.328,2.426-1.009
		c1.34-1.33,1.328-3.503-0.011-4.833c-1.33-1.331-3.509-1.331-4.829,0.011C25.484,28.74,25.484,30.903,26.826,32.237z"/>
	<path fill="#678238" d="M34.445,25.086c0.661,0.977,1.744,1.509,2.84,1.509c0.658,0.007,1.328-0.184,1.91-0.577
		c1.564-1.056,1.988-3.19,0.928-4.754c-1.051-1.57-3.184-1.983-4.75-0.926C33.81,21.387,33.396,23.522,34.445,25.086z"/>
	<path fill="#678238" d="M43.308,19.551c0.548,1.306,1.809,2.104,3.15,2.104c0.447,0,0.883-0.081,1.33-0.274
		c1.732-0.724,2.559-2.725,1.83-4.471c-0.724-1.747-2.736-2.57-4.479-1.843C43.396,15.801,42.582,17.806,43.308,19.551z"/>
	<path fill="#678238" d="M53.074,15.856c0.336,1.614,1.754,2.743,3.355,2.743c0.223,0,0.445-0.021,0.68-0.073
		c1.844-0.368,3.051-2.173,2.682-4.028c-0.381-1.85-2.18-3.05-4.033-2.683C53.9,12.198,52.705,13.996,53.074,15.856z"/>
	<path fill="#678238" d="M7.025,50.166c0.369,0.136,0.75,0.192,1.129,0.192c1.408,0,2.727-0.883,3.218-2.296
		c0.626-1.783-0.312-3.737-2.103-4.354c-1.787-0.625-3.73,0.32-4.356,2.103C4.287,47.597,5.237,49.547,7.025,50.166z"/>
	<path fill="#678238" d="M10.746,40.407c0.516,0.284,1.084,0.421,1.643,0.421c1.209,0,2.379-0.642,3.004-1.771
		c0.916-1.656,0.304-3.735-1.351-4.651c-1.653-0.912-3.731-0.302-4.649,1.347C8.489,37.412,9.082,39.491,10.746,40.407z"/>
	<path fill="#678238" d="M16.054,31.402c0.625,0.495,1.375,0.74,2.123,0.74c1.006,0,2-0.447,2.682-1.295
		c1.174-1.475,0.928-3.637-0.561-4.804c-1.475-1.176-3.63-0.93-4.805,0.552C14.322,28.077,14.568,30.225,16.054,31.402z"/>
	<path fill="#678238" d="M25.316,24.544c0.816,0,1.643-0.29,2.292-0.877c1.407-1.269,1.519-3.431,0.257-4.839
		c-1.274-1.402-3.43-1.514-4.84-0.25c-1.396,1.269-1.519,3.431-0.245,4.838C23.452,24.157,24.39,24.544,25.316,24.544z"/>
	<path fill="#678238" d="M33.63,18.229c0.624,0,1.262-0.171,1.82-0.535c1.609-1.012,2.068-3.129,1.064-4.721
		c-1.018-1.595-3.129-2.068-4.727-1.057c-1.598,1.021-2.068,3.133-1.051,4.726C31.385,17.673,32.501,18.229,33.63,18.229z"/>
	<path fill="#678238" d="M42.861,13.392c0.447,0,0.894-0.09,1.33-0.267c1.742-0.728,2.558-2.739,1.822-4.483
		c-0.729-1.734-2.738-2.556-4.481-1.819c-1.743,0.727-2.56,2.735-1.823,4.481C40.257,12.609,41.521,13.392,42.861,13.392z"/>
	<path fill="#678238" d="M52.772,10.175c0.257,0,0.526-0.031,0.782-0.09c1.842-0.432,2.982-2.269,2.558-4.108
		c-0.425-1.849-2.269-2.988-4.11-2.558c-1.844,0.425-2.984,2.273-2.549,4.112C49.81,9.113,51.219,10.175,52.772,10.175z"/>
	<path fill="#678238" d="M63.097,8.66c0.078,0,0.146,0,0.214,0c1.886-0.123,3.317-1.749,3.206-3.631
		c-0.123-1.889-1.742-3.317-3.631-3.201c-1.889,0.112-3.319,1.737-3.195,3.625C59.8,7.261,61.31,8.66,63.097,8.66z"/>
	<path fill="#678238" d="M77.623,40.857c-1.799-0.569-3.731,0.421-4.302,2.22c-0.579,1.805,0.415,3.722,2.214,4.307
		c0.346,0.105,0.703,0.158,1.053,0.158c1.439,0,2.781-0.926,3.248-2.377C80.417,43.368,79.422,41.433,77.623,40.857z"/>
	<path fill="#678238" d="M68.16,29.829c-1.888-0.084-3.486,1.38-3.578,3.269c-0.076,1.896,1.387,3.486,3.277,3.571
		c0.045,0,0.1,0,0.156,0c1.809,0,3.33-1.431,3.406-3.262C71.51,31.511,70.037,29.919,68.16,29.829z"/>
	<path opacity="0.3" fill="#678238" d="M129.853,64.011c-1.887,0-3.42,1.532-3.42,3.424c0,1.889,1.533,3.42,3.42,3.42
		c1.899,0,3.431-1.531,3.431-3.42C133.284,65.543,131.752,64.011,129.853,64.011z"/>
	<path opacity="0.3" fill="#678238" d="M128.99,60.469c0.193,0,0.383-0.022,0.572-0.056c1.854-0.312,3.119-2.079,2.806-3.945
		c-0.314-1.854-2.079-3.118-3.935-2.801c-1.867,0.31-3.127,2.073-2.813,3.94C125.896,59.28,127.351,60.469,128.99,60.469z"/>
	<path fill="#678238" d="M71.97,8.66c0.066,0,0.135,0,0.212,0c1.79,0,3.297-1.397,3.397-3.207c0.121-1.887-1.308-3.513-3.195-3.625
		c-1.891-0.116-3.51,1.312-3.621,3.201C68.64,6.911,70.07,8.536,71.97,8.66z"/>
	<circle opacity="0.3" fill="#678238" cx="92.398" cy="67.434" r="3.422"/>
	<path opacity="0.3" fill="#678238" d="M91.638,60.414c1.721-0.772,2.5-2.794,1.729-4.52c-0.781-1.721-2.804-2.501-4.524-1.721
		c-1.721,0.77-2.504,2.798-1.732,4.515c0.572,1.271,1.82,2.031,3.13,2.031C90.71,60.719,91.177,60.622,91.638,60.414z"/>
	<path fill="#678238" d="M86.408,46.372c-1.41-1.257-3.566-1.141-4.828,0.264c-1.264,1.406-1.14,3.573,0.268,4.838
		c0.646,0.577,1.463,0.867,2.279,0.867c0.938,0,1.866-0.385,2.547-1.133C87.938,49.798,87.815,47.635,86.408,46.372z"/>
	<path opacity="0.3" fill="#678238" d="M101.759,64.011c-1.889,0-3.42,1.532-3.42,3.424c0,1.889,1.531,3.42,3.42,3.42
		c1.9,0,3.422-1.531,3.422-3.42C105.181,65.543,103.66,64.011,101.759,64.011z"/>
	<path opacity="0.3" fill="#678238" d="M101.223,60.414c1.8-0.565,2.796-2.48,2.238-4.288c-0.571-1.805-2.495-2.809-4.296-2.239
		c-1.809,0.563-2.801,2.493-2.244,4.293l0,0c0.459,1.458,1.811,2.394,3.275,2.394C100.533,60.575,100.876,60.52,101.223,60.414z"/>
	<path opacity="0.3" fill="#678238" d="M95.591,51.24c0.672,0,1.363-0.195,1.955-0.614c1.555-1.085,1.922-3.22,0.85-4.765
		c-1.084-1.547-3.229-1.929-4.771-0.839c-1.542,1.086-1.921,3.22-0.838,4.766C93.458,50.737,94.51,51.24,95.591,51.24z"/>
	<path fill="#678238" d="M86.308,43.008c0.627,0.489,1.362,0.717,2.088,0.717c1.027,0,2.045-0.465,2.716-1.337
		c1.153-1.496,0.872-3.649-0.624-4.793c-1.499-1.156-3.645-0.877-4.796,0.62C84.529,39.709,84.819,41.858,86.308,43.008z"/>
	<path fill="#678238" d="M80.093,31.713c-1.768-0.654-3.734,0.256-4.383,2.038c-0.646,1.771,0.259,3.73,2.049,4.386
		c0.379,0.138,0.782,0.203,1.172,0.203c1.395,0,2.705-0.86,3.207-2.244C82.785,34.322,81.88,32.356,80.093,31.713z"/>
	<path opacity="0.3" fill="#678238" d="M111.134,64.011c-1.897,0-3.43,1.532-3.43,3.424c0,1.889,1.532,3.42,3.43,3.42
		c1.881,0,3.408-1.531,3.408-3.42C114.544,65.543,113.015,64.011,111.134,64.011z"/>
	<path opacity="0.3" fill="#678238" d="M110.701,60.414c1.832-0.442,2.959-2.297,2.514-4.13c-0.447-1.836-2.293-2.967-4.135-2.521
		c-1.832,0.451-2.961,2.298-2.514,4.136c0.379,1.562,1.789,2.615,3.32,2.615C110.164,60.516,110.431,60.479,110.701,60.414z"/>
	<path opacity="0.3" fill="#678238" d="M109.267,45.754c-0.881-1.677-2.949-2.328-4.624-1.451c-1.677,0.868-2.325,2.937-1.452,4.611
		c0.613,1.173,1.811,1.845,3.04,1.845c0.534,0,1.067-0.124,1.571-0.388C109.48,49.498,110.13,47.428,109.267,45.754z"/>
	<path opacity="0.3" fill="#678238" d="M102.599,41.312c1.42-1.247,1.564-3.415,0.322-4.834c-1.238-1.419-3.406-1.56-4.826-0.32
		c-1.418,1.247-1.562,3.403-0.322,4.833c0.68,0.771,1.617,1.161,2.58,1.161C101.146,42.155,101.952,41.88,102.599,41.312z"/>
	<path fill="#678238" d="M95.402,33.735c1.085-1.547,0.715-3.676-0.84-4.768c-1.542-1.088-3.677-0.713-4.759,0.831
		c-1.095,1.549-0.714,3.68,0.827,4.768c0.604,0.425,1.285,0.62,1.967,0.62C93.671,35.187,94.732,34.685,95.402,33.735z"/>
	<path fill="#678238" d="M86.62,28.08c0.692-1.759-0.179-3.742-1.945-4.434c-1.754-0.682-3.739,0.179-4.437,1.938
		c-0.682,1.768,0.179,3.754,1.945,4.438c0.403,0.167,0.828,0.24,1.253,0.24C84.787,30.26,86.083,29.432,86.62,28.08z"/>
	<path opacity="0.3" fill="#678238" d="M120.857,64.011c-1.898,0-3.43,1.532-3.43,3.424c0,1.889,1.531,3.42,3.43,3.42
		c1.888,0,3.416-1.531,3.416-3.42C124.273,65.543,122.746,64.011,120.857,64.011z"/>
	<path opacity="0.3" fill="#678238" d="M119.839,60.479c0.211,0,0.449-0.021,0.67-0.065c1.854-0.363,3.051-2.165,2.682-4.023
		c0,0,0,0,0,0.007c-0.357-1.856-2.155-3.059-4.012-2.699c-1.854,0.368-3.063,2.168-2.691,4.022
		C116.802,59.352,118.242,60.479,119.839,60.479z"/>
	<path opacity="0.3" fill="#678238" d="M118.143,50.237c1.742-0.724,2.567-2.72,1.841-4.468c0,0,0,0,0.014,0
		c-0.725-1.75-2.729-2.574-4.469-1.85c-1.756,0.716-2.585,2.722-1.869,4.467c0.549,1.322,1.823,2.115,3.174,2.115
		C117.259,50.501,117.703,50.417,118.143,50.237z"/>
	<path opacity="0.3" fill="#678238" d="M110.019,35.036c-1.575,1.044-1.991,3.175-0.951,4.739c0.658,0.988,1.746,1.531,2.85,1.531
		c0.646,0,1.318-0.195,1.9-0.583c1.572-1.043,1.997-3.171,0.937-4.743l0,0C113.716,34.406,111.582,33.982,110.019,35.036z"/>
	<path opacity="0.3" fill="#678238" d="M102.89,32.222c0.67,0.681,1.541,1.009,2.425,1.009c0.872,0,1.741-0.328,2.412-0.994
		c1.341-1.334,1.341-3.497,0-4.838c-1.319-1.341-3.499-1.341-4.828-0.011C101.558,28.718,101.546,30.892,102.89,32.222z"/>
	<path fill="#678238" d="M94.429,21.265c-1.062,1.563-0.637,3.698,0.928,4.754c0.582,0.393,1.252,0.583,1.91,0.577
		c1.097,0,2.18-0.532,2.84-1.509c1.049-1.564,0.635-3.7-0.928-4.75C97.615,19.281,95.48,19.695,94.429,21.265z"/>
	<path fill="#678238" d="M86.765,21.38c0.436,0.193,0.879,0.274,1.328,0.274c1.344,0,2.604-0.798,3.152-2.104
		c0.725-1.744-0.089-3.75-1.833-4.482c-1.742-0.728-3.755,0.094-4.481,1.843C84.205,18.656,85.033,20.656,86.765,21.38z"/>
	<path fill="#678238" d="M77.447,18.527c0.232,0.052,0.455,0.073,0.68,0.073c1.598,0,3.014-1.129,3.35-2.742
		c0.369-1.86-0.824-3.659-2.678-4.041c-1.859-0.367-3.656,0.834-4.033,2.684C74.396,16.353,75.601,18.158,77.447,18.527z"/>
	<path opacity="0.3" fill="#678238" d="M123.181,48.061c0.492,1.412,1.811,2.296,3.217,2.296c0.383,0,0.76-0.057,1.131-0.192
		c1.789-0.618,2.737-2.567,2.109-4.356c-0.623-1.78-2.568-2.727-4.355-2.103C123.493,44.323,122.556,46.278,123.181,48.061z"/>
	<path opacity="0.3" fill="#678238" d="M119.158,39.057c0.626,1.131,1.8,1.771,3.006,1.771c0.56,0,1.131-0.138,1.645-0.421
		c1.664-0.918,2.256-2.995,1.352-4.656c-0.918-1.646-2.996-2.257-4.648-1.346C118.857,35.322,118.242,37.401,119.158,39.057z"/>
	<path opacity="0.3" fill="#678238" d="M116.377,32.142c0.747,0,1.495-0.246,2.119-0.74c1.487-1.175,1.733-3.324,0.56-4.806
		c-1.172-1.482-3.329-1.727-4.804-0.552c-1.486,1.167-1.733,3.329-0.558,4.804C114.376,31.695,115.37,32.142,116.377,32.142z"/>
	<path opacity="0.3" fill="#678238" d="M106.945,23.667c0.648,0.587,1.477,0.877,2.292,0.877c0.929,0,1.864-0.386,2.535-1.127
		c1.274-1.406,1.15-3.569-0.247-4.837c-1.406-1.264-3.564-1.152-4.838,0.25C105.425,20.235,105.537,22.398,106.945,23.667z"/>
	<path fill="#678238" d="M99.101,17.694c0.559,0.364,1.193,0.535,1.82,0.535c1.129,0,2.246-0.557,2.895-1.586
		c1.018-1.593,0.547-3.705-1.051-4.726c-1.596-1.012-3.709-0.536-4.725,1.057C97.033,14.565,97.492,16.682,99.101,17.694z"/>
	<path fill="#678238" d="M90.364,13.125c0.435,0.177,0.882,0.267,1.328,0.267c1.34,0,2.605-0.782,3.151-2.088
		c0.738-1.744-0.08-3.754-1.823-4.481c-1.74-0.736-3.753,0.084-4.479,1.82C87.804,10.386,88.619,12.398,90.364,13.125z"/>
	<path fill="#678238" d="M80.997,10.085c0.257,0.059,0.526,0.09,0.782,0.09c1.555,0,2.962-1.062,3.32-2.643
		c0.434-1.84-0.704-3.688-2.549-4.112c-1.842-0.431-3.687,0.71-4.113,2.558C78.015,7.817,79.156,9.653,80.997,10.085z"/>
</g>
<g>
	<path fill="#678238" d="M67.872,38.781c-1.879-0.206-3.578,1.144-3.777,3.032c-0.203,1.877,1.15,3.57,3.027,3.766
		c0.135,0.018,0.256,0.021,0.379,0.021c1.734,0,3.207-1.299,3.396-3.045C71.098,40.665,69.749,38.98,67.872,38.781z"/>
	<path fill="#678238" d="M65.245,23.592c-0.248-1.871-1.969-3.188-3.846-2.942c-1.864,0.249-3.186,1.972-2.926,3.843
		c0.223,1.725,1.686,2.972,3.385,2.972c0.145,0,0.289-0.006,0.457-0.028C64.182,27.186,65.5,25.469,65.245,23.592z"/>
	<path fill="#678238" d="M64.027,14.307c0.011,1.889,1.542,3.415,3.421,3.415c0.01,0,0.01,0,0.021,0
		c1.887-0.005,3.404-1.549,3.396-3.438c0-1.887-1.545-3.413-3.432-3.406C65.544,10.881,64.013,12.418,64.027,14.307z"/>
	<path fill="#678238" d="M4.266,63.461c-1.899,0-3.432,1.533-3.432,3.424c0,1.889,1.532,3.42,3.432,3.42
		c1.887,0,3.42-1.531,3.42-3.42C7.686,64.995,6.155,63.461,4.266,63.461z"/>
	<path fill="#678238" d="M5.686,53.118c-1.855-0.314-3.621,0.946-3.935,2.801c-0.312,1.866,0.95,3.633,2.804,3.945
		c0.192,0.033,0.381,0.057,0.57,0.057c1.645,0,3.096-1.191,3.374-2.861C8.814,55.194,7.551,53.427,5.686,53.118z"/>
	<circle fill="#678238" cx="41.721" cy="66.884" r="3.423"/>
	<path fill="#678238" d="M45.276,53.624c-1.721-0.779-3.744,0-4.524,1.721c-0.771,1.725,0.011,3.746,1.731,4.52
		c0.457,0.207,0.928,0.307,1.396,0.307c1.309,0,2.56-0.758,3.129-2.031C47.779,56.424,46.997,54.395,45.276,53.624z"/>
	<path fill="#678238" d="M47.711,45.823c-1.408,1.264-1.531,3.426-0.269,4.835c0.683,0.749,1.609,1.134,2.55,1.134
		c0.816,0,1.629-0.291,2.277-0.868c1.407-1.265,1.532-3.431,0.27-4.837C51.274,44.682,49.12,44.567,47.711,45.823z"/>
	<path fill="#678238" d="M57.579,39.954c-1.8,0.574-2.794,2.502-2.213,4.305c0.457,1.447,1.811,2.377,3.253,2.377
		c0.345,0,0.702-0.051,1.05-0.162c1.797-0.583,2.793-2.502,2.212-4.303C61.3,40.37,59.376,39.377,57.579,39.954z"/>
	<path fill="#678238" d="M32.356,63.461c-1.898,0-3.417,1.533-3.417,3.424c0,1.889,1.519,3.42,3.417,3.42
		c1.891,0,3.422-1.531,3.422-3.42C35.778,64.995,34.247,63.461,32.356,63.461z"/>
	<path fill="#678238" d="M34.951,53.338c-1.798-0.57-3.721,0.434-4.29,2.239c-0.559,1.808,0.436,3.722,2.234,4.288
		c0.346,0.105,0.693,0.16,1.029,0.16c1.463,0,2.815-0.936,3.271-2.395l0,0C37.754,55.831,36.761,53.901,34.951,53.338z"/>
	<path fill="#678238" d="M36.571,50.077c0.594,0.419,1.285,0.613,1.956,0.613c1.085,0,2.134-0.502,2.806-1.451
		c1.084-1.547,0.703-3.682-0.838-4.766c-1.544-1.09-3.688-0.709-4.773,0.838C34.65,46.856,35.016,48.991,36.571,50.077z"/>
	<path fill="#678238" d="M45.723,43.176c0.727,0,1.464-0.229,2.088-0.717c1.488-1.152,1.778-3.3,0.617-4.793
		c-1.152-1.499-3.296-1.777-4.795-0.621c-1.498,1.146-1.777,3.297-0.627,4.793C43.678,42.711,44.695,43.176,45.723,43.176z"/>
	<path fill="#678238" d="M55.555,37.794c0.382,0,0.783-0.065,1.175-0.204c1.775-0.654,2.681-2.616,2.032-4.385
		c-0.648-1.782-2.615-2.693-4.381-2.039c-1.789,0.643-2.694,2.608-2.045,4.385C52.84,36.934,54.147,37.794,55.555,37.794z"/>
	<path fill="#678238" d="M22.983,63.461c-1.887,0-3.407,1.533-3.407,3.424c0,1.889,1.521,3.42,3.407,3.42
		c1.901,0,3.433-1.531,3.433-3.42C26.416,64.995,24.881,63.461,22.983,63.461z"/>
	<path fill="#678238" d="M25.039,53.214c-1.844-0.446-3.687,0.685-4.134,2.521c-0.445,1.832,0.682,3.688,2.514,4.131
		c0.268,0.065,0.537,0.101,0.815,0.101c1.531,0,2.939-1.052,3.317-2.614C28,55.512,26.873,53.665,25.039,53.214z"/>
	<path fill="#678238" d="M30.928,48.366c0.871-1.676,0.224-3.744-1.453-4.611c-1.675-0.877-3.742-0.227-4.625,1.451
		c-0.861,1.674-0.212,3.742,1.464,4.617c0.501,0.264,1.04,0.387,1.575,0.387C29.119,50.209,30.313,49.538,30.928,48.366z"/>
	<path fill="#678238" d="M36.348,40.444c1.24-1.433,1.105-3.588-0.325-4.833c-1.419-1.24-3.587-1.1-4.827,0.32
		c-1.24,1.418-1.096,3.586,0.324,4.833c0.647,0.568,1.453,0.843,2.246,0.843C34.727,41.606,35.667,41.214,36.348,40.444z"/>
	<path fill="#678238" d="M44.314,29.251c-1.083-1.545-3.217-1.92-4.759-0.831c-1.555,1.091-1.923,3.219-0.84,4.768
		c0.672,0.95,1.732,1.451,2.805,1.451c0.682,0,1.364-0.194,1.968-0.619C45.03,32.929,45.409,30.799,44.314,29.251z"/>
	<path fill="#678238" d="M51.935,29.471c1.767-0.683,2.627-2.67,1.945-4.437c-0.692-1.759-2.682-2.62-4.437-1.939
		c-1.766,0.692-2.638,2.675-1.944,4.435c0.538,1.352,1.833,2.18,3.185,2.18C51.108,29.711,51.534,29.638,51.935,29.471z"/>
	<path fill="#678238" d="M76.397,24.262c0.199-1.883-1.162-3.568-3.051-3.761c-1.879-0.2-3.555,1.165-3.756,3.047
		c-0.201,1.872,1.162,3.557,3.039,3.761c0.133,0.011,0.246,0.015,0.369,0.015C74.719,27.323,76.208,26.017,76.397,24.262z"/>
	<path fill="#678238" d="M13.262,63.461c-1.889,0-3.42,1.533-3.42,3.424c0,1.889,1.531,3.42,3.42,3.42c1.898,0,3.43-1.531,3.43-3.42
		C16.692,64.995,15.161,63.461,13.262,63.461z"/>
	<path fill="#678238" d="M14.937,53.148c-1.854-0.358-3.653,0.843-4.022,2.7c0-0.008,0-0.008,0-0.008
		c-0.359,1.861,0.839,3.662,2.692,4.023c0.224,0.045,0.458,0.066,0.671,0.066c1.596,0,3.039-1.127,3.352-2.76
		C18,55.316,16.793,53.516,14.937,53.148z"/>
	<path fill="#678238" d="M18.592,43.37c-1.743-0.725-3.744,0.1-4.471,1.85c0.012,0,0.012,0,0.012,0
		c-0.725,1.75,0.103,3.744,1.846,4.469c0.434,0.18,0.881,0.263,1.306,0.263c1.353,0,2.624-0.794,3.175-2.114
		C21.17,46.091,20.346,44.086,18.592,43.37z"/>
	<path fill="#678238" d="M24.1,34.486c-1.564-1.054-3.699-0.63-4.738,0.944l0,0c-1.062,1.572-0.637,3.699,0.94,4.744
		c0.579,0.387,1.252,0.582,1.897,0.582c1.107,0,2.19-0.542,2.85-1.531C26.09,37.661,25.676,35.531,24.1,34.486z"/>
	<path fill="#678238" d="M26.391,31.688c0.672,0.666,1.543,0.994,2.414,0.994c0.883,0,1.756-0.328,2.426-1.009
		c1.34-1.33,1.328-3.503-0.011-4.833c-1.33-1.331-3.509-1.331-4.829,0.011C25.049,28.19,25.049,30.354,26.391,31.688z"/>
	<path fill="#678238" d="M34.01,24.537c0.661,0.977,1.744,1.509,2.84,1.509c0.658,0.007,1.328-0.184,1.91-0.577
		c1.564-1.056,1.988-3.19,0.928-4.754c-1.051-1.57-3.184-1.983-4.75-0.926C33.375,20.838,32.961,22.973,34.01,24.537z"/>
	<path fill="#678238" d="M42.874,19.002c0.548,1.306,1.809,2.104,3.15,2.104c0.447,0,0.883-0.081,1.33-0.274
		c1.732-0.724,2.559-2.725,1.83-4.471c-0.724-1.747-2.736-2.57-4.479-1.843C42.961,15.251,42.147,17.256,42.874,19.002z"/>
	<path fill="#678238" d="M52.639,15.307c0.336,1.614,1.754,2.743,3.355,2.743c0.223,0,0.445-0.021,0.68-0.073
		c1.844-0.368,3.051-2.173,2.682-4.028c-0.381-1.85-2.18-3.05-4.033-2.683C53.465,11.648,52.27,13.446,52.639,15.307z"/>
	<path fill="#678238" d="M6.59,49.616c0.369,0.137,0.75,0.193,1.129,0.193c1.408,0,2.727-0.884,3.218-2.297
		c0.626-1.783-0.312-3.737-2.103-4.354c-1.787-0.625-3.73,0.319-4.356,2.102C3.852,47.047,4.802,48.999,6.59,49.616z"/>
	<path fill="#678238" d="M10.311,39.857c0.516,0.284,1.084,0.421,1.643,0.421c1.209,0,2.379-0.641,3.004-1.77
		c0.916-1.657,0.304-3.736-1.351-4.652c-1.653-0.912-3.731-0.302-4.649,1.347C8.054,36.862,8.647,38.942,10.311,39.857z"/>
	<path fill="#678238" d="M15.62,30.853c0.625,0.495,1.375,0.74,2.123,0.74c1.006,0,2-0.447,2.682-1.295
		c1.174-1.475,0.928-3.637-0.561-4.804c-1.475-1.176-3.63-0.93-4.805,0.552C13.887,27.527,14.133,29.676,15.62,30.853z"/>
	<path fill="#678238" d="M24.881,23.995c0.816,0,1.643-0.29,2.292-0.877c1.407-1.269,1.519-3.431,0.257-4.839
		c-1.274-1.402-3.43-1.514-4.84-0.25c-1.396,1.269-1.519,3.431-0.245,4.838C23.017,23.607,23.956,23.995,24.881,23.995z"/>
	<path fill="#678238" d="M33.196,17.68c0.624,0,1.262-0.171,1.82-0.535c1.609-1.012,2.068-3.129,1.064-4.721
		c-1.018-1.595-3.129-2.068-4.727-1.057c-1.598,1.021-2.068,3.133-1.051,4.726C30.951,17.124,32.067,17.68,33.196,17.68z"/>
	<path fill="#678238" d="M42.426,12.842c0.447,0,0.894-0.09,1.33-0.267c1.742-0.728,2.558-2.739,1.822-4.483
		c-0.729-1.734-2.738-2.556-4.481-1.819c-1.743,0.727-2.56,2.735-1.823,4.481C39.823,12.06,41.086,12.842,42.426,12.842z"/>
	<path fill="#678238" d="M52.337,9.626c0.257,0,0.526-0.031,0.782-0.09c1.842-0.432,2.982-2.269,2.558-4.108
		c-0.425-1.849-2.269-2.988-4.11-2.558c-1.844,0.425-2.984,2.273-2.549,4.112C49.375,8.563,50.785,9.626,52.337,9.626z"/>
	<path fill="#678238" d="M62.663,8.111c0.078,0,0.146,0,0.214,0c1.886-0.123,3.317-1.749,3.206-3.631
		c-0.123-1.889-1.742-3.317-3.631-3.201c-1.889,0.112-3.319,1.737-3.195,3.625C59.366,6.712,60.875,8.111,62.663,8.111z"/>
	<path fill="#678238" d="M77.188,40.307c-1.799-0.568-3.73,0.422-4.301,2.221c-0.58,1.805,0.414,3.721,2.213,4.307
		c0.346,0.105,0.703,0.158,1.053,0.158c1.439,0,2.781-0.926,3.248-2.377C79.983,42.819,78.989,40.883,77.188,40.307z"/>
	<path fill="#678238" d="M67.725,29.279c-1.888-0.084-3.486,1.38-3.578,3.269c-0.076,1.896,1.387,3.486,3.277,3.571
		c0.045,0,0.1,0,0.156,0c1.809,0,3.33-1.431,3.406-3.262C71.077,30.962,69.602,29.37,67.725,29.279z"/>
	<path opacity="0.3" fill="#678238" d="M129.418,63.461c-1.887,0-3.42,1.533-3.42,3.424c0,1.889,1.533,3.42,3.42,3.42
		c1.9,0,3.432-1.531,3.432-3.42C132.85,64.995,131.319,63.461,129.418,63.461z"/>
	<path opacity="0.3" fill="#678238" d="M128.555,59.92c0.193,0,0.383-0.023,0.572-0.057c1.855-0.311,3.119-2.079,2.807-3.945
		c-0.314-1.854-2.08-3.117-3.936-2.801c-1.867,0.31-3.127,2.074-2.812,3.941C125.461,58.731,126.917,59.92,128.555,59.92z"/>
	<path fill="#678238" d="M71.536,8.111c0.066,0,0.135,0,0.213,0c1.789,0,3.297-1.397,3.396-3.207
		c0.121-1.887-1.307-3.513-3.195-3.625c-1.891-0.116-3.51,1.312-3.621,3.201C68.206,6.361,69.635,7.987,71.536,8.111z"/>
	<circle opacity="0.3" fill="#678238" cx="91.963" cy="66.884" r="3.423"/>
	<path opacity="0.3" fill="#678238" d="M91.204,59.864c1.721-0.771,2.5-2.793,1.73-4.52c-0.781-1.721-2.805-2.501-4.525-1.721
		c-1.721,0.77-2.504,2.799-1.732,4.516c0.572,1.271,1.82,2.031,3.131,2.031C90.276,60.17,90.743,60.073,91.204,59.864z"/>
	<path fill="#678238" d="M85.973,45.823c-1.41-1.258-3.566-1.141-4.828,0.264c-1.264,1.406-1.139,3.572,0.268,4.837
		c0.646,0.577,1.463,0.868,2.279,0.868c0.938,0,1.867-0.385,2.547-1.134C87.504,49.249,87.381,47.086,85.973,45.823z"/>
	<path opacity="0.3" fill="#678238" d="M101.325,63.461c-1.889,0-3.42,1.533-3.42,3.424c0,1.889,1.531,3.42,3.42,3.42
		c1.9,0,3.422-1.531,3.422-3.42C104.747,64.995,103.225,63.461,101.325,63.461z"/>
	<path opacity="0.3" fill="#678238" d="M100.79,59.864c1.799-0.565,2.795-2.48,2.238-4.287c-0.572-1.805-2.496-2.809-4.297-2.24
		c-1.809,0.564-2.801,2.494-2.244,4.293l0,0c0.459,1.459,1.811,2.395,3.275,2.395C100.098,60.026,100.442,59.971,100.79,59.864z"/>
	<path opacity="0.3" fill="#678238" d="M95.157,50.69c0.672,0,1.363-0.195,1.955-0.613c1.555-1.086,1.922-3.221,0.85-4.766
		c-1.084-1.547-3.229-1.928-4.77-0.838c-1.543,1.085-1.922,3.219-0.838,4.766C93.024,50.188,94.077,50.69,95.157,50.69z"/>
	<path fill="#678238" d="M85.874,42.459c0.627,0.488,1.363,0.717,2.088,0.717c1.027,0,2.045-0.466,2.717-1.338
		c1.152-1.496,0.871-3.648-0.625-4.793c-1.498-1.156-3.645-0.876-4.795,0.621C84.094,39.16,84.385,41.309,85.874,42.459z"/>
	<path fill="#678238" d="M79.659,31.164c-1.768-0.654-3.734,0.256-4.383,2.038c-0.646,1.771,0.26,3.73,2.049,4.386
		c0.379,0.137,0.783,0.203,1.172,0.203c1.395,0,2.705-0.861,3.207-2.245C82.35,33.773,81.446,31.807,79.659,31.164z"/>
	<path opacity="0.3" fill="#678238" d="M110.7,63.461c-1.896,0-3.43,1.533-3.43,3.424c0,1.889,1.533,3.42,3.43,3.42
		c1.881,0,3.408-1.531,3.408-3.42C114.11,64.995,112.581,63.461,110.7,63.461z"/>
	<path opacity="0.3" fill="#678238" d="M110.266,59.864c1.832-0.441,2.959-2.297,2.514-4.129c-0.447-1.837-2.293-2.967-4.135-2.521
		c-1.832,0.45-2.961,2.297-2.514,4.135c0.379,1.562,1.789,2.615,3.32,2.615C109.729,59.966,109.997,59.93,110.266,59.864z"/>
	<path opacity="0.3" fill="#678238" d="M108.833,45.206c-0.881-1.678-2.949-2.329-4.623-1.451c-1.678,0.867-2.326,2.936-1.453,4.611
		c0.613,1.172,1.811,1.844,3.041,1.844c0.533,0,1.066-0.123,1.57-0.387C109.045,48.948,109.696,46.879,108.833,45.206z"/>
	<path opacity="0.3" fill="#678238" d="M102.165,40.762c1.42-1.246,1.564-3.414,0.322-4.833c-1.238-1.419-3.406-1.56-4.826-0.32
		c-1.418,1.247-1.562,3.402-0.322,4.833c0.68,0.771,1.617,1.162,2.58,1.162C100.711,41.606,101.518,41.331,102.165,40.762z"/>
	<path fill="#678238" d="M94.967,33.186c1.086-1.547,0.715-3.676-0.84-4.768c-1.541-1.088-3.676-0.713-4.758,0.831
		c-1.096,1.549-0.715,3.68,0.826,4.768c0.605,0.425,1.285,0.62,1.967,0.62C93.237,34.638,94.297,34.136,94.967,33.186z"/>
	<path fill="#678238" d="M86.186,27.531c0.691-1.759-0.18-3.742-1.945-4.434c-1.754-0.682-3.74,0.179-4.438,1.938
		c-0.682,1.768,0.18,3.754,1.945,4.438c0.404,0.167,0.828,0.24,1.254,0.24C84.352,29.711,85.649,28.882,86.186,27.531z"/>
	<path opacity="0.3" fill="#678238" d="M120.422,63.461c-1.898,0-3.43,1.533-3.43,3.424c0,1.889,1.531,3.42,3.43,3.42
		c1.889,0,3.416-1.531,3.416-3.42C123.838,64.995,122.311,63.461,120.422,63.461z"/>
	<path opacity="0.3" fill="#678238" d="M119.405,59.93c0.211,0,0.449-0.021,0.67-0.066c1.854-0.363,3.051-2.164,2.682-4.023
		c0,0,0,0,0,0.008c-0.357-1.857-2.154-3.059-4.012-2.7c-1.854,0.368-3.062,2.168-2.691,4.022
		C116.368,58.803,117.807,59.93,119.405,59.93z"/>
	<path opacity="0.3" fill="#678238" d="M117.709,49.688c1.742-0.725,2.566-2.721,1.84-4.469c0,0,0,0,0.014,0
		c-0.725-1.75-2.729-2.574-4.469-1.85c-1.756,0.717-2.584,2.723-1.869,4.467c0.549,1.322,1.824,2.115,3.174,2.115
		C116.825,49.952,117.268,49.868,117.709,49.688z"/>
	<path opacity="0.3" fill="#678238" d="M109.584,34.486c-1.574,1.044-1.99,3.174-0.951,4.739c0.658,0.988,1.746,1.531,2.85,1.531
		c0.646,0,1.318-0.195,1.9-0.582c1.572-1.043,1.998-3.172,0.938-4.744l0,0C113.282,33.856,111.147,33.433,109.584,34.486z"/>
	<path opacity="0.3" fill="#678238" d="M102.456,31.672c0.67,0.681,1.541,1.009,2.426,1.009c0.871,0,1.74-0.328,2.412-0.994
		c1.34-1.334,1.34-3.497,0-4.838c-1.32-1.341-3.5-1.341-4.828-0.011C101.124,28.169,101.112,30.342,102.456,31.672z"/>
	<path fill="#678238" d="M93.995,20.715c-1.061,1.563-0.637,3.698,0.928,4.754c0.582,0.393,1.252,0.583,1.91,0.577
		c1.098,0,2.18-0.532,2.84-1.509c1.049-1.564,0.635-3.7-0.928-4.75C97.18,18.732,95.045,19.146,93.995,20.715z"/>
	<path fill="#678238" d="M86.331,20.831c0.436,0.193,0.879,0.274,1.328,0.274c1.344,0,2.604-0.798,3.152-2.104
		c0.725-1.744-0.088-3.75-1.832-4.482c-1.742-0.728-3.756,0.094-4.482,1.843C83.77,18.106,84.598,20.107,86.331,20.831z"/>
	<path fill="#678238" d="M77.012,17.978c0.232,0.052,0.455,0.073,0.68,0.073c1.598,0,3.014-1.129,3.35-2.742
		c0.369-1.86-0.824-3.659-2.678-4.041c-1.859-0.367-3.656,0.834-4.033,2.684C73.961,15.803,75.167,17.608,77.012,17.978z"/>
	<path opacity="0.3" fill="#678238" d="M122.747,47.512c0.492,1.412,1.811,2.295,3.217,2.295c0.383,0,0.76-0.057,1.131-0.192
		c1.789-0.618,2.738-2.567,2.109-4.356c-0.623-1.78-2.568-2.727-4.355-2.102C123.059,43.774,122.122,45.729,122.747,47.512z"/>
	<path opacity="0.3" fill="#678238" d="M118.723,38.508c0.627,1.131,1.801,1.77,3.006,1.77c0.561,0,1.131-0.137,1.645-0.421
		c1.664-0.917,2.256-2.995,1.352-4.656c-0.918-1.646-2.996-2.257-4.648-1.346C118.422,34.772,117.807,36.852,118.723,38.508z"/>
	<path opacity="0.3" fill="#678238" d="M115.944,31.593c0.746,0,1.494-0.246,2.119-0.74c1.486-1.175,1.732-3.324,0.559-4.806
		c-1.172-1.482-3.328-1.727-4.803-0.552c-1.486,1.167-1.734,3.329-0.559,4.804C113.942,31.146,114.936,31.593,115.944,31.593z"/>
	<path opacity="0.3" fill="#678238" d="M106.51,23.118c0.648,0.587,1.477,0.877,2.293,0.877c0.928,0,1.863-0.386,2.535-1.127
		c1.273-1.406,1.15-3.569-0.248-4.837c-1.406-1.264-3.564-1.152-4.838,0.25C104.991,19.686,105.102,21.849,106.51,23.118z"/>
	<path fill="#678238" d="M98.667,17.145c0.559,0.364,1.193,0.535,1.82,0.535c1.129,0,2.246-0.557,2.895-1.586
		c1.018-1.593,0.547-3.705-1.051-4.726c-1.596-1.012-3.709-0.536-4.725,1.057C96.598,14.016,97.057,16.132,98.667,17.145z"/>
	<path fill="#678238" d="M89.93,12.576c0.434,0.177,0.881,0.267,1.328,0.267c1.34,0,2.605-0.782,3.15-2.088
		c0.738-1.744-0.08-3.754-1.822-4.481c-1.74-0.736-3.754,0.084-4.48,1.82C87.37,9.836,88.184,11.849,89.93,12.576z"/>
	<path fill="#678238" d="M80.563,9.536c0.256,0.059,0.525,0.09,0.781,0.09c1.555,0,2.963-1.062,3.32-2.643
		c0.434-1.84-0.703-3.688-2.549-4.112c-1.842-0.431-3.686,0.71-4.113,2.558C77.581,7.268,78.721,9.104,80.563,9.536z"/>
</g>
</svg>
