<?xml version="1.0" encoding="utf-8"?>
<!-- Generator: Adobe Illustrator 16.0.0, SVG Export Plug-In . SVG Version: 6.00 Build 0)  -->
<!DOCTYPE svg PUBLIC "-//W3C//DTD SVG 1.1//EN" "http://www.w3.org/Graphics/SVG/1.1/DTD/svg11.dtd">
<svg version="1.1" id="Layer_1" xmlns="http://www.w3.org/2000/svg" xmlns:xlink="http://www.w3.org/1999/xlink" x="0px" y="0px"
	 width="408px" height="178px" viewBox="0 0 408 178" enable-background="new 0 0 408 178" xml:space="preserve">
<g>
	<g>
		<defs>
			<rect id="SVGID_1_" x="99.639" y="110.006" width="5.217" height="5.388"/>
		</defs>
		<clipPath id="SVGID_2_">
			<use xlink:href="#SVGID_1_"  overflow="visible"/>
		</clipPath>
		<path clip-path="url(#SVGID_2_)" fill="#659490" d="M104.862,114.168c-0.163-0.254-0.696-0.412-1.229-0.639
			c-0.533-0.226-0.658-0.304-0.658-0.304l-0.006-0.519c0,0,0.199-0.157,0.262-0.646c0.125,0.038,0.256-0.188,0.263-0.308
			c0.009-0.115-0.017-0.434-0.169-0.402c0.031-0.239,0.053-0.455,0.041-0.567c-0.039-0.417-0.443-0.857-1.062-0.857
			s-1.023,0.44-1.064,0.857c-0.012,0.112,0.012,0.328,0.043,0.567c-0.152-0.031-0.176,0.287-0.168,0.402
			c0.006,0.119,0.137,0.346,0.262,0.308c0.062,0.488,0.261,0.646,0.261,0.646l-0.004,0.519c0,0-0.126,0.078-0.657,0.304
			c-0.532,0.227-1.072,0.385-1.23,0.639c-0.144,0.227-0.1,1.32-0.1,1.32h5.316C104.961,115.488,105.004,114.395,104.862,114.168"/>
	</g>
</g>
<g>
	<g>
		<path fill="#B3523E" d="M186.789,175.777c-0.034,0.027-0.062,0.059-0.082,0.09c-0.143,0.219-0.102,1.266-0.102,1.266h1.596
			L186.789,175.777z"/>
		<path fill="#B3523E" d="M187.254,175.521l1.682,1.611h1.215l-2.035-1.951c-0.053,0.023-0.113,0.048-0.18,0.075
			C187.697,175.353,187.461,175.437,187.254,175.521"/>
		<path fill="#B3523E" d="M191.824,175.867c-0.161-0.242-0.697-0.395-1.229-0.61c-0.533-0.218-0.659-0.292-0.659-0.292l-0.004-0.499
			c0,0,0.199-0.147,0.262-0.616c0.124,0.035,0.255-0.182,0.261-0.296c0.009-0.109-0.016-0.415-0.168-0.384
			c0.031-0.23,0.054-0.436,0.041-0.545c-0.039-0.4-0.44-0.822-1.063-0.822c-0.618,0-1.024,0.422-1.063,0.822
			c-0.011,0.109,0.012,0.314,0.043,0.545c-0.152-0.031-0.175,0.274-0.169,0.384c0.007,0.114,0.138,0.331,0.263,0.296
			c0.061,0.469,0.262,0.616,0.262,0.616l-0.007,0.47l2.291,2.197h1.041C191.925,177.133,191.968,176.086,191.824,175.867"/>
	</g>
</g>
<g>
	<g>
		<path fill="#B3523E" d="M277.742,83.078c-0.031,0.028-0.061,0.059-0.082,0.09c-0.143,0.217-0.099,1.266-0.099,1.266h1.593
			L277.742,83.078z"/>
		<path fill="#B3523E" d="M278.21,82.823l1.679,1.611h1.219l-2.035-1.951c-0.055,0.021-0.115,0.048-0.182,0.075
			C278.653,82.654,278.414,82.737,278.21,82.823"/>
		<path fill="#B3523E" d="M282.779,83.168c-0.16-0.244-0.697-0.396-1.228-0.61c-0.534-0.216-0.658-0.292-0.658-0.292l-0.009-0.497
			c0,0,0.203-0.149,0.264-0.617c0.126,0.034,0.254-0.183,0.263-0.297c0.008-0.11-0.017-0.416-0.169-0.383
			c0.031-0.23,0.054-0.436,0.041-0.546c-0.039-0.398-0.441-0.821-1.062-0.821s-1.025,0.422-1.062,0.821
			c-0.013,0.11,0.008,0.316,0.039,0.546c-0.148-0.032-0.174,0.273-0.168,0.383c0.01,0.114,0.137,0.331,0.266,0.297
			c0.059,0.468,0.26,0.617,0.26,0.617l-0.006,0.468l2.291,2.198h1.039C282.879,84.434,282.925,83.385,282.779,83.168"/>
	</g>
</g>
<g>
	<g>
		<path fill="#B3523E" d="M351.205,144.954c-0.03,0.028-0.056,0.06-0.076,0.092c-0.137,0.217-0.098,1.265-0.098,1.265h1.525
			L351.205,144.954z"/>
		<path fill="#B3523E" d="M351.65,144.699l1.607,1.611h1.166l-1.947-1.951c-0.052,0.021-0.108,0.047-0.172,0.074
			C352.075,144.529,351.85,144.615,351.65,144.699"/>
		<path fill="#B3523E" d="M356.023,145.046c-0.152-0.245-0.668-0.396-1.175-0.612c-0.509-0.217-0.631-0.29-0.631-0.29l-0.005-0.499
			c0,0,0.192-0.148,0.251-0.617c0.121,0.035,0.244-0.18,0.25-0.297c0.008-0.109-0.015-0.414-0.161-0.383
			c0.027-0.229,0.05-0.436,0.04-0.547c-0.039-0.397-0.424-0.82-1.017-0.82s-0.979,0.423-1.018,0.82
			c-0.01,0.111,0.012,0.318,0.039,0.547c-0.143-0.031-0.167,0.273-0.161,0.383c0.006,0.117,0.134,0.332,0.252,0.297
			c0.061,0.469,0.25,0.617,0.25,0.617l-0.007,0.469l2.193,2.197h0.993C356.118,146.311,356.159,145.263,356.023,145.046"/>
	</g>
</g>
<g>
	<defs>
		<rect id="SVGID_3_" x="191.916" y="44.103" width="3.092" height="3.337"/>
	</defs>
	<clipPath id="SVGID_4_">
		<use xlink:href="#SVGID_3_"  overflow="visible"/>
	</clipPath>
	<polygon clip-path="url(#SVGID_4_)" fill="#FFFFFF" points="192.148,44.334 192.148,47.208 194.776,44.58 	"/>
</g>
<g>
	<defs>
		<rect id="SVGID_5_" x="217.646" y="38.711" width="2.735" height="0.926"/>
	</defs>
	<clipPath id="SVGID_6_">
		<use xlink:href="#SVGID_5_"  overflow="visible"/>
	</clipPath>
	
		<line clip-path="url(#SVGID_6_)" fill="none" stroke="#FFFFFF" stroke-width="2" x1="217.877" y1="39.175" x2="220.152" y2="39.175"/>
</g>
<g>
	<g>
		<path fill="#C75039" d="M186.789,52.256c-0.034,0.029-0.062,0.059-0.082,0.089c-0.143,0.219-0.102,1.266-0.102,1.266h1.596
			L186.789,52.256z"/>
		<path fill="#C75039" d="M187.254,51.999l1.682,1.612h1.215l-2.035-1.95c-0.053,0.021-0.113,0.046-0.18,0.073
			C187.697,51.832,187.461,51.916,187.254,51.999"/>
		<path fill="#C75039" d="M191.824,52.345c-0.161-0.243-0.697-0.396-1.229-0.611c-0.533-0.216-0.659-0.291-0.659-0.291l-0.004-0.498
			c0,0,0.199-0.15,0.262-0.617c0.124,0.034,0.255-0.181,0.261-0.296c0.009-0.109-0.016-0.414-0.168-0.383
			c0.031-0.23,0.054-0.437,0.041-0.545c-0.039-0.401-0.44-0.823-1.063-0.823c-0.618,0-1.024,0.421-1.063,0.823
			c-0.011,0.108,0.012,0.314,0.043,0.545c-0.152-0.031-0.175,0.274-0.169,0.383c0.007,0.115,0.138,0.331,0.263,0.296
			c0.061,0.467,0.262,0.617,0.262,0.617l-0.007,0.468l2.291,2.198h1.041C191.925,53.611,191.968,52.564,191.824,52.345"/>
	</g>
</g>
<g>
	<g>
		<path fill="#659490" d="M141.564,103.103c-0.11-0.179-0.477-0.29-0.836-0.452c-0.362-0.158-0.446-0.217-0.446-0.217l-0.003-0.367
			c0,0,0.137-0.111,0.176-0.459c0.085,0.027,0.174-0.137,0.176-0.219c0.008-0.082-0.01-0.307-0.109-0.285
			c0.019-0.17,0.03-0.322,0.025-0.406c-0.025-0.295-0.297-0.609-0.723-0.609c-0.423,0-0.693,0.314-0.723,0.609
			c-0.008,0.084,0.008,0.236,0.029,0.406c-0.104-0.021-0.117,0.203-0.115,0.285s0.094,0.246,0.178,0.219
			c0.041,0.348,0.178,0.459,0.178,0.459l-0.004,0.367c0,0-0.088,0.059-0.445,0.217c-0.363,0.162-0.728,0.273-0.838,0.452
			c-0.096,0.165-0.067,0.94-0.067,0.94h3.616C141.633,104.043,141.66,103.268,141.564,103.103"/>
	</g>
</g>
<g>
	<rect x="137.691" y="90.235" fill="#659490" width="18.396" height="8.142"/>
</g>
<g>
	<defs>
		<rect id="SVGID_7_" x="142.143" y="95.832" width="4.395" height="4.744"/>
	</defs>
	<clipPath id="SVGID_8_">
		<use xlink:href="#SVGID_7_"  overflow="visible"/>
	</clipPath>
	<polygon clip-path="url(#SVGID_8_)" fill="#659490" points="142.473,96.161 142.473,100.248 146.21,96.51 	"/>
</g>
<g>
	<rect x="139.831" y="92.54" fill="#FFFFFF" width="12.941" height="1.164"/>
</g>
<g>
	<rect x="139.831" y="94.91" fill="#FFFFFF" width="14.116" height="1.162"/>
</g>
<g>
	<rect x="137.822" y="71.798" fill="#C75039" width="18.396" height="8.144"/>
</g>
<g>
	<defs>
		<rect id="SVGID_9_" x="142.277" y="77.396" width="4.393" height="4.747"/>
	</defs>
	<clipPath id="SVGID_10_">
		<use xlink:href="#SVGID_9_"  overflow="visible"/>
	</clipPath>
	<polygon clip-path="url(#SVGID_10_)" fill="#C75039" points="142.605,77.724 142.605,81.81 146.342,78.075 	"/>
</g>
<g>
	<rect x="139.964" y="74.106" fill="#FFFFFF" width="12.942" height="1.159"/>
</g>
<g>
	<rect x="139.964" y="76.478" fill="#FFFFFF" width="14.116" height="1.16"/>
</g>
<g>
	<defs>
		<rect id="SVGID_11_" x="130.778" y="84.582" width="4.737" height="0.927"/>
	</defs>
	<use xlink:href="#SVGID_11_"  overflow="visible" fill="#808182"/>
	<clipPath id="SVGID_12_">
		<use xlink:href="#SVGID_11_"  overflow="visible"/>
	</clipPath>
	<line clip-path="url(#SVGID_12_)" fill="#808182" x1="131.01" y1="85.044" x2="135.283" y2="85.044"/>
</g>
<g>
	<defs>
		<rect id="SVGID_13_" x="130.778" y="102.519" width="4.737" height="0.928"/>
	</defs>
	<use xlink:href="#SVGID_13_"  overflow="visible" fill="#808182"/>
	<clipPath id="SVGID_14_">
		<use xlink:href="#SVGID_13_"  overflow="visible"/>
	</clipPath>
	<line clip-path="url(#SVGID_14_)" fill="#808182" x1="131.01" y1="102.982" x2="135.283" y2="102.982"/>
</g>
<g>
	<g>
		<path fill="#C75039" d="M138.336,84.86c-0.028,0.021-0.047,0.044-0.061,0.066c-0.109,0.163-0.076,0.94-0.076,0.94h1.185
			L138.336,84.86z"/>
		<path fill="#C75039" d="M138.68,84.67l1.247,1.196h0.899l-1.505-1.448c-0.042,0.017-0.087,0.034-0.136,0.054
			C139.012,84.546,138.834,84.61,138.68,84.67"/>
		<path fill="#C75039" d="M142.07,84.927c-0.12-0.18-0.516-0.293-0.91-0.454c-0.396-0.159-0.492-0.215-0.492-0.215v-0.369
			c0,0,0.148-0.111,0.189-0.46c0.094,0.028,0.191-0.132,0.198-0.217c0.005-0.081-0.013-0.309-0.128-0.286
			c0.023-0.169,0.041-0.322,0.033-0.404c-0.029-0.295-0.33-0.611-0.789-0.611c-0.46,0-0.756,0.315-0.788,0.611
			c-0.009,0.082,0.009,0.235,0.032,0.404c-0.112-0.023-0.133,0.205-0.126,0.286c0.005,0.085,0.103,0.245,0.192,0.217
			c0.047,0.35,0.194,0.46,0.194,0.46l-0.005,0.347l1.703,1.63h0.771C142.146,85.867,142.176,85.09,142.07,84.927"/>
	</g>
</g>
<g>
	<g>
		<g>
			<path fill="#659490" d="M228.439,84.666c-0.111-0.18-0.476-0.291-0.836-0.451c-0.363-0.16-0.446-0.218-0.446-0.218l-0.003-0.368
				c0,0,0.136-0.11,0.176-0.458c0.086,0.027,0.174-0.137,0.176-0.219c0.008-0.082-0.01-0.306-0.109-0.284
				c0.02-0.171,0.029-0.324,0.025-0.406c-0.025-0.296-0.297-0.61-0.723-0.61c-0.424,0-0.693,0.314-0.723,0.61
				c-0.008,0.082,0.008,0.234,0.029,0.406c-0.104-0.022-0.117,0.203-0.115,0.284c0.003,0.082,0.094,0.247,0.178,0.219
				c0.042,0.348,0.179,0.458,0.179,0.458l-0.005,0.368c0,0-0.088,0.059-0.445,0.218c-0.363,0.161-0.728,0.271-0.838,0.451
				c-0.096,0.165-0.067,0.94-0.067,0.94h3.616C228.508,85.606,228.535,84.83,228.439,84.666"/>
		</g>
	</g>
	<g>
		<rect x="224.566" y="71.798" fill="#659490" width="18.395" height="8.142"/>
	</g>
	<g>
		<defs>
			<rect id="SVGID_15_" x="229.018" y="77.395" width="4.395" height="4.745"/>
		</defs>
		<clipPath id="SVGID_16_">
			<use xlink:href="#SVGID_15_"  overflow="visible"/>
		</clipPath>
		<polygon clip-path="url(#SVGID_16_)" fill="#659490" points="229.348,77.724 229.348,81.81 233.086,78.073 		"/>
	</g>
	<g>
		<rect x="226.706" y="74.102" fill="#FFFFFF" width="12.94" height="1.164"/>
	</g>
	<g>
		<rect x="226.706" y="76.473" fill="#FFFFFF" width="14.116" height="1.162"/>
	</g>
	<g>
		<defs>
			<rect id="SVGID_17_" x="217.653" y="84.082" width="4.737" height="0.927"/>
		</defs>
		<use xlink:href="#SVGID_17_"  overflow="visible" fill="#808182"/>
		<clipPath id="SVGID_18_">
			<use xlink:href="#SVGID_17_"  overflow="visible"/>
		</clipPath>
		<line clip-path="url(#SVGID_18_)" fill="#808182" x1="217.885" y1="84.544" x2="222.158" y2="84.544"/>
	</g>
</g>
<g>
	<g>
		<path fill="#659490" d="M319.439,73.103c-0.111-0.179-0.476-0.29-0.836-0.452c-0.363-0.159-0.446-0.217-0.446-0.217l-0.003-0.368
			c0,0,0.136-0.11,0.176-0.459c0.086,0.028,0.174-0.136,0.176-0.219c0.008-0.082-0.01-0.306-0.109-0.284
			c0.02-0.171,0.029-0.323,0.025-0.407c-0.025-0.295-0.297-0.609-0.723-0.609c-0.424,0-0.693,0.314-0.723,0.609
			c-0.008,0.083,0.008,0.236,0.029,0.407c-0.104-0.021-0.117,0.203-0.115,0.284c0.003,0.083,0.094,0.247,0.178,0.219
			c0.042,0.349,0.179,0.459,0.179,0.459l-0.005,0.368c0,0-0.088,0.058-0.445,0.217c-0.363,0.162-0.728,0.272-0.838,0.452
			c-0.096,0.165-0.067,0.94-0.067,0.94h3.616C319.508,74.043,319.535,73.268,319.439,73.103"/>
	</g>
</g>
<g>
	<rect x="315.566" y="60.235" fill="#659490" width="18.395" height="8.142"/>
</g>
<g>
	<defs>
		<rect id="SVGID_19_" x="320.018" y="65.832" width="4.395" height="4.745"/>
	</defs>
	<clipPath id="SVGID_20_">
		<use xlink:href="#SVGID_19_"  overflow="visible"/>
	</clipPath>
	<polygon clip-path="url(#SVGID_20_)" fill="#659490" points="320.348,66.161 320.348,70.248 324.086,66.51 	"/>
</g>
<g>
	<rect x="317.706" y="62.54" fill="#FFFFFF" width="12.94" height="1.164"/>
</g>
<g>
	<rect x="317.706" y="64.911" fill="#FFFFFF" width="14.116" height="1.162"/>
</g>
<g>
	<defs>
		<rect id="SVGID_21_" x="308.653" y="72.519" width="4.737" height="0.928"/>
	</defs>
	<use xlink:href="#SVGID_21_"  overflow="visible" fill="#808182"/>
	<clipPath id="SVGID_22_">
		<use xlink:href="#SVGID_21_"  overflow="visible"/>
	</clipPath>
	<line clip-path="url(#SVGID_22_)" fill="#808182" x1="308.885" y1="72.982" x2="313.158" y2="72.982"/>
</g>
<g>
	<g>
		<path fill="#659490" d="M319.439,54.103c-0.111-0.18-0.476-0.29-0.836-0.452c-0.363-0.159-0.446-0.217-0.446-0.217l-0.003-0.368
			c0,0,0.136-0.11,0.176-0.459c0.086,0.028,0.174-0.137,0.176-0.219c0.008-0.081-0.01-0.306-0.109-0.284
			c0.02-0.17,0.029-0.323,0.025-0.406c-0.025-0.295-0.297-0.609-0.723-0.609c-0.424,0-0.693,0.314-0.723,0.609
			c-0.008,0.083,0.008,0.236,0.029,0.406c-0.104-0.022-0.117,0.203-0.115,0.284c0.003,0.082,0.094,0.247,0.178,0.219
			c0.042,0.349,0.179,0.459,0.179,0.459l-0.005,0.368c0,0-0.088,0.058-0.445,0.217c-0.363,0.162-0.728,0.272-0.838,0.452
			c-0.096,0.165-0.067,0.94-0.067,0.94h3.616C319.508,55.043,319.535,54.268,319.439,54.103"/>
	</g>
</g>
<g>
	<rect x="315.566" y="41.235" fill="#659490" width="18.395" height="8.142"/>
</g>
<g>
	<defs>
		<rect id="SVGID_23_" x="320.018" y="46.832" width="4.395" height="4.745"/>
	</defs>
	<clipPath id="SVGID_24_">
		<use xlink:href="#SVGID_23_"  overflow="visible"/>
	</clipPath>
	<polygon clip-path="url(#SVGID_24_)" fill="#659490" points="320.348,47.161 320.348,51.248 324.086,47.51 	"/>
</g>
<g>
	<rect x="317.706" y="43.54" fill="#FFFFFF" width="12.94" height="1.164"/>
</g>
<g>
	<rect x="317.706" y="45.911" fill="#FFFFFF" width="14.116" height="1.162"/>
</g>
<g>
	<defs>
		<rect id="SVGID_25_" x="308.653" y="53.519" width="4.737" height="0.928"/>
	</defs>
	<use xlink:href="#SVGID_25_"  overflow="visible" fill="#808182"/>
	<clipPath id="SVGID_26_">
		<use xlink:href="#SVGID_25_"  overflow="visible"/>
	</clipPath>
	<line clip-path="url(#SVGID_26_)" fill="#808182" x1="308.885" y1="53.982" x2="313.158" y2="53.982"/>
</g>
<g>
	<g>
		<path fill="#659490" d="M228.439,165.103c-0.111-0.179-0.476-0.29-0.836-0.452c-0.363-0.158-0.446-0.217-0.446-0.217l-0.003-0.367
			c0,0,0.136-0.111,0.176-0.459c0.086,0.027,0.174-0.137,0.176-0.219c0.008-0.082-0.01-0.307-0.109-0.285
			c0.02-0.17,0.029-0.322,0.025-0.406c-0.025-0.295-0.297-0.609-0.723-0.609c-0.424,0-0.693,0.314-0.723,0.609
			c-0.008,0.084,0.008,0.236,0.029,0.406c-0.104-0.021-0.117,0.203-0.115,0.285c0.003,0.082,0.094,0.246,0.178,0.219
			c0.042,0.348,0.179,0.459,0.179,0.459l-0.005,0.367c0,0-0.088,0.059-0.445,0.217c-0.363,0.162-0.728,0.273-0.838,0.452
			c-0.096,0.165-0.067,0.94-0.067,0.94h3.616C228.508,166.043,228.535,165.268,228.439,165.103"/>
	</g>
</g>
<g>
	<rect x="224.566" y="152.235" fill="#659490" width="18.395" height="8.142"/>
</g>
<g>
	<defs>
		<rect id="SVGID_27_" x="229.018" y="157.832" width="4.395" height="4.744"/>
	</defs>
	<clipPath id="SVGID_28_">
		<use xlink:href="#SVGID_27_"  overflow="visible"/>
	</clipPath>
	<polygon clip-path="url(#SVGID_28_)" fill="#659490" points="229.348,158.161 229.348,162.248 233.086,158.51 	"/>
</g>
<g>
	<rect x="226.706" y="154.539" fill="#FFFFFF" width="12.94" height="1.164"/>
</g>
<g>
	<rect x="226.706" y="156.91" fill="#FFFFFF" width="14.116" height="1.162"/>
</g>
<g>
	<defs>
		<rect id="SVGID_29_" x="217.653" y="164.519" width="4.737" height="0.928"/>
	</defs>
	<use xlink:href="#SVGID_29_"  overflow="visible" fill="#808182"/>
	<clipPath id="SVGID_30_">
		<use xlink:href="#SVGID_29_"  overflow="visible"/>
	</clipPath>
	<line clip-path="url(#SVGID_30_)" fill="#808182" x1="217.885" y1="164.982" x2="222.158" y2="164.982"/>
</g>
<g>
	<g>
		<rect x="224.697" y="90.235" fill="#C75039" width="18.396" height="8.145"/>
	</g>
	<g>
		<defs>
			<rect id="SVGID_31_" x="229.152" y="95.832" width="4.393" height="4.748"/>
		</defs>
		<clipPath id="SVGID_32_">
			<use xlink:href="#SVGID_31_"  overflow="visible"/>
		</clipPath>
		<polygon clip-path="url(#SVGID_32_)" fill="#C75039" points="229.48,96.162 229.48,100.248 233.217,96.512 		"/>
	</g>
	<g>
		<rect x="226.839" y="92.543" fill="#FFFFFF" width="12.942" height="1.159"/>
	</g>
	<g>
		<rect x="226.839" y="94.914" fill="#FFFFFF" width="14.116" height="1.161"/>
	</g>
	<g>
		<defs>
			<rect id="SVGID_33_" x="217.653" y="103.019" width="4.737" height="0.927"/>
		</defs>
		<use xlink:href="#SVGID_33_"  overflow="visible" fill="#808182"/>
		<clipPath id="SVGID_34_">
			<use xlink:href="#SVGID_33_"  overflow="visible"/>
		</clipPath>
		<line clip-path="url(#SVGID_34_)" fill="#808182" x1="217.885" y1="103.482" x2="222.158" y2="103.482"/>
	</g>
	<g>
		<g>
			<path fill="#C75039" d="M225.21,103.299c-0.028,0.02-0.046,0.043-0.06,0.066c-0.109,0.162-0.076,0.939-0.076,0.939h1.184
				L225.21,103.299z"/>
			<path fill="#C75039" d="M225.555,103.107l1.246,1.197h0.9l-1.506-1.448c-0.041,0.017-0.085,0.034-0.134,0.054
				C225.887,102.983,225.709,103.047,225.555,103.107"/>
			<path fill="#C75039" d="M228.945,103.365c-0.121-0.182-0.516-0.295-0.91-0.455c-0.396-0.158-0.492-0.214-0.492-0.214v-0.369
				c0,0,0.148-0.11,0.189-0.46c0.095,0.027,0.192-0.133,0.197-0.219c0.006-0.08-0.012-0.309-0.127-0.285
				c0.024-0.169,0.041-0.322,0.033-0.403c-0.029-0.296-0.33-0.61-0.788-0.61c-0.461,0-0.758,0.314-0.79,0.61
				c-0.008,0.081,0.01,0.234,0.033,0.403c-0.113-0.023-0.133,0.205-0.125,0.285c0.004,0.086,0.102,0.246,0.191,0.219
				c0.047,0.35,0.194,0.46,0.194,0.46l-0.005,0.347l1.703,1.631h0.771C229.021,104.305,229.051,103.527,228.945,103.365"/>
		</g>
	</g>
</g>
<g>
	<g>
		<rect x="315.565" y="121.799" fill="#C75039" width="18.396" height="8.143"/>
	</g>
	<g>
		<defs>
			<rect id="SVGID_35_" x="320.021" y="127.395" width="4.392" height="4.748"/>
		</defs>
		<clipPath id="SVGID_36_">
			<use xlink:href="#SVGID_35_"  overflow="visible"/>
		</clipPath>
		<polygon clip-path="url(#SVGID_36_)" fill="#C75039" points="320.349,127.725 320.349,131.811 324.086,128.074 		"/>
	</g>
	<g>
		<rect x="317.707" y="124.105" fill="#FFFFFF" width="12.942" height="1.158"/>
	</g>
	<g>
		<rect x="317.707" y="126.477" fill="#FFFFFF" width="14.115" height="1.16"/>
	</g>
	<g>
		<defs>
			<rect id="SVGID_37_" x="308.521" y="134.582" width="4.736" height="0.926"/>
		</defs>
		<use xlink:href="#SVGID_37_"  overflow="visible" fill="#808182"/>
		<clipPath id="SVGID_38_">
			<use xlink:href="#SVGID_37_"  overflow="visible"/>
		</clipPath>
		<line clip-path="url(#SVGID_38_)" fill="#808182" x1="308.752" y1="135.044" x2="313.026" y2="135.044"/>
	</g>
	<g>
		<g>
			<path fill="#C75039" d="M316.078,134.86c-0.027,0.021-0.047,0.044-0.061,0.066c-0.108,0.163-0.075,0.94-0.075,0.94h1.185
				L316.078,134.86z"/>
			<path fill="#C75039" d="M316.423,134.67l1.247,1.197h0.899l-1.505-1.449c-0.041,0.018-0.086,0.035-0.135,0.055
				C316.755,134.546,316.576,134.609,316.423,134.67"/>
			<path fill="#C75039" d="M319.813,134.927c-0.12-0.181-0.517-0.294-0.911-0.454c-0.396-0.158-0.491-0.215-0.491-0.215v-0.369
				c0,0,0.147-0.111,0.189-0.461c0.095,0.029,0.192-0.131,0.198-0.217c0.005-0.08-0.013-0.309-0.128-0.285
				c0.024-0.17,0.041-0.323,0.032-0.404c-0.029-0.295-0.328-0.611-0.787-0.611c-0.461,0-0.758,0.316-0.789,0.611
				c-0.01,0.081,0.009,0.234,0.032,0.404c-0.112-0.023-0.133,0.205-0.126,0.285c0.005,0.086,0.103,0.246,0.192,0.217
				c0.047,0.35,0.194,0.461,0.194,0.461l-0.004,0.348l1.701,1.631h0.773C319.891,135.867,319.919,135.09,319.813,134.927"/>
		</g>
	</g>
</g>
<g>
	<g>
		<rect x="224.822" y="28.798" fill="#C75039" width="18.396" height="8.144"/>
	</g>
	<g>
		<defs>
			<rect id="SVGID_39_" x="229.277" y="34.396" width="4.393" height="4.747"/>
		</defs>
		<clipPath id="SVGID_40_">
			<use xlink:href="#SVGID_39_"  overflow="visible"/>
		</clipPath>
		<polygon clip-path="url(#SVGID_40_)" fill="#C75039" points="229.605,34.724 229.605,38.81 233.342,35.075 		"/>
	</g>
	<g>
		<rect x="226.964" y="31.106" fill="#FFFFFF" width="12.942" height="1.159"/>
	</g>
	<g>
		<rect x="226.964" y="33.478" fill="#FFFFFF" width="14.116" height="1.16"/>
	</g>
	<g>
		<defs>
			<rect id="SVGID_41_" x="217.778" y="41.582" width="4.737" height="0.927"/>
		</defs>
		<use xlink:href="#SVGID_41_"  overflow="visible" fill="#808182"/>
		<clipPath id="SVGID_42_">
			<use xlink:href="#SVGID_41_"  overflow="visible"/>
		</clipPath>
		<line clip-path="url(#SVGID_42_)" fill="#808182" x1="218.01" y1="42.044" x2="222.283" y2="42.044"/>
	</g>
	<g>
		<g>
			<path fill="#C75039" d="M225.336,41.86c-0.028,0.021-0.047,0.044-0.061,0.066c-0.109,0.163-0.076,0.94-0.076,0.94h1.185
				L225.336,41.86z"/>
			<path fill="#C75039" d="M225.68,41.67l1.247,1.196h0.899l-1.505-1.448c-0.042,0.017-0.087,0.034-0.136,0.054
				C226.012,41.546,225.834,41.61,225.68,41.67"/>
			<path fill="#C75039" d="M229.07,41.927c-0.12-0.18-0.516-0.293-0.91-0.454c-0.396-0.159-0.492-0.215-0.492-0.215v-0.369
				c0,0,0.148-0.111,0.189-0.46c0.094,0.028,0.191-0.132,0.198-0.217c0.005-0.081-0.013-0.309-0.128-0.286
				c0.023-0.169,0.041-0.322,0.033-0.404c-0.029-0.295-0.33-0.611-0.789-0.611c-0.46,0-0.756,0.315-0.788,0.611
				c-0.009,0.082,0.009,0.235,0.032,0.404c-0.112-0.023-0.133,0.205-0.126,0.286c0.005,0.085,0.103,0.245,0.192,0.217
				c0.047,0.35,0.194,0.46,0.194,0.46l-0.005,0.347l1.703,1.63h0.771C229.146,42.867,229.176,42.09,229.07,41.927"/>
		</g>
	</g>
</g>
<g>
	<g>
		<path fill="#659490" d="M282.779,145.046c-0.16-0.245-0.697-0.396-1.228-0.612c-0.534-0.217-0.658-0.29-0.658-0.29l-0.009-0.499
			c0,0,0.203-0.148,0.264-0.617c0.126,0.035,0.254-0.18,0.263-0.297c0.008-0.109-0.017-0.414-0.169-0.383
			c0.031-0.229,0.054-0.436,0.041-0.547c-0.039-0.397-0.441-0.82-1.062-0.82s-1.025,0.423-1.062,0.82
			c-0.013,0.111,0.008,0.318,0.039,0.547c-0.148-0.031-0.174,0.273-0.168,0.383c0.01,0.117,0.137,0.332,0.266,0.297
			c0.059,0.469,0.26,0.617,0.26,0.617l-0.007,0.499c0,0-0.126,0.073-0.657,0.29c-0.532,0.217-1.069,0.367-1.23,0.612
			c-0.143,0.217-0.099,1.265-0.099,1.265h5.317C282.879,146.311,282.925,145.263,282.779,145.046"/>
	</g>
</g>
<g>
	<g>
		<path fill="#C75039" d="M186.789,114.072c-0.034,0.031-0.062,0.062-0.082,0.096c-0.143,0.227-0.102,1.32-0.102,1.32h1.596
			L186.789,114.072z"/>
		<path fill="#C75039" d="M187.254,113.805l1.682,1.684h1.215l-2.035-2.037c-0.053,0.023-0.113,0.05-0.18,0.078
			C187.697,113.631,187.461,113.719,187.254,113.805"/>
		<path fill="#C75039" d="M191.824,114.168c-0.161-0.254-0.697-0.412-1.229-0.639c-0.533-0.226-0.659-0.304-0.659-0.304
			l-0.004-0.519c0,0,0.199-0.157,0.262-0.646c0.124,0.038,0.255-0.188,0.261-0.308c0.009-0.115-0.016-0.434-0.168-0.402
			c0.031-0.239,0.054-0.455,0.041-0.567c-0.039-0.417-0.44-0.857-1.063-0.857c-0.618,0-1.024,0.44-1.063,0.857
			c-0.011,0.112,0.012,0.328,0.043,0.567c-0.152-0.031-0.175,0.287-0.169,0.402c0.007,0.119,0.138,0.346,0.263,0.308
			c0.061,0.488,0.262,0.646,0.262,0.646l-0.007,0.487l2.291,2.294h1.041C191.925,115.488,191.968,114.395,191.824,114.168"/>
	</g>
</g>
<line fill="none" stroke="#808182" stroke-miterlimit="10" x1="182.5" y1="175" x2="175.5" y2="175"/>
<line fill="none" stroke="#808182" stroke-miterlimit="10" x1="182.5" y1="114" x2="107.5" y2="114"/>
<line fill="none" stroke="#808182" stroke-miterlimit="10" x1="264.5" y1="114" x2="195.5" y2="114"/>
<line fill="none" stroke="#808182" stroke-miterlimit="10" x1="273.5" y1="83" x2="263.5" y2="83"/>
<line fill="none" stroke="#808182" stroke-miterlimit="10" x1="273.5" y1="145" x2="263.5" y2="145"/>
<line fill="none" stroke="#808182" stroke-miterlimit="10" x1="182.5" y1="52" x2="175.5" y2="52"/>
<line fill="none" stroke="#808182" stroke-miterlimit="10" x1="347.5" y1="145" x2="286.5" y2="145"/>
<line fill="none" stroke="#808182" stroke-miterlimit="10" stroke-dasharray="2,1" x1="373.5" y1="145" x2="359.5" y2="145"/>
<line fill="none" stroke="#808182" stroke-miterlimit="10" stroke-dasharray="2,1" x1="209.5" y1="52" x2="195.5" y2="52"/>
<line fill="none" stroke="#808182" stroke-miterlimit="10" x1="264" y1="145.5" x2="264" y2="83.5"/>
<line fill="none" stroke="#808182" stroke-miterlimit="10" x1="176" y1="175.5" x2="176" y2="52.5"/>
<g>
	<path fill="#659490" d="M6.871,64.357c-0.647,0.216-1.14,0.288-1.799,0.288c-2.411,0-3.886-1.691-3.886-4.39
		c0-2.687,1.475-4.378,3.886-4.378c0.684,0,1.188,0.06,1.787,0.252l0.552,0.18c0.096,0.036,0.132,0.096,0.096,0.192l-0.432,1.355
		c-0.036,0.096-0.097,0.132-0.192,0.096l-0.563-0.18c-0.348-0.108-0.695-0.156-1.247-0.156c-1.199,0-1.932,0.971-1.932,2.639
		c0,1.691,0.732,2.662,1.932,2.662c0.443,0,0.804-0.036,1.235-0.18l0.563-0.168c0.096-0.036,0.168,0,0.191,0.096l0.48,1.307
		c0.036,0.096,0.012,0.156-0.097,0.192L6.871,64.357z"/>
	<path fill="#659490" d="M11.12,64.357c0,0.096-0.06,0.156-0.155,0.156H9.381c-0.096,0-0.155-0.06-0.155-0.156v-4.066H8.602
		c-0.096,0-0.156-0.06-0.156-0.156V58.78c0-0.096,0.061-0.156,0.156-0.156h2.363c0.096,0,0.155,0.06,0.155,0.156V64.357z
		 M11.084,56.753c0,0.684-0.384,1.104-1.067,1.104c-0.671,0-1.067-0.42-1.067-1.104c0-0.695,0.396-1.091,1.067-1.091
		C10.7,55.662,11.084,56.058,11.084,56.753z"/>
	<path fill="#659490" d="M16.184,58.625c0.096,0,0.156,0.06,0.156,0.156v1.355c0,0.096-0.061,0.156-0.156,0.156h-1.355v2.183
		c0,0.312,0.12,0.492,0.312,0.492c0.108,0,0.204-0.012,0.3-0.048c0.097-0.036,0.168-0.024,0.217,0.072l0.563,1.151
		c0.036,0.084,0.023,0.168-0.048,0.216c-0.288,0.192-0.672,0.288-1.032,0.288c-1.391,0-2.206-0.804-2.206-2.171v-2.183H12.31
		c-0.096,0-0.156-0.06-0.156-0.156V58.78c0-0.096,0.061-0.156,0.156-0.156h0.624v-1.307c0-0.084,0.036-0.144,0.132-0.18l1.583-0.528
		c0.107-0.036,0.18,0.012,0.18,0.132v1.883H16.184z"/>
	<path fill="#659490" d="M22.963,61.563c0,1.895-1.115,3.083-2.915,3.083c-1.811,0-2.926-1.188-2.926-3.083
		c0-1.871,1.115-3.07,2.926-3.07C21.848,58.493,22.963,59.692,22.963,61.563z M18.98,61.563c0,0.875,0.408,1.403,1.067,1.403
		c0.648,0,1.056-0.528,1.056-1.403c0-0.864-0.407-1.379-1.056-1.379C19.389,60.184,18.98,60.699,18.98,61.563z"/>
	<path fill="#659490" d="M26.577,67.02c-0.036,0.084-0.096,0.12-0.18,0.12H24.79c-0.12,0-0.168-0.072-0.12-0.18l0.432-1.163
		c0.408-1.104,0.264-1.896-0.287-3.395l-1.332-3.598c-0.048-0.108,0-0.18,0.12-0.18h1.644c0.084,0,0.144,0.036,0.18,0.12
		l0.479,1.355c0.216,0.624,0.468,1.607,0.552,2.195c0.024,0.132,0.192,0.132,0.216-0.012c0.084-0.576,0.336-1.559,0.552-2.183
		l0.468-1.343c0.036-0.096,0.096-0.132,0.18-0.132h1.644c0.12,0,0.168,0.072,0.12,0.18L26.577,67.02z"/>
	<path fill="#659490" d="M34.425,64.513c-0.42,0.096-0.828,0.132-1.14,0.132c-1.967,0-3.034-1.188-3.034-3.07
		c0-1.896,1.091-3.083,2.975-3.083c1.499,0,2.422,0.792,2.422,2.027c0,0.959-0.671,1.511-2.051,1.703l-1.403,0.204
		c0.229,0.42,0.528,0.6,1.092,0.6c0.252,0,0.6-0.048,0.768-0.084l0.72-0.156c0.096-0.024,0.156,0.012,0.18,0.108l0.336,1.248
		c0.024,0.108-0.024,0.168-0.12,0.192L34.425,64.513z M33.321,61.011c0.372-0.036,0.552-0.204,0.552-0.468
		c0-0.288-0.24-0.432-0.72-0.432c-0.516,0-1.044,0.335-1.079,1.091L33.321,61.011z"/>
	<path fill="#659490" d="M38.086,58.984c0.12,0.18,0.191,0.168,0.372,0.012c0.479-0.408,1.031-0.503,1.391-0.503
		c1.415,0,2.279,0.815,2.279,2.219v3.646c0,0.096-0.061,0.156-0.156,0.156h-1.595c-0.097,0-0.156-0.06-0.156-0.156v-3.406
		c0-0.492-0.252-0.768-0.672-0.768c-0.575,0-0.899,0.42-0.899,1.224v2.95c0,0.096-0.06,0.156-0.155,0.156h-1.596
		c-0.096,0-0.156-0.06-0.156-0.156V58.78c0-0.096,0.061-0.156,0.156-0.156h0.852c0.084,0,0.144,0.036,0.18,0.108L38.086,58.984z"/>
	<path fill="#659490" d="M46.988,60.567c0.096,0,0.156,0.06,0.156,0.156v1.343c0,0.096-0.061,0.156-0.156,0.156h-3.299
		c-0.096,0-0.155-0.06-0.155-0.156v-1.343c0-0.096,0.06-0.156,0.155-0.156H46.988z"/>
	<path fill="#659490" d="M49.941,58.984c0.12,0.18,0.191,0.168,0.372,0.012c0.479-0.408,1.031-0.503,1.391-0.503
		c1.415,0,2.279,0.815,2.279,2.219v3.646c0,0.096-0.061,0.156-0.156,0.156h-1.595c-0.097,0-0.156-0.06-0.156-0.156v-3.406
		c0-0.492-0.252-0.768-0.672-0.768c-0.575,0-0.899,0.42-0.899,1.224v2.95c0,0.096-0.06,0.156-0.155,0.156h-1.596
		c-0.096,0-0.156-0.06-0.156-0.156V58.78c0-0.096,0.061-0.156,0.156-0.156h0.852c0.084,0,0.144,0.036,0.18,0.108L49.941,58.984z"/>
	<path fill="#659490" d="M59.18,64.513c-0.42,0.096-0.828,0.132-1.14,0.132c-1.967,0-3.034-1.188-3.034-3.07
		c0-1.896,1.091-3.083,2.975-3.083c1.499,0,2.422,0.792,2.422,2.027c0,0.959-0.671,1.511-2.051,1.703l-1.403,0.204
		c0.229,0.42,0.528,0.6,1.092,0.6c0.252,0,0.6-0.048,0.768-0.084l0.72-0.156c0.096-0.024,0.156,0.012,0.18,0.108l0.336,1.248
		c0.024,0.108-0.024,0.168-0.12,0.192L59.18,64.513z M58.076,61.011c0.372-0.036,0.552-0.204,0.552-0.468
		c0-0.288-0.24-0.432-0.72-0.432c-0.516,0-1.044,0.335-1.079,1.091L58.076,61.011z"/>
</g>
<g>
	<circle fill="#40918D" cx="30.61" cy="25.44" r="24.699"/>
	<g>
		<defs>
			<rect id="SVGID_43_" x="17.686" y="12.032" width="26.11" height="26.816"/>
		</defs>
		<clipPath id="SVGID_44_">
			<use xlink:href="#SVGID_43_"  overflow="visible"/>
		</clipPath>
		<g clip-path="url(#SVGID_44_)">
			<defs>
				<rect id="SVGID_45_" x="17.686" y="12.032" width="26.082" height="26.732"/>
			</defs>
			<clipPath id="SVGID_46_">
				<use xlink:href="#SVGID_45_"  overflow="visible"/>
			</clipPath>
			<path clip-path="url(#SVGID_46_)" fill="#FFFFFF" d="M43.275,32.48c-0.783-1.224-3.416-1.986-6.021-3.074
				c-2.606-1.088-3.224-1.465-3.224-1.465l-0.023-2.504c0,0,0.977-0.752,1.278-3.108c0.611,0.177,1.251-0.913,1.286-1.487
				c0.033-0.552-0.084-2.087-0.828-1.933c0.15-1.155,0.26-2.194,0.207-2.744c-0.194-2.012-2.17-4.133-5.211-4.133
				c-3.038,0-5.016,2.122-5.209,4.133c-0.055,0.55,0.057,1.589,0.207,2.744c-0.743-0.154-0.861,1.38-0.827,1.933
				c0.034,0.575,0.675,1.665,1.284,1.487c0.305,2.356,1.28,3.108,1.28,3.108l-0.025,2.504c0,0-0.616,0.376-3.222,1.465
				c-2.605,1.087-5.237,1.85-6.021,3.074c-0.703,1.096-0.492,6.367-0.492,6.367h26.051C43.766,38.848,43.979,33.576,43.275,32.48"/>
		</g>
	</g>
</g>
<g>
	<path fill="#C75039" d="M15.014,147.027c0.096,0,0.155,0.06,0.155,0.155v1.38c0,0.096-0.06,0.155-0.155,0.155h-2.938v1.835h3.922
		c0.096,0,0.155,0.061,0.155,0.156v1.379c0,0.097-0.06,0.156-0.155,0.156h-5.709c-0.096,0-0.156-0.06-0.156-0.156v-8.191
		c0-0.096,0.061-0.155,0.156-0.155h5.769c0.108,0,0.156,0.071,0.132,0.18l-0.384,1.392c-0.023,0.084-0.084,0.132-0.168,0.132h-3.562
		v1.583H15.014z M15.277,141.126c0.144,0,0.18,0.097,0.084,0.192l-1.344,1.427c-0.048,0.061-0.107,0.084-0.191,0.084h-1.499
		c-0.132,0-0.168-0.084-0.108-0.191l0.779-1.403c0.036-0.072,0.097-0.108,0.181-0.108H15.277z"/>
	<path fill="#C75039" d="M19.274,150.469c0,0.133,0.048,0.229,0.156,0.229c0.023,0,0.048,0,0.072,0c0.096-0.024,0.167,0,0.203,0.084
		l0.492,1.247c0.036,0.096,0.012,0.168-0.072,0.204c-0.216,0.096-0.479,0.144-0.695,0.144c-1.283,0-2.063-0.707-2.063-1.907v-6.8
		c0-0.096,0.061-0.156,0.156-0.156h1.596c0.096,0,0.155,0.061,0.155,0.156V150.469z"/>
	<path fill="#C75039" d="M24.985,151.885c-0.12-0.18-0.192-0.168-0.372-0.013c-0.479,0.408-1.031,0.504-1.391,0.504
		c-1.416,0-2.279-0.815-2.279-2.219v-3.646c0-0.097,0.06-0.156,0.156-0.156h1.595c0.096,0,0.156,0.06,0.156,0.156v3.406
		c0,0.491,0.252,0.768,0.672,0.768c0.575,0,0.899-0.42,0.899-1.224v-2.95c0-0.097,0.06-0.156,0.155-0.156h1.596
		c0.096,0,0.155,0.06,0.155,0.156v5.576c0,0.097-0.06,0.156-0.155,0.156h-0.852c-0.084,0-0.145-0.036-0.181-0.107L24.985,151.885z"
		/>
	<path fill="#C75039" d="M31.249,148.299c0.096,0,0.155,0.06,0.155,0.155v1.344c0,0.096-0.06,0.155-0.155,0.155h-3.298
		c-0.097,0-0.156-0.06-0.156-0.155v-1.344c0-0.096,0.06-0.155,0.156-0.155H31.249z"/>
	<path fill="#C75039" d="M36.793,152.244c-0.42,0.096-0.828,0.132-1.14,0.132c-1.967,0-3.034-1.188-3.034-3.07
		c0-1.895,1.091-3.082,2.975-3.082c1.499,0,2.422,0.792,2.422,2.026c0,0.96-0.671,1.512-2.051,1.703l-1.403,0.204
		c0.229,0.42,0.528,0.6,1.092,0.6c0.252,0,0.6-0.048,0.768-0.084l0.72-0.155c0.096-0.024,0.156,0.012,0.18,0.107l0.336,1.247
		c0.024,0.108-0.024,0.168-0.12,0.192L36.793,152.244z M35.689,148.742c0.372-0.036,0.552-0.204,0.552-0.468
		c0-0.288-0.24-0.432-0.72-0.432c-0.516,0-1.044,0.336-1.079,1.091L35.689,148.742z"/>
	<path fill="#C75039" d="M45.445,152.244c-0.42,0.096-0.828,0.132-1.14,0.132c-1.967,0-3.034-1.188-3.034-3.07
		c0-1.895,1.091-3.082,2.975-3.082c1.499,0,2.422,0.792,2.422,2.026c0,0.96-0.671,1.512-2.051,1.703l-1.403,0.204
		c0.229,0.42,0.528,0.6,1.092,0.6c0.252,0,0.6-0.048,0.768-0.084l0.72-0.155c0.096-0.024,0.156,0.012,0.18,0.107l0.336,1.247
		c0.024,0.108-0.024,0.168-0.12,0.192L45.445,152.244z M44.342,148.742c0.372-0.036,0.552-0.204,0.552-0.468
		c0-0.288-0.24-0.432-0.72-0.432c-0.516,0-1.044,0.336-1.079,1.091L44.342,148.742z"/>
	<path fill="#C75039" d="M51.493,146.355c0.096,0,0.156,0.06,0.156,0.156v1.355c0,0.096-0.061,0.155-0.156,0.155h-1.355v2.183
		c0,0.312,0.12,0.492,0.312,0.492c0.108,0,0.204-0.012,0.301-0.048c0.096-0.036,0.167-0.024,0.216,0.071l0.563,1.151
		c0.036,0.084,0.023,0.168-0.048,0.216c-0.288,0.192-0.672,0.288-1.032,0.288c-1.391,0-2.206-0.804-2.206-2.171v-2.183h-0.624
		c-0.096,0-0.156-0.06-0.156-0.155v-1.355c0-0.097,0.061-0.156,0.156-0.156h0.624v-1.308c0-0.084,0.036-0.144,0.132-0.18
		l1.583-0.527c0.107-0.036,0.18,0.012,0.18,0.132v1.883H51.493z"/>
	<path fill="#C75039" d="M5.494,157.706c0.444-0.119,0.864-0.191,1.319-0.191c1.823,0,2.891,0.863,2.891,2.327v3.537
		c0,0.097-0.06,0.156-0.156,0.156H8.648c-0.096,0-0.144-0.036-0.191-0.107l-0.108-0.217c-0.071-0.144-0.18-0.167-0.384,0
		c-0.312,0.276-0.791,0.456-1.295,0.456c-1.428,0-2.279-0.707-2.279-1.919c0-1.115,0.888-1.774,2.375-1.774h1.128v-0.024
		c-0.049-0.516-0.492-0.815-1.176-0.815c-0.24,0-0.516,0.048-0.779,0.12l-0.456,0.132c-0.096,0.023-0.156-0.013-0.191-0.108
		l-0.372-1.247c-0.036-0.108,0-0.168,0.107-0.192L5.494,157.706z M6.766,161.16c-0.348,0-0.6,0.192-0.6,0.456
		c0,0.336,0.252,0.528,0.684,0.528c0.624,0,0.972-0.301,1.044-0.96v-0.024H6.766z"/>
	<path fill="#C75039" d="M12.322,158.006c0.12,0.181,0.191,0.168,0.372,0.013c0.479-0.408,1.031-0.504,1.391-0.504
		c1.415,0,2.279,0.815,2.279,2.219v3.646c0,0.097-0.061,0.156-0.156,0.156h-1.595c-0.097,0-0.156-0.06-0.156-0.156v-3.405
		c0-0.492-0.252-0.768-0.672-0.768c-0.575,0-0.899,0.419-0.899,1.223v2.95c0,0.097-0.06,0.156-0.155,0.156h-1.596
		c-0.096,0-0.156-0.06-0.156-0.156v-5.576c0-0.097,0.061-0.156,0.156-0.156h0.852c0.084,0,0.144,0.036,0.18,0.108L12.322,158.006z"
		/>
	<path fill="#C75039" d="M21.416,163.547c-0.336,0.097-0.707,0.12-1.031,0.12c-1.919,0-2.998-1.188-2.998-3.082
		c0-1.883,1.067-3.07,3.034-3.07c0.264,0,0.611,0.024,0.96,0.12l0.659,0.18c0.108,0.036,0.144,0.096,0.108,0.204l-0.385,1.319
		c-0.035,0.096-0.096,0.132-0.191,0.107l-0.479-0.132c-0.24-0.072-0.504-0.107-0.672-0.107c-0.815,0-1.176,0.516-1.176,1.367
		c0,0.888,0.384,1.415,1.164,1.415c0.191,0,0.491-0.048,0.731-0.12l0.479-0.12c0.096-0.023,0.156,0.012,0.192,0.108l0.396,1.307
		c0.036,0.108,0,0.168-0.108,0.192L21.416,163.547z"/>
	<path fill="#C75039" d="M25.772,163.379c0,0.097-0.06,0.156-0.155,0.156h-1.584c-0.096,0-0.155-0.06-0.155-0.156v-4.065h-0.624
		c-0.096,0-0.156-0.06-0.156-0.155v-1.355c0-0.097,0.061-0.156,0.156-0.156h2.363c0.096,0,0.155,0.06,0.155,0.156V163.379z
		 M25.736,155.775c0,0.684-0.384,1.104-1.067,1.104c-0.671,0-1.067-0.42-1.067-1.104c0-0.695,0.396-1.091,1.067-1.091
		C25.353,154.685,25.736,155.08,25.736,155.775z"/>
	<path fill="#C75039" d="M31.04,163.535c-0.42,0.096-0.828,0.132-1.14,0.132c-1.967,0-3.034-1.188-3.034-3.07
		c0-1.895,1.091-3.082,2.975-3.082c1.499,0,2.422,0.792,2.422,2.026c0,0.96-0.671,1.512-2.051,1.703l-1.403,0.204
		c0.229,0.42,0.528,0.6,1.092,0.6c0.252,0,0.6-0.048,0.768-0.084l0.72-0.155c0.096-0.024,0.156,0.012,0.18,0.107l0.336,1.247
		c0.024,0.108-0.024,0.168-0.12,0.192L31.04,163.535z M29.937,160.033c0.372-0.036,0.552-0.204,0.552-0.468
		c0-0.288-0.24-0.432-0.72-0.432c-0.516,0-1.044,0.336-1.079,1.091L29.937,160.033z"/>
	<path fill="#C75039" d="M34.701,158.006c0.12,0.181,0.191,0.168,0.372,0.013c0.479-0.408,1.031-0.504,1.391-0.504
		c1.415,0,2.279,0.815,2.279,2.219v3.646c0,0.097-0.061,0.156-0.156,0.156h-1.595c-0.097,0-0.156-0.06-0.156-0.156v-3.405
		c0-0.492-0.252-0.768-0.672-0.768c-0.575,0-0.899,0.419-0.899,1.223v2.95c0,0.097-0.06,0.156-0.155,0.156h-1.596
		c-0.096,0-0.156-0.06-0.156-0.156v-5.576c0-0.097,0.061-0.156,0.156-0.156h0.852c0.084,0,0.144,0.036,0.18,0.108L34.701,158.006z"
		/>
	<path fill="#C75039" d="M43.604,159.59c0.096,0,0.156,0.06,0.156,0.155v1.344c0,0.096-0.061,0.155-0.156,0.155h-3.299
		c-0.096,0-0.155-0.06-0.155-0.155v-1.344c0-0.096,0.06-0.155,0.155-0.155H43.604z"/>
	<path fill="#C75039" d="M46.557,158.006c0.12,0.181,0.191,0.168,0.372,0.013c0.479-0.408,1.031-0.504,1.391-0.504
		c1.415,0,2.279,0.815,2.279,2.219v3.646c0,0.097-0.061,0.156-0.156,0.156h-1.595c-0.097,0-0.156-0.06-0.156-0.156v-3.405
		c0-0.492-0.252-0.768-0.672-0.768c-0.575,0-0.899,0.419-0.899,1.223v2.95c0,0.097-0.06,0.156-0.155,0.156h-1.596
		c-0.096,0-0.156-0.06-0.156-0.156v-5.576c0-0.097,0.061-0.156,0.156-0.156h0.852c0.084,0,0.144,0.036,0.18,0.108L46.557,158.006z"
		/>
	<path fill="#C75039" d="M55.795,163.535c-0.42,0.096-0.828,0.132-1.14,0.132c-1.967,0-3.034-1.188-3.034-3.07
		c0-1.895,1.091-3.082,2.975-3.082c1.499,0,2.422,0.792,2.422,2.026c0,0.96-0.671,1.512-2.051,1.703l-1.403,0.204
		c0.229,0.42,0.528,0.6,1.092,0.6c0.252,0,0.6-0.048,0.768-0.084l0.72-0.155c0.096-0.024,0.156,0.012,0.18,0.107l0.336,1.247
		c0.024,0.108-0.024,0.168-0.12,0.192L55.795,163.535z M54.691,160.033c0.372-0.036,0.552-0.204,0.552-0.468
		c0-0.288-0.24-0.432-0.72-0.432c-0.516,0-1.044,0.336-1.079,1.091L54.691,160.033z"/>
	<path fill="#C75039" d="M21.338,174.826c-0.42,0.096-0.828,0.132-1.14,0.132c-1.967,0-3.034-1.188-3.034-3.07
		c0-1.895,1.091-3.082,2.975-3.082c1.499,0,2.422,0.792,2.422,2.026c0,0.96-0.671,1.512-2.051,1.703l-1.403,0.204
		c0.229,0.42,0.528,0.6,1.092,0.6c0.252,0,0.6-0.048,0.768-0.084l0.72-0.155c0.096-0.024,0.156,0.012,0.18,0.107l0.336,1.247
		c0.024,0.108-0.024,0.168-0.12,0.192L21.338,174.826z M20.234,171.324c0.372-0.036,0.552-0.204,0.552-0.468
		c0-0.288-0.24-0.432-0.72-0.432c-0.516,0-1.044,0.336-1.079,1.091L20.234,171.324z M21.733,166.095
		c0.132,0,0.168,0.084,0.108,0.192l-1.176,1.763c-0.048,0.061-0.108,0.097-0.192,0.097H19.19c-0.107,0-0.168-0.072-0.119-0.181
		l0.719-1.751c0.036-0.084,0.084-0.12,0.181-0.12H21.733z"/>
	<path fill="#C75039" d="M25.562,173.051c0,0.133,0.048,0.229,0.156,0.229c0.023,0,0.048,0,0.072,0c0.096-0.024,0.167,0,0.203,0.084
		l0.492,1.247c0.036,0.096,0.012,0.168-0.072,0.204c-0.216,0.096-0.479,0.144-0.695,0.144c-1.283,0-2.063-0.707-2.063-1.907v-6.8
		c0-0.096,0.061-0.156,0.156-0.156h1.596c0.096,0,0.155,0.061,0.155,0.156V173.051z"/>
	<path fill="#C75039" d="M31.273,174.467c-0.12-0.18-0.192-0.168-0.372-0.013c-0.479,0.408-1.031,0.504-1.392,0.504
		c-1.415,0-2.278-0.815-2.278-2.219v-3.646c0-0.097,0.06-0.156,0.156-0.156h1.595c0.096,0,0.156,0.06,0.156,0.156v3.406
		c0,0.491,0.252,0.768,0.672,0.768c0.575,0,0.899-0.42,0.899-1.224v-2.95c0-0.097,0.06-0.156,0.155-0.156h1.596
		c0.096,0,0.155,0.06,0.155,0.156v5.576c0,0.097-0.06,0.156-0.155,0.156h-0.852c-0.084,0-0.145-0.036-0.18-0.107L31.273,174.467z"/>
	<path fill="#C75039" d="M37.537,170.881c0.096,0,0.156,0.06,0.156,0.155v1.344c0,0.096-0.061,0.155-0.156,0.155h-3.299
		c-0.096,0-0.155-0.06-0.155-0.155v-1.344c0-0.096,0.06-0.155,0.155-0.155H37.537z"/>
	<path fill="#C75039" d="M43.081,174.826c-0.42,0.096-0.828,0.132-1.14,0.132c-1.967,0-3.034-1.188-3.034-3.07
		c0-1.895,1.091-3.082,2.975-3.082c1.499,0,2.422,0.792,2.422,2.026c0,0.96-0.671,1.512-2.051,1.703l-1.403,0.204
		c0.229,0.42,0.528,0.6,1.092,0.6c0.252,0,0.6-0.048,0.768-0.084l0.72-0.155c0.096-0.024,0.156,0.012,0.18,0.107l0.336,1.247
		c0.024,0.108-0.024,0.168-0.12,0.192L43.081,174.826z M41.978,171.324c0.372-0.036,0.552-0.204,0.552-0.468
		c0-0.288-0.24-0.432-0.72-0.432c-0.516,0-1.044,0.336-1.079,1.091L41.978,171.324z"/>
</g>
<g>
	<circle fill="#C75039" cx="30.61" cy="110.619" r="24.699"/>
	<g>
		<defs>
			<rect id="SVGID_47_" x="17.686" y="97.212" width="26.111" height="26.815"/>
		</defs>
		<clipPath id="SVGID_48_">
			<use xlink:href="#SVGID_47_"  overflow="visible"/>
		</clipPath>
		<g clip-path="url(#SVGID_48_)">
			<defs>
				<rect id="SVGID_49_" x="17.59" y="97.166" width="26.109" height="26.816"/>
			</defs>
			<clipPath id="SVGID_50_">
				<use xlink:href="#SVGID_49_"  overflow="visible"/>
			</clipPath>
			<g clip-path="url(#SVGID_50_)">
				<defs>
					<rect id="SVGID_51_" x="17.686" y="97.301" width="26.014" height="26.682"/>
				</defs>
				<clipPath id="SVGID_52_">
					<use xlink:href="#SVGID_51_"  overflow="visible"/>
				</clipPath>
				<path clip-path="url(#SVGID_52_)" fill="#FFFFFF" d="M18.506,117.161c-0.161,0.144-0.295,0.296-0.396,0.454
					c-0.703,1.096-0.492,6.367-0.492,6.367h7.812L18.506,117.161z"/>
				<path clip-path="url(#SVGID_52_)" fill="#FFFFFF" d="M20.793,115.877l8.225,8.105h5.967l-9.964-9.818
					c-0.269,0.117-0.562,0.24-0.892,0.378C22.965,115.028,21.801,115.451,20.793,115.877"/>
				<path clip-path="url(#SVGID_52_)" fill="#FFFFFF" d="M43.178,117.615c-0.783-1.225-3.417-1.986-6.021-3.073
					c-2.604-1.089-3.223-1.465-3.223-1.465l-0.023-2.505c0,0,0.975-0.753,1.278-3.107c0.61,0.176,1.249-0.914,1.286-1.487
					c0.034-0.554-0.086-2.089-0.829-1.933c0.151-1.157,0.263-2.195,0.208-2.746c-0.193-2.011-2.17-4.133-5.211-4.133
					c-3.038,0-5.015,2.122-5.21,4.133c-0.054,0.551,0.058,1.589,0.208,2.745c-0.742-0.155-0.861,1.38-0.83,1.934
					c0.037,0.573,0.676,1.663,1.287,1.487c0.305,2.354,1.279,3.107,1.279,3.107l-0.021,2.354l11.218,11.056h5.097
					C43.67,123.982,43.881,118.711,43.178,117.615"/>
			</g>
		</g>
	</g>
</g>
<g>
	<g opacity="0.5">
		<polygon fill="#80AFAC" points="128.5,61.5 99.5,61.5 99.5,105.5 104.5,105.5 104.5,107.946 106.895,105.5 128.5,105.5 		"/>
	</g>
	<g>
		<rect x="104.344" y="87.765" fill="#40918D" width="18.857" height="1"/>
	</g>
	<g>
		<rect x="104.344" y="99.266" fill="#40918D" width="18.857" height="1"/>
	</g>
	<g>
		<rect x="104.344" y="90.64" fill="#40918D" width="17.404" height="1"/>
	</g>
	<g>
		<rect x="104.344" y="93.515" fill="#40918D" width="17.96" height="1"/>
	</g>
	<g>
		<rect x="104.344" y="96.39" fill="#40918D" width="12.947" height="1"/>
	</g>
	<rect x="99.5" y="61.5" fill="#659490" width="29" height="22"/>
	<g>
		<rect x="104.344" y="69.038" fill="#FFFFFF" width="19.523" height="2"/>
	</g>
	<g>
		<rect x="104.344" y="73.075" fill="#FFFFFF" width="15.641" height="2"/>
	</g>
	<g>
		<rect x="104.344" y="77.113" fill="#FFFFFF" width="18.156" height="2"/>
	</g>
	<g>
		<rect x="104.344" y="65.031" fill="#FFFFFF" width="2.274" height="1.137"/>
	</g>
</g>
<g>
	<g opacity="0.5">
		<polygon fill="#80AFAC" points="306.5,93.5 277.5,93.5 277.5,137.5 282.5,137.5 282.5,139.946 284.895,137.5 306.5,137.5 		"/>
	</g>
	<g>
		<rect x="282.344" y="119.766" fill="#40918D" width="18.857" height="1"/>
	</g>
	<g>
		<rect x="282.344" y="131.266" fill="#40918D" width="18.857" height="1"/>
	</g>
	<g>
		<rect x="282.344" y="122.64" fill="#40918D" width="17.404" height="1"/>
	</g>
	<g>
		<rect x="282.344" y="125.515" fill="#40918D" width="17.96" height="1"/>
	</g>
	<g>
		<rect x="282.344" y="128.39" fill="#40918D" width="12.947" height="1"/>
	</g>
	<rect x="277.5" y="93.5" fill="#659490" width="29" height="22"/>
	<g>
		<rect x="282.344" y="101.037" fill="#FFFFFF" width="19.523" height="2"/>
	</g>
	<g>
		<rect x="282.344" y="105.075" fill="#FFFFFF" width="15.641" height="2"/>
	</g>
	<g>
		<rect x="282.344" y="109.113" fill="#FFFFFF" width="18.156" height="2"/>
	</g>
	<g>
		<rect x="282.344" y="97.031" fill="#FFFFFF" width="2.274" height="1.137"/>
	</g>
</g>
<g>
	<g opacity="0.3">
		<polygon fill="#C75039" points="215.5,0.5 186.5,0.5 186.5,44.5 191.5,44.5 191.5,46.946 193.895,44.5 215.5,44.5 		"/>
	</g>
	<g>
		<rect x="191.344" y="26.765" fill="#C75039" width="18.857" height="1"/>
	</g>
	<g>
		<rect x="191.344" y="38.265" fill="#C75039" width="18.857" height="1"/>
	</g>
	<g>
		<rect x="191.344" y="29.64" fill="#C75039" width="17.404" height="1"/>
	</g>
	<g>
		<rect x="191.344" y="32.515" fill="#C75039" width="17.96" height="1"/>
	</g>
	<g>
		<rect x="191.344" y="35.39" fill="#C75039" width="12.947" height="1"/>
	</g>
	<rect x="186.5" y="0.5" fill="#C75039" width="29" height="22"/>
	<g>
		<rect x="191.344" y="8.038" fill="#FFFFFF" width="19.523" height="2"/>
	</g>
	<g>
		<rect x="191.344" y="12.075" fill="#FFFFFF" width="15.641" height="2"/>
	</g>
	<g>
		<rect x="191.344" y="16.113" fill="#FFFFFF" width="18.156" height="2"/>
	</g>
	<g>
		<rect x="191.344" y="4.031" fill="#FFFFFF" width="2.274" height="1.137"/>
	</g>
</g>
<g>
	<g opacity="0.3">
		<polygon fill="#C75039" points="306.5,30.5 277.5,30.5 277.5,74.5 282.5,74.5 282.5,76.946 284.797,74.5 306.5,74.5 		"/>
	</g>
	<g>
		<rect x="282.247" y="56.765" fill="#C75039" width="18.857" height="1"/>
	</g>
	<g>
		<rect x="282.247" y="68.265" fill="#C75039" width="18.857" height="1"/>
	</g>
	<g>
		<rect x="282.247" y="59.64" fill="#C75039" width="17.403" height="1"/>
	</g>
	<g>
		<rect x="282.247" y="62.515" fill="#C75039" width="17.96" height="1"/>
	</g>
	<g>
		<rect x="282.247" y="65.39" fill="#C75039" width="12.947" height="1"/>
	</g>
	<rect x="277.5" y="30.5" fill="#C75039" width="29" height="22"/>
	<g>
		<rect x="282.247" y="38.038" fill="#FFFFFF" width="19.524" height="2"/>
	</g>
	<g>
		<rect x="282.247" y="42.075" fill="#FFFFFF" width="15.641" height="2"/>
	</g>
	<g>
		<rect x="282.247" y="46.113" fill="#FFFFFF" width="18.155" height="2"/>
	</g>
	<g>
		<rect x="282.247" y="34.031" fill="#FFFFFF" width="2.274" height="1.137"/>
	</g>
</g>
<g>
	<g>
		<path fill="#659490" d="M393.439,135.103c-0.111-0.179-0.476-0.29-0.837-0.452c-0.362-0.158-0.445-0.217-0.445-0.217l-0.002-0.367
			c0,0,0.135-0.111,0.175-0.459c0.085,0.027,0.175-0.137,0.176-0.219c0.008-0.082-0.01-0.307-0.109-0.285
			c0.019-0.17,0.029-0.322,0.025-0.406c-0.025-0.295-0.298-0.609-0.722-0.609c-0.425,0-0.694,0.314-0.724,0.609
			c-0.007,0.084,0.008,0.236,0.029,0.406c-0.103-0.021-0.117,0.203-0.115,0.285c0.003,0.082,0.094,0.246,0.177,0.219
			c0.043,0.348,0.18,0.459,0.18,0.459l-0.005,0.367c0,0-0.087,0.059-0.445,0.217c-0.363,0.162-0.728,0.273-0.839,0.452
			c-0.095,0.165-0.066,0.94-0.066,0.94h3.616C393.508,136.043,393.536,135.268,393.439,135.103"/>
	</g>
</g>
<g>
	<rect x="389.566" y="122.235" fill="#659490" width="18.395" height="8.142"/>
</g>
<g>
	<defs>
		<rect id="SVGID_53_" x="394.019" y="127.832" width="4.394" height="4.744"/>
	</defs>
	<clipPath id="SVGID_54_">
		<use xlink:href="#SVGID_53_"  overflow="visible"/>
	</clipPath>
	<polygon clip-path="url(#SVGID_54_)" fill="#659490" points="394.348,128.161 394.348,132.248 398.085,128.51 	"/>
</g>
<g>
	<rect x="391.706" y="124.539" fill="#FFFFFF" width="12.941" height="1.164"/>
</g>
<g>
	<rect x="391.706" y="126.91" fill="#FFFFFF" width="14.116" height="1.162"/>
</g>
<g>
	<defs>
		<rect id="SVGID_55_" x="382.653" y="134.519" width="4.737" height="0.928"/>
	</defs>
	<use xlink:href="#SVGID_55_"  overflow="visible" fill="#808182"/>
	<clipPath id="SVGID_56_">
		<use xlink:href="#SVGID_55_"  overflow="visible"/>
	</clipPath>
	<line clip-path="url(#SVGID_56_)" fill="#808182" x1="382.885" y1="134.982" x2="387.158" y2="134.982"/>
</g>
<g>
	<g>
		<path fill="#659490" d="M393.439,116.103c-0.111-0.18-0.476-0.29-0.837-0.452c-0.362-0.159-0.445-0.217-0.445-0.217l-0.002-0.367
			c0,0,0.135-0.111,0.175-0.46c0.085,0.028,0.175-0.137,0.176-0.219c0.008-0.081-0.01-0.306-0.109-0.284
			c0.019-0.17,0.029-0.322,0.025-0.406c-0.025-0.295-0.298-0.609-0.722-0.609c-0.425,0-0.694,0.314-0.724,0.609
			c-0.007,0.084,0.008,0.236,0.029,0.406c-0.103-0.021-0.117,0.203-0.115,0.284c0.003,0.082,0.094,0.247,0.177,0.219
			c0.043,0.349,0.18,0.46,0.18,0.46l-0.005,0.367c0,0-0.087,0.058-0.445,0.217c-0.363,0.162-0.728,0.272-0.839,0.452
			c-0.095,0.165-0.066,0.94-0.066,0.94h3.616C393.508,117.043,393.536,116.268,393.439,116.103"/>
	</g>
</g>
<g>
	<rect x="389.566" y="103.235" fill="#659490" width="18.395" height="8.142"/>
</g>
<g>
	<defs>
		<rect id="SVGID_57_" x="394.019" y="108.832" width="4.394" height="4.744"/>
	</defs>
	<clipPath id="SVGID_58_">
		<use xlink:href="#SVGID_57_"  overflow="visible"/>
	</clipPath>
	<polygon clip-path="url(#SVGID_58_)" fill="#659490" points="394.348,109.161 394.348,113.248 398.085,109.51 	"/>
</g>
<g>
	<rect x="391.706" y="105.539" fill="#FFFFFF" width="12.941" height="1.164"/>
</g>
<g>
	<rect x="391.706" y="107.91" fill="#FFFFFF" width="14.116" height="1.162"/>
</g>
<g>
	<defs>
		<rect id="SVGID_59_" x="382.653" y="115.519" width="4.737" height="0.928"/>
	</defs>
	<use xlink:href="#SVGID_59_"  overflow="visible" fill="#808182"/>
	<clipPath id="SVGID_60_">
		<use xlink:href="#SVGID_59_"  overflow="visible"/>
	</clipPath>
	<line clip-path="url(#SVGID_60_)" fill="#808182" x1="382.885" y1="115.982" x2="387.158" y2="115.982"/>
</g>
<g>
	<g opacity="0.3">
		<polygon fill="#C75039" points="380.5,93.5 351.5,93.5 351.5,137.5 356.5,137.5 356.5,139.946 358.798,137.5 380.5,137.5 		"/>
	</g>
	<g>
		<rect x="356.247" y="119.766" fill="#C75039" width="18.857" height="1"/>
	</g>
	<g>
		<rect x="356.247" y="131.266" fill="#C75039" width="18.857" height="1"/>
	</g>
	<g>
		<rect x="356.247" y="122.64" fill="#C75039" width="17.404" height="1"/>
	</g>
	<g>
		<rect x="356.247" y="125.515" fill="#C75039" width="17.96" height="1"/>
	</g>
	<g>
		<rect x="356.247" y="128.39" fill="#C75039" width="12.947" height="1"/>
	</g>
	<rect x="351.5" y="93.5" fill="#C75039" width="29" height="22"/>
	<g>
		<rect x="356.247" y="101.037" fill="#FFFFFF" width="19.523" height="2"/>
	</g>
	<g>
		<rect x="356.247" y="105.075" fill="#FFFFFF" width="15.641" height="2"/>
	</g>
	<g>
		<rect x="356.247" y="109.113" fill="#FFFFFF" width="18.156" height="2"/>
	</g>
	<g>
		<rect x="356.247" y="97.031" fill="#FFFFFF" width="2.274" height="1.137"/>
	</g>
</g>
<g>
	<defs>
		<rect id="SVGID_61_" x="191.916" y="106.103" width="3.092" height="3.337"/>
	</defs>
	<clipPath id="SVGID_62_">
		<use xlink:href="#SVGID_61_"  overflow="visible"/>
	</clipPath>
	<polygon clip-path="url(#SVGID_62_)" fill="#FFFFFF" points="192.148,106.334 192.148,109.209 194.776,106.58 	"/>
</g>
<g>
	<g opacity="0.3">
		<polygon fill="#C75039" points="215.5,61.5 186.5,61.5 186.5,105.5 191.5,105.5 191.5,107.946 193.895,105.5 215.5,105.5 		"/>
	</g>
	<g>
		<rect x="191.344" y="87.765" fill="#C75039" width="18.857" height="1"/>
	</g>
	<g>
		<rect x="191.344" y="99.266" fill="#C75039" width="18.857" height="1"/>
	</g>
	<g>
		<rect x="191.344" y="90.64" fill="#C75039" width="17.404" height="1"/>
	</g>
	<g>
		<rect x="191.344" y="93.515" fill="#C75039" width="17.96" height="1"/>
	</g>
	<g>
		<rect x="191.344" y="96.39" fill="#C75039" width="12.947" height="1"/>
	</g>
	<rect x="186.5" y="61.5" fill="#C75039" width="29" height="22"/>
	<g>
		<rect x="191.344" y="69.038" fill="#FFFFFF" width="19.523" height="2"/>
	</g>
	<g>
		<rect x="191.344" y="73.075" fill="#FFFFFF" width="15.641" height="2"/>
	</g>
	<g>
		<rect x="191.344" y="77.113" fill="#FFFFFF" width="18.156" height="2"/>
	</g>
	<g>
		<rect x="191.344" y="65.031" fill="#FFFFFF" width="2.274" height="1.137"/>
	</g>
</g>
<g>
	<g opacity="0.3">
		<polygon fill="#C75039" points="215.5,123.5 186.5,123.5 186.5,167.5 191.5,167.5 191.5,169.946 193.895,167.5 215.5,167.5 		"/>
	</g>
	<g>
		<rect x="191.344" y="149.766" fill="#C75039" width="18.857" height="1"/>
	</g>
	<g>
		<rect x="191.344" y="161.266" fill="#C75039" width="18.857" height="1"/>
	</g>
	<g>
		<rect x="191.344" y="152.64" fill="#C75039" width="17.404" height="1"/>
	</g>
	<g>
		<rect x="191.344" y="155.515" fill="#C75039" width="17.96" height="1"/>
	</g>
	<g>
		<rect x="191.344" y="158.39" fill="#C75039" width="12.947" height="1"/>
	</g>
	<rect x="186.5" y="123.5" fill="#C75039" width="29" height="22"/>
	<g>
		<rect x="191.344" y="131.037" fill="#FFFFFF" width="19.523" height="2"/>
	</g>
	<g>
		<rect x="191.344" y="135.075" fill="#FFFFFF" width="15.641" height="2"/>
	</g>
	<g>
		<rect x="191.344" y="139.113" fill="#FFFFFF" width="18.156" height="2"/>
	</g>
	<g>
		<rect x="191.344" y="127.031" fill="#FFFFFF" width="2.274" height="1.137"/>
	</g>
</g>
</svg>
