<?xml version="1.0" encoding="utf-8"?>
<!-- Generator: Adobe Illustrator 16.0.0, SVG Export Plug-In . SVG Version: 6.00 Build 0)  -->
<!DOCTYPE svg PUBLIC "-//W3C//DTD SVG 1.1//EN" "http://www.w3.org/Graphics/SVG/1.1/DTD/svg11.dtd">
<svg version="1.1" id="Layer_1" xmlns="http://www.w3.org/2000/svg" xmlns:xlink="http://www.w3.org/1999/xlink" x="0px" y="0px"
	 width="133.684px" height="71.579px" viewBox="0 0 133.684 71.579" enable-background="new 0 0 133.684 71.579"
	 xml:space="preserve">
<g>
	<path opacity="0.3" fill="#678238" d="M67.873,38.781c-1.879-0.206-3.58,1.144-3.779,3.032c-0.203,1.877,1.15,3.57,3.027,3.766
		c0.135,0.018,0.256,0.021,0.379,0.021c1.736,0,3.209-1.299,3.398-3.045C71.097,40.665,69.748,38.98,67.873,38.781z"/>
	<path opacity="0.3" fill="#678238" d="M65.244,23.592c-0.248-1.871-1.969-3.188-3.846-2.942c-1.863,0.249-3.186,1.972-2.925,3.843
		c0.222,1.725,1.686,2.972,3.385,2.972c0.144,0,0.288-0.006,0.456-0.028C64.181,27.186,65.5,25.469,65.244,23.592z"/>
	<path opacity="0.3" fill="#678238" d="M64.027,14.307c0.011,1.889,1.541,3.415,3.42,3.415c0,0,0.01,0,0.023,0
		c1.885-0.005,3.402-1.549,3.396-3.438c0-1.887-1.547-3.413-3.434-3.406C65.544,10.881,64.013,12.418,64.027,14.307z"/>
	<path opacity="0.3" fill="#678238" d="M4.265,63.461c-1.898,0-3.43,1.533-3.43,3.424c0,1.889,1.531,3.42,3.43,3.42
		c1.887,0,3.421-1.531,3.421-3.42C7.686,64.995,6.155,63.461,4.265,63.461z"/>
	<path opacity="0.3" fill="#678238" d="M5.686,53.118c-1.855-0.314-3.621,0.946-3.936,2.801c-0.312,1.866,0.952,3.633,2.804,3.945
		c0.193,0.033,0.382,0.057,0.57,0.057c1.646,0,3.097-1.191,3.375-2.861C8.814,55.194,7.55,53.427,5.686,53.118z"/>
	<circle opacity="0.3" fill="#678238" cx="41.721" cy="66.884" r="3.423"/>
	<path opacity="0.3" fill="#678238" d="M45.275,53.624c-1.721-0.779-3.742,0-4.524,1.721c-0.77,1.725,0.011,3.746,1.731,4.52
		c0.457,0.207,0.93,0.307,1.397,0.307c1.308,0,2.56-0.758,3.129-2.031C47.779,56.424,46.996,54.395,45.275,53.624z"/>
	<path opacity="0.3" fill="#678238" d="M47.711,45.823c-1.409,1.264-1.531,3.426-0.269,4.835c0.682,0.749,1.609,1.134,2.551,1.134
		c0.815,0,1.627-0.291,2.276-0.868c1.407-1.265,1.532-3.431,0.27-4.837C51.274,44.682,49.121,44.567,47.711,45.823z"/>
	<path opacity="0.3" fill="#678238" d="M57.58,39.954c-1.801,0.574-2.795,2.502-2.214,4.305c0.457,1.447,1.811,2.377,3.252,2.377
		c0.346,0,0.702-0.051,1.051-0.162c1.799-0.583,2.792-2.502,2.212-4.303C61.301,40.37,59.376,39.377,57.58,39.954z"/>
	<path opacity="0.3" fill="#678238" d="M32.355,63.461c-1.898,0-3.416,1.533-3.416,3.424c0,1.889,1.518,3.42,3.416,3.42
		c1.892,0,3.423-1.531,3.423-3.42C35.778,64.995,34.247,63.461,32.355,63.461z"/>
	<path opacity="0.3" fill="#678238" d="M34.951,53.338c-1.799-0.57-3.721,0.434-4.289,2.239c-0.56,1.808,0.435,3.722,2.232,4.288
		c0.346,0.105,0.694,0.16,1.03,0.16c1.463,0,2.815-0.936,3.271-2.395l0,0C37.753,55.831,36.761,53.901,34.951,53.338z"/>
	<path opacity="0.3" fill="#678238" d="M36.571,50.077c0.593,0.419,1.284,0.613,1.956,0.613c1.084,0,2.135-0.502,2.805-1.451
		c1.084-1.547,0.705-3.682-0.838-4.766c-1.543-1.09-3.688-0.709-4.772,0.838C34.65,46.856,35.016,48.991,36.571,50.077z"/>
	<path opacity="0.3" fill="#678238" d="M45.722,43.176c0.728,0,1.465-0.229,2.088-0.717c1.489-1.152,1.779-3.3,0.618-4.793
		c-1.153-1.499-3.296-1.777-4.796-0.621c-1.498,1.146-1.777,3.297-0.624,4.793C43.677,42.711,44.695,43.176,45.722,43.176z"/>
	<path opacity="0.3" fill="#678238" d="M55.554,37.794c0.382,0,0.783-0.065,1.176-0.204c1.775-0.654,2.682-2.616,2.031-4.385
		c-0.647-1.782-2.615-2.693-4.381-2.039c-1.788,0.643-2.693,2.608-2.044,4.385C52.84,36.934,54.146,37.794,55.554,37.794z"/>
	<path opacity="0.3" fill="#678238" d="M22.982,63.461c-1.886,0-3.406,1.533-3.406,3.424c0,1.889,1.521,3.42,3.406,3.42
		c1.903,0,3.433-1.531,3.433-3.42C26.415,64.995,24.882,63.461,22.982,63.461z"/>
	<path opacity="0.3" fill="#678238" d="M25.038,53.214c-1.843-0.446-3.686,0.685-4.134,2.521c-0.444,1.832,0.682,3.688,2.514,4.131
		c0.269,0.065,0.538,0.101,0.816,0.101c1.531,0,2.939-1.052,3.318-2.614C28,55.512,26.873,53.665,25.038,53.214z"/>
	<path opacity="0.3" fill="#678238" d="M30.928,48.366c0.871-1.676,0.224-3.744-1.454-4.611c-1.673-0.877-3.741-0.227-4.625,1.451
		c-0.861,1.674-0.211,3.742,1.465,4.617c0.502,0.264,1.04,0.387,1.575,0.387C29.119,50.209,30.313,49.538,30.928,48.366z"/>
	<path fill="#678238" d="M33.713,42.606c-0.421-0.004-0.841-0.069-1.246-0.193l0.588-1.912c0.22,0.068,0.448,0.104,0.677,0.105
		L33.713,42.606z M34.953,42.446l-0.532-1.928c0.223-0.062,0.436-0.154,0.631-0.275l1.053,1.701
		C35.747,42.165,35.36,42.333,34.953,42.446z M31.329,41.875c-0.162-0.107-0.318-0.228-0.468-0.358
		c-0.169-0.147-0.327-0.309-0.47-0.479l1.532-1.285c0.077,0.091,0.161,0.178,0.254,0.259c0.084,0.074,0.17,0.14,0.258,0.198
		L31.329,41.875z M37.104,41.098l-0.78-0.627l-0.738-0.675c0.158-0.184,0.285-0.38,0.382-0.59l1.815,0.84
		C37.608,40.426,37.38,40.78,37.104,41.098z M29.728,39.97c-0.169-0.385-0.283-0.792-0.337-1.209l1.983-0.26
		c0.03,0.229,0.092,0.453,0.185,0.664L29.728,39.97z M38.145,38.846l-1.978-0.301c0.019-0.12,0.027-0.242,0.027-0.363
		c0-0.108-0.007-0.218-0.022-0.325l1.982-0.267c0.026,0.197,0.04,0.394,0.04,0.592C38.195,38.405,38.178,38.626,38.145,38.846z
		 M31.38,37.81l-1.977-0.303c0.064-0.417,0.187-0.822,0.365-1.203l1.812,0.848C31.483,37.359,31.416,37.581,31.38,37.81z
		 M35.985,37.197c-0.094-0.209-0.217-0.404-0.367-0.579l1.518-1.303c0.275,0.321,0.502,0.678,0.675,1.063L35.985,37.197z
		 M31.958,36.578l-1.499-1.324c0.28-0.317,0.604-0.591,0.961-0.815l1.061,1.695C32.286,36.255,32.11,36.404,31.958,36.578z
		 M35.099,36.161c-0.193-0.126-0.403-0.225-0.623-0.291l0.578-1.915c0.403,0.122,0.787,0.301,1.14,0.533L35.099,36.161z
		 M33.109,35.856l-0.54-1.926c0.389-0.109,0.792-0.165,1.199-0.165l0.035,2l-0.077-0.001C33.544,35.766,33.323,35.796,33.109,35.856
		z"/>
	<path opacity="0.3" fill="#678238" d="M44.314,29.251c-1.084-1.545-3.217-1.92-4.76-0.831c-1.555,1.091-1.922,3.219-0.839,4.768
		c0.672,0.95,1.731,1.451,2.805,1.451c0.683,0,1.365-0.194,1.968-0.619C45.03,32.929,45.408,30.799,44.314,29.251z"/>
	<path opacity="0.3" fill="#678238" d="M51.935,29.471c1.768-0.683,2.627-2.67,1.945-4.437c-0.693-1.759-2.682-2.62-4.438-1.939
		c-1.766,0.692-2.637,2.675-1.943,4.435c0.537,1.352,1.832,2.18,3.184,2.18C51.107,29.711,51.534,29.638,51.935,29.471z"/>
	<path opacity="0.3" fill="#678238" d="M76.398,24.262c0.199-1.883-1.162-3.568-3.053-3.761c-1.877-0.2-3.553,1.165-3.756,3.047
		c-0.201,1.872,1.164,3.557,3.039,3.761c0.133,0.011,0.248,0.015,0.371,0.015C74.718,27.323,76.208,26.017,76.398,24.262z"/>
	<path opacity="0.3" fill="#678238" d="M13.261,63.461c-1.889,0-3.417,1.533-3.417,3.424c0,1.889,1.528,3.42,3.417,3.42
		c1.9,0,3.43-1.531,3.43-3.42C16.691,64.995,15.162,63.461,13.261,63.461z"/>
	<path opacity="0.3" fill="#678238" d="M14.936,53.148c-1.854-0.358-3.653,0.843-4.021,2.7c0-0.008,0-0.008,0-0.008
		c-0.36,1.861,0.839,3.662,2.692,4.023c0.224,0.045,0.458,0.066,0.671,0.066c1.595,0,3.039-1.127,3.351-2.76
		C17.999,55.316,16.792,53.516,14.936,53.148z"/>
	<path opacity="0.3" fill="#678238" d="M18.592,43.37c-1.744-0.725-3.744,0.1-4.472,1.85c0.014,0,0.014,0,0.014,0
		c-0.727,1.75,0.102,3.744,1.844,4.469c0.436,0.18,0.881,0.263,1.307,0.263c1.353,0,2.623-0.794,3.175-2.114
		C21.169,46.091,20.345,44.086,18.592,43.37z"/>
	<path opacity="0.3" fill="#678238" d="M24.1,34.486c-1.563-1.054-3.7-0.63-4.738,0.944l0,0c-1.061,1.572-0.637,3.699,0.94,4.744
		c0.58,0.387,1.252,0.582,1.898,0.582c1.105,0,2.189-0.542,2.848-1.531C26.089,37.661,25.676,35.531,24.1,34.486z"/>
	<path opacity="0.3" fill="#678238" d="M26.39,31.688c0.672,0.666,1.543,0.994,2.415,0.994c0.884,0,1.756-0.328,2.425-1.009
		c1.341-1.33,1.328-3.503-0.011-4.833c-1.329-1.331-3.508-1.331-4.829,0.011C25.048,28.19,25.048,30.354,26.39,31.688z"/>
	<path opacity="0.3" fill="#678238" d="M34.009,24.537c0.661,0.977,1.744,1.509,2.84,1.509c0.659,0.007,1.328-0.184,1.911-0.577
		c1.563-1.056,1.987-3.19,0.928-4.754c-1.051-1.57-3.184-1.983-4.75-0.926C33.375,20.838,32.96,22.973,34.009,24.537z"/>
	<path opacity="0.3" fill="#678238" d="M42.873,19.002c0.549,1.306,1.811,2.104,3.15,2.104c0.447,0,0.884-0.081,1.331-0.274
		c1.732-0.724,2.558-2.725,1.83-4.471c-0.724-1.747-2.735-2.57-4.479-1.843C42.96,15.251,42.146,17.256,42.873,19.002z"/>
	<path opacity="0.3" fill="#678238" d="M52.638,15.307c0.336,1.614,1.755,2.743,3.355,2.743c0.223,0,0.445-0.021,0.68-0.073
		c1.845-0.368,3.052-2.173,2.682-4.028c-0.381-1.85-2.179-3.05-4.032-2.683C53.467,11.648,52.27,13.446,52.638,15.307z"/>
	<path opacity="0.3" fill="#678238" d="M6.589,49.616c0.37,0.137,0.751,0.193,1.129,0.193c1.409,0,2.728-0.884,3.218-2.297
		c0.626-1.783-0.312-3.737-2.101-4.354c-1.788-0.625-3.731,0.319-4.357,2.102C3.851,47.047,4.802,48.999,6.589,49.616z"/>
	<path opacity="0.3" fill="#678238" d="M10.31,39.857c0.518,0.284,1.084,0.421,1.645,0.421c1.207,0,2.377-0.641,3.002-1.77
		c0.916-1.657,0.305-3.736-1.35-4.652c-1.652-0.912-3.731-0.302-4.65,1.347C8.054,36.862,8.646,38.942,10.31,39.857z"/>
	<path opacity="0.3" fill="#678238" d="M15.621,30.853c0.625,0.495,1.375,0.74,2.123,0.74c1.004,0,2-0.447,2.681-1.295
		c1.175-1.475,0.928-3.637-0.562-4.804c-1.474-1.176-3.629-0.93-4.805,0.552C13.886,27.527,14.132,29.676,15.621,30.853z"/>
	<path opacity="0.3" fill="#678238" d="M24.882,23.995c0.815,0,1.641-0.29,2.291-0.877c1.406-1.269,1.518-3.431,0.256-4.839
		c-1.273-1.402-3.43-1.514-4.84-0.25c-1.396,1.269-1.518,3.431-0.244,4.838C23.016,23.607,23.956,23.995,24.882,23.995z"/>
	<path opacity="0.3" fill="#678238" d="M33.195,17.68c0.625,0,1.262-0.171,1.821-0.535c1.608-1.012,2.068-3.129,1.063-4.721
		c-1.018-1.595-3.127-2.068-4.726-1.057c-1.598,1.021-2.067,3.133-1.052,4.726C30.951,17.124,32.068,17.68,33.195,17.68z"/>
	<path opacity="0.3" fill="#678238" d="M42.428,12.842c0.444,0,0.892-0.09,1.328-0.267c1.742-0.728,2.558-2.739,1.823-4.483
		c-0.73-1.734-2.739-2.556-4.482-1.819c-1.743,0.727-2.56,2.735-1.823,4.481C39.823,12.06,41.086,12.842,42.428,12.842z"/>
	<path opacity="0.3" fill="#678238" d="M52.337,9.626c0.256,0,0.525-0.031,0.783-0.09c1.84-0.432,2.981-2.269,2.557-4.108
		c-0.425-1.849-2.27-2.988-4.111-2.558c-1.844,0.425-2.983,2.273-2.548,4.112C49.375,8.563,50.785,9.626,52.337,9.626z"/>
	<path opacity="0.3" fill="#678238" d="M62.664,8.111c0.076,0,0.146,0,0.213,0c1.885-0.123,3.317-1.749,3.206-3.631
		c-0.123-1.889-1.742-3.317-3.63-3.201c-1.891,0.112-3.32,1.737-3.196,3.625C59.366,6.712,60.875,8.111,62.664,8.111z"/>
	<path opacity="0.3" fill="#678238" d="M77.187,40.307c-1.797-0.568-3.73,0.422-4.301,2.221c-0.58,1.805,0.416,3.721,2.215,4.307
		c0.346,0.105,0.703,0.158,1.051,0.158c1.441,0,2.781-0.926,3.25-2.377C79.982,42.819,78.988,40.883,77.187,40.307z"/>
	<path opacity="0.3" fill="#678238" d="M67.726,29.279c-1.889-0.084-3.487,1.38-3.58,3.269c-0.075,1.896,1.388,3.486,3.279,3.571
		c0.045,0,0.098,0,0.154,0c1.811,0,3.332-1.431,3.408-3.262C71.076,30.962,69.603,29.37,67.726,29.279z"/>
	<path opacity="0.3" fill="#678238" d="M129.417,63.461c-1.887,0-3.418,1.533-3.418,3.424c0,1.889,1.531,3.42,3.418,3.42
		c1.9,0,3.432-1.531,3.432-3.42C132.849,64.995,131.318,63.461,129.417,63.461z"/>
	<path opacity="0.3" fill="#678238" d="M128.554,59.92c0.193,0,0.385-0.023,0.574-0.057c1.854-0.311,3.119-2.079,2.805-3.945
		c-0.314-1.854-2.078-3.117-3.934-2.801c-1.867,0.31-3.129,2.074-2.814,3.941C125.46,58.731,126.916,59.92,128.554,59.92z"/>
	<path opacity="0.3" fill="#678238" d="M71.537,8.111c0.066,0,0.135,0,0.211,0c1.789,0,3.297-1.397,3.398-3.207
		c0.121-1.887-1.309-3.513-3.195-3.625c-1.893-0.116-3.512,1.312-3.621,3.201C68.205,6.361,69.636,7.987,71.537,8.111z"/>
	<circle opacity="0.3" fill="#678238" cx="91.964" cy="66.884" r="3.423"/>
	<path opacity="0.3" fill="#678238" d="M91.203,59.864c1.723-0.771,2.502-2.793,1.73-4.52c-0.781-1.721-2.805-2.501-4.525-1.721
		c-1.719,0.77-2.504,2.799-1.73,4.516c0.57,1.271,1.818,2.031,3.129,2.031C90.275,60.17,90.744,60.073,91.203,59.864z"/>
	<path opacity="0.3" fill="#678238" d="M85.972,45.823c-1.41-1.258-3.564-1.141-4.826,0.264c-1.264,1.406-1.141,3.572,0.268,4.837
		c0.645,0.577,1.463,0.868,2.277,0.868c0.938,0,1.867-0.385,2.549-1.134C87.503,49.249,87.38,47.086,85.972,45.823z"/>
	<path opacity="0.3" fill="#678238" d="M101.324,63.461c-1.889,0-3.42,1.533-3.42,3.424c0,1.889,1.531,3.42,3.42,3.42
		c1.902,0,3.424-1.531,3.424-3.42C104.748,64.995,103.226,63.461,101.324,63.461z"/>
	<path opacity="0.3" fill="#678238" d="M100.789,59.864c1.801-0.565,2.797-2.48,2.238-4.287c-0.572-1.805-2.494-2.809-4.297-2.24
		c-1.809,0.564-2.801,2.494-2.242,4.293l0,0c0.459,1.459,1.809,2.395,3.273,2.395C100.097,60.026,100.443,59.971,100.789,59.864z"/>
	<path opacity="0.3" fill="#678238" d="M95.156,50.69c0.674,0,1.365-0.195,1.955-0.613c1.557-1.086,1.924-3.221,0.85-4.766
		c-1.084-1.547-3.227-1.928-4.77-0.838c-1.541,1.085-1.92,3.219-0.838,4.766C93.023,50.188,94.076,50.69,95.156,50.69z"/>
	<path opacity="0.3" fill="#678238" d="M85.873,42.459c0.627,0.488,1.363,0.717,2.088,0.717c1.027,0,2.045-0.466,2.717-1.338
		c1.152-1.496,0.871-3.648-0.623-4.793c-1.5-1.156-3.646-0.876-4.797,0.621C84.093,39.16,84.386,41.309,85.873,42.459z"/>
	<path opacity="0.3" fill="#678238" d="M79.66,31.164c-1.77-0.654-3.734,0.256-4.385,2.038c-0.646,1.771,0.26,3.73,2.049,4.386
		c0.381,0.137,0.783,0.203,1.172,0.203c1.395,0,2.707-0.861,3.209-2.245C82.351,33.773,81.447,31.807,79.66,31.164z"/>
	<path opacity="0.3" fill="#678238" d="M110.701,63.461c-1.898,0-3.43,1.533-3.43,3.424c0,1.889,1.531,3.42,3.43,3.42
		c1.879,0,3.406-1.531,3.406-3.42C114.111,64.995,112.58,63.461,110.701,63.461z"/>
	<path opacity="0.3" fill="#678238" d="M110.265,59.864c1.832-0.441,2.961-2.297,2.514-4.129c-0.447-1.837-2.291-2.967-4.133-2.521
		c-1.832,0.45-2.963,2.297-2.514,4.135c0.377,1.562,1.789,2.615,3.32,2.615C109.73,59.966,109.996,59.93,110.265,59.864z"/>
	<path opacity="0.3" fill="#678238" d="M108.833,45.206c-0.881-1.678-2.949-2.329-4.625-1.451c-1.678,0.867-2.324,2.936-1.451,4.611
		c0.613,1.172,1.811,1.844,3.039,1.844c0.535,0,1.066-0.123,1.572-0.387C109.044,48.948,109.695,46.879,108.833,45.206z"/>
	<path opacity="0.3" fill="#678238" d="M102.164,40.762c1.422-1.246,1.566-3.414,0.324-4.833c-1.24-1.419-3.408-1.56-4.826-0.32
		c-1.418,1.247-1.564,3.402-0.324,4.833c0.682,0.771,1.619,1.162,2.582,1.162C100.712,41.606,101.517,41.331,102.164,40.762z"/>
	<path opacity="0.3" fill="#678238" d="M94.966,33.186c1.086-1.547,0.715-3.676-0.838-4.768c-1.543-1.088-3.678-0.713-4.76,0.831
		c-1.094,1.549-0.713,3.68,0.826,4.768c0.607,0.425,1.287,0.62,1.967,0.62C93.238,34.638,94.296,34.136,94.966,33.186z"/>
	<path opacity="0.3" fill="#678238" d="M86.185,27.531c0.691-1.759-0.176-3.742-1.945-4.434c-1.754-0.682-3.74,0.179-4.436,1.938
		c-0.684,1.768,0.178,3.754,1.943,4.438c0.404,0.167,0.83,0.24,1.254,0.24C84.353,29.711,85.65,28.882,86.185,27.531z"/>
	<path opacity="0.3" fill="#678238" d="M120.421,63.461c-1.898,0-3.428,1.533-3.428,3.424c0,1.889,1.529,3.42,3.428,3.42
		c1.889,0,3.416-1.531,3.416-3.42C123.837,64.995,122.31,63.461,120.421,63.461z"/>
	<path opacity="0.3" fill="#678238" d="M119.404,59.93c0.213,0,0.451-0.021,0.672-0.066c1.854-0.363,3.049-2.164,2.682-4.023
		c0,0,0,0,0,0.008c-0.359-1.857-2.156-3.059-4.014-2.7c-1.854,0.368-3.062,2.168-2.689,4.022
		C116.369,58.803,117.806,59.93,119.404,59.93z"/>
	<path opacity="0.3" fill="#678238" d="M117.708,49.688c1.742-0.725,2.566-2.721,1.842-4.469c0,0,0,0,0.012,0
		c-0.725-1.75-2.729-2.574-4.469-1.85c-1.756,0.717-2.584,2.723-1.867,4.467c0.549,1.322,1.822,2.115,3.174,2.115
		C116.824,49.952,117.269,49.868,117.708,49.688z"/>
	<path opacity="0.3" fill="#678238" d="M109.585,34.486c-1.576,1.044-1.992,3.174-0.953,4.739c0.66,0.988,1.748,1.531,2.852,1.531
		c0.645,0,1.318-0.195,1.9-0.582c1.572-1.043,1.996-3.172,0.936-4.744l0,0C113.283,33.856,111.146,33.433,109.585,34.486z"/>
	<path opacity="0.3" fill="#678238" d="M102.455,31.672c0.67,0.681,1.541,1.009,2.426,1.009c0.873,0,1.74-0.328,2.412-0.994
		c1.34-1.334,1.34-3.497,0-4.838c-1.318-1.341-3.5-1.341-4.828-0.011C101.125,28.169,101.111,30.342,102.455,31.672z"/>
	<path opacity="0.3" fill="#678238" d="M93.996,20.715c-1.062,1.563-0.637,3.698,0.926,4.754c0.584,0.393,1.256,0.583,1.912,0.577
		c1.096,0,2.18-0.532,2.84-1.509c1.049-1.564,0.633-3.7-0.928-4.75C97.181,18.732,95.044,19.146,93.996,20.715z"/>
	<path opacity="0.3" fill="#678238" d="M86.33,20.831c0.436,0.193,0.879,0.274,1.33,0.274c1.342,0,2.602-0.798,3.15-2.104
		c0.727-1.744-0.088-3.75-1.832-4.482c-1.742-0.728-3.756,0.094-4.482,1.843C83.771,18.106,84.599,20.107,86.33,20.831z"/>
	<path opacity="0.3" fill="#678238" d="M77.013,17.978c0.232,0.052,0.455,0.073,0.678,0.073c1.598,0,3.014-1.129,3.35-2.742
		c0.371-1.86-0.824-3.659-2.678-4.041c-1.857-0.367-3.654,0.834-4.033,2.684C73.96,15.803,75.167,17.608,77.013,17.978z"/>
	<path opacity="0.3" fill="#678238" d="M122.748,47.512c0.492,1.412,1.811,2.295,3.217,2.295c0.381,0,0.758-0.057,1.129-0.192
		c1.791-0.618,2.738-2.567,2.111-4.356c-0.625-1.78-2.568-2.727-4.355-2.102C123.058,43.774,122.121,45.729,122.748,47.512z"/>
	<path opacity="0.3" fill="#678238" d="M118.722,38.508c0.627,1.131,1.801,1.77,3.008,1.77c0.559,0,1.129-0.137,1.643-0.421
		c1.664-0.917,2.256-2.995,1.354-4.656c-0.92-1.646-2.996-2.257-4.648-1.346C118.421,34.772,117.806,36.852,118.722,38.508z"/>
	<path opacity="0.3" fill="#678238" d="M115.943,31.593c0.748,0,1.496-0.246,2.119-0.74c1.488-1.175,1.734-3.324,0.559-4.806
		c-1.17-1.482-3.328-1.727-4.803-0.552c-1.486,1.167-1.732,3.329-0.557,4.804C113.943,31.146,114.935,31.593,115.943,31.593z"/>
	<path opacity="0.3" fill="#678238" d="M106.509,23.118c0.65,0.587,1.479,0.877,2.293,0.877c0.928,0,1.865-0.386,2.535-1.127
		c1.273-1.406,1.15-3.569-0.248-4.837c-1.406-1.264-3.562-1.152-4.836,0.25C104.992,19.686,105.103,21.849,106.509,23.118z"/>
	<path opacity="0.3" fill="#678238" d="M98.667,17.145c0.559,0.364,1.191,0.535,1.82,0.535c1.127,0,2.246-0.557,2.893-1.586
		c1.018-1.593,0.549-3.705-1.049-4.726c-1.596-1.012-3.711-0.536-4.725,1.057C96.597,14.016,97.058,16.132,98.667,17.145z"/>
	<path opacity="0.3" fill="#678238" d="M89.929,12.576c0.434,0.177,0.881,0.267,1.328,0.267c1.34,0,2.605-0.782,3.15-2.088
		c0.738-1.744-0.078-3.754-1.822-4.481c-1.74-0.736-3.752,0.084-4.479,1.82C87.371,9.836,88.185,11.849,89.929,12.576z"/>
	<path opacity="0.3" fill="#678238" d="M80.562,9.536c0.258,0.059,0.527,0.09,0.783,0.09c1.553,0,2.961-1.062,3.318-2.643
		c0.436-1.84-0.703-3.688-2.547-4.112c-1.842-0.431-3.688,0.71-4.115,2.558C77.58,7.268,78.722,9.104,80.562,9.536z"/>
</g>
</svg>
