<?xml version="1.0" encoding="utf-8"?>
<!-- Generator: Adobe Illustrator 16.0.0, SVG Export Plug-In . SVG Version: 6.00 Build 0)  -->
<!DOCTYPE svg PUBLIC "-//W3C//DTD SVG 1.1//EN" "http://www.w3.org/Graphics/SVG/1.1/DTD/svg11.dtd">
<svg version="1.1" id="Layer_1" xmlns="http://www.w3.org/2000/svg" xmlns:xlink="http://www.w3.org/1999/xlink" x="0px" y="0px"
	 width="165.822px" height="187.342px" viewBox="0 0 165.822 187.342" enable-background="new 0 0 165.822 187.342"
	 xml:space="preserve">
<g>
	<polygon fill="#FFFFFF" points="158.597,174.261 160.247,170.572 159.091,162.556 157.823,160.793 157.988,157.519 
		157.466,154.683 156.587,154.351 155.843,154.983 155.843,154.985 155.843,154.985 155.978,160.382 153.336,159.969 
		152.234,161.456 148.928,162.776 148.681,163.659 147.801,163.739 147.112,164.622 146.999,165.696 145.595,167.238 
		145.595,167.294 145.622,168.147 145.834,168.069 145.819,168.147 146.549,167.846 147.751,169.14 146.18,170.296 146.522,172.002 
		148.953,173.351 148.158,173.849 147.25,176.437 147.251,176.437 147.251,176.437 149.48,175.664 149.757,177.428 148.929,179.603 
		151.876,180.183 150.36,181.2 150.354,181.306 150.307,182.138 151.764,183.488 155.236,184.562 155.62,185.416 156.558,185.802 
		158.374,181.231 158.372,181.231 158.374,181.228 157.36,181.146 158.156,180.543 158.815,178.864 158.815,178.861 158.815,178.86 
		158.597,176.271 158.568,176.188 158.597,174.29 	"/>
	<polygon fill="#FFFFFF" points="42.69,94.903 43.6,94.185 43.31,93.975 43.6,93.852 41.921,92.805 41.316,92.971 41.343,92.998 
		41.316,92.998 41.653,93.302 41.315,93.719 41.343,94.329 41.315,94.329 	"/>
	<polygon fill="#FFFFFF" points="32.969,79.533 32.969,79.532 32.969,79.532 32.915,78.568 31.979,77.99 31.677,77.026 
		31.097,77.742 31.098,77.743 31.097,77.743 	"/>
	<polygon fill="#FFFFFF" points="40.876,93.137 41.065,93.054 41.288,93.027 41.287,93.026 41.288,93.026 40.571,92.364 
		40.572,92.366 40.571,92.365 	"/>
	<polygon fill="#FFFFFF" points="42.004,97.597 43.985,101.038 44.399,100.048 44.095,97.763 42.526,96.743 	"/>
	<polygon fill="#FFFFFF" points="19.118,69.923 19.366,70.968 20.357,71.243 21.57,70.886 20.001,69.811 	"/>
	<path fill="#FFFFFF" d="M163.966,130.667l-3.664,1.324l-2.836-1.516l-1.928-0.384l-1.898-2.288l-0.053-0.054l0.572-1.515
		l-0.001-0.002l0,0l-1.208-1.676l0.689-0.58l0.411-1.814l0.003-0.002l0.026-0.055l0.028-0.027l0.577-0.66l1.103,0.027l-0.213-0.52
		l-0.974-2.373l-1.872-0.111l-1.598-1.019l-0.037-0.274l-0.237-1.763h-0.001v-0.001l-0.852-0.232l-0.562-1.484l5.827-2.498
		l0.606-1.131l-0.356-0.824l0.876-1.568l-2.288-1.599l-0.663-1.706l0.194-0.964l-1.706-0.688l-0.007-0.006l-0.902-0.82l-0.14-0.936
		l-0.239,0.163l-0.001-0.002l0.239-0.163v-0.055l0.056-0.057l2.559-2.478l0.277-0.965l-1.018-1.433l-2.425-2.285l0.572-1.524
		l0.142-0.373l-1.126-1.679l0.14-0.881h-0.001v-0.003l-1.043-0.193l-2.59,0.166l-1.544,1.294l-1.102-0.441l-0.853,1.79v0
		l-0.001,0.002l0.743,0.962l-2.176,1.651l-2.143,0.239l0.162-1.503l1.733-1.102l0.387-2.148l-1.073-0.633l-0.012,0.017l-0.002,0
		l0.011-0.015l-0.058-0.027l0.826-2.782l-0.003-0.003l0.001-0.004l0.005,0.005l0.273-0.964l3.608-3.332l-0.247-3.003l2.67-1.817
		l3.607-4.489l-0.055-0.878l0.716-0.634l-1.348-1.129l0.301-0.909l0.004-0.006l0.048-0.034l1.127-1.199h0.277v-0.135l0.985-0.122
		l-0.071,0.036l0.907,0.193l-0.249,0.911l2.37,0.025l0.828-0.302v-0.001l0.002,0l0.133-0.962l0.908-0.028v-0.002h0.002l0.058-0.963
		l0.055-0.05l0.633-0.583l-0.882-2.396l0.827-4.763l-0.604-3.196l0.025-0.081l0.001,0l1.818-4.213l0.438-4.848l3.248-4.24
		l1.213-3.277l-2.646-0.935l-4.488-0.165v0.007l-0.048-0.002l-0.007-0.003l-2.59-2.313l-0.03,0.02l-0.024-0.022l-1.923,1.293
		l-1.182-0.212l-0.954-0.172l-0.763,0.384l-0.687-1.207l-0.003-0.001l-0.001-0.001l-0.93-0.442l-0.885,0.496l-0.027,0.292
		l-0.058,0.59l-0.85-0.222l-2.475-2.808l-0.524-1.79l-0.91-0.661l-3.44-0.798l-1.351,1.073l-0.881,0.057l-0.022-0.007l-1.547-0.709
		v0l-1.102-0.938h-2.119l-0.388,0.882l-1.654,0.194l0.025,0.109h-0.001l-0.025-0.109l-0.08,0.027l-0.146-0.307l-0.78-1.923
		l-0.128,0.013l-0.02-0.041l-0.071,0.049l-0.003,0l0.074-0.052l-0.699,0.079v-0.958l-2.016-0.469l-2.14-1.816l-0.069,0.002
		l-0.005-0.004l-1.806,0.055l0.021-0.383l0.244-1.626l-0.881-1.79v-1.267l0.797-1.57l-0.824-0.495l-0.035,0.037l-0.055-0.037
		l-1.22,1.351l-0.503,1.982l-2.682,1.208l-1.676-0.522l-0.88,0.166l0,0l-0.005,0.001v0.001l-0.08,0.026l-0.104-0.031l-1.052-0.326
		l0.053-0.109v0.025l0.993-1.873l-0.938-1.651l0.633-1.986l-0.009,0.002v-0.001l-0.868,0.192l-1.238-1.54l-0.007,0.001l-0.001-0.001
		l-1.869,0.357l-1.707-0.414l0,0h-0.001l-0.658,0.607l-0.688-2.81l-1.682-0.386l-0.328-0.854l-0.912,0.69l-0.963-0.357l-0.963-2.618
		l0.135-0.907l-1.18-1.378l-1.817,0.166l-1.707,1.184l-0.002-0.001l-0.938-0.581l-0.879-1.768h-1.016L94.704,5.71l0.282-1.658
		l-0.012-0.027l0.011-0.058l-0.771-1.802l-0.884-0.501l-5.01,1.25l-4.242,1.354l-1.791,1.545l-0.026,5.563l0.001,0.001v0.001
		l0.743,0.878l0.165,0.195l-0.854-0.552l-0.191,1.848l0.136,1.156l0.689,0.521l-1.128,0.44v0.001l-0.001,0l-0.107,0.908l0.932,1.704
		l-0.875-0.437l-2.013,2.724l0,0l-0.001,0.002l0.028,0.027l-0.083,0.082l-3.361,2.342l-6.827,1.678l-4.382,2.399l-1.786,3.881
		l0.522,0.688h0l0,0.001l2.144,0.498l-2.01,0.629l-1.514,1.419l-2.972,0.876l-2.615-1.079l-3.854-0.4l-2.901-1.04l-0.025,0.012
		l-0.022-0.008l-1.504,0.674v-0.118h-0.149l-1.963-3.152l0.723-2.359l-0.008-0.022l0.008-0.025l-0.302-0.831l-2.01-0.18
		l-0.771,0.557l-2.038,0.14l-3.497-1.432l-0.054,0.883l0.99,0.551l0.165,1.515l-0.577,0.605v0.001l0,0l0.77,3.167l2.645,2.836
		l-0.415,3.113l0.521,0.729l0.087,0.122l-0.167,1.874l-0.688,1.762v0v0l1.296,2.89l0.799,0.388l0.771-0.497L44.425,46.9
		l-2.202,0.248l0,0.001h0l1.486,2.946l0.826,0.274v0l-0.017-0.004l-0.812-0.269l-1.486-2.946h-3.541l0.074-1.672l-0.007,0.001
		l0.004-0.091l-0.99,0.246l-1.237,1.186l0.007,0.015l-0.005,0.005l0.715,1.586l0.078,0.126l-0.708-0.576l-0.028-0.055l-0.004,0
		l-0.698-0.083l-0.282-0.743v-0.765h-0.424l-0.024,0.714l-1.24,0.175l-0.304-0.929l-0.965,0.458l-0.301-0.818l-1.128,0.113
		L27.903,48.8l-0.158-1.13l-1.149-0.797v-0.964l-1.521-2.451l-0.966-0.166l0.16-0.879l-0.031,0.003l0-0.003l-0.935,0.082
		l-0.512,0.917l0.404-2.018l-0.003,0.002l0-0.002l-1.455,0.989l-0.168-1.101l-2.755,1.131l-0.438-0.772l-1.407,1.157v0.001
		L16.969,42.8l-0.006,0.136l-0.073,1.509l-0.966-0.116h-0.054l-1.489-0.655l-0.88,0.319l-0.189,1.11l-0.694-0.795l-0.489,1.005
		l-0.03-1.994l-0.001,0v-0.006l-4.463,1.324l-0.109-0.186l-0.36-0.612L4.03,45.523l0.798,0.414l-2.587-0.248l-0.609,0.772
		L1.22,49.214l0.551,0.715l0.001,0v0L2.6,49.573l0.822,0.384L7.226,48.8l-1.158,0.55v0l-0.001,0l-0.166,1.047l1.847-0.441
		L7.61,50.866l0.905,0.386l-0.964,0.192l1.93,0.827l-1.847-0.44l-0.408-0.771L6.067,51.39l-1.791-0.359l-0.521-0.743l-0.47,1.129v0
		v0l0.745,1.597l0.549-0.827l0.854,0.055l1.679,0.991l0.276,0.992l-0.496,0.77l-0.769-0.413l-3.498,0.348L2.24,54.969L1.77,55.74
		l2.945,1.102l1.155,1.928l-0.356,1.679l0.161,0.014l1.958,0.179l0.01-0.013L7.8,60.642l1.13-1.268v-0.133l0.906,0.603l0.003-0.001
		l0,0l1.433-0.496l1.327,1.647l0.135,0.169h0l0.001,0.002l0.86-0.192v-0.804l0.131,0.802l0.001,0l0,0.002l0.794-0.276l-0.191,0.854
		l0.878,0.22l0.004-0.001l0.003,0l1.154-0.47l0.079-0.939l0.219,2.375l0.771,0.467l0.001,0l0.001,0l0.824-0.413l-0.137-1.802
		l0.19,0.921l0.908,0.193l-0.66,0.661l0.471,0.799l1.127,0.495l0.001,0l0.001,0l0.804-0.377l-0.725,0.377l0.083,0.88l0.633,0.854
		l-0.221,1.156l0.662,0.716l-0.002-0.004l0.004,0.004l-0.384-0.881l0.852-0.743l0.991-0.248l0.74,0.578l0-0.003l0.002,0.002
		l-0.382-1.807l0.958,1.479l0.002-0.003l0.001,0.001l0.466-0.769l1.129,0.166l0.662,0.771l-0.631,0.74l-1.928-0.248l0.003,0.003
		l-0.006-0.001l1.487,1.185l3.825-0.33l0.855,0.493l-0.935,0.056l0.001,0.001l-0.004,0l0.494,0.797l0.003-0.001l-1.373,1.322
		l0.717,1.927h0l0,0.001l1.871,0.303l0.632,0.634l0,0l0.001,0.001L33,71.961l2.226-0.193l-2.089,0.798l-0.195,2.038l-0.937,0.412
		l0.001,0l-0.001,0l1.82,0.661l1.484,1.543l-2.395,2.56l0.111,1.376l3.222,3.772l0.661,2.175l2.506,2.066l1.486,0.358l0.494,1.075
		l1.819,0.356l1.461,1.185v0l0.001,0l0.218-0.853l0.881,0.138l-1.406,2.972l0.91,0.303l1.265,2.452l-0.85,0.163l0,0.002h-0.001
		l0.494,1.652l-0.907,1.76l-1.488,1.021l0,0l-0.001,0.001l0.413,1.321l2.424,1.514l0.013,0.014l2.767,3.457l0.188,2.285v0.025
		l0.64,0.854l-0.313,0.727l-0.677-2.104l-3.333-3.275l-0.273-0.854l-0.018,0.035l-0.01-0.035l-0.895,1.791l-1.918,15.503
		l0.009-0.018l-0.002,0.017l1.234-2.422l1.376,1.599l0.086,0.881l-1.982-0.275l-0.991,2.146l0.025,1.458l-0.002,0.001l-3.411,15.479
		l-1.158,2.175h0l-0.001,0.001h0l-0.026,0.026l-1.431,1.928l-1.932,1.459l1.791,0.828l0.141,0.962l0.002-0.002v0.001l0.687-0.659
		l2.066,0.413l0.439,0.882l-0.579,1.844l-0.828,0.717l0.412,0.881l1.186,0.275l0,0h0.002l0.166-1.128l0.906-0.274l0.055,1.045
		l1.818,0.965l3.002,1.156l1.926-0.082l0.801,1.432l2.422,1.982l0.002-0.001l0,0l0.74-0.497l0.007,0.004l0.713,0.747l1.819-0.627
		h0.054l0.028-0.221l3.201,2.683l0.177-0.023l0.03,0.026l3.712-0.511l0.806,0.646l0.051-0.001l0.003,0.003l3.028-0.056v-0.001h0.003
		v0.001l1.953,0.112l0.689-0.661l-0.111-2.038l0.771-0.413l2.096,0.717l0-0.002l3.053,0.798l1.515,1.349h0.001l0.001,0.001
		l1.953-0.109l1.764,2.311l0,0l0.002,0.002l0.331-0.881l1.015-0.056l3.277,1.568l-0.578,1.485l0.004,0.001v0.001l2.695,0.827
		l0.741,1.732h0.003l0.001,0.002l0.991,0.056l1.378-1.211l0.964-0.055l2.944,0.659l1.061,1.127l0.307-0.031l0.041,0.033l1.953-0.165
		v-0.908l2.506-1.32l1.829-0.315l2.681,0.671l-0.021-0.026l0.108,0.028l-1.789-2.203l-0.139-5.452l0.139-3.028l1.763-3.306
		l0.026-0.026l0.794-0.545l1.683-0.955h2.092l2.041-2.541l3.385-2.594l2.176-0.751l1.092,1.78l1.167,0.594h0.081l0.392-0.734
		l4.017,0.125l0.633,0.746l-0.162,0.879l1.127,0.25l3.002-0.329l-0.001-0.001h0.001l-0.659-0.718l0.386-0.771l0.853,0.055
		l1.403,1.709l4.105-0.469l1.211,2.699l3.002,0.743l0.854-0.248l0.022,0.024v0.002l1.902,1.104l-0.084,0.879l0.002-0.001v0.001
		l2.754-0.797l1.815,0.496l0.355,0.881l0.001-0.004l0.002,0.004l0.633-1.734l2.282,0.385v-0.002h0.003l0.029-0.852l1.764-0.414
		l0.825-0.77l0.359,0.034l0.796,0.075l0.691-1.654l-1.102-0.521l1.926-2.506l1.651-0.221l0.635-1.102v0.001l0.717-1.266l1.788-0.854
		l0.305-1.268l4.484-2.451l0.141-2.23l1.929-2.67l0.604-1.35L163.966,130.667z M59.162,148.774l0.002-0.001v0.001H59.162
		L59.162,148.774z M66.648,32.526l-0.053,0.018V32.5L66.648,32.526z M113.62,22.212l0.001-0.001l0.059,0.016v0.001L113.62,22.212z
		 M9.516,58.218l-0.505,0.054l0.082-0.861L9.516,58.218z M9.001,58.275l-0.075,0.949l-0.246-0.895L9.001,58.275z"/>
</g>
<g>
	<g>
		<path fill="none" stroke="#D05039" stroke-linecap="round" stroke-linejoin="round" stroke-miterlimit="10" d="M150.981,44.902
			c0,2.608-4.722,11.02-4.722,11.02s-4.723-8.412-4.723-11.02s2.113-4.722,4.723-4.722
			C148.868,40.181,150.981,42.294,150.981,44.902z"/>
		
			<circle fill="none" stroke="#D05039" stroke-linecap="round" stroke-linejoin="round" stroke-miterlimit="10" cx="146.26" cy="44.902" r="1.574"/>
	</g>
	<g>
		<path fill="none" stroke="#D05039" stroke-linecap="round" stroke-linejoin="round" stroke-miterlimit="10" d="M110.315,25.236
			c0,2.608-4.722,11.018-4.722,11.018s-4.723-8.41-4.723-11.018s2.113-4.721,4.723-4.721
			C108.202,20.515,110.315,22.628,110.315,25.236z"/>
		
			<circle fill="none" stroke="#D05039" stroke-linecap="round" stroke-linejoin="round" stroke-miterlimit="10" cx="105.594" cy="25.236" r="1.574"/>
	</g>
	<g>
		<path fill="none" stroke="#D05039" stroke-linecap="round" stroke-linejoin="round" stroke-miterlimit="10" d="M89.648,36.902
			c0,2.608-4.722,11.019-4.722,11.019s-4.723-8.41-4.723-11.019c0-2.608,2.113-4.722,4.723-4.722
			C87.535,32.18,89.648,34.294,89.648,36.902z"/>
		
			<circle fill="none" stroke="#D05039" stroke-linecap="round" stroke-linejoin="round" stroke-miterlimit="10" cx="84.927" cy="36.902" r="1.574"/>
	</g>
	<g>
		<path fill="none" stroke="#D05039" stroke-linecap="round" stroke-linejoin="round" stroke-miterlimit="10" d="M99.982,44.902
			c0,2.608-4.721,11.019-4.721,11.019s-4.724-8.41-4.724-11.019c0-2.608,2.113-4.722,4.724-4.722
			C97.869,40.18,99.982,42.294,99.982,44.902z"/>
		
			<circle fill="none" stroke="#D05039" stroke-linecap="round" stroke-linejoin="round" stroke-miterlimit="10" cx="95.261" cy="44.902" r="1.574"/>
	</g>
	<g>
		<path fill="#FFFFFF" stroke="#D05039" stroke-linecap="round" stroke-linejoin="round" stroke-miterlimit="10" d="M22.316,37.088
			c0,2.608-4.72,11.019-4.72,11.019s-4.725-8.411-4.725-11.019s2.113-4.722,4.725-4.722C20.203,32.366,22.316,34.48,22.316,37.088z"
			/>
		
			<circle fill="#FFFFFF" stroke="#D05039" stroke-linecap="round" stroke-linejoin="round" stroke-miterlimit="10" cx="17.595" cy="37.088" r="1.574"/>
	</g>
	<g>
		<path fill="none" stroke="#D05039" stroke-linecap="round" stroke-linejoin="round" stroke-miterlimit="10" d="M60.316,56.088
			c0,2.608-4.72,11.019-4.72,11.019s-4.725-8.411-4.725-11.019s2.113-4.722,4.725-4.722C58.203,51.366,60.316,53.48,60.316,56.088z"
			/>
		
			<circle fill="none" stroke="#D05039" stroke-linecap="round" stroke-linejoin="round" stroke-miterlimit="10" cx="55.595" cy="56.088" r="1.574"/>
	</g>
	<g>
		<path fill="none" stroke="#D05039" stroke-linecap="round" stroke-linejoin="round" stroke-miterlimit="10" d="M72.65,62.662
			c0,2.608-4.72,11.019-4.72,11.019s-4.725-8.411-4.725-11.019c0-2.607,2.113-4.722,4.725-4.722
			C70.537,57.94,72.65,60.055,72.65,62.662z"/>
		
			<circle fill="none" stroke="#D05039" stroke-linecap="round" stroke-linejoin="round" stroke-miterlimit="10" cx="67.929" cy="62.662" r="1.574"/>
	</g>
	<g>
		<path fill="none" stroke="#D05039" stroke-linecap="round" stroke-linejoin="round" stroke-miterlimit="10" d="M126.315,61.902
			c0,2.608-4.722,11.019-4.722,11.019s-4.723-8.41-4.723-11.019c0-2.608,2.113-4.722,4.723-4.722
			C124.202,57.18,126.315,59.294,126.315,61.902z"/>
		
			<circle fill="none" stroke="#D05039" stroke-linecap="round" stroke-linejoin="round" stroke-miterlimit="10" cx="121.594" cy="61.902" r="1.574"/>
	</g>
	<g>
		<path fill="none" stroke="#D05039" stroke-linecap="round" stroke-linejoin="round" stroke-miterlimit="10" d="M115.559,76.996
			c0,2.608-4.722,11.019-4.722,11.019s-4.723-8.411-4.723-11.019s2.112-4.722,4.723-4.722
			C113.444,72.273,115.559,74.388,115.559,76.996z"/>
		
			<circle fill="none" stroke="#D05039" stroke-linecap="round" stroke-linejoin="round" stroke-miterlimit="10" cx="110.837" cy="76.996" r="1.574"/>
	</g>
	<g>
		<path fill="none" stroke="#D05039" stroke-linecap="round" stroke-linejoin="round" stroke-miterlimit="10" d="M130.892,93.329
			c0,2.607-4.722,11.02-4.722,11.02s-4.723-8.412-4.723-11.02c0-2.608,2.113-4.722,4.723-4.722
			C128.778,88.607,130.892,90.721,130.892,93.329z"/>
		
			<circle fill="none" stroke="#D05039" stroke-linecap="round" stroke-linejoin="round" stroke-miterlimit="10" cx="126.17" cy="93.329" r="1.574"/>
	</g>
	<g>
		<path fill="none" stroke="#D05039" stroke-linecap="round" stroke-linejoin="round" stroke-miterlimit="10" d="M108.559,136.663
			c0,2.607-4.722,11.018-4.722,11.018s-4.723-8.408-4.723-11.018s2.112-4.723,4.723-4.723
			C106.444,131.94,108.559,134.056,108.559,136.663z"/>
		
			<circle fill="none" stroke="#D05039" stroke-linecap="round" stroke-linejoin="round" stroke-miterlimit="10" cx="103.837" cy="136.663" r="1.574"/>
	</g>
	<g>
		<path fill="none" stroke="#D05039" stroke-linecap="round" stroke-linejoin="round" stroke-miterlimit="10" d="M145.983,109.422
			c0,2.606-4.721,11.019-4.721,11.019s-4.724-8.41-4.724-11.019s2.113-4.723,4.724-4.723
			C143.87,104.699,145.983,106.813,145.983,109.422z"/>
		
			<circle fill="none" stroke="#D05039" stroke-linecap="round" stroke-linejoin="round" stroke-miterlimit="10" cx="141.262" cy="109.422" r="1.574"/>
	</g>
	<g>
		<path fill="#FFFFFF" stroke="#D05039" stroke-linecap="round" stroke-linejoin="round" stroke-miterlimit="10" d="
			M154.316,158.755c0,2.607-4.72,11.02-4.72,11.02s-4.725-8.411-4.725-11.02c0-2.607,2.113-4.723,4.725-4.723
			C152.203,154.032,154.316,156.147,154.316,158.755z"/>
		
			<circle fill="#FFFFFF" stroke="#D05039" stroke-linecap="round" stroke-linejoin="round" stroke-miterlimit="10" cx="149.595" cy="158.755" r="1.574"/>
	</g>
</g>
</svg>
