<?xml version="1.0" encoding="utf-8"?>
<!-- Generator: Adobe Illustrator 16.0.0, SVG Export Plug-In . SVG Version: 6.00 Build 0)  -->
<!DOCTYPE svg PUBLIC "-//W3C//DTD SVG 1.1//EN" "http://www.w3.org/Graphics/SVG/1.1/DTD/svg11.dtd">
<svg version="1.1" id="Layer_1" xmlns="http://www.w3.org/2000/svg" xmlns:xlink="http://www.w3.org/1999/xlink" x="0px" y="0px"
	 width="14.303px" height="15.493px" viewBox="0 0 14.303 15.493" enable-background="new 0 0 14.303 15.493" xml:space="preserve">
<path fill="#FFFFFF" d="M13.982,12.075l-0.08-0.172c-0.241-0.568-3.196-1.437-3.44-1.451l-0.197,0.016
	c-0.404,0.082-0.847,0.465-1.779,1.289c-1.051-0.484-2.49-1.781-3.167-2.544C4.585,8.385,3.669,6.994,3.342,5.955
	c1.062-0.942,1.505-1.351,1.532-1.806c0.015-0.245-0.491-3.282-1.025-3.589L3.688,0.458C3.349,0.239,2.834-0.093,2.263,0.024
	c-0.14,0.029-0.272,0.083-0.398,0.162c-0.384,0.24-1.322,0.892-1.749,1.743c-0.265,0.529-0.384,5.366,3.24,9.454
	c3.581,4.04,7.998,4.217,8.661,4.08l0.019-0.003l0.059-0.018c0.896-0.321,1.655-1.175,1.94-1.526
	C14.561,13.264,14.185,12.491,13.982,12.075z"/>
</svg>
